G04 #@! TF.GenerationSoftware,KiCad,Pcbnew,9.0.2*
G04 #@! TF.CreationDate,2025-06-08T15:26:52+09:00*
G04 #@! TF.ProjectId,vdp_cartridge,7664705f-6361-4727-9472-696467652e6b,rev?*
G04 #@! TF.SameCoordinates,Original*
G04 #@! TF.FileFunction,Profile,NP*
%FSLAX46Y46*%
G04 Gerber Fmt 4.6, Leading zero omitted, Abs format (unit mm)*
G04 Created by KiCad (PCBNEW 9.0.2) date 2025-06-08 15:26:52*
%MOMM*%
%LPD*%
G01*
G04 APERTURE LIST*
G04 #@! TA.AperFunction,Profile*
%ADD10C,0.050000*%
G04 #@! TD*
G04 APERTURE END LIST*
D10*
X93985400Y-98461400D02*
X148392200Y-98461400D01*
X148392200Y-116876400D01*
X93985400Y-116876400D01*
X93985400Y-98461400D01*
X147805400Y-83401400D02*
G75*
G02*
X151454000Y-87050000I0J-3648600D01*
G01*
X151454000Y-136927000D02*
X151454000Y-87050000D01*
X56244000Y-87002800D02*
G75*
G02*
X59842604Y-83404200I3598600J0D01*
G01*
X56244000Y-87002800D02*
X56244000Y-136917000D01*
X147805400Y-83401400D02*
X59842604Y-83401400D01*
X56244000Y-136917000D02*
X56239655Y-140349400D01*
X56834400Y-140974377D02*
X61765400Y-140974377D01*
X62490413Y-153133387D02*
X62490413Y-141703387D01*
X73319000Y-153772000D02*
X63159000Y-153772000D01*
X73954000Y-165202000D02*
X73954000Y-154407000D01*
X138724000Y-165837000D02*
X74589000Y-165837000D01*
X139359001Y-154407000D02*
X139359000Y-165202000D01*
X150814535Y-153742969D02*
X140019535Y-153742970D01*
X151454000Y-136927000D02*
X151458970Y-153099400D01*
X56834400Y-140974377D02*
G75*
G02*
X56239655Y-140349400I31001J624978D01*
G01*
X61765400Y-140974377D02*
G75*
G02*
X62490412Y-141703387I-1J-725024D01*
G01*
X63158969Y-153775211D02*
G75*
G02*
X62490414Y-153133387I6431J675811D01*
G01*
X73319000Y-153772000D02*
G75*
G02*
X73954000Y-154407000I1J-634999D01*
G01*
X74589000Y-165837000D02*
G75*
G02*
X73954000Y-165202000I-1J634999D01*
G01*
X139359000Y-165202000D02*
G75*
G02*
X138724000Y-165837000I-635000J0D01*
G01*
X139359001Y-154407000D02*
G75*
G02*
X140019535Y-153742970I656399J7600D01*
G01*
X151458970Y-153099400D02*
G75*
G02*
X150814535Y-153742969I-643570J0D01*
G01*
M02*
