M48
; DRILL file {KiCad 9.0.2} date 2025-06-08T15:27:05+0900
; FORMAT={-:-/ absolute / metric / decimal}
; #@! TF.CreationDate,2025-06-08T15:27:05+09:00
; #@! TF.GenerationSoftware,Kicad,Pcbnew,9.0.2
; #@! TF.FileFunction,MixedPlating,1,2
FMAT,2
METRIC
; #@! TA.AperFunction,Plated,PTH,ViaDrill
T1C0.300
; #@! TA.AperFunction,Plated,PTH,ComponentDrill
T2C0.762
; #@! TA.AperFunction,Plated,PTH,ComponentDrill
T3C0.800
; #@! TA.AperFunction,Plated,PTH,ComponentDrill
T4C0.900
; #@! TA.AperFunction,NonPlated,NPTH,ComponentDrill
T5C3.200
; #@! TA.AperFunction,NonPlated,NPTH,ComponentDrill
T6C5.000
%
G90
G05
T1
X57.333Y-86.676
X57.867Y-121.525
X57.994Y-101.941
X57.994Y-139.432
X59.543Y-84.542
X64.115Y-152.386
X79.05Y-101.89
X79.05Y-121.499
X79.05Y-139.508
X80.041Y-151.217
X80.193Y-84.593
X84.943Y-93.356
X85.095Y-151.192
X85.773Y-94.006
X86.532Y-94.656
X87.356Y-95.49
X87.661Y-151.217
X88.194Y-96.277
X89.413Y-90.664
X90.048Y-141.946
X90.252Y-151.217
X92.004Y-96.277
X92.766Y-151.192
X92.893Y-95.49
X93.778Y-94.656
X93.833Y-134.961
X93.833Y-136.45
X94.595Y-93.991
X95.306Y-151.192
X95.332Y-93.381
X95.865Y-88.124
X97.77Y-151.192
X99.45Y-147.454
X100.056Y-127.113
X100.1Y-148.213
X100.742Y-151.217
X100.75Y-130.872
X101.4Y-130.11
X102.037Y-129.348
X102.063Y-151.217
X102.698Y-128.586
X103.333Y-127.849
X103.358Y-151.217
X103.993Y-126.478
X104.653Y-141.946
X104.679Y-125.716
X104.933Y-84.618
X108.057Y-151.192
X110.038Y-134.961
X110.038Y-136.45
X111.08Y-151.192
X112.654Y-127.849
X112.654Y-139.584
X115.779Y-151.192
X116.998Y-124.928
X117.379Y-120.001
X118.293Y-122.871
X119.411Y-151.192
X119.589Y-122.871
X120.503Y-123.684
X121.951Y-151.192
X122.129Y-141.946
X123.068Y-121.194
X123.602Y-84.618
X123.627Y-88.124
X123.627Y-88.987
X123.78Y-122.845
X124.5Y-151.2
X126.005Y-136.45
X126.015Y-134.906
X126.421Y-122.845
X126.65Y-135.876
X127.437Y-127.773
X128.098Y-135.876
X129.164Y-134.961
X129.596Y-151.217
X131.679Y-141.845
X131.679Y-143.826
X131.704Y-140.092
X131.704Y-146.01
X132.644Y-119.797
X137.673Y-119.797
X137.977Y-134.35
X138.258Y-153.452
X143.388Y-131.964
X148.164Y-118.172
X148.316Y-84.593
X148.849Y-129.576
X150.348Y-86.727
X150.399Y-152.538
T2
X97.04Y-97.53
X97.04Y-117.85
X99.58Y-97.53
X99.58Y-117.85
X102.12Y-97.53
X102.12Y-117.85
X104.66Y-97.53
X104.66Y-117.85
X107.2Y-97.53
X107.2Y-117.85
X109.74Y-97.53
X109.74Y-117.85
X112.28Y-97.53
X112.28Y-117.85
X114.82Y-97.53
X114.82Y-117.85
X117.36Y-97.53
X117.36Y-117.85
X119.9Y-97.53
X119.9Y-117.85
X122.44Y-97.53
X122.44Y-117.85
X124.98Y-97.53
X124.98Y-117.85
X127.52Y-97.53
X127.52Y-117.85
X130.06Y-97.53
X130.06Y-117.85
X132.6Y-97.53
X132.6Y-117.85
X135.14Y-97.53
X135.14Y-117.85
X137.68Y-97.53
X137.68Y-117.85
X140.22Y-97.53
X140.22Y-117.85
X142.76Y-97.53
X142.76Y-117.85
X145.3Y-97.53
X145.3Y-117.85
T3
X68.15Y-136.45
X68.15Y-138.95
T4
X137.66Y-122.95
X140.2Y-122.95
X142.74Y-122.95
T5
X59.848Y-87.006
X147.805Y-87.05
T6
X78.805Y-144.874
X134.685Y-149.827
M30
