G04 #@! TF.GenerationSoftware,KiCad,Pcbnew,9.0.2*
G04 #@! TF.CreationDate,2025-06-08T15:26:52+09:00*
G04 #@! TF.ProjectId,vdp_cartridge,7664705f-6361-4727-9472-696467652e6b,rev?*
G04 #@! TF.SameCoordinates,Original*
G04 #@! TF.FileFunction,Legend,Top*
G04 #@! TF.FilePolarity,Positive*
%FSLAX46Y46*%
G04 Gerber Fmt 4.6, Leading zero omitted, Abs format (unit mm)*
G04 Created by KiCad (PCBNEW 9.0.2) date 2025-06-08 15:26:52*
%MOMM*%
%LPD*%
G01*
G04 APERTURE LIST*
%ADD10C,0.100000*%
%ADD11C,0.150000*%
%ADD12C,0.300000*%
%ADD13C,0.120000*%
%ADD14C,0.230278*%
%ADD15C,0.000000*%
G04 APERTURE END LIST*
D10*
G36*
X58482190Y-112264482D02*
G01*
X58481972Y-112194432D01*
X58492976Y-112134158D01*
X58514233Y-112081803D01*
X58545709Y-112035926D01*
X58588302Y-111995616D01*
X58643766Y-111960578D01*
X58714587Y-111931152D01*
X59173763Y-111931152D01*
X59182190Y-111931152D01*
X59190555Y-111931152D01*
X59212964Y-111931152D01*
X59232565Y-111933961D01*
X59293465Y-111961352D01*
X59349849Y-111998662D01*
X59402264Y-112046649D01*
X59450979Y-112106518D01*
X59450979Y-112151276D01*
X59450979Y-112159702D01*
X59450979Y-112168067D01*
X59426248Y-112198746D01*
X59393605Y-112216283D01*
X59350168Y-112221312D01*
X59334240Y-112215081D01*
X59319393Y-112204460D01*
X59310967Y-112201712D01*
X59294175Y-112182111D01*
X59271766Y-112162511D01*
X59257783Y-112145719D01*
X59252165Y-112140102D01*
X59241663Y-112131003D01*
X59229756Y-112117692D01*
X59207408Y-112103709D01*
X59173763Y-112095283D01*
X58801354Y-112095283D01*
X58773388Y-112095283D01*
X58750979Y-112099191D01*
X58742614Y-112099191D01*
X58734187Y-112103099D01*
X58725761Y-112103099D01*
X58693868Y-112126747D01*
X58666959Y-112159397D01*
X58661403Y-112162206D01*
X58655785Y-112176982D01*
X58650168Y-112195972D01*
X58647359Y-112201590D01*
X58647359Y-112235356D01*
X58647359Y-112243783D01*
X58647359Y-112609536D01*
X58649312Y-112631183D01*
X58655785Y-112657408D01*
X58680631Y-112690175D01*
X58712889Y-112716310D01*
X58753788Y-112736176D01*
X58787371Y-112736176D01*
X58795798Y-112736176D01*
X59170955Y-112736176D01*
X59190555Y-112733367D01*
X59235519Y-112705013D01*
X59280192Y-112660583D01*
X59289962Y-112652889D01*
X59299793Y-112640983D01*
X59316584Y-112629808D01*
X59322202Y-112624191D01*
X59327758Y-112621382D01*
X59333376Y-112615764D01*
X59338994Y-112613017D01*
X59358594Y-112610208D01*
X59381003Y-112610208D01*
X59400604Y-112613017D01*
X59428061Y-112634159D01*
X59450979Y-112666201D01*
X59450979Y-112669009D01*
X59450979Y-112666201D01*
X59450979Y-112671818D01*
X59450979Y-112669009D01*
X59450979Y-112674566D01*
X59450979Y-112671818D01*
X59450979Y-112677375D01*
X59450979Y-112674566D01*
X59450979Y-112680184D01*
X59450979Y-112677375D01*
X59450979Y-112682992D01*
X59450979Y-112680184D01*
X59450979Y-112685801D01*
X59450979Y-112682992D01*
X59450979Y-112685801D01*
X59450979Y-112708210D01*
X59450979Y-112711019D01*
X59450979Y-112708210D01*
X59450979Y-112713767D01*
X59450979Y-112711019D01*
X59450979Y-112716576D01*
X59450979Y-112713767D01*
X59450979Y-112719384D01*
X59450979Y-112716576D01*
X59450979Y-112722193D01*
X59450979Y-112719384D01*
X59450979Y-112722193D01*
X59410014Y-112777456D01*
X59360563Y-112824826D01*
X59301823Y-112864818D01*
X59232565Y-112897499D01*
X59215773Y-112900307D01*
X58829381Y-112900307D01*
X58820955Y-112900307D01*
X58760633Y-112903092D01*
X58704629Y-112894850D01*
X58651790Y-112875815D01*
X58601184Y-112845400D01*
X58552165Y-112802244D01*
X58519602Y-112758444D01*
X58490616Y-112698624D01*
X58484999Y-112681832D01*
X58482190Y-112665040D01*
X58482190Y-112264482D01*
G37*
G36*
X60260138Y-112261965D02*
G01*
X60288793Y-112269978D01*
X60315722Y-112282355D01*
X60337092Y-112297333D01*
X60421112Y-112368896D01*
X60441117Y-112390854D01*
X60457443Y-112418783D01*
X60468081Y-112449215D01*
X60471487Y-112478378D01*
X60471487Y-112676337D01*
X60468083Y-112705508D01*
X60457443Y-112735993D01*
X60440843Y-112763761D01*
X60419707Y-112785819D01*
X60337092Y-112855977D01*
X60314625Y-112870914D01*
X60288060Y-112882661D01*
X60260070Y-112890098D01*
X60233472Y-112892492D01*
X59855506Y-112892492D01*
X59828900Y-112890100D01*
X59800857Y-112882661D01*
X59774579Y-112870848D01*
X59753291Y-112855977D01*
X59669271Y-112788627D01*
X59649249Y-112766681D01*
X59632879Y-112738802D01*
X59622286Y-112708320D01*
X59618896Y-112679145D01*
X59618896Y-112474836D01*
X59765930Y-112474836D01*
X59765930Y-112675665D01*
X59779913Y-112687511D01*
X59806536Y-112709126D01*
X59832425Y-112730070D01*
X59844332Y-112741183D01*
X59856911Y-112743992D01*
X60232129Y-112743992D01*
X60243303Y-112741183D01*
X60255210Y-112730742D01*
X60281771Y-112708455D01*
X60309065Y-112686167D01*
X60323109Y-112674261D01*
X60324514Y-112672856D01*
X60324514Y-112481797D01*
X60323109Y-112480454D01*
X60309065Y-112468608D01*
X60281771Y-112445588D01*
X60255210Y-112422568D01*
X60241898Y-112412127D01*
X60232129Y-112407914D01*
X59856911Y-112407914D01*
X59850621Y-112409318D01*
X59844332Y-112412127D01*
X59832425Y-112421897D01*
X59806536Y-112442779D01*
X59779913Y-112463723D01*
X59765930Y-112474836D01*
X59618896Y-112474836D01*
X59618896Y-112469951D01*
X59622287Y-112440786D01*
X59632879Y-112410356D01*
X59649530Y-112382534D01*
X59670675Y-112360470D01*
X59753291Y-112295928D01*
X59774684Y-112281098D01*
X59801590Y-112269245D01*
X59830047Y-112261758D01*
X59855506Y-112259414D01*
X60233472Y-112259414D01*
X60260138Y-112261965D01*
G37*
G36*
X61280060Y-112269796D02*
G01*
X61308079Y-112277793D01*
X61334547Y-112289832D01*
X61355707Y-112303744D01*
X61439726Y-112371094D01*
X61459888Y-112393023D01*
X61476790Y-112420981D01*
X61487946Y-112451447D01*
X61491506Y-112480576D01*
X61491506Y-112692579D01*
X61487794Y-112721683D01*
X61476119Y-112752235D01*
X61458403Y-112780055D01*
X61436918Y-112802061D01*
X61355707Y-112865197D01*
X61334428Y-112878928D01*
X61307408Y-112890477D01*
X61278950Y-112897963D01*
X61253491Y-112900307D01*
X60875464Y-112900307D01*
X60829302Y-112893224D01*
X60785888Y-112873441D01*
X60785888Y-113037572D01*
X60780452Y-113065954D01*
X60764151Y-113089779D01*
X60740222Y-113105935D01*
X60711700Y-113111333D01*
X60683307Y-113105874D01*
X60659920Y-113089596D01*
X60644193Y-113065710D01*
X60638915Y-113037144D01*
X60638915Y-112688610D01*
X60638915Y-112486865D01*
X60785888Y-112486865D01*
X60785888Y-112684885D01*
X60785888Y-112686290D01*
X60799871Y-112697403D01*
X60826494Y-112718346D01*
X60852383Y-112738558D01*
X60864290Y-112747595D01*
X60870579Y-112751136D01*
X60876869Y-112751808D01*
X61252087Y-112751808D01*
X61266070Y-112747595D01*
X61277977Y-112738558D01*
X61303134Y-112719079D01*
X61329023Y-112698807D01*
X61344472Y-112687633D01*
X61344472Y-112485461D01*
X61343067Y-112484057D01*
X61329023Y-112472882D01*
X61302462Y-112451267D01*
X61276572Y-112429712D01*
X61264665Y-112419943D01*
X61258376Y-112417134D01*
X61252087Y-112415730D01*
X60876869Y-112415730D01*
X60871251Y-112417134D01*
X60865695Y-112419943D01*
X60853788Y-112430384D01*
X60827165Y-112452671D01*
X60799871Y-112475020D01*
X60785888Y-112486865D01*
X60638915Y-112486865D01*
X60638915Y-112482835D01*
X60638915Y-112473005D01*
X60644472Y-112442230D01*
X60662668Y-112404433D01*
X60689290Y-112373598D01*
X60771905Y-112305027D01*
X60794293Y-112289990D01*
X60820876Y-112277732D01*
X60848938Y-112269779D01*
X60875464Y-112267230D01*
X61253491Y-112267230D01*
X61280060Y-112269796D01*
G37*
G36*
X62437275Y-112263322D02*
G01*
X62408772Y-112268624D01*
X62385435Y-112284327D01*
X62369793Y-112307859D01*
X62364430Y-112337572D01*
X62364430Y-112372560D01*
X62363697Y-112454503D01*
X62363025Y-112554643D01*
X62363025Y-112638662D01*
X62363025Y-112676459D01*
X62363025Y-112677863D01*
X62348310Y-112689770D01*
X62321687Y-112712179D01*
X62295126Y-112734589D01*
X62283219Y-112745091D01*
X62272045Y-112747900D01*
X61896827Y-112747900D01*
X61885653Y-112745091D01*
X61873746Y-112734589D01*
X61847123Y-112712179D01*
X61819829Y-112689770D01*
X61805846Y-112677863D01*
X61805846Y-112676459D01*
X61805846Y-112337572D01*
X61800321Y-112307918D01*
X61784109Y-112284327D01*
X61760223Y-112268599D01*
X61731658Y-112263322D01*
X61703160Y-112268637D01*
X61679817Y-112284388D01*
X61664173Y-112307971D01*
X61658812Y-112337694D01*
X61658812Y-112680245D01*
X61662046Y-112709451D01*
X61672123Y-112739901D01*
X61688197Y-112767644D01*
X61709187Y-112789726D01*
X61791802Y-112859885D01*
X61814260Y-112874825D01*
X61840773Y-112886569D01*
X61868816Y-112894007D01*
X61895422Y-112896400D01*
X62011621Y-112896400D01*
X62011621Y-113037389D01*
X62016895Y-113065839D01*
X62032626Y-113089657D01*
X62056017Y-113105884D01*
X62084466Y-113111333D01*
X62112863Y-113105887D01*
X62136246Y-113089657D01*
X62151977Y-113065839D01*
X62157251Y-113037389D01*
X62157251Y-112896400D01*
X62273449Y-112896400D01*
X62300144Y-112894021D01*
X62328770Y-112886569D01*
X62355676Y-112874715D01*
X62377069Y-112859885D01*
X62459684Y-112789726D01*
X62480717Y-112767752D01*
X62496748Y-112740573D01*
X62506771Y-112710567D01*
X62510060Y-112680245D01*
X62511403Y-112337694D01*
X62505978Y-112309118D01*
X62489726Y-112285121D01*
X62465779Y-112268773D01*
X62437275Y-112263322D01*
G37*
G36*
X63475368Y-112337267D02*
G01*
X63438976Y-112308995D01*
X63417663Y-112295317D01*
X63390677Y-112284266D01*
X63362248Y-112277246D01*
X63336822Y-112275046D01*
X62817378Y-112275046D01*
X62796373Y-112277854D01*
X62775469Y-112266983D01*
X62751616Y-112263322D01*
X62723108Y-112268611D01*
X62699775Y-112284266D01*
X62684132Y-112307680D01*
X62678770Y-112337267D01*
X62678770Y-112819951D01*
X62684069Y-112848339D01*
X62699775Y-112871609D01*
X62723103Y-112887217D01*
X62751616Y-112892492D01*
X62780191Y-112887241D01*
X62804067Y-112871609D01*
X62820349Y-112848348D01*
X62825805Y-112820135D01*
X62825805Y-112423545D01*
X63336822Y-112423545D01*
X63343783Y-112424950D01*
X63350805Y-112427759D01*
X63365459Y-112439665D01*
X63384388Y-112452977D01*
X63391531Y-112478969D01*
X63407469Y-112501276D01*
X63429989Y-112516450D01*
X63457172Y-112521548D01*
X63485738Y-112516120D01*
X63509684Y-112499871D01*
X63525934Y-112475925D01*
X63531361Y-112447359D01*
X63527438Y-112416993D01*
X63515241Y-112386054D01*
X63496912Y-112358250D01*
X63475368Y-112337267D01*
G37*
G36*
X63830192Y-112112868D02*
G01*
X63823734Y-112079242D01*
X63804302Y-112050770D01*
X63775767Y-112031390D01*
X63742021Y-112024941D01*
X63708221Y-112031393D01*
X63679678Y-112050770D01*
X63660246Y-112079242D01*
X63653788Y-112112868D01*
X63660246Y-112146495D01*
X63679678Y-112174967D01*
X63708221Y-112194344D01*
X63742021Y-112200796D01*
X63775767Y-112194347D01*
X63804302Y-112174967D01*
X63823734Y-112146495D01*
X63830192Y-112112868D01*
G37*
G36*
X63669236Y-112335313D02*
G01*
X63669236Y-112819707D01*
X63674535Y-112848157D01*
X63690241Y-112871487D01*
X63713570Y-112887192D01*
X63742021Y-112892492D01*
X63770471Y-112887192D01*
X63793800Y-112871487D01*
X63809506Y-112848157D01*
X63814805Y-112819707D01*
X63814805Y-112335313D01*
X63809445Y-112305653D01*
X63793800Y-112282129D01*
X63770471Y-112266423D01*
X63742021Y-112261124D01*
X63713570Y-112266423D01*
X63690241Y-112282129D01*
X63674596Y-112305653D01*
X63669236Y-112335313D01*
G37*
G36*
X64593070Y-112265859D02*
G01*
X64621722Y-112273824D01*
X64648652Y-112286202D01*
X64670021Y-112301180D01*
X64754041Y-112372682D01*
X64774047Y-112394581D01*
X64790372Y-112422446D01*
X64801009Y-112452826D01*
X64804416Y-112481980D01*
X64804416Y-112675421D01*
X64803683Y-112681771D01*
X64803011Y-112687999D01*
X64803683Y-112692945D01*
X64804416Y-112697830D01*
X64804416Y-112884248D01*
X64801360Y-112912152D01*
X64791776Y-112941707D01*
X64777158Y-112969128D01*
X64759597Y-112990799D01*
X64684004Y-113066454D01*
X64662378Y-113084059D01*
X64634972Y-113098694D01*
X64605470Y-113108276D01*
X64577575Y-113111333D01*
X64112781Y-113111333D01*
X64084276Y-113105857D01*
X64060269Y-113089412D01*
X64044026Y-113065221D01*
X64038592Y-113036351D01*
X64044045Y-113007649D01*
X64060269Y-112984022D01*
X64084219Y-112968149D01*
X64112781Y-112962834D01*
X64574828Y-112962834D01*
X64577575Y-112961490D01*
X64580384Y-112960086D01*
X64592963Y-112947752D01*
X64617509Y-112923694D01*
X64641994Y-112899697D01*
X64654573Y-112888706D01*
X64657382Y-112881867D01*
X64657382Y-112868128D01*
X64613296Y-112888645D01*
X64566401Y-112896400D01*
X64188435Y-112896400D01*
X64162976Y-112894055D01*
X64134519Y-112886569D01*
X64107499Y-112875020D01*
X64086220Y-112861290D01*
X64003605Y-112795344D01*
X63982456Y-112773289D01*
X63965808Y-112745518D01*
X63955215Y-112715036D01*
X63951825Y-112685862D01*
X63951825Y-112482957D01*
X64098798Y-112482957D01*
X64098798Y-112680977D01*
X64098798Y-112682382D01*
X64112781Y-112693495D01*
X64139404Y-112714439D01*
X64165293Y-112734650D01*
X64177200Y-112743687D01*
X64183489Y-112747228D01*
X64189779Y-112747900D01*
X64564997Y-112747900D01*
X64574766Y-112745091D01*
X64587345Y-112733978D01*
X64614639Y-112710286D01*
X64641933Y-112686534D01*
X64655977Y-112674016D01*
X64657382Y-112672612D01*
X64657382Y-112485705D01*
X64655977Y-112484362D01*
X64641933Y-112472516D01*
X64614639Y-112449496D01*
X64588078Y-112426476D01*
X64574766Y-112416035D01*
X64564997Y-112411822D01*
X64189779Y-112411822D01*
X64184161Y-112413226D01*
X64178605Y-112416035D01*
X64166698Y-112426476D01*
X64140075Y-112448763D01*
X64112781Y-112471112D01*
X64098798Y-112482957D01*
X63951825Y-112482957D01*
X63951825Y-112479477D01*
X63955060Y-112450279D01*
X63965136Y-112419882D01*
X63981214Y-112392088D01*
X64002200Y-112369995D01*
X64084815Y-112301241D01*
X64107249Y-112286150D01*
X64133786Y-112273886D01*
X64161858Y-112265887D01*
X64188435Y-112263322D01*
X64566401Y-112263322D01*
X64593070Y-112265859D01*
G37*
G36*
X65801965Y-112417745D02*
G01*
X65670379Y-112284388D01*
X65645101Y-112268417D01*
X65618599Y-112263322D01*
X65177558Y-112263322D01*
X65149855Y-112268509D01*
X65124374Y-112284510D01*
X65118756Y-112291593D01*
X65118756Y-112113479D01*
X65113294Y-112085034D01*
X65097019Y-112061639D01*
X65073128Y-112045863D01*
X65044568Y-112040573D01*
X65016122Y-112045885D01*
X64992788Y-112061639D01*
X64977088Y-112084985D01*
X64971783Y-112113540D01*
X64971783Y-112823432D01*
X64977086Y-112851998D01*
X64992788Y-112875395D01*
X65016117Y-112891100D01*
X65044568Y-112896400D01*
X65073133Y-112891122D01*
X65097019Y-112875395D01*
X65113294Y-112851999D01*
X65118756Y-112823554D01*
X65118756Y-112501459D01*
X65164918Y-112454564D01*
X65206928Y-112411822D01*
X65587764Y-112411822D01*
X65677340Y-112501459D01*
X65677340Y-112823554D01*
X65682642Y-112852057D01*
X65698345Y-112875395D01*
X65721682Y-112891098D01*
X65750185Y-112896400D01*
X65778746Y-112891109D01*
X65802636Y-112875334D01*
X65818914Y-112851887D01*
X65824374Y-112823432D01*
X65824374Y-112469646D01*
X65818880Y-112442208D01*
X65801965Y-112417745D01*
G37*
G36*
X66581099Y-112900307D02*
G01*
X66609519Y-112894803D01*
X66632879Y-112878387D01*
X66648248Y-112854252D01*
X66652479Y-112825325D01*
X66647025Y-112796633D01*
X66630803Y-112773057D01*
X66606890Y-112757142D01*
X66578291Y-112751808D01*
X66553134Y-112751808D01*
X66497080Y-112751808D01*
X66439683Y-112751808D01*
X66413121Y-112751808D01*
X66403291Y-112748999D01*
X66391384Y-112738558D01*
X66364761Y-112715599D01*
X66337467Y-112692579D01*
X66323484Y-112680672D01*
X66322080Y-112679329D01*
X66322080Y-112474348D01*
X66446705Y-112474348D01*
X66475256Y-112469030D01*
X66499156Y-112453160D01*
X66515428Y-112429528D01*
X66520893Y-112400831D01*
X66515361Y-112370883D01*
X66499156Y-112347097D01*
X66475251Y-112331179D01*
X66446705Y-112325848D01*
X66322080Y-112325848D01*
X66322080Y-112121539D01*
X66316811Y-112093394D01*
X66301075Y-112069821D01*
X66277517Y-112053844D01*
X66247891Y-112048388D01*
X66219475Y-112053781D01*
X66196112Y-112069821D01*
X66180375Y-112093394D01*
X66175107Y-112121539D01*
X66175107Y-112325848D01*
X66064526Y-112325848D01*
X66036042Y-112331204D01*
X66012685Y-112347097D01*
X65997050Y-112370823D01*
X65991680Y-112400831D01*
X65996985Y-112429586D01*
X66012685Y-112453160D01*
X66036037Y-112469006D01*
X66064526Y-112474348D01*
X66175107Y-112474348D01*
X66175107Y-112683786D01*
X66178344Y-112713099D01*
X66188418Y-112743565D01*
X66204496Y-112771359D01*
X66225482Y-112793451D01*
X66309501Y-112865136D01*
X66330874Y-112880175D01*
X66357800Y-112892614D01*
X66386627Y-112900187D01*
X66414526Y-112901712D01*
X66581099Y-112900307D01*
G37*
G36*
X66989596Y-111998135D02*
G01*
X66995805Y-111965241D01*
X67014081Y-111938968D01*
X67041122Y-111921428D01*
X67073615Y-111915520D01*
X67688191Y-111915520D01*
X67735554Y-111920781D01*
X67785522Y-111937258D01*
X67831737Y-111962166D01*
X67867404Y-111991174D01*
X67895370Y-112017797D01*
X67924294Y-112053730D01*
X67949287Y-112101206D01*
X67965838Y-112152214D01*
X67971024Y-112198537D01*
X67971024Y-112209772D01*
X67966145Y-112256068D01*
X67950691Y-112306431D01*
X67926847Y-112353226D01*
X67898179Y-112389107D01*
X67874426Y-112414325D01*
X67838505Y-112443266D01*
X67791078Y-112468303D01*
X67740080Y-112484809D01*
X67693809Y-112489979D01*
X67272429Y-112489979D01*
X67257953Y-112492015D01*
X67238784Y-112499139D01*
X67210818Y-112516785D01*
X67182792Y-112543591D01*
X67167343Y-112571801D01*
X67158978Y-112604224D01*
X67158978Y-112615520D01*
X67167343Y-112648676D01*
X67182792Y-112677558D01*
X67210818Y-112704364D01*
X67238784Y-112720606D01*
X67272429Y-112728360D01*
X67885600Y-112728360D01*
X67918086Y-112734594D01*
X67945806Y-112753395D01*
X67964757Y-112780885D01*
X67971024Y-112813052D01*
X67964646Y-112846245D01*
X67945806Y-112872830D01*
X67918198Y-112890487D01*
X67885600Y-112896400D01*
X67272429Y-112896400D01*
X67224936Y-112891311D01*
X67174365Y-112875334D01*
X67127607Y-112850853D01*
X67091811Y-112821966D01*
X67063784Y-112795283D01*
X67035052Y-112759269D01*
X67010600Y-112711752D01*
X66994614Y-112660602D01*
X66989596Y-112614116D01*
X66989596Y-112602820D01*
X66994573Y-112557577D01*
X67010600Y-112506649D01*
X67035055Y-112459079D01*
X67063784Y-112423057D01*
X67091811Y-112396373D01*
X67127607Y-112367486D01*
X67174365Y-112343006D01*
X67224936Y-112327029D01*
X67272429Y-112321940D01*
X67693809Y-112321940D01*
X67725255Y-112312842D01*
X67751206Y-112295318D01*
X67776424Y-112271443D01*
X67792483Y-112242073D01*
X67799560Y-112222854D01*
X67801581Y-112208367D01*
X67801581Y-112197132D01*
X67792483Y-112164159D01*
X67776424Y-112136865D01*
X67748397Y-112108777D01*
X67719698Y-112091986D01*
X67686787Y-112083559D01*
X67073615Y-112080812D01*
X67041059Y-112074778D01*
X67013409Y-112056693D01*
X66994828Y-112029946D01*
X66989596Y-111998135D01*
G37*
G36*
X68882910Y-111920710D02*
G01*
X68933280Y-111937197D01*
X68980125Y-111962136D01*
X69015895Y-111991052D01*
X69043922Y-112019079D01*
X69072842Y-112054840D01*
X69097778Y-112101633D01*
X69114272Y-112152173D01*
X69119515Y-112199575D01*
X69119515Y-112613749D01*
X69114272Y-112661151D01*
X69097778Y-112711691D01*
X69072842Y-112758484D01*
X69043922Y-112794245D01*
X69015895Y-112822211D01*
X68980093Y-112851033D01*
X68933280Y-112875456D01*
X68882943Y-112891378D01*
X68836682Y-112896400D01*
X68420920Y-112896400D01*
X68373421Y-112891340D01*
X68322856Y-112875456D01*
X68276095Y-112851036D01*
X68240302Y-112822211D01*
X68212275Y-112794245D01*
X68183498Y-112758457D01*
X68159091Y-112711691D01*
X68143160Y-112661184D01*
X68142410Y-112654172D01*
X68318704Y-112654172D01*
X68331283Y-112676520D01*
X68359309Y-112704547D01*
X68387275Y-112719995D01*
X68420920Y-112728360D01*
X68836682Y-112728360D01*
X68869594Y-112719995D01*
X68896888Y-112704547D01*
X68924915Y-112676520D01*
X68940974Y-112648554D01*
X68948052Y-112629395D01*
X68950072Y-112614971D01*
X68950072Y-112350334D01*
X68318704Y-112654172D01*
X68142410Y-112654172D01*
X68138086Y-112613749D01*
X68138086Y-112199575D01*
X68138217Y-112198353D01*
X68307469Y-112198353D01*
X68307469Y-112469951D01*
X68940302Y-112164770D01*
X68924915Y-112136743D01*
X68896888Y-112108716D01*
X68869594Y-112092657D01*
X68851069Y-112085601D01*
X68836682Y-112083559D01*
X68420859Y-112083559D01*
X68406434Y-112085579D01*
X68387275Y-112092657D01*
X68359248Y-112108716D01*
X68331283Y-112136743D01*
X68315834Y-112164770D01*
X68307469Y-112198353D01*
X68138217Y-112198353D01*
X68143160Y-112152140D01*
X68159091Y-112101633D01*
X68183498Y-112054867D01*
X68212275Y-112019079D01*
X68240302Y-111991052D01*
X68276063Y-111962133D01*
X68322856Y-111937197D01*
X68373454Y-111920750D01*
X68420920Y-111915520D01*
X68836682Y-111915520D01*
X68882910Y-111920710D01*
G37*
G36*
X69288409Y-111998135D02*
G01*
X69294619Y-111965241D01*
X69312895Y-111938968D01*
X69339936Y-111921428D01*
X69372429Y-111915520D01*
X69987005Y-111915520D01*
X70034368Y-111920781D01*
X70084336Y-111937258D01*
X70130551Y-111962166D01*
X70166218Y-111991174D01*
X70194184Y-112017797D01*
X70223108Y-112053730D01*
X70248100Y-112101206D01*
X70264651Y-112152214D01*
X70269838Y-112198537D01*
X70269838Y-112209772D01*
X70264959Y-112256068D01*
X70249505Y-112306431D01*
X70225661Y-112353226D01*
X70196993Y-112389107D01*
X70173240Y-112414325D01*
X70137318Y-112443266D01*
X70089892Y-112468303D01*
X70038894Y-112484809D01*
X69992622Y-112489979D01*
X69571242Y-112489979D01*
X69556766Y-112492015D01*
X69537598Y-112499139D01*
X69509632Y-112516785D01*
X69481605Y-112543591D01*
X69466157Y-112571801D01*
X69457792Y-112604224D01*
X69457792Y-112615520D01*
X69466157Y-112648676D01*
X69481605Y-112677558D01*
X69509632Y-112704364D01*
X69537598Y-112720606D01*
X69571242Y-112728360D01*
X70184414Y-112728360D01*
X70216899Y-112734594D01*
X70244620Y-112753395D01*
X70263571Y-112780885D01*
X70269838Y-112813052D01*
X70263460Y-112846245D01*
X70244620Y-112872830D01*
X70217012Y-112890487D01*
X70184414Y-112896400D01*
X69571242Y-112896400D01*
X69523749Y-112891311D01*
X69473179Y-112875334D01*
X69426421Y-112850853D01*
X69390625Y-112821966D01*
X69362598Y-112795283D01*
X69333865Y-112759269D01*
X69309414Y-112711752D01*
X69293427Y-112660602D01*
X69288409Y-112614116D01*
X69288409Y-112602820D01*
X69293386Y-112557577D01*
X69309414Y-112506649D01*
X69333869Y-112459079D01*
X69362598Y-112423057D01*
X69390625Y-112396373D01*
X69426421Y-112367486D01*
X69473179Y-112343006D01*
X69523749Y-112327029D01*
X69571242Y-112321940D01*
X69992622Y-112321940D01*
X70024069Y-112312842D01*
X70050019Y-112295318D01*
X70075238Y-112271443D01*
X70091296Y-112242073D01*
X70098373Y-112222854D01*
X70100395Y-112208367D01*
X70100395Y-112197132D01*
X70091296Y-112164159D01*
X70075238Y-112136865D01*
X70047211Y-112108777D01*
X70018512Y-112091986D01*
X69985600Y-112083559D01*
X69372429Y-112080812D01*
X69339873Y-112074778D01*
X69312223Y-112056693D01*
X69293641Y-112029946D01*
X69288409Y-111998135D01*
G37*
G36*
X70592300Y-111915520D02*
G01*
X71332905Y-111915520D01*
X71365447Y-111921594D01*
X71393111Y-111939822D01*
X71412037Y-111966765D01*
X71418329Y-111998868D01*
X71412064Y-112031045D01*
X71393111Y-112058585D01*
X71365395Y-112077339D01*
X71332905Y-112083559D01*
X70606283Y-112083559D01*
X70606283Y-112321940D01*
X71136900Y-112321940D01*
X71180746Y-112326095D01*
X71230018Y-112339404D01*
X71276673Y-112359969D01*
X71313305Y-112384711D01*
X71331501Y-112400037D01*
X71364412Y-112434852D01*
X71393111Y-112481614D01*
X71412307Y-112532721D01*
X71418329Y-112579861D01*
X71418329Y-112616131D01*
X71413126Y-112662172D01*
X71396591Y-112712363D01*
X71371660Y-112758977D01*
X71342736Y-112794611D01*
X71314709Y-112822516D01*
X71278920Y-112851179D01*
X71232094Y-112875517D01*
X71181931Y-112891434D01*
X71136900Y-112896400D01*
X70520920Y-112896400D01*
X70488451Y-112890299D01*
X70461385Y-112872097D01*
X70443033Y-112845212D01*
X70436900Y-112813052D01*
X70443008Y-112780829D01*
X70461385Y-112753395D01*
X70488550Y-112734616D01*
X70520920Y-112728360D01*
X71136900Y-112728360D01*
X71168407Y-112719934D01*
X71195702Y-112704547D01*
X71223728Y-112676459D01*
X71239787Y-112648493D01*
X71248885Y-112616192D01*
X71248885Y-112579739D01*
X71240459Y-112552383D01*
X71225133Y-112530646D01*
X71206937Y-112515197D01*
X71193839Y-112506521D01*
X71172560Y-112497734D01*
X71136900Y-112489979D01*
X70592300Y-112489979D01*
X70560989Y-112486799D01*
X70532094Y-112477401D01*
X70505770Y-112462664D01*
X70483123Y-112443879D01*
X70464272Y-112421240D01*
X70449479Y-112394969D01*
X70440082Y-112366126D01*
X70436900Y-112334824D01*
X70436900Y-112070675D01*
X70440083Y-112039382D01*
X70449479Y-112010592D01*
X70464266Y-111984276D01*
X70483062Y-111961682D01*
X70505713Y-111942848D01*
X70532033Y-111928099D01*
X70560936Y-111918702D01*
X70592300Y-111915520D01*
G37*
G36*
X71752881Y-111971757D02*
G01*
X71763036Y-111935636D01*
X71779568Y-111912819D01*
X71802462Y-111899779D01*
X71834091Y-111895981D01*
X71866659Y-111900899D01*
X71890340Y-111914514D01*
X71907427Y-111937182D01*
X71918111Y-111971818D01*
X71918111Y-112325848D01*
X72556501Y-112325848D01*
X72556501Y-112020667D01*
X72560800Y-111977394D01*
X72575826Y-111949836D01*
X72601047Y-111933145D01*
X72640459Y-111926878D01*
X72678852Y-111933207D01*
X72703430Y-111950157D01*
X72717998Y-111978479D01*
X72721670Y-112023476D01*
X72721670Y-112835461D01*
X72714048Y-112866186D01*
X72700040Y-112886494D01*
X72679541Y-112899039D01*
X72650290Y-112904093D01*
X72619403Y-112901226D01*
X72594861Y-112890546D01*
X72575025Y-112872003D01*
X72559309Y-112843887D01*
X72556501Y-112811647D01*
X72556501Y-112493887D01*
X71918111Y-112493887D01*
X71915302Y-112841078D01*
X71906953Y-112865839D01*
X71892574Y-112883208D01*
X71871422Y-112894655D01*
X71841113Y-112899880D01*
X71812895Y-112896847D01*
X71789516Y-112885422D01*
X71769607Y-112864881D01*
X71752881Y-112832652D01*
X71752881Y-111971757D01*
G37*
G36*
X73636970Y-111931152D02*
G01*
X73645335Y-111931152D01*
X73664936Y-111936769D01*
X73730205Y-111971397D01*
X73781179Y-112013347D01*
X73819904Y-112062849D01*
X73847436Y-112120953D01*
X73863749Y-112189439D01*
X73868293Y-112272237D01*
X73861138Y-112343511D01*
X73843628Y-112405215D01*
X73816365Y-112458989D01*
X73779174Y-112506069D01*
X73731114Y-112547192D01*
X73670553Y-112582547D01*
X73715372Y-112629503D01*
X73832975Y-112745030D01*
X73838592Y-112750587D01*
X73855384Y-112770187D01*
X73863749Y-112787040D01*
X73865289Y-112821318D01*
X73857596Y-112850458D01*
X73840815Y-112876067D01*
X73813374Y-112899025D01*
X73776982Y-112899025D01*
X73768556Y-112899025D01*
X73760190Y-112899025D01*
X73751764Y-112899025D01*
X73728683Y-112883638D01*
X73704137Y-112859824D01*
X73443774Y-112599400D01*
X73060190Y-112599400D01*
X73060190Y-112812197D01*
X73057382Y-112848589D01*
X73033526Y-112878439D01*
X73008503Y-112894771D01*
X72981250Y-112900349D01*
X72949797Y-112895204D01*
X72911752Y-112876616D01*
X72894960Y-112843032D01*
X72894960Y-112431361D01*
X73060190Y-112431361D01*
X73583786Y-112431361D01*
X73592151Y-112431361D01*
X73611752Y-112425744D01*
X73643537Y-112403138D01*
X73668353Y-112374308D01*
X73686771Y-112338336D01*
X73698580Y-112293669D01*
X73702353Y-112235669D01*
X73692594Y-112188824D01*
X73670641Y-112150151D01*
X73635450Y-112117796D01*
X73583786Y-112091375D01*
X73564186Y-112091375D01*
X73060190Y-112091375D01*
X73060190Y-112431361D01*
X72894960Y-112431361D01*
X72894960Y-112044847D01*
X72897769Y-112039290D01*
X72897769Y-112028055D01*
X72903387Y-112022438D01*
X72903387Y-112014072D01*
X72928782Y-111978122D01*
X72962824Y-111949322D01*
X73007007Y-111927244D01*
X73578168Y-111927244D01*
X73605407Y-111926065D01*
X73636970Y-111931152D01*
G37*
G36*
X74741131Y-111927244D02*
G01*
X74749557Y-111927244D01*
X74764273Y-111937075D01*
X74783141Y-111946844D01*
X74808359Y-111969315D01*
X74811167Y-111974871D01*
X74816785Y-111977680D01*
X74818800Y-111980489D01*
X74822342Y-111983298D01*
X74833577Y-112000150D01*
X75032329Y-112767989D01*
X75035138Y-112793146D01*
X75035138Y-112840773D01*
X75014643Y-112867555D01*
X74984763Y-112891148D01*
X74951069Y-112892400D01*
X74919690Y-112885056D01*
X74889569Y-112868800D01*
X74875586Y-112846391D01*
X74869969Y-112829599D01*
X74864017Y-112796036D01*
X74827959Y-112653195D01*
X74813976Y-112599950D01*
X74811167Y-112591584D01*
X74777584Y-112591584D01*
X74769158Y-112591584D01*
X74721530Y-112591584D01*
X74710356Y-112591584D01*
X74699182Y-112591584D01*
X74377148Y-112591584D01*
X74365974Y-112591584D01*
X74357547Y-112591584D01*
X74343564Y-112591584D01*
X74335138Y-112591584D01*
X74295937Y-112591584D01*
X74284763Y-112636342D01*
X74281954Y-112641960D01*
X74279145Y-112653195D01*
X74234327Y-112812746D01*
X74223153Y-112851947D01*
X74197935Y-112877165D01*
X74195126Y-112882783D01*
X74155497Y-112891769D01*
X74122378Y-112887675D01*
X74093174Y-112871451D01*
X74066349Y-112840773D01*
X74066349Y-112795955D01*
X74067021Y-112786185D01*
X74069158Y-112773545D01*
X74168960Y-112423545D01*
X74343564Y-112423545D01*
X74377148Y-112423545D01*
X74715974Y-112423545D01*
X74752366Y-112423545D01*
X74760731Y-112423545D01*
X74769158Y-112423545D01*
X74763540Y-112403884D01*
X74713837Y-112193835D01*
X74690756Y-112108838D01*
X74687947Y-112094794D01*
X74682329Y-112083559D01*
X74648746Y-112083559D01*
X74640381Y-112083559D01*
X74497560Y-112083559D01*
X74483577Y-112083559D01*
X74444376Y-112083559D01*
X74421217Y-112148624D01*
X74343564Y-112423545D01*
X74168960Y-112423545D01*
X74284763Y-112017431D01*
X74293128Y-111997830D01*
X74321109Y-111967595D01*
X74357068Y-111941448D01*
X74402366Y-111919428D01*
X74458359Y-111919428D01*
X74466785Y-111919428D01*
X74477959Y-111919428D01*
X74486385Y-111919428D01*
X74500368Y-111919428D01*
X74634763Y-111919428D01*
X74671155Y-111919428D01*
X74690756Y-111919428D01*
X74707547Y-111919428D01*
X74741131Y-111927244D01*
G37*
G36*
X75286586Y-112900307D02*
G01*
X75256868Y-112894782D01*
X75256810Y-112894743D01*
X75286586Y-112900307D01*
G37*
G36*
X75316293Y-112894780D02*
G01*
X75286586Y-112900307D01*
X75316341Y-112894746D01*
X75316293Y-112894780D01*
G37*
G36*
X75316246Y-112753260D02*
G01*
X75339770Y-112768905D01*
X75340033Y-112769301D01*
X75341174Y-112770065D01*
X75357965Y-112794618D01*
X75363584Y-112824104D01*
X75357965Y-112853589D01*
X75341174Y-112878142D01*
X75316395Y-112894737D01*
X75316341Y-112894746D01*
X75340442Y-112878448D01*
X75356671Y-112854115D01*
X75362179Y-112824104D01*
X75356671Y-112794092D01*
X75340442Y-112769760D01*
X75340253Y-112769632D01*
X75355412Y-112792437D01*
X75360775Y-112822150D01*
X75355412Y-112851862D01*
X75339770Y-112875395D01*
X75316246Y-112891039D01*
X75286586Y-112896400D01*
X75256926Y-112891039D01*
X75233402Y-112875395D01*
X75217760Y-112851862D01*
X75212397Y-112822150D01*
X75217760Y-112792437D01*
X75232967Y-112769558D01*
X75232669Y-112769760D01*
X75216487Y-112794087D01*
X75210993Y-112824104D01*
X75216487Y-112854120D01*
X75232669Y-112878448D01*
X75256810Y-112894743D01*
X75256777Y-112894737D01*
X75231998Y-112878142D01*
X75215207Y-112853589D01*
X75209589Y-112824104D01*
X75215207Y-112794618D01*
X75231998Y-112770065D01*
X75233138Y-112769301D01*
X75233402Y-112768905D01*
X75256926Y-112753260D01*
X75286586Y-112747900D01*
X75256868Y-112753425D01*
X75256808Y-112753465D01*
X75286586Y-112747900D01*
X75316343Y-112753461D01*
X75316293Y-112753427D01*
X75286586Y-112747900D01*
X75316246Y-112753260D01*
G37*
G36*
X75318983Y-111933395D02*
G01*
X75346059Y-111951790D01*
X75364407Y-111978862D01*
X75370545Y-112011263D01*
X75370545Y-112568687D01*
X75364261Y-112603392D01*
X75346059Y-112630297D01*
X75319040Y-112648120D01*
X75286586Y-112654111D01*
X75254079Y-112648118D01*
X75227052Y-112630297D01*
X75208850Y-112603392D01*
X75202567Y-112568687D01*
X75202567Y-112011263D01*
X75208704Y-111978862D01*
X75227052Y-111951790D01*
X75254136Y-111933398D01*
X75286586Y-111927244D01*
X75318983Y-111933395D01*
G37*
G36*
X58511985Y-110564868D02*
G01*
X58518676Y-110532586D01*
X58531741Y-110508972D01*
X58551016Y-110491989D01*
X58577808Y-110480909D01*
X58605428Y-110478736D01*
X58630113Y-110485684D01*
X58653326Y-110502327D01*
X58675811Y-110531284D01*
X58894164Y-111234093D01*
X58913212Y-111266094D01*
X58940387Y-111284468D01*
X59052372Y-111283064D01*
X59071335Y-111277546D01*
X59086588Y-111262129D01*
X59098595Y-111232689D01*
X59212036Y-110880202D01*
X59325375Y-110514493D01*
X59349428Y-110489479D01*
X59374279Y-110476513D01*
X59401120Y-110473523D01*
X59431803Y-110480909D01*
X59460296Y-110495475D01*
X59478371Y-110514570D01*
X59488060Y-110538882D01*
X59489200Y-110570485D01*
X59252590Y-111329775D01*
X59234596Y-111372908D01*
X59210580Y-111405430D01*
X59177565Y-111429701D01*
X59126622Y-111448600D01*
X58869007Y-111448600D01*
X58827054Y-111432023D01*
X58790605Y-111404758D01*
X58761395Y-111366152D01*
X58734612Y-111304252D01*
X58511985Y-110564868D01*
G37*
G36*
X60410062Y-110472910D02*
G01*
X60460432Y-110489397D01*
X60507236Y-110514329D01*
X60543047Y-110543252D01*
X60571074Y-110571279D01*
X60599994Y-110607040D01*
X60624930Y-110653833D01*
X60641424Y-110704373D01*
X60646667Y-110751775D01*
X60646667Y-111165949D01*
X60641424Y-111213351D01*
X60624930Y-111263891D01*
X60599994Y-111310684D01*
X60571074Y-111346445D01*
X60543047Y-111374411D01*
X60507204Y-111403239D01*
X60460432Y-111427656D01*
X60410095Y-111443578D01*
X60363834Y-111448600D01*
X59948072Y-111448600D01*
X59900568Y-111443568D01*
X59850008Y-111427778D01*
X59803228Y-111403565D01*
X59767454Y-111375021D01*
X59690457Y-111297230D01*
X59670503Y-111271797D01*
X59663834Y-111239955D01*
X59670364Y-111207351D01*
X59690457Y-111178345D01*
X59716919Y-111160543D01*
X59749258Y-111154531D01*
X59780864Y-111160391D01*
X59809464Y-111178345D01*
X59886461Y-111256747D01*
X59914427Y-111272195D01*
X59948072Y-111280560D01*
X60363834Y-111280560D01*
X60396685Y-111272134D01*
X60424040Y-111256564D01*
X60452067Y-111228354D01*
X60468126Y-111200205D01*
X60475203Y-111180871D01*
X60477224Y-111166316D01*
X60477224Y-111042179D01*
X59948072Y-111042179D01*
X59900573Y-111037119D01*
X59850008Y-111021236D01*
X59803237Y-110996841D01*
X59767454Y-110968113D01*
X59739427Y-110940147D01*
X59710650Y-110904418D01*
X59686243Y-110857715D01*
X59670228Y-110807561D01*
X59665239Y-110762643D01*
X59665239Y-110751469D01*
X59665317Y-110750737D01*
X59834621Y-110750737D01*
X59834621Y-110761972D01*
X59842986Y-110794273D01*
X59858435Y-110820834D01*
X59886461Y-110848922D01*
X59914427Y-110865714D01*
X59948072Y-110874140D01*
X60477224Y-110874140D01*
X60477224Y-110750737D01*
X60475201Y-110736258D01*
X60468126Y-110717092D01*
X60452067Y-110689065D01*
X60424040Y-110660977D01*
X60396685Y-110644918D01*
X60378164Y-110637811D01*
X60363834Y-110635759D01*
X59948072Y-110635759D01*
X59933596Y-110637795D01*
X59914427Y-110644918D01*
X59886461Y-110660977D01*
X59858435Y-110689065D01*
X59842986Y-110717092D01*
X59834621Y-110750737D01*
X59665317Y-110750737D01*
X59670314Y-110704043D01*
X59686243Y-110653589D01*
X59710650Y-110606886D01*
X59739427Y-110571157D01*
X59767454Y-110543191D01*
X59803210Y-110514320D01*
X59850008Y-110489397D01*
X59900606Y-110472950D01*
X59948072Y-110467720D01*
X60363834Y-110467720D01*
X60410062Y-110472910D01*
G37*
G36*
X61559958Y-110472910D02*
G01*
X61610327Y-110489397D01*
X61657131Y-110514329D01*
X61692943Y-110543252D01*
X61720969Y-110571279D01*
X61749889Y-110607040D01*
X61774825Y-110653833D01*
X61791319Y-110704373D01*
X61796563Y-110751775D01*
X61796563Y-111165949D01*
X61791319Y-111213351D01*
X61774825Y-111263891D01*
X61749889Y-111310684D01*
X61720969Y-111346445D01*
X61692943Y-111374411D01*
X61657099Y-111403239D01*
X61610327Y-111427656D01*
X61559991Y-111443578D01*
X61513729Y-111448600D01*
X61097967Y-111448600D01*
X61050463Y-111443568D01*
X60999904Y-111427778D01*
X60953124Y-111403565D01*
X60917349Y-111375021D01*
X60840352Y-111297230D01*
X60820399Y-111271797D01*
X60813729Y-111239955D01*
X60820260Y-111207351D01*
X60840352Y-111178345D01*
X60866814Y-111160543D01*
X60899153Y-111154531D01*
X60930759Y-111160391D01*
X60959359Y-111178345D01*
X61036357Y-111256747D01*
X61064323Y-111272195D01*
X61097967Y-111280560D01*
X61513729Y-111280560D01*
X61546580Y-111272134D01*
X61573935Y-111256564D01*
X61601962Y-111228354D01*
X61618021Y-111200205D01*
X61625099Y-111180871D01*
X61627119Y-111166316D01*
X61627119Y-111042179D01*
X61097967Y-111042179D01*
X61050469Y-111037119D01*
X60999904Y-111021236D01*
X60953132Y-110996841D01*
X60917349Y-110968113D01*
X60889323Y-110940147D01*
X60860545Y-110904418D01*
X60836139Y-110857715D01*
X60820123Y-110807561D01*
X60815134Y-110762643D01*
X60815134Y-110751469D01*
X60815212Y-110750737D01*
X60984516Y-110750737D01*
X60984516Y-110761972D01*
X60992882Y-110794273D01*
X61008330Y-110820834D01*
X61036357Y-110848922D01*
X61064323Y-110865714D01*
X61097967Y-110874140D01*
X61627119Y-110874140D01*
X61627119Y-110750737D01*
X61625097Y-110736258D01*
X61618021Y-110717092D01*
X61601962Y-110689065D01*
X61573935Y-110660977D01*
X61546580Y-110644918D01*
X61528060Y-110637811D01*
X61513729Y-110635759D01*
X61097967Y-110635759D01*
X61083491Y-110637795D01*
X61064323Y-110644918D01*
X61036357Y-110660977D01*
X61008330Y-110689065D01*
X60992882Y-110717092D01*
X60984516Y-110750737D01*
X60815212Y-110750737D01*
X60820209Y-110704043D01*
X60836139Y-110653589D01*
X60860545Y-110606886D01*
X60889323Y-110571157D01*
X60917349Y-110543191D01*
X60953105Y-110514320D01*
X60999904Y-110489397D01*
X61050501Y-110472950D01*
X61097967Y-110467720D01*
X61513729Y-110467720D01*
X61559958Y-110472910D01*
G37*
G36*
X62709592Y-110472939D02*
G01*
X62759551Y-110489275D01*
X62805785Y-110513976D01*
X62841434Y-110542703D01*
X62869460Y-110570485D01*
X62893680Y-110598065D01*
X62919836Y-110635942D01*
X62939000Y-110677224D01*
X62945054Y-110716970D01*
X62938780Y-110749441D01*
X62919836Y-110777176D01*
X62892105Y-110796073D01*
X62859630Y-110802333D01*
X62829526Y-110796631D01*
X62802904Y-110779252D01*
X62783770Y-110753744D01*
X62775610Y-110723931D01*
X62766512Y-110709276D01*
X62750392Y-110688943D01*
X62722426Y-110662321D01*
X62694399Y-110644857D01*
X62675241Y-110637779D01*
X62660816Y-110635759D01*
X62244993Y-110634355D01*
X62212814Y-110642110D01*
X62186191Y-110658169D01*
X62156821Y-110687661D01*
X62141372Y-110717764D01*
X62133007Y-110750737D01*
X62133007Y-110874140D01*
X62662220Y-110874140D01*
X62708479Y-110879176D01*
X62758818Y-110895145D01*
X62805631Y-110919568D01*
X62841434Y-110948390D01*
X62869460Y-110976417D01*
X62898380Y-111012237D01*
X62923316Y-111059093D01*
X62939895Y-111109347D01*
X62945054Y-111154348D01*
X62945054Y-111192206D01*
X62939031Y-111239601D01*
X62919836Y-111291002D01*
X62891172Y-111337945D01*
X62858225Y-111372945D01*
X62840029Y-111386928D01*
X62803368Y-111411646D01*
X62756742Y-111431808D01*
X62707329Y-111444565D01*
X62662220Y-111448600D01*
X62246458Y-111448600D01*
X62198959Y-111443540D01*
X62148394Y-111427656D01*
X62101631Y-111403297D01*
X62065840Y-111374533D01*
X62037814Y-111346628D01*
X62009029Y-111310858D01*
X61984630Y-111264196D01*
X61968698Y-111213749D01*
X61963625Y-111166377D01*
X61963625Y-111166316D01*
X62133007Y-111166316D01*
X62141372Y-111200205D01*
X62156821Y-111228354D01*
X62184787Y-111256564D01*
X62212814Y-111272806D01*
X62246397Y-111280560D01*
X62662220Y-111280560D01*
X62700017Y-111272806D01*
X62735005Y-111256564D01*
X62751796Y-111241054D01*
X62767916Y-111219194D01*
X62775610Y-111193121D01*
X62775610Y-111155020D01*
X62766512Y-111123268D01*
X62750392Y-111095791D01*
X62722426Y-111067581D01*
X62695071Y-111051339D01*
X62676550Y-111044231D01*
X62662220Y-111042179D01*
X62133007Y-111042179D01*
X62133007Y-111166316D01*
X61963625Y-111166316D01*
X61963625Y-110752752D01*
X61968529Y-110705355D01*
X61983897Y-110654993D01*
X62007772Y-110608305D01*
X62036409Y-110572500D01*
X62065840Y-110543191D01*
X62101604Y-110514285D01*
X62148394Y-110489397D01*
X62198992Y-110472950D01*
X62246458Y-110467720D01*
X62662220Y-110467720D01*
X62709592Y-110472939D01*
G37*
G36*
X63857370Y-110472896D02*
G01*
X63907737Y-110489336D01*
X63954590Y-110514202D01*
X63990352Y-110543008D01*
X64018379Y-110570852D01*
X64047303Y-110606486D01*
X64072234Y-110653101D01*
X64088728Y-110703407D01*
X64093972Y-110750615D01*
X64093972Y-110761789D01*
X64088815Y-110806543D01*
X64072234Y-110856555D01*
X64047303Y-110903170D01*
X64018379Y-110938804D01*
X64000122Y-110956878D01*
X64018379Y-110975013D01*
X64047303Y-111010646D01*
X64072234Y-111057261D01*
X64088812Y-111107228D01*
X64093972Y-111152028D01*
X64093972Y-111163141D01*
X64088729Y-111210357D01*
X64072234Y-111260716D01*
X64047303Y-111307331D01*
X64018379Y-111342964D01*
X63990352Y-111370808D01*
X63954563Y-111399471D01*
X63907737Y-111423809D01*
X63857403Y-111439684D01*
X63811139Y-111444692D01*
X63395376Y-111444692D01*
X63347875Y-111439646D01*
X63297313Y-111423809D01*
X63250539Y-111399475D01*
X63214759Y-111370808D01*
X63186732Y-111342964D01*
X63157951Y-111307304D01*
X63133548Y-111260716D01*
X63117616Y-111210390D01*
X63112543Y-111163141D01*
X63112543Y-111153188D01*
X63281926Y-111153188D01*
X63281926Y-111164301D01*
X63290291Y-111197579D01*
X63305739Y-111225300D01*
X63333705Y-111253083D01*
X63361732Y-111268348D01*
X63395315Y-111276653D01*
X63811139Y-111276653D01*
X63843989Y-111268348D01*
X63871345Y-111253083D01*
X63899310Y-111225300D01*
X63915430Y-111197579D01*
X63922509Y-111178595D01*
X63924528Y-111164301D01*
X63924528Y-111153188D01*
X63915430Y-111121253D01*
X63899310Y-111094875D01*
X63871345Y-111067153D01*
X63843989Y-111050545D01*
X63811139Y-111042179D01*
X63395315Y-111042179D01*
X63361732Y-111050545D01*
X63333705Y-111067153D01*
X63305739Y-111094875D01*
X63290291Y-111121253D01*
X63281926Y-111153188D01*
X63112543Y-111153188D01*
X63112543Y-111152028D01*
X63117537Y-111107195D01*
X63133548Y-111057261D01*
X63157951Y-111010673D01*
X63186732Y-110975013D01*
X63204928Y-110956878D01*
X63186732Y-110938804D01*
X63157951Y-110903143D01*
X63133548Y-110856555D01*
X63117533Y-110806575D01*
X63112543Y-110761789D01*
X63112543Y-110750737D01*
X63281926Y-110750737D01*
X63281926Y-110761972D01*
X63290291Y-110794273D01*
X63305739Y-110820834D01*
X63333705Y-110848922D01*
X63361732Y-110865714D01*
X63395315Y-110874140D01*
X63811139Y-110874140D01*
X63843989Y-110865714D01*
X63871345Y-110848922D01*
X63899310Y-110820834D01*
X63915430Y-110794273D01*
X63924528Y-110761972D01*
X63924528Y-110750737D01*
X63922506Y-110736258D01*
X63915430Y-110717092D01*
X63899310Y-110689065D01*
X63871345Y-110660977D01*
X63843989Y-110644918D01*
X63825469Y-110637811D01*
X63811139Y-110635759D01*
X63395315Y-110635759D01*
X63380893Y-110637792D01*
X63361732Y-110644918D01*
X63333705Y-110660977D01*
X63305739Y-110689065D01*
X63290291Y-110717092D01*
X63281926Y-110750737D01*
X63112543Y-110750737D01*
X63112543Y-110750615D01*
X63117617Y-110703373D01*
X63133548Y-110653101D01*
X63157951Y-110606512D01*
X63186732Y-110570852D01*
X63214759Y-110543008D01*
X63250512Y-110514198D01*
X63297313Y-110489336D01*
X63347908Y-110472936D01*
X63395376Y-110467720D01*
X63811139Y-110467720D01*
X63857370Y-110472896D01*
G37*
G36*
X64989488Y-110592895D02*
G01*
X64684979Y-110900885D01*
X64480547Y-111109224D01*
X64355251Y-111238978D01*
X64290160Y-111310541D01*
X64265675Y-111343514D01*
X64261461Y-111357497D01*
X64266890Y-111383770D01*
X64283871Y-111407994D01*
X64308173Y-111423856D01*
X64335650Y-111429060D01*
X64364138Y-111423743D01*
X64387430Y-111407994D01*
X65093047Y-110696698D01*
X65109691Y-110675309D01*
X65115457Y-110646201D01*
X65109846Y-110617757D01*
X65093047Y-110594299D01*
X65068549Y-110578500D01*
X65039863Y-110573233D01*
X65011547Y-110578280D01*
X64989488Y-110592895D01*
G37*
G36*
X65283374Y-110564868D02*
G01*
X65290065Y-110532586D01*
X65303130Y-110508972D01*
X65322405Y-110491989D01*
X65349197Y-110480909D01*
X65376817Y-110478736D01*
X65401501Y-110485684D01*
X65424714Y-110502327D01*
X65447199Y-110531284D01*
X65665553Y-111234093D01*
X65684601Y-111266094D01*
X65711775Y-111284468D01*
X65823761Y-111283064D01*
X65842724Y-111277546D01*
X65857977Y-111262129D01*
X65869984Y-111232689D01*
X65983424Y-110880202D01*
X66096763Y-110514493D01*
X66120817Y-110489479D01*
X66145667Y-110476513D01*
X66172509Y-110473523D01*
X66203192Y-110480909D01*
X66231684Y-110495475D01*
X66249760Y-110514570D01*
X66259449Y-110538882D01*
X66260589Y-110570485D01*
X66023979Y-111329775D01*
X66005985Y-111372908D01*
X65981969Y-111405430D01*
X65948954Y-111429701D01*
X65898011Y-111448600D01*
X65640396Y-111448600D01*
X65598442Y-111432023D01*
X65561994Y-111404758D01*
X65532784Y-111366152D01*
X65506001Y-111304252D01*
X65283374Y-110564868D01*
G37*
G36*
X67181451Y-110472910D02*
G01*
X67231821Y-110489397D01*
X67278625Y-110514329D01*
X67314436Y-110543252D01*
X67342463Y-110571279D01*
X67371382Y-110607040D01*
X67396318Y-110653833D01*
X67412812Y-110704373D01*
X67418056Y-110751775D01*
X67418056Y-111165949D01*
X67412812Y-111213351D01*
X67396318Y-111263891D01*
X67371382Y-111310684D01*
X67342463Y-111346445D01*
X67314436Y-111374411D01*
X67278593Y-111403239D01*
X67231821Y-111427656D01*
X67181484Y-111443578D01*
X67135223Y-111448600D01*
X66719460Y-111448600D01*
X66671957Y-111443568D01*
X66621397Y-111427778D01*
X66574617Y-111403565D01*
X66538843Y-111375021D01*
X66461845Y-111297230D01*
X66441892Y-111271797D01*
X66435223Y-111239955D01*
X66441753Y-111207351D01*
X66461845Y-111178345D01*
X66488308Y-111160543D01*
X66520647Y-111154531D01*
X66552253Y-111160391D01*
X66580853Y-111178345D01*
X66657850Y-111256747D01*
X66685816Y-111272195D01*
X66719460Y-111280560D01*
X67135223Y-111280560D01*
X67168073Y-111272134D01*
X67195429Y-111256564D01*
X67223456Y-111228354D01*
X67239515Y-111200205D01*
X67246592Y-111180871D01*
X67248613Y-111166316D01*
X67248613Y-111042179D01*
X66719460Y-111042179D01*
X66671962Y-111037119D01*
X66621397Y-111021236D01*
X66574626Y-110996841D01*
X66538843Y-110968113D01*
X66510816Y-110940147D01*
X66482039Y-110904418D01*
X66457632Y-110857715D01*
X66441617Y-110807561D01*
X66436627Y-110762643D01*
X66436627Y-110751469D01*
X66436705Y-110750737D01*
X66606010Y-110750737D01*
X66606010Y-110761972D01*
X66614375Y-110794273D01*
X66629823Y-110820834D01*
X66657850Y-110848922D01*
X66685816Y-110865714D01*
X66719460Y-110874140D01*
X67248613Y-110874140D01*
X67248613Y-110750737D01*
X67246590Y-110736258D01*
X67239515Y-110717092D01*
X67223456Y-110689065D01*
X67195429Y-110660977D01*
X67168073Y-110644918D01*
X67149553Y-110637811D01*
X67135223Y-110635759D01*
X66719460Y-110635759D01*
X66704984Y-110637795D01*
X66685816Y-110644918D01*
X66657850Y-110660977D01*
X66629823Y-110689065D01*
X66614375Y-110717092D01*
X66606010Y-110750737D01*
X66436705Y-110750737D01*
X66441702Y-110704043D01*
X66457632Y-110653589D01*
X66482039Y-110606886D01*
X66510816Y-110571157D01*
X66538843Y-110543191D01*
X66574599Y-110514320D01*
X66621397Y-110489397D01*
X66671995Y-110472950D01*
X66719460Y-110467720D01*
X67135223Y-110467720D01*
X67181451Y-110472910D01*
G37*
G36*
X68331347Y-110472910D02*
G01*
X68381716Y-110489397D01*
X68428520Y-110514329D01*
X68464331Y-110543252D01*
X68492358Y-110571279D01*
X68521278Y-110607040D01*
X68546214Y-110653833D01*
X68562708Y-110704373D01*
X68567951Y-110751775D01*
X68567951Y-111165949D01*
X68562708Y-111213351D01*
X68546214Y-111263891D01*
X68521278Y-111310684D01*
X68492358Y-111346445D01*
X68464331Y-111374411D01*
X68428488Y-111403239D01*
X68381716Y-111427656D01*
X68331379Y-111443578D01*
X68285118Y-111448600D01*
X67869356Y-111448600D01*
X67821852Y-111443568D01*
X67771292Y-111427778D01*
X67724512Y-111403565D01*
X67688738Y-111375021D01*
X67611741Y-111297230D01*
X67591787Y-111271797D01*
X67585118Y-111239955D01*
X67591648Y-111207351D01*
X67611741Y-111178345D01*
X67638203Y-111160543D01*
X67670542Y-111154531D01*
X67702148Y-111160391D01*
X67730748Y-111178345D01*
X67807745Y-111256747D01*
X67835711Y-111272195D01*
X67869356Y-111280560D01*
X68285118Y-111280560D01*
X68317969Y-111272134D01*
X68345324Y-111256564D01*
X68373351Y-111228354D01*
X68389410Y-111200205D01*
X68396487Y-111180871D01*
X68398508Y-111166316D01*
X68398508Y-111042179D01*
X67869356Y-111042179D01*
X67821857Y-111037119D01*
X67771292Y-111021236D01*
X67724521Y-110996841D01*
X67688738Y-110968113D01*
X67660711Y-110940147D01*
X67631934Y-110904418D01*
X67607527Y-110857715D01*
X67591512Y-110807561D01*
X67586523Y-110762643D01*
X67586523Y-110751469D01*
X67586601Y-110750737D01*
X67755905Y-110750737D01*
X67755905Y-110761972D01*
X67764270Y-110794273D01*
X67779719Y-110820834D01*
X67807745Y-110848922D01*
X67835711Y-110865714D01*
X67869356Y-110874140D01*
X68398508Y-110874140D01*
X68398508Y-110750737D01*
X68396485Y-110736258D01*
X68389410Y-110717092D01*
X68373351Y-110689065D01*
X68345324Y-110660977D01*
X68317969Y-110644918D01*
X68299448Y-110637811D01*
X68285118Y-110635759D01*
X67869356Y-110635759D01*
X67854880Y-110637795D01*
X67835711Y-110644918D01*
X67807745Y-110660977D01*
X67779719Y-110689065D01*
X67764270Y-110717092D01*
X67755905Y-110750737D01*
X67586601Y-110750737D01*
X67591598Y-110704043D01*
X67607527Y-110653589D01*
X67631934Y-110606886D01*
X67660711Y-110571157D01*
X67688738Y-110543191D01*
X67724494Y-110514320D01*
X67771292Y-110489397D01*
X67821890Y-110472950D01*
X67869356Y-110467720D01*
X68285118Y-110467720D01*
X68331347Y-110472910D01*
G37*
G36*
X68735013Y-110552289D02*
G01*
X68741156Y-110519646D01*
X68759499Y-110492389D01*
X68786635Y-110473896D01*
X68819033Y-110467720D01*
X69433609Y-110471628D01*
X69480975Y-110476875D01*
X69530940Y-110493305D01*
X69577163Y-110518140D01*
X69612822Y-110547038D01*
X69640849Y-110574943D01*
X69669854Y-110610437D01*
X69694705Y-110655970D01*
X69711341Y-110704491D01*
X69716442Y-110746707D01*
X69710395Y-110792353D01*
X69691224Y-110840984D01*
X69662706Y-110885442D01*
X69629614Y-110919875D01*
X69611418Y-110932453D01*
X69574789Y-110957209D01*
X69528131Y-110977821D01*
X69478693Y-110991094D01*
X69433609Y-110995285D01*
X69422435Y-110995285D01*
X69389523Y-111003711D01*
X69371497Y-111013170D01*
X69362229Y-111021907D01*
X69334202Y-111047125D01*
X69307580Y-111084189D01*
X69295861Y-111108134D01*
X69290849Y-111125527D01*
X69232048Y-111387295D01*
X69218244Y-111416991D01*
X69193518Y-111439135D01*
X69162480Y-111450685D01*
X69129832Y-111448905D01*
X69103122Y-111437813D01*
X69082205Y-111418802D01*
X69068503Y-111394331D01*
X69064009Y-111367694D01*
X69064680Y-111360000D01*
X69066817Y-111348094D01*
X69127023Y-111087731D01*
X69140038Y-111047203D01*
X69161278Y-111002490D01*
X69187753Y-110960685D01*
X69215195Y-110928606D01*
X69243222Y-110900824D01*
X69278996Y-110872280D01*
X69325776Y-110848067D01*
X69376160Y-110832237D01*
X69422435Y-110827246D01*
X69433609Y-110827246D01*
X69471406Y-110819491D01*
X69506393Y-110801844D01*
X69523246Y-110789144D01*
X69538572Y-110768017D01*
X69546999Y-110746829D01*
X69538572Y-110720756D01*
X69521842Y-110693278D01*
X69493815Y-110665068D01*
X69465849Y-110648826D01*
X69446681Y-110641703D01*
X69432205Y-110639667D01*
X68819033Y-110638263D01*
X68786688Y-110631941D01*
X68759499Y-110612923D01*
X68741133Y-110585058D01*
X68735013Y-110552289D01*
G37*
G36*
X70628759Y-110472896D02*
G01*
X70679125Y-110489336D01*
X70725978Y-110514202D01*
X70761741Y-110543008D01*
X70789767Y-110570852D01*
X70818691Y-110606486D01*
X70843623Y-110653101D01*
X70860117Y-110703407D01*
X70865361Y-110750615D01*
X70865361Y-110761789D01*
X70860204Y-110806543D01*
X70843623Y-110856555D01*
X70818691Y-110903170D01*
X70789767Y-110938804D01*
X70771510Y-110956878D01*
X70789767Y-110975013D01*
X70818691Y-111010646D01*
X70843623Y-111057261D01*
X70860200Y-111107228D01*
X70865361Y-111152028D01*
X70865361Y-111163141D01*
X70860118Y-111210357D01*
X70843623Y-111260716D01*
X70818691Y-111307331D01*
X70789767Y-111342964D01*
X70761741Y-111370808D01*
X70725952Y-111399471D01*
X70679125Y-111423809D01*
X70628791Y-111439684D01*
X70582527Y-111444692D01*
X70166765Y-111444692D01*
X70119264Y-111439646D01*
X70068702Y-111423809D01*
X70021927Y-111399475D01*
X69986147Y-111370808D01*
X69958121Y-111342964D01*
X69929339Y-111307304D01*
X69904937Y-111260716D01*
X69889005Y-111210390D01*
X69883932Y-111163141D01*
X69883932Y-111153188D01*
X70053314Y-111153188D01*
X70053314Y-111164301D01*
X70061680Y-111197579D01*
X70077128Y-111225300D01*
X70105094Y-111253083D01*
X70133121Y-111268348D01*
X70166704Y-111276653D01*
X70582527Y-111276653D01*
X70615378Y-111268348D01*
X70642733Y-111253083D01*
X70670699Y-111225300D01*
X70686819Y-111197579D01*
X70693898Y-111178595D01*
X70695917Y-111164301D01*
X70695917Y-111153188D01*
X70686819Y-111121253D01*
X70670699Y-111094875D01*
X70642733Y-111067153D01*
X70615378Y-111050545D01*
X70582527Y-111042179D01*
X70166704Y-111042179D01*
X70133121Y-111050545D01*
X70105094Y-111067153D01*
X70077128Y-111094875D01*
X70061680Y-111121253D01*
X70053314Y-111153188D01*
X69883932Y-111153188D01*
X69883932Y-111152028D01*
X69888925Y-111107195D01*
X69904937Y-111057261D01*
X69929339Y-111010673D01*
X69958121Y-110975013D01*
X69976317Y-110956878D01*
X69958121Y-110938804D01*
X69929339Y-110903143D01*
X69904937Y-110856555D01*
X69888922Y-110806575D01*
X69883932Y-110761789D01*
X69883932Y-110750737D01*
X70053314Y-110750737D01*
X70053314Y-110761972D01*
X70061680Y-110794273D01*
X70077128Y-110820834D01*
X70105094Y-110848922D01*
X70133121Y-110865714D01*
X70166704Y-110874140D01*
X70582527Y-110874140D01*
X70615378Y-110865714D01*
X70642733Y-110848922D01*
X70670699Y-110820834D01*
X70686819Y-110794273D01*
X70695917Y-110761972D01*
X70695917Y-110750737D01*
X70693895Y-110736258D01*
X70686819Y-110717092D01*
X70670699Y-110689065D01*
X70642733Y-110660977D01*
X70615378Y-110644918D01*
X70596857Y-110637811D01*
X70582527Y-110635759D01*
X70166704Y-110635759D01*
X70152282Y-110637792D01*
X70133121Y-110644918D01*
X70105094Y-110660977D01*
X70077128Y-110689065D01*
X70061680Y-110717092D01*
X70053314Y-110750737D01*
X69883932Y-110750737D01*
X69883932Y-110750615D01*
X69889006Y-110703373D01*
X69904937Y-110653101D01*
X69929339Y-110606512D01*
X69958121Y-110570852D01*
X69986147Y-110543008D01*
X70021901Y-110514198D01*
X70068702Y-110489336D01*
X70119297Y-110472936D01*
X70166765Y-110467720D01*
X70582527Y-110467720D01*
X70628759Y-110472896D01*
G37*
G36*
X71958107Y-110484889D02*
G01*
X72004876Y-110501792D01*
X72013302Y-110501792D01*
X72070713Y-110539099D01*
X72120951Y-110589662D01*
X72164488Y-110655421D01*
X72178471Y-110700117D01*
X72181280Y-110705674D01*
X72184089Y-110761544D01*
X72184089Y-111208387D01*
X72164488Y-111278240D01*
X72153986Y-111294299D01*
X72144888Y-111314510D01*
X72139270Y-111317319D01*
X72136461Y-111322937D01*
X72133714Y-111331302D01*
X72119670Y-111344552D01*
X72105687Y-111362015D01*
X72095856Y-111369709D01*
X72086086Y-111381555D01*
X72075898Y-111387606D01*
X72066486Y-111398347D01*
X72052442Y-111405307D01*
X72038520Y-111415077D01*
X72004876Y-111431869D01*
X71974101Y-111443043D01*
X71965675Y-111445791D01*
X71948883Y-111448600D01*
X71338520Y-111448600D01*
X71327285Y-111448600D01*
X71307684Y-111448600D01*
X71288084Y-111448600D01*
X71274101Y-111448600D01*
X71246074Y-111436082D01*
X71232091Y-111427717D01*
X71221851Y-111415990D01*
X71215300Y-111398530D01*
X71216628Y-111351125D01*
X71229182Y-111319184D01*
X71251529Y-111297903D01*
X71286115Y-111285643D01*
X71338520Y-111284468D01*
X71338520Y-111273294D01*
X71506498Y-111273294D01*
X71506498Y-111284468D01*
X71859307Y-111284468D01*
X71896564Y-111284608D01*
X71940518Y-111276103D01*
X71976572Y-111248131D01*
X72001058Y-111214572D01*
X72015293Y-111174297D01*
X72018920Y-111125222D01*
X72018920Y-110773207D01*
X72010493Y-110725702D01*
X71988756Y-110697064D01*
X71957309Y-110664275D01*
X71933099Y-110654089D01*
X71901317Y-110647483D01*
X71881716Y-110647483D01*
X71526099Y-110647483D01*
X71506498Y-110647483D01*
X71506498Y-111273294D01*
X71338520Y-111273294D01*
X71338520Y-110644369D01*
X71300022Y-110646747D01*
X71267793Y-110638774D01*
X71239906Y-110620819D01*
X71215300Y-110591246D01*
X71212711Y-110557112D01*
X71219989Y-110528139D01*
X71237004Y-110502560D01*
X71265675Y-110479444D01*
X71299319Y-110479444D01*
X71307684Y-110479444D01*
X71904125Y-110479444D01*
X71912491Y-110479444D01*
X71958107Y-110484889D01*
G37*
G36*
X72993981Y-110821981D02*
G01*
X73022636Y-110829993D01*
X73049560Y-110842384D01*
X73070935Y-110857410D01*
X73154954Y-110929095D01*
X73175008Y-110951058D01*
X73191346Y-110978982D01*
X73201938Y-111009472D01*
X73205329Y-111038699D01*
X73205329Y-111137129D01*
X73199868Y-111165647D01*
X73183592Y-111189153D01*
X73159701Y-111204928D01*
X73131140Y-111210218D01*
X72499712Y-111210218D01*
X72499712Y-111233666D01*
X72499712Y-111235070D01*
X72513695Y-111246794D01*
X72541050Y-111268837D01*
X72567611Y-111290941D01*
X72579518Y-111301260D01*
X72590753Y-111304008D01*
X72965910Y-111304008D01*
X72977145Y-111301260D01*
X72979954Y-111298451D01*
X73044312Y-111252228D01*
X73070720Y-111239781D01*
X73098900Y-111238978D01*
X73125395Y-111248866D01*
X73146528Y-111269081D01*
X73158981Y-111295480D01*
X73159839Y-111323914D01*
X73149946Y-111350599D01*
X73129736Y-111371907D01*
X73069643Y-111416394D01*
X73070935Y-111415749D01*
X73048461Y-111430795D01*
X73021903Y-111442616D01*
X72993910Y-111450100D01*
X72967315Y-111452507D01*
X72589349Y-111452507D01*
X72562743Y-111450115D01*
X72534699Y-111442677D01*
X72508186Y-111430933D01*
X72485729Y-111415993D01*
X72403114Y-111345834D01*
X72382124Y-111323752D01*
X72366050Y-111296009D01*
X72355972Y-111265559D01*
X72352739Y-111236352D01*
X72352739Y-111034119D01*
X72499712Y-111034119D01*
X72499712Y-111061719D01*
X73058356Y-111061719D01*
X73058356Y-111041019D01*
X73056952Y-111039676D01*
X73042908Y-111027952D01*
X73015614Y-111005177D01*
X72989052Y-110982462D01*
X72975741Y-110972082D01*
X72965910Y-110967930D01*
X72590753Y-110967930D01*
X72584403Y-110969334D01*
X72578114Y-110972082D01*
X72566207Y-110981729D01*
X72540317Y-111002429D01*
X72513695Y-111023128D01*
X72499712Y-111034119D01*
X72352739Y-111034119D01*
X72352739Y-111029967D01*
X72356130Y-111000802D01*
X72366721Y-110970372D01*
X72383373Y-110942550D01*
X72404518Y-110920485D01*
X72487133Y-110855944D01*
X72508527Y-110841114D01*
X72535432Y-110829261D01*
X72563890Y-110821774D01*
X72589349Y-110819430D01*
X72967315Y-110819430D01*
X72993981Y-110821981D01*
G37*
G36*
X74078314Y-110889772D02*
G01*
X74078314Y-111098416D01*
X74075566Y-111104034D01*
X74060118Y-111119482D01*
X74025130Y-111155203D01*
X73979640Y-111201365D01*
X73934150Y-111247588D01*
X73898429Y-111283308D01*
X73883775Y-111298695D01*
X73880966Y-111299428D01*
X73878157Y-111300100D01*
X73718545Y-111300100D01*
X73715736Y-111299428D01*
X73712927Y-111298695D01*
X73697540Y-111283980D01*
X73662552Y-111247588D01*
X73617001Y-111201365D01*
X73571510Y-111155203D01*
X73536523Y-111118750D01*
X73521135Y-111104034D01*
X73520403Y-111101225D01*
X73519731Y-111098416D01*
X73519731Y-110889772D01*
X73514205Y-110860118D01*
X73497993Y-110836527D01*
X73474107Y-110820799D01*
X73445542Y-110815522D01*
X73417097Y-110820835D01*
X73393763Y-110836588D01*
X73378119Y-110860171D01*
X73372758Y-110889894D01*
X73372758Y-111100492D01*
X73375644Y-111128490D01*
X73384665Y-111158073D01*
X73398757Y-111185468D01*
X73416172Y-111207165D01*
X73609368Y-111405063D01*
X73631118Y-111422497D01*
X73659071Y-111436693D01*
X73689168Y-111445730D01*
X73717140Y-111448600D01*
X73879562Y-111448600D01*
X73907534Y-111445730D01*
X73937630Y-111436693D01*
X73965584Y-111422497D01*
X73987334Y-111405063D01*
X74180530Y-111207165D01*
X74198090Y-111185494D01*
X74212709Y-111158073D01*
X74222292Y-111128457D01*
X74225348Y-111100492D01*
X74225348Y-110889894D01*
X74219825Y-110860230D01*
X74203611Y-110836588D01*
X74179720Y-110820813D01*
X74151160Y-110815522D01*
X74122657Y-110820824D01*
X74099319Y-110836527D01*
X74083677Y-110860059D01*
X74078314Y-110889772D01*
G37*
G36*
X75033897Y-110821981D02*
G01*
X75062552Y-110829993D01*
X75089476Y-110842384D01*
X75110851Y-110857410D01*
X75194870Y-110929095D01*
X75214925Y-110951058D01*
X75231263Y-110978982D01*
X75241854Y-111009472D01*
X75245245Y-111038699D01*
X75245245Y-111137129D01*
X75239784Y-111165647D01*
X75223508Y-111189153D01*
X75199617Y-111204928D01*
X75171057Y-111210218D01*
X74539628Y-111210218D01*
X74539628Y-111233666D01*
X74539628Y-111235070D01*
X74553611Y-111246794D01*
X74580966Y-111268837D01*
X74607527Y-111290941D01*
X74619434Y-111301260D01*
X74630669Y-111304008D01*
X75005826Y-111304008D01*
X75017062Y-111301260D01*
X75019870Y-111298451D01*
X75084228Y-111252228D01*
X75110637Y-111239781D01*
X75138817Y-111238978D01*
X75165312Y-111248866D01*
X75186444Y-111269081D01*
X75198897Y-111295480D01*
X75199755Y-111323914D01*
X75189862Y-111350599D01*
X75169652Y-111371907D01*
X75109562Y-111416393D01*
X75110851Y-111415749D01*
X75088378Y-111430795D01*
X75061819Y-111442616D01*
X75033826Y-111450100D01*
X75007231Y-111452507D01*
X74629265Y-111452507D01*
X74602659Y-111450115D01*
X74574616Y-111442677D01*
X74548103Y-111430933D01*
X74525645Y-111415993D01*
X74443030Y-111345834D01*
X74422040Y-111323752D01*
X74405966Y-111296009D01*
X74395889Y-111265559D01*
X74392655Y-111236352D01*
X74392655Y-111034119D01*
X74539628Y-111034119D01*
X74539628Y-111061719D01*
X75098272Y-111061719D01*
X75098272Y-111041019D01*
X75096868Y-111039676D01*
X75082824Y-111027952D01*
X75055530Y-111005177D01*
X75028968Y-110982462D01*
X75015657Y-110972082D01*
X75005826Y-110967930D01*
X74630669Y-110967930D01*
X74624319Y-110969334D01*
X74618030Y-110972082D01*
X74606123Y-110981729D01*
X74580233Y-111002429D01*
X74553611Y-111023128D01*
X74539628Y-111034119D01*
X74392655Y-111034119D01*
X74392655Y-111029967D01*
X74396046Y-111000802D01*
X74406638Y-110970372D01*
X74423289Y-110942550D01*
X74444434Y-110920485D01*
X74527049Y-110855944D01*
X74548443Y-110841114D01*
X74575348Y-110829261D01*
X74603806Y-110821774D01*
X74629265Y-110819430D01*
X75007231Y-110819430D01*
X75033897Y-110821981D01*
G37*
G36*
X75377930Y-110615609D02*
G01*
X75362225Y-110638939D01*
X75356926Y-110667389D01*
X75362227Y-110695892D01*
X75377930Y-110719229D01*
X75394050Y-110736021D01*
X75430443Y-110773146D01*
X75467568Y-110810942D01*
X75485764Y-110829810D01*
X75488572Y-110836771D01*
X75488572Y-111375815D01*
X75493872Y-111404265D01*
X75509577Y-111427595D01*
X75533101Y-111443239D01*
X75562761Y-111448600D01*
X75591211Y-111443300D01*
X75614541Y-111427595D01*
X75630246Y-111404265D01*
X75635546Y-111375815D01*
X75635546Y-110834023D01*
X75632658Y-110806096D01*
X75623639Y-110776626D01*
X75609543Y-110749241D01*
X75592131Y-110727595D01*
X75481550Y-110615609D01*
X75458315Y-110599707D01*
X75430443Y-110593933D01*
X75402437Y-110598914D01*
X75377930Y-110615609D01*
G37*
G36*
X76387979Y-110814165D02*
G01*
X76416634Y-110822178D01*
X76443564Y-110834555D01*
X76464933Y-110849533D01*
X76548953Y-110921096D01*
X76568958Y-110943054D01*
X76585284Y-110970983D01*
X76595922Y-111001415D01*
X76599328Y-111030578D01*
X76599328Y-111228537D01*
X76595924Y-111257708D01*
X76585284Y-111288193D01*
X76568684Y-111315961D01*
X76547548Y-111338019D01*
X76464933Y-111408177D01*
X76442467Y-111423114D01*
X76415901Y-111434861D01*
X76387911Y-111442298D01*
X76361313Y-111444692D01*
X75983347Y-111444692D01*
X75956741Y-111442300D01*
X75928698Y-111434861D01*
X75902421Y-111423048D01*
X75881132Y-111408177D01*
X75797112Y-111340827D01*
X75777090Y-111318881D01*
X75760720Y-111291002D01*
X75750127Y-111260520D01*
X75746737Y-111231345D01*
X75746737Y-111027036D01*
X75893771Y-111027036D01*
X75893771Y-111227865D01*
X75907754Y-111239711D01*
X75934377Y-111261326D01*
X75960266Y-111282270D01*
X75972173Y-111293383D01*
X75984752Y-111296192D01*
X76359970Y-111296192D01*
X76371144Y-111293383D01*
X76383051Y-111282942D01*
X76409612Y-111260655D01*
X76436906Y-111238367D01*
X76450950Y-111226461D01*
X76452355Y-111225056D01*
X76452355Y-111033997D01*
X76450950Y-111032654D01*
X76436906Y-111020808D01*
X76409612Y-110997788D01*
X76383051Y-110974768D01*
X76369740Y-110964327D01*
X76359970Y-110960114D01*
X75984752Y-110960114D01*
X75978463Y-110961518D01*
X75972173Y-110964327D01*
X75960266Y-110974097D01*
X75934377Y-110994979D01*
X75907754Y-111015923D01*
X75893771Y-111027036D01*
X75746737Y-111027036D01*
X75746737Y-111022151D01*
X75750128Y-110992986D01*
X75760720Y-110962556D01*
X75777372Y-110934734D01*
X75798517Y-110912670D01*
X75881132Y-110848128D01*
X75902525Y-110833298D01*
X75929431Y-110821445D01*
X75957888Y-110813958D01*
X75983347Y-110811614D01*
X76361313Y-110811614D01*
X76387979Y-110814165D01*
G37*
G36*
X77407901Y-110821996D02*
G01*
X77435921Y-110829993D01*
X77462388Y-110842032D01*
X77483548Y-110855944D01*
X77567568Y-110923294D01*
X77587729Y-110945223D01*
X77604631Y-110973181D01*
X77615787Y-111003647D01*
X77619347Y-111032776D01*
X77619347Y-111244779D01*
X77615635Y-111273883D01*
X77603960Y-111304435D01*
X77586244Y-111332255D01*
X77564759Y-111354261D01*
X77483548Y-111417397D01*
X77462269Y-111431128D01*
X77435249Y-111442677D01*
X77406791Y-111450163D01*
X77381332Y-111452507D01*
X77003306Y-111452507D01*
X76957144Y-111445424D01*
X76913729Y-111425641D01*
X76913729Y-111589772D01*
X76908293Y-111618154D01*
X76891992Y-111641979D01*
X76868063Y-111658135D01*
X76839541Y-111663533D01*
X76811148Y-111658074D01*
X76787761Y-111641796D01*
X76772034Y-111617910D01*
X76766756Y-111589344D01*
X76766756Y-111240810D01*
X76766756Y-111039065D01*
X76913729Y-111039065D01*
X76913729Y-111237085D01*
X76913729Y-111238490D01*
X76927712Y-111249603D01*
X76954335Y-111270546D01*
X76980225Y-111290758D01*
X76992131Y-111299795D01*
X76998421Y-111303336D01*
X77004710Y-111304008D01*
X77379928Y-111304008D01*
X77393911Y-111299795D01*
X77405818Y-111290758D01*
X77430975Y-111271279D01*
X77456864Y-111251007D01*
X77472313Y-111239833D01*
X77472313Y-111037661D01*
X77470908Y-111036257D01*
X77456864Y-111025082D01*
X77430303Y-111003467D01*
X77404413Y-110981912D01*
X77392506Y-110972143D01*
X77386217Y-110969334D01*
X77379928Y-110967930D01*
X77004710Y-110967930D01*
X76999092Y-110969334D01*
X76993536Y-110972143D01*
X76981629Y-110982584D01*
X76955006Y-111004871D01*
X76927712Y-111027220D01*
X76913729Y-111039065D01*
X76766756Y-111039065D01*
X76766756Y-111035035D01*
X76766756Y-111025205D01*
X76772313Y-110994430D01*
X76790509Y-110956633D01*
X76817131Y-110925798D01*
X76899747Y-110857227D01*
X76922134Y-110842190D01*
X76948717Y-110829932D01*
X76976779Y-110821979D01*
X77003306Y-110819430D01*
X77381332Y-110819430D01*
X77407901Y-110821996D01*
G37*
G36*
X78849232Y-110898381D02*
G01*
X78811435Y-110870232D01*
X78782004Y-110853380D01*
X78742131Y-110842083D01*
X78686139Y-110836466D01*
X78607004Y-110835061D01*
X78397016Y-110835061D01*
X78376860Y-110837877D01*
X78358487Y-110846297D01*
X78342838Y-110858987D01*
X78331254Y-110874262D01*
X78325636Y-110870110D01*
X78296938Y-110853319D01*
X78257737Y-110842083D01*
X78201744Y-110836466D01*
X78122670Y-110835061D01*
X77912622Y-110835061D01*
X77887301Y-110820353D01*
X77859438Y-110815522D01*
X77830992Y-110820835D01*
X77807658Y-110836588D01*
X77791953Y-110859976D01*
X77786653Y-110888490D01*
X77786653Y-111375632D01*
X77791953Y-111404145D01*
X77807658Y-111427534D01*
X77830992Y-111443287D01*
X77859438Y-111448600D01*
X77887994Y-111443295D01*
X77911889Y-111427472D01*
X77928160Y-111403950D01*
X77933627Y-111375327D01*
X77933627Y-110983561D01*
X78122609Y-110983561D01*
X78210109Y-110985698D01*
X78241617Y-110989179D01*
X78255600Y-111001147D01*
X78271048Y-111013176D01*
X78271048Y-111375327D01*
X78276501Y-111403955D01*
X78292725Y-111427472D01*
X78316670Y-111443297D01*
X78345237Y-111448600D01*
X78373677Y-111443273D01*
X78397016Y-111427472D01*
X78412715Y-111404008D01*
X78418021Y-111375327D01*
X78418021Y-111007497D01*
X78418021Y-110994857D01*
X78415212Y-110983561D01*
X78607065Y-110983561D01*
X78695908Y-110985698D01*
X78726072Y-110989179D01*
X78740727Y-111001147D01*
X78756847Y-111013176D01*
X78756847Y-111375327D01*
X78762153Y-111404008D01*
X78777852Y-111427472D01*
X78801191Y-111443273D01*
X78829631Y-111448600D01*
X78858192Y-111443309D01*
X78882083Y-111427534D01*
X78898356Y-111404020D01*
X78903820Y-111375449D01*
X78903820Y-111008169D01*
X78900059Y-110977738D01*
X78888433Y-110946986D01*
X78870641Y-110919323D01*
X78849232Y-110898381D01*
G37*
G36*
X79712613Y-110821981D02*
G01*
X79741268Y-110829993D01*
X79768192Y-110842384D01*
X79789567Y-110857410D01*
X79873586Y-110929095D01*
X79893641Y-110951058D01*
X79909979Y-110978982D01*
X79920570Y-111009472D01*
X79923961Y-111038699D01*
X79923961Y-111137129D01*
X79918500Y-111165647D01*
X79902224Y-111189153D01*
X79878333Y-111204928D01*
X79849773Y-111210218D01*
X79218344Y-111210218D01*
X79218344Y-111233666D01*
X79218344Y-111235070D01*
X79232327Y-111246794D01*
X79259682Y-111268837D01*
X79286243Y-111290941D01*
X79298150Y-111301260D01*
X79309385Y-111304008D01*
X79684542Y-111304008D01*
X79695778Y-111301260D01*
X79698586Y-111298451D01*
X79762944Y-111252228D01*
X79789353Y-111239781D01*
X79817533Y-111238978D01*
X79844028Y-111248866D01*
X79865160Y-111269081D01*
X79877613Y-111295480D01*
X79878471Y-111323914D01*
X79868578Y-111350599D01*
X79848368Y-111371907D01*
X79788278Y-111416393D01*
X79789567Y-111415749D01*
X79767094Y-111430795D01*
X79740535Y-111442616D01*
X79712542Y-111450100D01*
X79685947Y-111452507D01*
X79307981Y-111452507D01*
X79281375Y-111450115D01*
X79253332Y-111442677D01*
X79226819Y-111430933D01*
X79204361Y-111415993D01*
X79121746Y-111345834D01*
X79100756Y-111323752D01*
X79084682Y-111296009D01*
X79074605Y-111265559D01*
X79071371Y-111236352D01*
X79071371Y-111034119D01*
X79218344Y-111034119D01*
X79218344Y-111061719D01*
X79776988Y-111061719D01*
X79776988Y-111041019D01*
X79775584Y-111039676D01*
X79761540Y-111027952D01*
X79734246Y-111005177D01*
X79707684Y-110982462D01*
X79694373Y-110972082D01*
X79684542Y-110967930D01*
X79309385Y-110967930D01*
X79303035Y-110969334D01*
X79296746Y-110972082D01*
X79284839Y-110981729D01*
X79258949Y-111002429D01*
X79232327Y-111023128D01*
X79218344Y-111034119D01*
X79071371Y-111034119D01*
X79071371Y-111029967D01*
X79074762Y-111000802D01*
X79085354Y-110970372D01*
X79102005Y-110942550D01*
X79123150Y-110920485D01*
X79205765Y-110855944D01*
X79227159Y-110841114D01*
X79254064Y-110829261D01*
X79282522Y-110821774D01*
X79307981Y-110819430D01*
X79685947Y-110819430D01*
X79712613Y-110821981D01*
G37*
G36*
X80887988Y-110900641D02*
G01*
X80851596Y-110872614D01*
X80822165Y-110856494D01*
X80782231Y-110845991D01*
X80726238Y-110840374D01*
X80647165Y-110838969D01*
X80215954Y-110838969D01*
X80193706Y-110824510D01*
X80164113Y-110819430D01*
X80135658Y-110824716D01*
X80112334Y-110840374D01*
X80096691Y-110863788D01*
X80091329Y-110893374D01*
X80091329Y-111376059D01*
X80096627Y-111404447D01*
X80112334Y-111427717D01*
X80135662Y-111443324D01*
X80164174Y-111448600D01*
X80192744Y-111443336D01*
X80216625Y-111427656D01*
X80232906Y-111404277D01*
X80238363Y-111375937D01*
X80238363Y-110987469D01*
X80647165Y-110987469D01*
X80734665Y-110989606D01*
X80766172Y-110993087D01*
X80780094Y-111004932D01*
X80796946Y-111016839D01*
X80796946Y-111375937D01*
X80802243Y-111404335D01*
X80817951Y-111427656D01*
X80841284Y-111443311D01*
X80869792Y-111448600D01*
X80898357Y-111443322D01*
X80922243Y-111427595D01*
X80938523Y-111404157D01*
X80943981Y-111375754D01*
X80943981Y-111009939D01*
X80940052Y-110979671D01*
X80927861Y-110949001D01*
X80909539Y-110921437D01*
X80887988Y-110900641D01*
G37*
G36*
X81700706Y-111452507D02*
G01*
X81729126Y-111447003D01*
X81752486Y-111430587D01*
X81767854Y-111406452D01*
X81772086Y-111377525D01*
X81766632Y-111348833D01*
X81750409Y-111325257D01*
X81726496Y-111309342D01*
X81697897Y-111304008D01*
X81672740Y-111304008D01*
X81616687Y-111304008D01*
X81559289Y-111304008D01*
X81532728Y-111304008D01*
X81522897Y-111301199D01*
X81510990Y-111290758D01*
X81484368Y-111267799D01*
X81457074Y-111244779D01*
X81443091Y-111232872D01*
X81441687Y-111231529D01*
X81441687Y-111026548D01*
X81566311Y-111026548D01*
X81594863Y-111021230D01*
X81618763Y-111005360D01*
X81635035Y-110981728D01*
X81640500Y-110953031D01*
X81634967Y-110923083D01*
X81618763Y-110899297D01*
X81594858Y-110883379D01*
X81566311Y-110878048D01*
X81441687Y-110878048D01*
X81441687Y-110673739D01*
X81436418Y-110645594D01*
X81420682Y-110622021D01*
X81397123Y-110606044D01*
X81367498Y-110600588D01*
X81339081Y-110605981D01*
X81315718Y-110622021D01*
X81299982Y-110645594D01*
X81294713Y-110673739D01*
X81294713Y-110878048D01*
X81184132Y-110878048D01*
X81155649Y-110883404D01*
X81132292Y-110899297D01*
X81116657Y-110923023D01*
X81111287Y-110953031D01*
X81116592Y-110981786D01*
X81132292Y-111005360D01*
X81155644Y-111021206D01*
X81184132Y-111026548D01*
X81294713Y-111026548D01*
X81294713Y-111235986D01*
X81297951Y-111265299D01*
X81308025Y-111295765D01*
X81324103Y-111323559D01*
X81345088Y-111345651D01*
X81429108Y-111417336D01*
X81450480Y-111432375D01*
X81477407Y-111444814D01*
X81506233Y-111452387D01*
X81534132Y-111453912D01*
X81700706Y-111452507D01*
G37*
G36*
X82128803Y-110816682D02*
G01*
X82128585Y-110746632D01*
X82139589Y-110686358D01*
X82160846Y-110634003D01*
X82192322Y-110588126D01*
X82234915Y-110547816D01*
X82290379Y-110512778D01*
X82361200Y-110483352D01*
X82820376Y-110483352D01*
X82828803Y-110483352D01*
X82837168Y-110483352D01*
X82859577Y-110483352D01*
X82879178Y-110486161D01*
X82940078Y-110513552D01*
X82996462Y-110550862D01*
X83048877Y-110598849D01*
X83097592Y-110658718D01*
X83097592Y-110703476D01*
X83097592Y-110711902D01*
X83097592Y-110720267D01*
X83072861Y-110750946D01*
X83040218Y-110768483D01*
X82996781Y-110773512D01*
X82980853Y-110767281D01*
X82966006Y-110756660D01*
X82957580Y-110753912D01*
X82940788Y-110734311D01*
X82918379Y-110714711D01*
X82904396Y-110697919D01*
X82898778Y-110692302D01*
X82888276Y-110683203D01*
X82876369Y-110669892D01*
X82854021Y-110655909D01*
X82820376Y-110647483D01*
X82447967Y-110647483D01*
X82420001Y-110647483D01*
X82397592Y-110651391D01*
X82389227Y-110651391D01*
X82380800Y-110655299D01*
X82372374Y-110655299D01*
X82340481Y-110678947D01*
X82313572Y-110711597D01*
X82308016Y-110714406D01*
X82302398Y-110729182D01*
X82296781Y-110748172D01*
X82293972Y-110753790D01*
X82293972Y-110787556D01*
X82293972Y-110795983D01*
X82293972Y-111161736D01*
X82295925Y-111183383D01*
X82302398Y-111209608D01*
X82327244Y-111242375D01*
X82359502Y-111268510D01*
X82400401Y-111288376D01*
X82433984Y-111288376D01*
X82442411Y-111288376D01*
X82817568Y-111288376D01*
X82837168Y-111285567D01*
X82882132Y-111257213D01*
X82926805Y-111212783D01*
X82936575Y-111205089D01*
X82946406Y-111193183D01*
X82963197Y-111182008D01*
X82968815Y-111176391D01*
X82974371Y-111173582D01*
X82979989Y-111167964D01*
X82985607Y-111165217D01*
X83005207Y-111162408D01*
X83027616Y-111162408D01*
X83047217Y-111165217D01*
X83074674Y-111186359D01*
X83097592Y-111218401D01*
X83097592Y-111221209D01*
X83097592Y-111218401D01*
X83097592Y-111224018D01*
X83097592Y-111221209D01*
X83097592Y-111226766D01*
X83097592Y-111224018D01*
X83097592Y-111229575D01*
X83097592Y-111226766D01*
X83097592Y-111232384D01*
X83097592Y-111229575D01*
X83097592Y-111235192D01*
X83097592Y-111232384D01*
X83097592Y-111238001D01*
X83097592Y-111235192D01*
X83097592Y-111238001D01*
X83097592Y-111260410D01*
X83097592Y-111263219D01*
X83097592Y-111260410D01*
X83097592Y-111265967D01*
X83097592Y-111263219D01*
X83097592Y-111268776D01*
X83097592Y-111265967D01*
X83097592Y-111271584D01*
X83097592Y-111268776D01*
X83097592Y-111274393D01*
X83097592Y-111271584D01*
X83097592Y-111274393D01*
X83056627Y-111329656D01*
X83007176Y-111377026D01*
X82948436Y-111417018D01*
X82879178Y-111449699D01*
X82862386Y-111452507D01*
X82475994Y-111452507D01*
X82467568Y-111452507D01*
X82407246Y-111455292D01*
X82351242Y-111447050D01*
X82298403Y-111428015D01*
X82247797Y-111397600D01*
X82198778Y-111354444D01*
X82166215Y-111310644D01*
X82137229Y-111250824D01*
X82131612Y-111234032D01*
X82128803Y-111217240D01*
X82128803Y-110816682D01*
G37*
G36*
X83906717Y-110818074D02*
G01*
X83934734Y-110826024D01*
X83961326Y-110838232D01*
X83983766Y-110853258D01*
X84066320Y-110921707D01*
X84087510Y-110943700D01*
X84104117Y-110971349D01*
X84114754Y-111001669D01*
X84118161Y-111030761D01*
X84118161Y-111053109D01*
X84118161Y-111236169D01*
X84118161Y-111448600D01*
X83973935Y-111448600D01*
X83973935Y-111415016D01*
X83953174Y-111427429D01*
X83929117Y-111436937D01*
X83880146Y-111444692D01*
X83502119Y-111444692D01*
X83475504Y-111442157D01*
X83446859Y-111434189D01*
X83419933Y-111421751D01*
X83398560Y-111406712D01*
X83314541Y-111335027D01*
X83294585Y-111313154D01*
X83278820Y-111285873D01*
X83268760Y-111255992D01*
X83265509Y-111226827D01*
X83265509Y-111223102D01*
X83412543Y-111223102D01*
X83412543Y-111225850D01*
X83426526Y-111237574D01*
X83453820Y-111260349D01*
X83480443Y-111283125D01*
X83493754Y-111293444D01*
X83503524Y-111296192D01*
X83878742Y-111296192D01*
X83885031Y-111295520D01*
X83891320Y-111292040D01*
X83903227Y-111283125D01*
X83929849Y-111263097D01*
X83956411Y-111242397D01*
X83971127Y-111231345D01*
X83971127Y-111230002D01*
X83971127Y-111202403D01*
X83412543Y-111202403D01*
X83412543Y-111223102D01*
X83265509Y-111223102D01*
X83265509Y-111128397D01*
X83270788Y-111099706D01*
X83286514Y-111075702D01*
X83309914Y-111059379D01*
X83338354Y-111053903D01*
X83971127Y-111053903D01*
X83971127Y-111031433D01*
X83969722Y-111031433D01*
X83955739Y-111020198D01*
X83928445Y-110999071D01*
X83901823Y-110977944D01*
X83889916Y-110967991D01*
X83884359Y-110965365D01*
X83878742Y-110964022D01*
X83496563Y-110964022D01*
X83490945Y-110965426D01*
X83485327Y-110968235D01*
X83482519Y-110971044D01*
X83418161Y-111015801D01*
X83391743Y-111028263D01*
X83363511Y-111029112D01*
X83337068Y-111019228D01*
X83315945Y-110999009D01*
X83303541Y-110973651D01*
X83302634Y-110944849D01*
X83312573Y-110917541D01*
X83332737Y-110896122D01*
X83395751Y-110850876D01*
X83416842Y-110836961D01*
X83442646Y-110825414D01*
X83469880Y-110817909D01*
X83495158Y-110815522D01*
X83880146Y-110815522D01*
X83906717Y-110818074D01*
G37*
G36*
X85082065Y-110889467D02*
G01*
X85045673Y-110861195D01*
X85024360Y-110847517D01*
X84997374Y-110836466D01*
X84968945Y-110829446D01*
X84943518Y-110827246D01*
X84424075Y-110827246D01*
X84403070Y-110830054D01*
X84382166Y-110819183D01*
X84358312Y-110815522D01*
X84329805Y-110820811D01*
X84306472Y-110836466D01*
X84290829Y-110859880D01*
X84285467Y-110889467D01*
X84285467Y-111372151D01*
X84290766Y-111400539D01*
X84306472Y-111423809D01*
X84329800Y-111439417D01*
X84358312Y-111444692D01*
X84386887Y-111439441D01*
X84410764Y-111423809D01*
X84427046Y-111400548D01*
X84432501Y-111372335D01*
X84432501Y-110975745D01*
X84943518Y-110975745D01*
X84950479Y-110977150D01*
X84957501Y-110979959D01*
X84972156Y-110991865D01*
X84991085Y-111005177D01*
X84998228Y-111031169D01*
X85014166Y-111053476D01*
X85036685Y-111068650D01*
X85063869Y-111073748D01*
X85092435Y-111068320D01*
X85116381Y-111052071D01*
X85132630Y-111028125D01*
X85138058Y-110999559D01*
X85134135Y-110969193D01*
X85121938Y-110938254D01*
X85103609Y-110910450D01*
X85082065Y-110889467D01*
G37*
G36*
X85839157Y-111452507D02*
G01*
X85867576Y-111447003D01*
X85890936Y-111430587D01*
X85906305Y-111406452D01*
X85910537Y-111377525D01*
X85905083Y-111348833D01*
X85888860Y-111325257D01*
X85864947Y-111309342D01*
X85836348Y-111304008D01*
X85811191Y-111304008D01*
X85755137Y-111304008D01*
X85697740Y-111304008D01*
X85671179Y-111304008D01*
X85661348Y-111301199D01*
X85649441Y-111290758D01*
X85622819Y-111267799D01*
X85595525Y-111244779D01*
X85581542Y-111232872D01*
X85580137Y-111231529D01*
X85580137Y-111026548D01*
X85704762Y-111026548D01*
X85733313Y-111021230D01*
X85757213Y-111005360D01*
X85773485Y-110981728D01*
X85778951Y-110953031D01*
X85773418Y-110923083D01*
X85757213Y-110899297D01*
X85733309Y-110883379D01*
X85704762Y-110878048D01*
X85580137Y-110878048D01*
X85580137Y-110673739D01*
X85574869Y-110645594D01*
X85559132Y-110622021D01*
X85535574Y-110606044D01*
X85505949Y-110600588D01*
X85477532Y-110605981D01*
X85454169Y-110622021D01*
X85438433Y-110645594D01*
X85433164Y-110673739D01*
X85433164Y-110878048D01*
X85322583Y-110878048D01*
X85294100Y-110883404D01*
X85270743Y-110899297D01*
X85255108Y-110923023D01*
X85249738Y-110953031D01*
X85255043Y-110981786D01*
X85270743Y-111005360D01*
X85294095Y-111021206D01*
X85322583Y-111026548D01*
X85433164Y-111026548D01*
X85433164Y-111235986D01*
X85436402Y-111265299D01*
X85446475Y-111295765D01*
X85462553Y-111323559D01*
X85483539Y-111345651D01*
X85567559Y-111417336D01*
X85588931Y-111432375D01*
X85615858Y-111444814D01*
X85644684Y-111452387D01*
X85672583Y-111453912D01*
X85839157Y-111452507D01*
G37*
G36*
X86820097Y-110889467D02*
G01*
X86783705Y-110861195D01*
X86762392Y-110847517D01*
X86735406Y-110836466D01*
X86706977Y-110829446D01*
X86681550Y-110827246D01*
X86162107Y-110827246D01*
X86141102Y-110830054D01*
X86120198Y-110819183D01*
X86096345Y-110815522D01*
X86067837Y-110820811D01*
X86044504Y-110836466D01*
X86028861Y-110859880D01*
X86023499Y-110889467D01*
X86023499Y-111372151D01*
X86028798Y-111400539D01*
X86044504Y-111423809D01*
X86067832Y-111439417D01*
X86096345Y-111444692D01*
X86124919Y-111439441D01*
X86148796Y-111423809D01*
X86165078Y-111400548D01*
X86170533Y-111372335D01*
X86170533Y-110975745D01*
X86681550Y-110975745D01*
X86688511Y-110977150D01*
X86695533Y-110979959D01*
X86710188Y-110991865D01*
X86729117Y-111005177D01*
X86736260Y-111031169D01*
X86752198Y-111053476D01*
X86774718Y-111068650D01*
X86801901Y-111073748D01*
X86830467Y-111068320D01*
X86854413Y-111052071D01*
X86870663Y-111028125D01*
X86876090Y-110999559D01*
X86872167Y-110969193D01*
X86859970Y-110938254D01*
X86841641Y-110910450D01*
X86820097Y-110889467D01*
G37*
G36*
X87174921Y-110665068D02*
G01*
X87168462Y-110631442D01*
X87149031Y-110602970D01*
X87120496Y-110583590D01*
X87086749Y-110577141D01*
X87052950Y-110583593D01*
X87024406Y-110602970D01*
X87004975Y-110631442D01*
X86998517Y-110665068D01*
X87004975Y-110698695D01*
X87024406Y-110727167D01*
X87052950Y-110746544D01*
X87086749Y-110752996D01*
X87120496Y-110746547D01*
X87149031Y-110727167D01*
X87168462Y-110698695D01*
X87174921Y-110665068D01*
G37*
G36*
X87013965Y-110887513D02*
G01*
X87013965Y-111371907D01*
X87019264Y-111400357D01*
X87034970Y-111423687D01*
X87058299Y-111439392D01*
X87086749Y-111444692D01*
X87115200Y-111439392D01*
X87138529Y-111423687D01*
X87154234Y-111400357D01*
X87159534Y-111371907D01*
X87159534Y-110887513D01*
X87154173Y-110857853D01*
X87138529Y-110834329D01*
X87115200Y-110818623D01*
X87086749Y-110813324D01*
X87058299Y-110818623D01*
X87034970Y-110834329D01*
X87019325Y-110857853D01*
X87013965Y-110887513D01*
G37*
G36*
X88103517Y-110594156D02*
G01*
X88127407Y-110609931D01*
X88143679Y-110633335D01*
X88149145Y-110661832D01*
X88149145Y-111207593D01*
X88146090Y-111235504D01*
X88136505Y-111265112D01*
X88121886Y-111292533D01*
X88104326Y-111314205D01*
X88017559Y-111401216D01*
X87995914Y-111418641D01*
X87968527Y-111432785D01*
X87939058Y-111441805D01*
X87911130Y-111444692D01*
X87533103Y-111444692D01*
X87505167Y-111441806D01*
X87475645Y-111432785D01*
X87448315Y-111418632D01*
X87426674Y-111401155D01*
X87339907Y-111314144D01*
X87322492Y-111292447D01*
X87308400Y-111265051D01*
X87299379Y-111235468D01*
X87296493Y-111207471D01*
X87296493Y-111052132D01*
X87443527Y-111052132D01*
X87443527Y-111204173D01*
X87444199Y-111207654D01*
X87444931Y-111211134D01*
X87458914Y-111224385D01*
X87486941Y-111252961D01*
X87515640Y-111280866D01*
X87528951Y-111294788D01*
X87532370Y-111295520D01*
X87535912Y-111296192D01*
X87908321Y-111296192D01*
X87911802Y-111295520D01*
X87915282Y-111294788D01*
X87928593Y-111280866D01*
X87957292Y-111252961D01*
X87985258Y-111224385D01*
X87999302Y-111211134D01*
X88002110Y-111204173D01*
X88002110Y-110960114D01*
X87535912Y-110960114D01*
X87528951Y-110962923D01*
X87515640Y-110976906D01*
X87486941Y-111004749D01*
X87458914Y-111032654D01*
X87444931Y-111046576D01*
X87444199Y-111049385D01*
X87443527Y-111052132D01*
X87296493Y-111052132D01*
X87296493Y-111050239D01*
X87299380Y-111022250D01*
X87308400Y-110992720D01*
X87322496Y-110965272D01*
X87339907Y-110943566D01*
X87426674Y-110856555D01*
X87448289Y-110838932D01*
X87475645Y-110824254D01*
X87505200Y-110814670D01*
X87533103Y-110811614D01*
X88002110Y-110811614D01*
X88002110Y-110661710D01*
X88007412Y-110633207D01*
X88023115Y-110609870D01*
X88046453Y-110594167D01*
X88074956Y-110588865D01*
X88103517Y-110594156D01*
G37*
G36*
X88957756Y-110818059D02*
G01*
X88986409Y-110826024D01*
X89013338Y-110838402D01*
X89034708Y-110853380D01*
X89118728Y-110924882D01*
X89138734Y-110946781D01*
X89155059Y-110974646D01*
X89165696Y-111005026D01*
X89169103Y-111034180D01*
X89169103Y-111227621D01*
X89168370Y-111233971D01*
X89167698Y-111240199D01*
X89168370Y-111245145D01*
X89169103Y-111250030D01*
X89169103Y-111436448D01*
X89166046Y-111464352D01*
X89156463Y-111493907D01*
X89141845Y-111521328D01*
X89124284Y-111542999D01*
X89048691Y-111618654D01*
X89027065Y-111636259D01*
X88999659Y-111650894D01*
X88970157Y-111660476D01*
X88942262Y-111663533D01*
X88477468Y-111663533D01*
X88448963Y-111658057D01*
X88424956Y-111641612D01*
X88408713Y-111617421D01*
X88403279Y-111588551D01*
X88408732Y-111559849D01*
X88424956Y-111536222D01*
X88448906Y-111520349D01*
X88477468Y-111515034D01*
X88939515Y-111515034D01*
X88942262Y-111513690D01*
X88945071Y-111512286D01*
X88957650Y-111499952D01*
X88982196Y-111475894D01*
X89006681Y-111451897D01*
X89019260Y-111440906D01*
X89022069Y-111434067D01*
X89022069Y-111420328D01*
X88977983Y-111440845D01*
X88931088Y-111448600D01*
X88553122Y-111448600D01*
X88527663Y-111446255D01*
X88499206Y-111438769D01*
X88472185Y-111427220D01*
X88450907Y-111413490D01*
X88368292Y-111347544D01*
X88347143Y-111325489D01*
X88330495Y-111297718D01*
X88319902Y-111267236D01*
X88316512Y-111238062D01*
X88316512Y-111035157D01*
X88463485Y-111035157D01*
X88463485Y-111233177D01*
X88463485Y-111234582D01*
X88477468Y-111245695D01*
X88504091Y-111266639D01*
X88529980Y-111286850D01*
X88541887Y-111295887D01*
X88548176Y-111299428D01*
X88554466Y-111300100D01*
X88929684Y-111300100D01*
X88939453Y-111297291D01*
X88952032Y-111286178D01*
X88979326Y-111262486D01*
X89006620Y-111238734D01*
X89020664Y-111226216D01*
X89022069Y-111224812D01*
X89022069Y-111037905D01*
X89020664Y-111036562D01*
X89006620Y-111024716D01*
X88979326Y-111001696D01*
X88952765Y-110978676D01*
X88939453Y-110968235D01*
X88929684Y-110964022D01*
X88554466Y-110964022D01*
X88548848Y-110965426D01*
X88543292Y-110968235D01*
X88531385Y-110978676D01*
X88504762Y-111000963D01*
X88477468Y-111023312D01*
X88463485Y-111035157D01*
X88316512Y-111035157D01*
X88316512Y-111031677D01*
X88319747Y-111002479D01*
X88329823Y-110972082D01*
X88345901Y-110944288D01*
X88366887Y-110922195D01*
X88449502Y-110853441D01*
X88471936Y-110838350D01*
X88498473Y-110826086D01*
X88526545Y-110818087D01*
X88553122Y-110815522D01*
X88931088Y-110815522D01*
X88957756Y-110818059D01*
G37*
G36*
X89977651Y-110821981D02*
G01*
X90006306Y-110829993D01*
X90033231Y-110842384D01*
X90054605Y-110857410D01*
X90138625Y-110929095D01*
X90158679Y-110951058D01*
X90175017Y-110978982D01*
X90185608Y-111009472D01*
X90189000Y-111038699D01*
X90189000Y-111137129D01*
X90183539Y-111165647D01*
X90167262Y-111189153D01*
X90143372Y-111204928D01*
X90114811Y-111210218D01*
X89483382Y-111210218D01*
X89483382Y-111233666D01*
X89483382Y-111235070D01*
X89497365Y-111246794D01*
X89524720Y-111268837D01*
X89551282Y-111290941D01*
X89563189Y-111301260D01*
X89574424Y-111304008D01*
X89949581Y-111304008D01*
X89960816Y-111301260D01*
X89963625Y-111298451D01*
X90027983Y-111252228D01*
X90054391Y-111239781D01*
X90082571Y-111238978D01*
X90109066Y-111248866D01*
X90130198Y-111269081D01*
X90142652Y-111295480D01*
X90143510Y-111323914D01*
X90133617Y-111350599D01*
X90113407Y-111371907D01*
X90053316Y-111416393D01*
X90054605Y-111415749D01*
X90032132Y-111430795D01*
X90005573Y-111442616D01*
X89977581Y-111450100D01*
X89950985Y-111452507D01*
X89573019Y-111452507D01*
X89546413Y-111450115D01*
X89518370Y-111442677D01*
X89491857Y-111430933D01*
X89469399Y-111415993D01*
X89386784Y-111345834D01*
X89365794Y-111323752D01*
X89349720Y-111296009D01*
X89339643Y-111265559D01*
X89336409Y-111236352D01*
X89336409Y-111034119D01*
X89483382Y-111034119D01*
X89483382Y-111061719D01*
X90042027Y-111061719D01*
X90042027Y-111041019D01*
X90040622Y-111039676D01*
X90026578Y-111027952D01*
X89999284Y-111005177D01*
X89972723Y-110982462D01*
X89959412Y-110972082D01*
X89949581Y-110967930D01*
X89574424Y-110967930D01*
X89568073Y-110969334D01*
X89561784Y-110972082D01*
X89549877Y-110981729D01*
X89523988Y-111002429D01*
X89497365Y-111023128D01*
X89483382Y-111034119D01*
X89336409Y-111034119D01*
X89336409Y-111029967D01*
X89339800Y-111000802D01*
X89350392Y-110970372D01*
X89367044Y-110942550D01*
X89388189Y-110920485D01*
X89470804Y-110855944D01*
X89492197Y-110841114D01*
X89519103Y-110829261D01*
X89547560Y-110821774D01*
X89573019Y-110819430D01*
X89950985Y-110819430D01*
X89977651Y-110821981D01*
G37*
D11*
X68133333Y-141709580D02*
X68085714Y-141757200D01*
X68085714Y-141757200D02*
X67942857Y-141804819D01*
X67942857Y-141804819D02*
X67847619Y-141804819D01*
X67847619Y-141804819D02*
X67704762Y-141757200D01*
X67704762Y-141757200D02*
X67609524Y-141661961D01*
X67609524Y-141661961D02*
X67561905Y-141566723D01*
X67561905Y-141566723D02*
X67514286Y-141376247D01*
X67514286Y-141376247D02*
X67514286Y-141233390D01*
X67514286Y-141233390D02*
X67561905Y-141042914D01*
X67561905Y-141042914D02*
X67609524Y-140947676D01*
X67609524Y-140947676D02*
X67704762Y-140852438D01*
X67704762Y-140852438D02*
X67847619Y-140804819D01*
X67847619Y-140804819D02*
X67942857Y-140804819D01*
X67942857Y-140804819D02*
X68085714Y-140852438D01*
X68085714Y-140852438D02*
X68133333Y-140900057D01*
X69085714Y-141804819D02*
X68514286Y-141804819D01*
X68800000Y-141804819D02*
X68800000Y-140804819D01*
X68800000Y-140804819D02*
X68704762Y-140947676D01*
X68704762Y-140947676D02*
X68609524Y-141042914D01*
X68609524Y-141042914D02*
X68514286Y-141090533D01*
D10*
X121988095Y-94157419D02*
X121988095Y-94966942D01*
X121988095Y-94966942D02*
X122035714Y-95062180D01*
X122035714Y-95062180D02*
X122083333Y-95109800D01*
X122083333Y-95109800D02*
X122178571Y-95157419D01*
X122178571Y-95157419D02*
X122369047Y-95157419D01*
X122369047Y-95157419D02*
X122464285Y-95109800D01*
X122464285Y-95109800D02*
X122511904Y-95062180D01*
X122511904Y-95062180D02*
X122559523Y-94966942D01*
X122559523Y-94966942D02*
X122559523Y-94157419D01*
X122988095Y-94252657D02*
X123035714Y-94205038D01*
X123035714Y-94205038D02*
X123130952Y-94157419D01*
X123130952Y-94157419D02*
X123369047Y-94157419D01*
X123369047Y-94157419D02*
X123464285Y-94205038D01*
X123464285Y-94205038D02*
X123511904Y-94252657D01*
X123511904Y-94252657D02*
X123559523Y-94347895D01*
X123559523Y-94347895D02*
X123559523Y-94443133D01*
X123559523Y-94443133D02*
X123511904Y-94585990D01*
X123511904Y-94585990D02*
X122940476Y-95157419D01*
X122940476Y-95157419D02*
X123559523Y-95157419D01*
D11*
X126589580Y-133641666D02*
X126637200Y-133689285D01*
X126637200Y-133689285D02*
X126684819Y-133832142D01*
X126684819Y-133832142D02*
X126684819Y-133927380D01*
X126684819Y-133927380D02*
X126637200Y-134070237D01*
X126637200Y-134070237D02*
X126541961Y-134165475D01*
X126541961Y-134165475D02*
X126446723Y-134213094D01*
X126446723Y-134213094D02*
X126256247Y-134260713D01*
X126256247Y-134260713D02*
X126113390Y-134260713D01*
X126113390Y-134260713D02*
X125922914Y-134213094D01*
X125922914Y-134213094D02*
X125827676Y-134165475D01*
X125827676Y-134165475D02*
X125732438Y-134070237D01*
X125732438Y-134070237D02*
X125684819Y-133927380D01*
X125684819Y-133927380D02*
X125684819Y-133832142D01*
X125684819Y-133832142D02*
X125732438Y-133689285D01*
X125732438Y-133689285D02*
X125780057Y-133641666D01*
X126113390Y-133070237D02*
X126065771Y-133165475D01*
X126065771Y-133165475D02*
X126018152Y-133213094D01*
X126018152Y-133213094D02*
X125922914Y-133260713D01*
X125922914Y-133260713D02*
X125875295Y-133260713D01*
X125875295Y-133260713D02*
X125780057Y-133213094D01*
X125780057Y-133213094D02*
X125732438Y-133165475D01*
X125732438Y-133165475D02*
X125684819Y-133070237D01*
X125684819Y-133070237D02*
X125684819Y-132879761D01*
X125684819Y-132879761D02*
X125732438Y-132784523D01*
X125732438Y-132784523D02*
X125780057Y-132736904D01*
X125780057Y-132736904D02*
X125875295Y-132689285D01*
X125875295Y-132689285D02*
X125922914Y-132689285D01*
X125922914Y-132689285D02*
X126018152Y-132736904D01*
X126018152Y-132736904D02*
X126065771Y-132784523D01*
X126065771Y-132784523D02*
X126113390Y-132879761D01*
X126113390Y-132879761D02*
X126113390Y-133070237D01*
X126113390Y-133070237D02*
X126161009Y-133165475D01*
X126161009Y-133165475D02*
X126208628Y-133213094D01*
X126208628Y-133213094D02*
X126303866Y-133260713D01*
X126303866Y-133260713D02*
X126494342Y-133260713D01*
X126494342Y-133260713D02*
X126589580Y-133213094D01*
X126589580Y-133213094D02*
X126637200Y-133165475D01*
X126637200Y-133165475D02*
X126684819Y-133070237D01*
X126684819Y-133070237D02*
X126684819Y-132879761D01*
X126684819Y-132879761D02*
X126637200Y-132784523D01*
X126637200Y-132784523D02*
X126589580Y-132736904D01*
X126589580Y-132736904D02*
X126494342Y-132689285D01*
X126494342Y-132689285D02*
X126303866Y-132689285D01*
X126303866Y-132689285D02*
X126208628Y-132736904D01*
X126208628Y-132736904D02*
X126161009Y-132784523D01*
X126161009Y-132784523D02*
X126113390Y-132879761D01*
X97783333Y-89459580D02*
X97735714Y-89507200D01*
X97735714Y-89507200D02*
X97592857Y-89554819D01*
X97592857Y-89554819D02*
X97497619Y-89554819D01*
X97497619Y-89554819D02*
X97354762Y-89507200D01*
X97354762Y-89507200D02*
X97259524Y-89411961D01*
X97259524Y-89411961D02*
X97211905Y-89316723D01*
X97211905Y-89316723D02*
X97164286Y-89126247D01*
X97164286Y-89126247D02*
X97164286Y-88983390D01*
X97164286Y-88983390D02*
X97211905Y-88792914D01*
X97211905Y-88792914D02*
X97259524Y-88697676D01*
X97259524Y-88697676D02*
X97354762Y-88602438D01*
X97354762Y-88602438D02*
X97497619Y-88554819D01*
X97497619Y-88554819D02*
X97592857Y-88554819D01*
X97592857Y-88554819D02*
X97735714Y-88602438D01*
X97735714Y-88602438D02*
X97783333Y-88650057D01*
X98164286Y-88650057D02*
X98211905Y-88602438D01*
X98211905Y-88602438D02*
X98307143Y-88554819D01*
X98307143Y-88554819D02*
X98545238Y-88554819D01*
X98545238Y-88554819D02*
X98640476Y-88602438D01*
X98640476Y-88602438D02*
X98688095Y-88650057D01*
X98688095Y-88650057D02*
X98735714Y-88745295D01*
X98735714Y-88745295D02*
X98735714Y-88840533D01*
X98735714Y-88840533D02*
X98688095Y-88983390D01*
X98688095Y-88983390D02*
X98116667Y-89554819D01*
X98116667Y-89554819D02*
X98735714Y-89554819D01*
D10*
X147754761Y-144152657D02*
X147659523Y-144105038D01*
X147659523Y-144105038D02*
X147564285Y-144009800D01*
X147564285Y-144009800D02*
X147421428Y-143866942D01*
X147421428Y-143866942D02*
X147326190Y-143819323D01*
X147326190Y-143819323D02*
X147230952Y-143819323D01*
X147278571Y-144057419D02*
X147183333Y-144009800D01*
X147183333Y-144009800D02*
X147088095Y-143914561D01*
X147088095Y-143914561D02*
X147040476Y-143724085D01*
X147040476Y-143724085D02*
X147040476Y-143390752D01*
X147040476Y-143390752D02*
X147088095Y-143200276D01*
X147088095Y-143200276D02*
X147183333Y-143105038D01*
X147183333Y-143105038D02*
X147278571Y-143057419D01*
X147278571Y-143057419D02*
X147469047Y-143057419D01*
X147469047Y-143057419D02*
X147564285Y-143105038D01*
X147564285Y-143105038D02*
X147659523Y-143200276D01*
X147659523Y-143200276D02*
X147707142Y-143390752D01*
X147707142Y-143390752D02*
X147707142Y-143724085D01*
X147707142Y-143724085D02*
X147659523Y-143914561D01*
X147659523Y-143914561D02*
X147564285Y-144009800D01*
X147564285Y-144009800D02*
X147469047Y-144057419D01*
X147469047Y-144057419D02*
X147278571Y-144057419D01*
X148040476Y-143057419D02*
X148659523Y-143057419D01*
X148659523Y-143057419D02*
X148326190Y-143438371D01*
X148326190Y-143438371D02*
X148469047Y-143438371D01*
X148469047Y-143438371D02*
X148564285Y-143485990D01*
X148564285Y-143485990D02*
X148611904Y-143533609D01*
X148611904Y-143533609D02*
X148659523Y-143628847D01*
X148659523Y-143628847D02*
X148659523Y-143866942D01*
X148659523Y-143866942D02*
X148611904Y-143962180D01*
X148611904Y-143962180D02*
X148564285Y-144009800D01*
X148564285Y-144009800D02*
X148469047Y-144057419D01*
X148469047Y-144057419D02*
X148183333Y-144057419D01*
X148183333Y-144057419D02*
X148088095Y-144009800D01*
X148088095Y-144009800D02*
X148040476Y-143962180D01*
X145606265Y-138924800D02*
X145749122Y-138972419D01*
X145749122Y-138972419D02*
X145987217Y-138972419D01*
X145987217Y-138972419D02*
X146082455Y-138924800D01*
X146082455Y-138924800D02*
X146130074Y-138877180D01*
X146130074Y-138877180D02*
X146177693Y-138781942D01*
X146177693Y-138781942D02*
X146177693Y-138686704D01*
X146177693Y-138686704D02*
X146130074Y-138591466D01*
X146130074Y-138591466D02*
X146082455Y-138543847D01*
X146082455Y-138543847D02*
X145987217Y-138496228D01*
X145987217Y-138496228D02*
X145796741Y-138448609D01*
X145796741Y-138448609D02*
X145701503Y-138400990D01*
X145701503Y-138400990D02*
X145653884Y-138353371D01*
X145653884Y-138353371D02*
X145606265Y-138258133D01*
X145606265Y-138258133D02*
X145606265Y-138162895D01*
X145606265Y-138162895D02*
X145653884Y-138067657D01*
X145653884Y-138067657D02*
X145701503Y-138020038D01*
X145701503Y-138020038D02*
X145796741Y-137972419D01*
X145796741Y-137972419D02*
X146034836Y-137972419D01*
X146034836Y-137972419D02*
X146177693Y-138020038D01*
X150177693Y-138020038D02*
X150082455Y-137972419D01*
X150082455Y-137972419D02*
X149939598Y-137972419D01*
X149939598Y-137972419D02*
X149796741Y-138020038D01*
X149796741Y-138020038D02*
X149701503Y-138115276D01*
X149701503Y-138115276D02*
X149653884Y-138210514D01*
X149653884Y-138210514D02*
X149606265Y-138400990D01*
X149606265Y-138400990D02*
X149606265Y-138543847D01*
X149606265Y-138543847D02*
X149653884Y-138734323D01*
X149653884Y-138734323D02*
X149701503Y-138829561D01*
X149701503Y-138829561D02*
X149796741Y-138924800D01*
X149796741Y-138924800D02*
X149939598Y-138972419D01*
X149939598Y-138972419D02*
X150034836Y-138972419D01*
X150034836Y-138972419D02*
X150177693Y-138924800D01*
X150177693Y-138924800D02*
X150225312Y-138877180D01*
X150225312Y-138877180D02*
X150225312Y-138543847D01*
X150225312Y-138543847D02*
X150034836Y-138543847D01*
X146553884Y-142172419D02*
X146553884Y-141172419D01*
X146553884Y-141172419D02*
X146791979Y-141172419D01*
X146791979Y-141172419D02*
X146934836Y-141220038D01*
X146934836Y-141220038D02*
X147030074Y-141315276D01*
X147030074Y-141315276D02*
X147077693Y-141410514D01*
X147077693Y-141410514D02*
X147125312Y-141600990D01*
X147125312Y-141600990D02*
X147125312Y-141743847D01*
X147125312Y-141743847D02*
X147077693Y-141934323D01*
X147077693Y-141934323D02*
X147030074Y-142029561D01*
X147030074Y-142029561D02*
X146934836Y-142124800D01*
X146934836Y-142124800D02*
X146791979Y-142172419D01*
X146791979Y-142172419D02*
X146553884Y-142172419D01*
D11*
X130483333Y-134804819D02*
X130150000Y-134328628D01*
X129911905Y-134804819D02*
X129911905Y-133804819D01*
X129911905Y-133804819D02*
X130292857Y-133804819D01*
X130292857Y-133804819D02*
X130388095Y-133852438D01*
X130388095Y-133852438D02*
X130435714Y-133900057D01*
X130435714Y-133900057D02*
X130483333Y-133995295D01*
X130483333Y-133995295D02*
X130483333Y-134138152D01*
X130483333Y-134138152D02*
X130435714Y-134233390D01*
X130435714Y-134233390D02*
X130388095Y-134281009D01*
X130388095Y-134281009D02*
X130292857Y-134328628D01*
X130292857Y-134328628D02*
X129911905Y-134328628D01*
X130864286Y-133900057D02*
X130911905Y-133852438D01*
X130911905Y-133852438D02*
X131007143Y-133804819D01*
X131007143Y-133804819D02*
X131245238Y-133804819D01*
X131245238Y-133804819D02*
X131340476Y-133852438D01*
X131340476Y-133852438D02*
X131388095Y-133900057D01*
X131388095Y-133900057D02*
X131435714Y-133995295D01*
X131435714Y-133995295D02*
X131435714Y-134090533D01*
X131435714Y-134090533D02*
X131388095Y-134233390D01*
X131388095Y-134233390D02*
X130816667Y-134804819D01*
X130816667Y-134804819D02*
X131435714Y-134804819D01*
D10*
X144800200Y-121566667D02*
X144752580Y-121709524D01*
X144752580Y-121709524D02*
X144752580Y-121947619D01*
X144752580Y-121947619D02*
X144800200Y-122042857D01*
X144800200Y-122042857D02*
X144847819Y-122090476D01*
X144847819Y-122090476D02*
X144943057Y-122138095D01*
X144943057Y-122138095D02*
X145038295Y-122138095D01*
X145038295Y-122138095D02*
X145133533Y-122090476D01*
X145133533Y-122090476D02*
X145181152Y-122042857D01*
X145181152Y-122042857D02*
X145228771Y-121947619D01*
X145228771Y-121947619D02*
X145276390Y-121757143D01*
X145276390Y-121757143D02*
X145324009Y-121661905D01*
X145324009Y-121661905D02*
X145371628Y-121614286D01*
X145371628Y-121614286D02*
X145466866Y-121566667D01*
X145466866Y-121566667D02*
X145562104Y-121566667D01*
X145562104Y-121566667D02*
X145657342Y-121614286D01*
X145657342Y-121614286D02*
X145704961Y-121661905D01*
X145704961Y-121661905D02*
X145752580Y-121757143D01*
X145752580Y-121757143D02*
X145752580Y-121995238D01*
X145752580Y-121995238D02*
X145704961Y-122138095D01*
X145752580Y-122471429D02*
X144752580Y-122709524D01*
X144752580Y-122709524D02*
X145466866Y-122900000D01*
X145466866Y-122900000D02*
X144752580Y-123090476D01*
X144752580Y-123090476D02*
X145752580Y-123328572D01*
X144752580Y-124233333D02*
X144752580Y-123661905D01*
X144752580Y-123947619D02*
X145752580Y-123947619D01*
X145752580Y-123947619D02*
X145609723Y-123852381D01*
X145609723Y-123852381D02*
X145514485Y-123757143D01*
X145514485Y-123757143D02*
X145466866Y-123661905D01*
D12*
X72318196Y-151175228D02*
X71603910Y-151175228D01*
X71603910Y-151175228D02*
X71532482Y-151889514D01*
X71532482Y-151889514D02*
X71603910Y-151818085D01*
X71603910Y-151818085D02*
X71746768Y-151746657D01*
X71746768Y-151746657D02*
X72103910Y-151746657D01*
X72103910Y-151746657D02*
X72246768Y-151818085D01*
X72246768Y-151818085D02*
X72318196Y-151889514D01*
X72318196Y-151889514D02*
X72389625Y-152032371D01*
X72389625Y-152032371D02*
X72389625Y-152389514D01*
X72389625Y-152389514D02*
X72318196Y-152532371D01*
X72318196Y-152532371D02*
X72246768Y-152603800D01*
X72246768Y-152603800D02*
X72103910Y-152675228D01*
X72103910Y-152675228D02*
X71746768Y-152675228D01*
X71746768Y-152675228D02*
X71603910Y-152603800D01*
X71603910Y-152603800D02*
X71532482Y-152532371D01*
X73318196Y-151175228D02*
X73461053Y-151175228D01*
X73461053Y-151175228D02*
X73603910Y-151246657D01*
X73603910Y-151246657D02*
X73675339Y-151318085D01*
X73675339Y-151318085D02*
X73746767Y-151460942D01*
X73746767Y-151460942D02*
X73818196Y-151746657D01*
X73818196Y-151746657D02*
X73818196Y-152103800D01*
X73818196Y-152103800D02*
X73746767Y-152389514D01*
X73746767Y-152389514D02*
X73675339Y-152532371D01*
X73675339Y-152532371D02*
X73603910Y-152603800D01*
X73603910Y-152603800D02*
X73461053Y-152675228D01*
X73461053Y-152675228D02*
X73318196Y-152675228D01*
X73318196Y-152675228D02*
X73175339Y-152603800D01*
X73175339Y-152603800D02*
X73103910Y-152532371D01*
X73103910Y-152532371D02*
X73032481Y-152389514D01*
X73032481Y-152389514D02*
X72961053Y-152103800D01*
X72961053Y-152103800D02*
X72961053Y-151746657D01*
X72961053Y-151746657D02*
X73032481Y-151460942D01*
X73032481Y-151460942D02*
X73103910Y-151318085D01*
X73103910Y-151318085D02*
X73175339Y-151246657D01*
X73175339Y-151246657D02*
X73318196Y-151175228D01*
X140182482Y-151202085D02*
X140253910Y-151130657D01*
X140253910Y-151130657D02*
X140396768Y-151059228D01*
X140396768Y-151059228D02*
X140753910Y-151059228D01*
X140753910Y-151059228D02*
X140896768Y-151130657D01*
X140896768Y-151130657D02*
X140968196Y-151202085D01*
X140968196Y-151202085D02*
X141039625Y-151344942D01*
X141039625Y-151344942D02*
X141039625Y-151487800D01*
X141039625Y-151487800D02*
X140968196Y-151702085D01*
X140968196Y-151702085D02*
X140111053Y-152559228D01*
X140111053Y-152559228D02*
X141039625Y-152559228D01*
X145010910Y-151764514D02*
X144510910Y-151764514D01*
X144510910Y-152550228D02*
X144510910Y-151050228D01*
X144510910Y-151050228D02*
X145225196Y-151050228D01*
X145796624Y-152550228D02*
X145796624Y-151550228D01*
X145796624Y-151835942D02*
X145868053Y-151693085D01*
X145868053Y-151693085D02*
X145939482Y-151621657D01*
X145939482Y-151621657D02*
X146082339Y-151550228D01*
X146082339Y-151550228D02*
X146225196Y-151550228D01*
X146939481Y-152550228D02*
X146796624Y-152478800D01*
X146796624Y-152478800D02*
X146725195Y-152407371D01*
X146725195Y-152407371D02*
X146653767Y-152264514D01*
X146653767Y-152264514D02*
X146653767Y-151835942D01*
X146653767Y-151835942D02*
X146725195Y-151693085D01*
X146725195Y-151693085D02*
X146796624Y-151621657D01*
X146796624Y-151621657D02*
X146939481Y-151550228D01*
X146939481Y-151550228D02*
X147153767Y-151550228D01*
X147153767Y-151550228D02*
X147296624Y-151621657D01*
X147296624Y-151621657D02*
X147368053Y-151693085D01*
X147368053Y-151693085D02*
X147439481Y-151835942D01*
X147439481Y-151835942D02*
X147439481Y-152264514D01*
X147439481Y-152264514D02*
X147368053Y-152407371D01*
X147368053Y-152407371D02*
X147296624Y-152478800D01*
X147296624Y-152478800D02*
X147153767Y-152550228D01*
X147153767Y-152550228D02*
X146939481Y-152550228D01*
X148082338Y-151550228D02*
X148082338Y-152550228D01*
X148082338Y-151693085D02*
X148153767Y-151621657D01*
X148153767Y-151621657D02*
X148296624Y-151550228D01*
X148296624Y-151550228D02*
X148510910Y-151550228D01*
X148510910Y-151550228D02*
X148653767Y-151621657D01*
X148653767Y-151621657D02*
X148725196Y-151764514D01*
X148725196Y-151764514D02*
X148725196Y-152550228D01*
X149225196Y-151550228D02*
X149796624Y-151550228D01*
X149439481Y-151050228D02*
X149439481Y-152335942D01*
X149439481Y-152335942D02*
X149510910Y-152478800D01*
X149510910Y-152478800D02*
X149653767Y-152550228D01*
X149653767Y-152550228D02*
X149796624Y-152550228D01*
D11*
X104433333Y-89459580D02*
X104385714Y-89507200D01*
X104385714Y-89507200D02*
X104242857Y-89554819D01*
X104242857Y-89554819D02*
X104147619Y-89554819D01*
X104147619Y-89554819D02*
X104004762Y-89507200D01*
X104004762Y-89507200D02*
X103909524Y-89411961D01*
X103909524Y-89411961D02*
X103861905Y-89316723D01*
X103861905Y-89316723D02*
X103814286Y-89126247D01*
X103814286Y-89126247D02*
X103814286Y-88983390D01*
X103814286Y-88983390D02*
X103861905Y-88792914D01*
X103861905Y-88792914D02*
X103909524Y-88697676D01*
X103909524Y-88697676D02*
X104004762Y-88602438D01*
X104004762Y-88602438D02*
X104147619Y-88554819D01*
X104147619Y-88554819D02*
X104242857Y-88554819D01*
X104242857Y-88554819D02*
X104385714Y-88602438D01*
X104385714Y-88602438D02*
X104433333Y-88650057D01*
X104766667Y-88554819D02*
X105385714Y-88554819D01*
X105385714Y-88554819D02*
X105052381Y-88935771D01*
X105052381Y-88935771D02*
X105195238Y-88935771D01*
X105195238Y-88935771D02*
X105290476Y-88983390D01*
X105290476Y-88983390D02*
X105338095Y-89031009D01*
X105338095Y-89031009D02*
X105385714Y-89126247D01*
X105385714Y-89126247D02*
X105385714Y-89364342D01*
X105385714Y-89364342D02*
X105338095Y-89459580D01*
X105338095Y-89459580D02*
X105290476Y-89507200D01*
X105290476Y-89507200D02*
X105195238Y-89554819D01*
X105195238Y-89554819D02*
X104909524Y-89554819D01*
X104909524Y-89554819D02*
X104814286Y-89507200D01*
X104814286Y-89507200D02*
X104766667Y-89459580D01*
X110459580Y-138779166D02*
X110507200Y-138826785D01*
X110507200Y-138826785D02*
X110554819Y-138969642D01*
X110554819Y-138969642D02*
X110554819Y-139064880D01*
X110554819Y-139064880D02*
X110507200Y-139207737D01*
X110507200Y-139207737D02*
X110411961Y-139302975D01*
X110411961Y-139302975D02*
X110316723Y-139350594D01*
X110316723Y-139350594D02*
X110126247Y-139398213D01*
X110126247Y-139398213D02*
X109983390Y-139398213D01*
X109983390Y-139398213D02*
X109792914Y-139350594D01*
X109792914Y-139350594D02*
X109697676Y-139302975D01*
X109697676Y-139302975D02*
X109602438Y-139207737D01*
X109602438Y-139207737D02*
X109554819Y-139064880D01*
X109554819Y-139064880D02*
X109554819Y-138969642D01*
X109554819Y-138969642D02*
X109602438Y-138826785D01*
X109602438Y-138826785D02*
X109650057Y-138779166D01*
X109554819Y-138445832D02*
X109554819Y-137779166D01*
X109554819Y-137779166D02*
X110554819Y-138207737D01*
X95988095Y-135567319D02*
X95988095Y-136376842D01*
X95988095Y-136376842D02*
X96035714Y-136472080D01*
X96035714Y-136472080D02*
X96083333Y-136519700D01*
X96083333Y-136519700D02*
X96178571Y-136567319D01*
X96178571Y-136567319D02*
X96369047Y-136567319D01*
X96369047Y-136567319D02*
X96464285Y-136519700D01*
X96464285Y-136519700D02*
X96511904Y-136472080D01*
X96511904Y-136472080D02*
X96559523Y-136376842D01*
X96559523Y-136376842D02*
X96559523Y-135567319D01*
X97511904Y-135567319D02*
X97035714Y-135567319D01*
X97035714Y-135567319D02*
X96988095Y-136043509D01*
X96988095Y-136043509D02*
X97035714Y-135995890D01*
X97035714Y-135995890D02*
X97130952Y-135948271D01*
X97130952Y-135948271D02*
X97369047Y-135948271D01*
X97369047Y-135948271D02*
X97464285Y-135995890D01*
X97464285Y-135995890D02*
X97511904Y-136043509D01*
X97511904Y-136043509D02*
X97559523Y-136138747D01*
X97559523Y-136138747D02*
X97559523Y-136376842D01*
X97559523Y-136376842D02*
X97511904Y-136472080D01*
X97511904Y-136472080D02*
X97464285Y-136519700D01*
X97464285Y-136519700D02*
X97369047Y-136567319D01*
X97369047Y-136567319D02*
X97130952Y-136567319D01*
X97130952Y-136567319D02*
X97035714Y-136519700D01*
X97035714Y-136519700D02*
X96988095Y-136472080D01*
X94159580Y-138779166D02*
X94207200Y-138826785D01*
X94207200Y-138826785D02*
X94254819Y-138969642D01*
X94254819Y-138969642D02*
X94254819Y-139064880D01*
X94254819Y-139064880D02*
X94207200Y-139207737D01*
X94207200Y-139207737D02*
X94111961Y-139302975D01*
X94111961Y-139302975D02*
X94016723Y-139350594D01*
X94016723Y-139350594D02*
X93826247Y-139398213D01*
X93826247Y-139398213D02*
X93683390Y-139398213D01*
X93683390Y-139398213D02*
X93492914Y-139350594D01*
X93492914Y-139350594D02*
X93397676Y-139302975D01*
X93397676Y-139302975D02*
X93302438Y-139207737D01*
X93302438Y-139207737D02*
X93254819Y-139064880D01*
X93254819Y-139064880D02*
X93254819Y-138969642D01*
X93254819Y-138969642D02*
X93302438Y-138826785D01*
X93302438Y-138826785D02*
X93350057Y-138779166D01*
X93254819Y-137874404D02*
X93254819Y-138350594D01*
X93254819Y-138350594D02*
X93731009Y-138398213D01*
X93731009Y-138398213D02*
X93683390Y-138350594D01*
X93683390Y-138350594D02*
X93635771Y-138255356D01*
X93635771Y-138255356D02*
X93635771Y-138017261D01*
X93635771Y-138017261D02*
X93683390Y-137922023D01*
X93683390Y-137922023D02*
X93731009Y-137874404D01*
X93731009Y-137874404D02*
X93826247Y-137826785D01*
X93826247Y-137826785D02*
X94064342Y-137826785D01*
X94064342Y-137826785D02*
X94159580Y-137874404D01*
X94159580Y-137874404D02*
X94207200Y-137922023D01*
X94207200Y-137922023D02*
X94254819Y-138017261D01*
X94254819Y-138017261D02*
X94254819Y-138255356D01*
X94254819Y-138255356D02*
X94207200Y-138350594D01*
X94207200Y-138350594D02*
X94159580Y-138398213D01*
D10*
X100488095Y-88057419D02*
X100488095Y-88866942D01*
X100488095Y-88866942D02*
X100535714Y-88962180D01*
X100535714Y-88962180D02*
X100583333Y-89009800D01*
X100583333Y-89009800D02*
X100678571Y-89057419D01*
X100678571Y-89057419D02*
X100869047Y-89057419D01*
X100869047Y-89057419D02*
X100964285Y-89009800D01*
X100964285Y-89009800D02*
X101011904Y-88962180D01*
X101011904Y-88962180D02*
X101059523Y-88866942D01*
X101059523Y-88866942D02*
X101059523Y-88057419D01*
X102059523Y-89057419D02*
X101488095Y-89057419D01*
X101773809Y-89057419D02*
X101773809Y-88057419D01*
X101773809Y-88057419D02*
X101678571Y-88200276D01*
X101678571Y-88200276D02*
X101583333Y-88295514D01*
X101583333Y-88295514D02*
X101488095Y-88343133D01*
D11*
X110459580Y-133666666D02*
X110507200Y-133714285D01*
X110507200Y-133714285D02*
X110554819Y-133857142D01*
X110554819Y-133857142D02*
X110554819Y-133952380D01*
X110554819Y-133952380D02*
X110507200Y-134095237D01*
X110507200Y-134095237D02*
X110411961Y-134190475D01*
X110411961Y-134190475D02*
X110316723Y-134238094D01*
X110316723Y-134238094D02*
X110126247Y-134285713D01*
X110126247Y-134285713D02*
X109983390Y-134285713D01*
X109983390Y-134285713D02*
X109792914Y-134238094D01*
X109792914Y-134238094D02*
X109697676Y-134190475D01*
X109697676Y-134190475D02*
X109602438Y-134095237D01*
X109602438Y-134095237D02*
X109554819Y-133952380D01*
X109554819Y-133952380D02*
X109554819Y-133857142D01*
X109554819Y-133857142D02*
X109602438Y-133714285D01*
X109602438Y-133714285D02*
X109650057Y-133666666D01*
X109554819Y-132809523D02*
X109554819Y-132999999D01*
X109554819Y-132999999D02*
X109602438Y-133095237D01*
X109602438Y-133095237D02*
X109650057Y-133142856D01*
X109650057Y-133142856D02*
X109792914Y-133238094D01*
X109792914Y-133238094D02*
X109983390Y-133285713D01*
X109983390Y-133285713D02*
X110364342Y-133285713D01*
X110364342Y-133285713D02*
X110459580Y-133238094D01*
X110459580Y-133238094D02*
X110507200Y-133190475D01*
X110507200Y-133190475D02*
X110554819Y-133095237D01*
X110554819Y-133095237D02*
X110554819Y-132904761D01*
X110554819Y-132904761D02*
X110507200Y-132809523D01*
X110507200Y-132809523D02*
X110459580Y-132761904D01*
X110459580Y-132761904D02*
X110364342Y-132714285D01*
X110364342Y-132714285D02*
X110126247Y-132714285D01*
X110126247Y-132714285D02*
X110031009Y-132761904D01*
X110031009Y-132761904D02*
X109983390Y-132809523D01*
X109983390Y-132809523D02*
X109935771Y-132904761D01*
X109935771Y-132904761D02*
X109935771Y-133095237D01*
X109935771Y-133095237D02*
X109983390Y-133190475D01*
X109983390Y-133190475D02*
X110031009Y-133238094D01*
X110031009Y-133238094D02*
X110126247Y-133285713D01*
X112188095Y-135567319D02*
X112188095Y-136376842D01*
X112188095Y-136376842D02*
X112235714Y-136472080D01*
X112235714Y-136472080D02*
X112283333Y-136519700D01*
X112283333Y-136519700D02*
X112378571Y-136567319D01*
X112378571Y-136567319D02*
X112569047Y-136567319D01*
X112569047Y-136567319D02*
X112664285Y-136519700D01*
X112664285Y-136519700D02*
X112711904Y-136472080D01*
X112711904Y-136472080D02*
X112759523Y-136376842D01*
X112759523Y-136376842D02*
X112759523Y-135567319D01*
X113664285Y-135567319D02*
X113473809Y-135567319D01*
X113473809Y-135567319D02*
X113378571Y-135614938D01*
X113378571Y-135614938D02*
X113330952Y-135662557D01*
X113330952Y-135662557D02*
X113235714Y-135805414D01*
X113235714Y-135805414D02*
X113188095Y-135995890D01*
X113188095Y-135995890D02*
X113188095Y-136376842D01*
X113188095Y-136376842D02*
X113235714Y-136472080D01*
X113235714Y-136472080D02*
X113283333Y-136519700D01*
X113283333Y-136519700D02*
X113378571Y-136567319D01*
X113378571Y-136567319D02*
X113569047Y-136567319D01*
X113569047Y-136567319D02*
X113664285Y-136519700D01*
X113664285Y-136519700D02*
X113711904Y-136472080D01*
X113711904Y-136472080D02*
X113759523Y-136376842D01*
X113759523Y-136376842D02*
X113759523Y-136138747D01*
X113759523Y-136138747D02*
X113711904Y-136043509D01*
X113711904Y-136043509D02*
X113664285Y-135995890D01*
X113664285Y-135995890D02*
X113569047Y-135948271D01*
X113569047Y-135948271D02*
X113378571Y-135948271D01*
X113378571Y-135948271D02*
X113283333Y-135995890D01*
X113283333Y-135995890D02*
X113235714Y-136043509D01*
X113235714Y-136043509D02*
X113188095Y-136138747D01*
D10*
X142304761Y-144152657D02*
X142209523Y-144105038D01*
X142209523Y-144105038D02*
X142114285Y-144009800D01*
X142114285Y-144009800D02*
X141971428Y-143866942D01*
X141971428Y-143866942D02*
X141876190Y-143819323D01*
X141876190Y-143819323D02*
X141780952Y-143819323D01*
X141828571Y-144057419D02*
X141733333Y-144009800D01*
X141733333Y-144009800D02*
X141638095Y-143914561D01*
X141638095Y-143914561D02*
X141590476Y-143724085D01*
X141590476Y-143724085D02*
X141590476Y-143390752D01*
X141590476Y-143390752D02*
X141638095Y-143200276D01*
X141638095Y-143200276D02*
X141733333Y-143105038D01*
X141733333Y-143105038D02*
X141828571Y-143057419D01*
X141828571Y-143057419D02*
X142019047Y-143057419D01*
X142019047Y-143057419D02*
X142114285Y-143105038D01*
X142114285Y-143105038D02*
X142209523Y-143200276D01*
X142209523Y-143200276D02*
X142257142Y-143390752D01*
X142257142Y-143390752D02*
X142257142Y-143724085D01*
X142257142Y-143724085D02*
X142209523Y-143914561D01*
X142209523Y-143914561D02*
X142114285Y-144009800D01*
X142114285Y-144009800D02*
X142019047Y-144057419D01*
X142019047Y-144057419D02*
X141828571Y-144057419D01*
X142638095Y-143152657D02*
X142685714Y-143105038D01*
X142685714Y-143105038D02*
X142780952Y-143057419D01*
X142780952Y-143057419D02*
X143019047Y-143057419D01*
X143019047Y-143057419D02*
X143114285Y-143105038D01*
X143114285Y-143105038D02*
X143161904Y-143152657D01*
X143161904Y-143152657D02*
X143209523Y-143247895D01*
X143209523Y-143247895D02*
X143209523Y-143343133D01*
X143209523Y-143343133D02*
X143161904Y-143485990D01*
X143161904Y-143485990D02*
X142590476Y-144057419D01*
X142590476Y-144057419D02*
X143209523Y-144057419D01*
X141103884Y-142172419D02*
X141103884Y-141172419D01*
X141103884Y-141172419D02*
X141341979Y-141172419D01*
X141341979Y-141172419D02*
X141484836Y-141220038D01*
X141484836Y-141220038D02*
X141580074Y-141315276D01*
X141580074Y-141315276D02*
X141627693Y-141410514D01*
X141627693Y-141410514D02*
X141675312Y-141600990D01*
X141675312Y-141600990D02*
X141675312Y-141743847D01*
X141675312Y-141743847D02*
X141627693Y-141934323D01*
X141627693Y-141934323D02*
X141580074Y-142029561D01*
X141580074Y-142029561D02*
X141484836Y-142124800D01*
X141484836Y-142124800D02*
X141341979Y-142172419D01*
X141341979Y-142172419D02*
X141103884Y-142172419D01*
X140156265Y-138924800D02*
X140299122Y-138972419D01*
X140299122Y-138972419D02*
X140537217Y-138972419D01*
X140537217Y-138972419D02*
X140632455Y-138924800D01*
X140632455Y-138924800D02*
X140680074Y-138877180D01*
X140680074Y-138877180D02*
X140727693Y-138781942D01*
X140727693Y-138781942D02*
X140727693Y-138686704D01*
X140727693Y-138686704D02*
X140680074Y-138591466D01*
X140680074Y-138591466D02*
X140632455Y-138543847D01*
X140632455Y-138543847D02*
X140537217Y-138496228D01*
X140537217Y-138496228D02*
X140346741Y-138448609D01*
X140346741Y-138448609D02*
X140251503Y-138400990D01*
X140251503Y-138400990D02*
X140203884Y-138353371D01*
X140203884Y-138353371D02*
X140156265Y-138258133D01*
X140156265Y-138258133D02*
X140156265Y-138162895D01*
X140156265Y-138162895D02*
X140203884Y-138067657D01*
X140203884Y-138067657D02*
X140251503Y-138020038D01*
X140251503Y-138020038D02*
X140346741Y-137972419D01*
X140346741Y-137972419D02*
X140584836Y-137972419D01*
X140584836Y-137972419D02*
X140727693Y-138020038D01*
X144727693Y-138020038D02*
X144632455Y-137972419D01*
X144632455Y-137972419D02*
X144489598Y-137972419D01*
X144489598Y-137972419D02*
X144346741Y-138020038D01*
X144346741Y-138020038D02*
X144251503Y-138115276D01*
X144251503Y-138115276D02*
X144203884Y-138210514D01*
X144203884Y-138210514D02*
X144156265Y-138400990D01*
X144156265Y-138400990D02*
X144156265Y-138543847D01*
X144156265Y-138543847D02*
X144203884Y-138734323D01*
X144203884Y-138734323D02*
X144251503Y-138829561D01*
X144251503Y-138829561D02*
X144346741Y-138924800D01*
X144346741Y-138924800D02*
X144489598Y-138972419D01*
X144489598Y-138972419D02*
X144584836Y-138972419D01*
X144584836Y-138972419D02*
X144727693Y-138924800D01*
X144727693Y-138924800D02*
X144775312Y-138877180D01*
X144775312Y-138877180D02*
X144775312Y-138543847D01*
X144775312Y-138543847D02*
X144584836Y-138543847D01*
D11*
X130483333Y-132404819D02*
X130150000Y-131928628D01*
X129911905Y-132404819D02*
X129911905Y-131404819D01*
X129911905Y-131404819D02*
X130292857Y-131404819D01*
X130292857Y-131404819D02*
X130388095Y-131452438D01*
X130388095Y-131452438D02*
X130435714Y-131500057D01*
X130435714Y-131500057D02*
X130483333Y-131595295D01*
X130483333Y-131595295D02*
X130483333Y-131738152D01*
X130483333Y-131738152D02*
X130435714Y-131833390D01*
X130435714Y-131833390D02*
X130388095Y-131881009D01*
X130388095Y-131881009D02*
X130292857Y-131928628D01*
X130292857Y-131928628D02*
X129911905Y-131928628D01*
X131388095Y-131404819D02*
X130911905Y-131404819D01*
X130911905Y-131404819D02*
X130864286Y-131881009D01*
X130864286Y-131881009D02*
X130911905Y-131833390D01*
X130911905Y-131833390D02*
X131007143Y-131785771D01*
X131007143Y-131785771D02*
X131245238Y-131785771D01*
X131245238Y-131785771D02*
X131340476Y-131833390D01*
X131340476Y-131833390D02*
X131388095Y-131881009D01*
X131388095Y-131881009D02*
X131435714Y-131976247D01*
X131435714Y-131976247D02*
X131435714Y-132214342D01*
X131435714Y-132214342D02*
X131388095Y-132309580D01*
X131388095Y-132309580D02*
X131340476Y-132357200D01*
X131340476Y-132357200D02*
X131245238Y-132404819D01*
X131245238Y-132404819D02*
X131007143Y-132404819D01*
X131007143Y-132404819D02*
X130911905Y-132357200D01*
X130911905Y-132357200D02*
X130864286Y-132309580D01*
X126759580Y-138879166D02*
X126807200Y-138926785D01*
X126807200Y-138926785D02*
X126854819Y-139069642D01*
X126854819Y-139069642D02*
X126854819Y-139164880D01*
X126854819Y-139164880D02*
X126807200Y-139307737D01*
X126807200Y-139307737D02*
X126711961Y-139402975D01*
X126711961Y-139402975D02*
X126616723Y-139450594D01*
X126616723Y-139450594D02*
X126426247Y-139498213D01*
X126426247Y-139498213D02*
X126283390Y-139498213D01*
X126283390Y-139498213D02*
X126092914Y-139450594D01*
X126092914Y-139450594D02*
X125997676Y-139402975D01*
X125997676Y-139402975D02*
X125902438Y-139307737D01*
X125902438Y-139307737D02*
X125854819Y-139164880D01*
X125854819Y-139164880D02*
X125854819Y-139069642D01*
X125854819Y-139069642D02*
X125902438Y-138926785D01*
X125902438Y-138926785D02*
X125950057Y-138879166D01*
X126854819Y-138402975D02*
X126854819Y-138212499D01*
X126854819Y-138212499D02*
X126807200Y-138117261D01*
X126807200Y-138117261D02*
X126759580Y-138069642D01*
X126759580Y-138069642D02*
X126616723Y-137974404D01*
X126616723Y-137974404D02*
X126426247Y-137926785D01*
X126426247Y-137926785D02*
X126045295Y-137926785D01*
X126045295Y-137926785D02*
X125950057Y-137974404D01*
X125950057Y-137974404D02*
X125902438Y-138022023D01*
X125902438Y-138022023D02*
X125854819Y-138117261D01*
X125854819Y-138117261D02*
X125854819Y-138307737D01*
X125854819Y-138307737D02*
X125902438Y-138402975D01*
X125902438Y-138402975D02*
X125950057Y-138450594D01*
X125950057Y-138450594D02*
X126045295Y-138498213D01*
X126045295Y-138498213D02*
X126283390Y-138498213D01*
X126283390Y-138498213D02*
X126378628Y-138450594D01*
X126378628Y-138450594D02*
X126426247Y-138402975D01*
X126426247Y-138402975D02*
X126473866Y-138307737D01*
X126473866Y-138307737D02*
X126473866Y-138117261D01*
X126473866Y-138117261D02*
X126426247Y-138022023D01*
X126426247Y-138022023D02*
X126378628Y-137974404D01*
X126378628Y-137974404D02*
X126283390Y-137926785D01*
X94159580Y-133666666D02*
X94207200Y-133714285D01*
X94207200Y-133714285D02*
X94254819Y-133857142D01*
X94254819Y-133857142D02*
X94254819Y-133952380D01*
X94254819Y-133952380D02*
X94207200Y-134095237D01*
X94207200Y-134095237D02*
X94111961Y-134190475D01*
X94111961Y-134190475D02*
X94016723Y-134238094D01*
X94016723Y-134238094D02*
X93826247Y-134285713D01*
X93826247Y-134285713D02*
X93683390Y-134285713D01*
X93683390Y-134285713D02*
X93492914Y-134238094D01*
X93492914Y-134238094D02*
X93397676Y-134190475D01*
X93397676Y-134190475D02*
X93302438Y-134095237D01*
X93302438Y-134095237D02*
X93254819Y-133952380D01*
X93254819Y-133952380D02*
X93254819Y-133857142D01*
X93254819Y-133857142D02*
X93302438Y-133714285D01*
X93302438Y-133714285D02*
X93350057Y-133666666D01*
X93588152Y-132809523D02*
X94254819Y-132809523D01*
X93207200Y-133047618D02*
X93921485Y-133285713D01*
X93921485Y-133285713D02*
X93921485Y-132666666D01*
X79838095Y-135517319D02*
X79838095Y-136326842D01*
X79838095Y-136326842D02*
X79885714Y-136422080D01*
X79885714Y-136422080D02*
X79933333Y-136469700D01*
X79933333Y-136469700D02*
X80028571Y-136517319D01*
X80028571Y-136517319D02*
X80219047Y-136517319D01*
X80219047Y-136517319D02*
X80314285Y-136469700D01*
X80314285Y-136469700D02*
X80361904Y-136422080D01*
X80361904Y-136422080D02*
X80409523Y-136326842D01*
X80409523Y-136326842D02*
X80409523Y-135517319D01*
X81314285Y-135850652D02*
X81314285Y-136517319D01*
X81076190Y-135469700D02*
X80838095Y-136183985D01*
X80838095Y-136183985D02*
X81457142Y-136183985D01*
X130533333Y-130054819D02*
X130200000Y-129578628D01*
X129961905Y-130054819D02*
X129961905Y-129054819D01*
X129961905Y-129054819D02*
X130342857Y-129054819D01*
X130342857Y-129054819D02*
X130438095Y-129102438D01*
X130438095Y-129102438D02*
X130485714Y-129150057D01*
X130485714Y-129150057D02*
X130533333Y-129245295D01*
X130533333Y-129245295D02*
X130533333Y-129388152D01*
X130533333Y-129388152D02*
X130485714Y-129483390D01*
X130485714Y-129483390D02*
X130438095Y-129531009D01*
X130438095Y-129531009D02*
X130342857Y-129578628D01*
X130342857Y-129578628D02*
X129961905Y-129578628D01*
X131390476Y-129388152D02*
X131390476Y-130054819D01*
X131152381Y-129007200D02*
X130914286Y-129721485D01*
X130914286Y-129721485D02*
X131533333Y-129721485D01*
D10*
X136904761Y-144152657D02*
X136809523Y-144105038D01*
X136809523Y-144105038D02*
X136714285Y-144009800D01*
X136714285Y-144009800D02*
X136571428Y-143866942D01*
X136571428Y-143866942D02*
X136476190Y-143819323D01*
X136476190Y-143819323D02*
X136380952Y-143819323D01*
X136428571Y-144057419D02*
X136333333Y-144009800D01*
X136333333Y-144009800D02*
X136238095Y-143914561D01*
X136238095Y-143914561D02*
X136190476Y-143724085D01*
X136190476Y-143724085D02*
X136190476Y-143390752D01*
X136190476Y-143390752D02*
X136238095Y-143200276D01*
X136238095Y-143200276D02*
X136333333Y-143105038D01*
X136333333Y-143105038D02*
X136428571Y-143057419D01*
X136428571Y-143057419D02*
X136619047Y-143057419D01*
X136619047Y-143057419D02*
X136714285Y-143105038D01*
X136714285Y-143105038D02*
X136809523Y-143200276D01*
X136809523Y-143200276D02*
X136857142Y-143390752D01*
X136857142Y-143390752D02*
X136857142Y-143724085D01*
X136857142Y-143724085D02*
X136809523Y-143914561D01*
X136809523Y-143914561D02*
X136714285Y-144009800D01*
X136714285Y-144009800D02*
X136619047Y-144057419D01*
X136619047Y-144057419D02*
X136428571Y-144057419D01*
X137809523Y-144057419D02*
X137238095Y-144057419D01*
X137523809Y-144057419D02*
X137523809Y-143057419D01*
X137523809Y-143057419D02*
X137428571Y-143200276D01*
X137428571Y-143200276D02*
X137333333Y-143295514D01*
X137333333Y-143295514D02*
X137238095Y-143343133D01*
X139327693Y-138020038D02*
X139232455Y-137972419D01*
X139232455Y-137972419D02*
X139089598Y-137972419D01*
X139089598Y-137972419D02*
X138946741Y-138020038D01*
X138946741Y-138020038D02*
X138851503Y-138115276D01*
X138851503Y-138115276D02*
X138803884Y-138210514D01*
X138803884Y-138210514D02*
X138756265Y-138400990D01*
X138756265Y-138400990D02*
X138756265Y-138543847D01*
X138756265Y-138543847D02*
X138803884Y-138734323D01*
X138803884Y-138734323D02*
X138851503Y-138829561D01*
X138851503Y-138829561D02*
X138946741Y-138924800D01*
X138946741Y-138924800D02*
X139089598Y-138972419D01*
X139089598Y-138972419D02*
X139184836Y-138972419D01*
X139184836Y-138972419D02*
X139327693Y-138924800D01*
X139327693Y-138924800D02*
X139375312Y-138877180D01*
X139375312Y-138877180D02*
X139375312Y-138543847D01*
X139375312Y-138543847D02*
X139184836Y-138543847D01*
X134756265Y-138924800D02*
X134899122Y-138972419D01*
X134899122Y-138972419D02*
X135137217Y-138972419D01*
X135137217Y-138972419D02*
X135232455Y-138924800D01*
X135232455Y-138924800D02*
X135280074Y-138877180D01*
X135280074Y-138877180D02*
X135327693Y-138781942D01*
X135327693Y-138781942D02*
X135327693Y-138686704D01*
X135327693Y-138686704D02*
X135280074Y-138591466D01*
X135280074Y-138591466D02*
X135232455Y-138543847D01*
X135232455Y-138543847D02*
X135137217Y-138496228D01*
X135137217Y-138496228D02*
X134946741Y-138448609D01*
X134946741Y-138448609D02*
X134851503Y-138400990D01*
X134851503Y-138400990D02*
X134803884Y-138353371D01*
X134803884Y-138353371D02*
X134756265Y-138258133D01*
X134756265Y-138258133D02*
X134756265Y-138162895D01*
X134756265Y-138162895D02*
X134803884Y-138067657D01*
X134803884Y-138067657D02*
X134851503Y-138020038D01*
X134851503Y-138020038D02*
X134946741Y-137972419D01*
X134946741Y-137972419D02*
X135184836Y-137972419D01*
X135184836Y-137972419D02*
X135327693Y-138020038D01*
X135703884Y-142172419D02*
X135703884Y-141172419D01*
X135703884Y-141172419D02*
X135941979Y-141172419D01*
X135941979Y-141172419D02*
X136084836Y-141220038D01*
X136084836Y-141220038D02*
X136180074Y-141315276D01*
X136180074Y-141315276D02*
X136227693Y-141410514D01*
X136227693Y-141410514D02*
X136275312Y-141600990D01*
X136275312Y-141600990D02*
X136275312Y-141743847D01*
X136275312Y-141743847D02*
X136227693Y-141934323D01*
X136227693Y-141934323D02*
X136180074Y-142029561D01*
X136180074Y-142029561D02*
X136084836Y-142124800D01*
X136084836Y-142124800D02*
X135941979Y-142172419D01*
X135941979Y-142172419D02*
X135703884Y-142172419D01*
D13*
X67110000Y-137940000D02*
X65581000Y-137940000D01*
X67110000Y-137980000D02*
X65585000Y-137980000D01*
X67110000Y-138020000D02*
X65590000Y-138020000D01*
X67110000Y-138060000D02*
X65595000Y-138060000D01*
X67110000Y-138100000D02*
X65601000Y-138100000D01*
X67110000Y-138140000D02*
X65607000Y-138140000D01*
X67110000Y-138180000D02*
X65614000Y-138180000D01*
X67110000Y-138220000D02*
X65622000Y-138220000D01*
X67110000Y-138260000D02*
X65631000Y-138260000D01*
X67110000Y-138300000D02*
X65640000Y-138300000D01*
X67110000Y-138340000D02*
X65649000Y-138340000D01*
X67110000Y-138380000D02*
X65660000Y-138380000D01*
X67110000Y-138420000D02*
X65671000Y-138420000D01*
X67110000Y-138460000D02*
X65683000Y-138460000D01*
X67110000Y-138500000D02*
X65695000Y-138500000D01*
X67110000Y-138540000D02*
X65708000Y-138540000D01*
X67110000Y-138580000D02*
X65722000Y-138580000D01*
X67110000Y-138620000D02*
X65737000Y-138620000D01*
X67110000Y-138660000D02*
X65752000Y-138660000D01*
X67110000Y-138700000D02*
X65768000Y-138700000D01*
X67110000Y-138740000D02*
X65785000Y-138740000D01*
X67110000Y-138780000D02*
X65803000Y-138780000D01*
X67110000Y-138820000D02*
X65821000Y-138820000D01*
X67110000Y-138860000D02*
X65841000Y-138860000D01*
X67110000Y-138900000D02*
X65861000Y-138900000D01*
X67110000Y-138940000D02*
X65882000Y-138940000D01*
X67110000Y-138980000D02*
X65904000Y-138980000D01*
X67110000Y-139020000D02*
X65927000Y-139020000D01*
X67110000Y-139060000D02*
X65951000Y-139060000D01*
X67110000Y-139100000D02*
X65975000Y-139100000D01*
X67110000Y-139140000D02*
X66001000Y-139140000D01*
X67110000Y-139180000D02*
X66028000Y-139180000D01*
X67110000Y-139220000D02*
X66056000Y-139220000D01*
X67110000Y-139260000D02*
X66085000Y-139260000D01*
X67110000Y-139300000D02*
X66115000Y-139300000D01*
X67110000Y-139340000D02*
X66147000Y-139340000D01*
X67110000Y-139380000D02*
X66180000Y-139380000D01*
X67110000Y-139420000D02*
X66214000Y-139420000D01*
X67110000Y-139460000D02*
X66249000Y-139460000D01*
X67110000Y-139500000D02*
X66286000Y-139500000D01*
X67110000Y-139540000D02*
X66325000Y-139540000D01*
X67110000Y-139580000D02*
X66365000Y-139580000D01*
X67110000Y-139620000D02*
X66407000Y-139620000D01*
X67110000Y-139660000D02*
X66451000Y-139660000D01*
X67110000Y-139700000D02*
X66498000Y-139700000D01*
X67110000Y-139740000D02*
X66546000Y-139740000D01*
X67110000Y-139780000D02*
X66597000Y-139780000D01*
X67110000Y-139820000D02*
X66651000Y-139820000D01*
X67110000Y-139860000D02*
X66707000Y-139860000D01*
X67110000Y-139900000D02*
X66767000Y-139900000D01*
X67110000Y-139940000D02*
X66831000Y-139940000D01*
X67110000Y-139980000D02*
X66899000Y-139980000D01*
X68433000Y-140300000D02*
X67867000Y-140300000D01*
X68667000Y-140260000D02*
X67633000Y-140260000D01*
X68827000Y-140220000D02*
X67473000Y-140220000D01*
X68955000Y-140180000D02*
X67345000Y-140180000D01*
X69064000Y-140140000D02*
X67236000Y-140140000D01*
X69161000Y-140100000D02*
X67139000Y-140100000D01*
X69248000Y-140060000D02*
X67052000Y-140060000D01*
X69327000Y-140020000D02*
X66973000Y-140020000D01*
X69401000Y-139980000D02*
X69190000Y-139980000D01*
X69469000Y-139940000D02*
X69190000Y-139940000D01*
X69533000Y-139900000D02*
X69190000Y-139900000D01*
X69593000Y-139860000D02*
X69190000Y-139860000D01*
X69625000Y-134895225D02*
X69625000Y-135395225D01*
X69649000Y-139820000D02*
X69190000Y-139820000D01*
X69703000Y-139780000D02*
X69190000Y-139780000D01*
X69754000Y-139740000D02*
X69190000Y-139740000D01*
X69802000Y-139700000D02*
X69190000Y-139700000D01*
X69849000Y-139660000D02*
X69190000Y-139660000D01*
X69875000Y-135145225D02*
X69375000Y-135145225D01*
X69893000Y-139620000D02*
X69190000Y-139620000D01*
X69935000Y-139580000D02*
X69190000Y-139580000D01*
X69975000Y-139540000D02*
X69190000Y-139540000D01*
X70014000Y-139500000D02*
X69190000Y-139500000D01*
X70051000Y-139460000D02*
X69190000Y-139460000D01*
X70086000Y-139420000D02*
X69190000Y-139420000D01*
X70120000Y-139380000D02*
X69190000Y-139380000D01*
X70153000Y-139340000D02*
X69190000Y-139340000D01*
X70185000Y-139300000D02*
X69190000Y-139300000D01*
X70215000Y-139260000D02*
X69190000Y-139260000D01*
X70244000Y-139220000D02*
X69190000Y-139220000D01*
X70272000Y-139180000D02*
X69190000Y-139180000D01*
X70299000Y-139140000D02*
X69190000Y-139140000D01*
X70325000Y-139100000D02*
X69190000Y-139100000D01*
X70349000Y-139060000D02*
X69190000Y-139060000D01*
X70373000Y-139020000D02*
X69190000Y-139020000D01*
X70396000Y-138980000D02*
X69190000Y-138980000D01*
X70418000Y-138940000D02*
X69190000Y-138940000D01*
X70439000Y-138900000D02*
X69190000Y-138900000D01*
X70459000Y-138860000D02*
X69190000Y-138860000D01*
X70479000Y-138820000D02*
X69190000Y-138820000D01*
X70497000Y-138780000D02*
X69190000Y-138780000D01*
X70515000Y-138740000D02*
X69190000Y-138740000D01*
X70532000Y-138700000D02*
X69190000Y-138700000D01*
X70548000Y-138660000D02*
X69190000Y-138660000D01*
X70563000Y-138620000D02*
X69190000Y-138620000D01*
X70578000Y-138580000D02*
X69190000Y-138580000D01*
X70592000Y-138540000D02*
X69190000Y-138540000D01*
X70605000Y-138500000D02*
X69190000Y-138500000D01*
X70617000Y-138460000D02*
X69190000Y-138460000D01*
X70629000Y-138420000D02*
X69190000Y-138420000D01*
X70640000Y-138380000D02*
X69190000Y-138380000D01*
X70651000Y-138340000D02*
X69190000Y-138340000D01*
X70660000Y-138300000D02*
X69190000Y-138300000D01*
X70669000Y-138260000D02*
X69190000Y-138260000D01*
X70678000Y-138220000D02*
X69190000Y-138220000D01*
X70686000Y-138180000D02*
X69190000Y-138180000D01*
X70693000Y-138140000D02*
X69190000Y-138140000D01*
X70699000Y-138100000D02*
X69190000Y-138100000D01*
X70705000Y-138060000D02*
X69190000Y-138060000D01*
X70710000Y-138020000D02*
X69190000Y-138020000D01*
X70715000Y-137980000D02*
X69190000Y-137980000D01*
X70719000Y-137940000D02*
X69190000Y-137940000D01*
X70722000Y-137900000D02*
X65578000Y-137900000D01*
X70725000Y-137860000D02*
X65575000Y-137860000D01*
X70727000Y-137820000D02*
X65573000Y-137820000D01*
X70729000Y-137780000D02*
X65571000Y-137780000D01*
X70730000Y-137700000D02*
X65570000Y-137700000D01*
X70730000Y-137740000D02*
X65570000Y-137740000D01*
X70770000Y-137700000D02*
G75*
G02*
X65530000Y-137700000I-2620000J0D01*
G01*
X65530000Y-137700000D02*
G75*
G02*
X70770000Y-137700000I2620000J0D01*
G01*
D10*
X94500000Y-116580000D02*
X94500000Y-98800000D01*
X97040000Y-96260000D02*
X145300000Y-96260000D01*
X145300000Y-119120000D02*
X97040000Y-119120000D01*
X147840000Y-98800000D02*
X147840000Y-116580000D01*
X92595000Y-111500000D02*
X99580000Y-111500000D01*
X99580000Y-103880000D01*
X92595000Y-103880000D01*
X92595000Y-111500000D01*
X95770000Y-102610000D02*
X99580000Y-102610000D01*
X99580000Y-99435000D01*
X95770000Y-99435000D01*
X95770000Y-102610000D01*
X95770000Y-115945000D02*
X99580000Y-115945000D01*
X99580000Y-112770000D01*
X95770000Y-112770000D01*
X95770000Y-115945000D01*
X114820000Y-115945000D02*
X137680000Y-115945000D01*
X137680000Y-113405000D01*
X114820000Y-113405000D01*
X114820000Y-115945000D01*
X140220000Y-115310000D02*
X151650000Y-115310000D01*
X151650000Y-100070000D01*
X140220000Y-100070000D01*
X140220000Y-115310000D01*
X94500000Y-98800000D02*
G75*
G02*
X97040000Y-96260000I2540000J0D01*
G01*
X97040000Y-119120000D02*
G75*
G02*
X94500000Y-116580000I1J2540001D01*
G01*
X145300000Y-96260000D02*
G75*
G02*
X147840000Y-98800000I0J-2540000D01*
G01*
X147840000Y-116580000D02*
G75*
G02*
X145300000Y-119120000I-2540001J1D01*
G01*
D13*
X123815000Y-133213748D02*
X123815000Y-133736252D01*
X125285000Y-133213748D02*
X125285000Y-133736252D01*
X97215000Y-91451248D02*
X97215000Y-91973752D01*
X98685000Y-91451248D02*
X98685000Y-91973752D01*
D10*
X146150000Y-139200000D02*
X146350000Y-139200000D01*
X146150000Y-140900000D02*
X146150000Y-139200000D01*
X147350000Y-139200000D02*
X148350000Y-139200000D01*
X147350000Y-140900000D02*
X146150000Y-140900000D01*
X148350000Y-140900000D02*
X149550000Y-140900000D01*
X149550000Y-139200000D02*
X149350000Y-139200000D01*
X149550000Y-140900000D02*
X149550000Y-139200000D01*
D13*
X133877064Y-133615000D02*
X133422936Y-133615000D01*
X133877064Y-135085000D02*
X133422936Y-135085000D01*
D10*
X144264000Y-124474000D02*
X136136000Y-124474000D01*
X136136000Y-121426000D01*
X144264000Y-121426000D01*
X144264000Y-124474000D01*
D13*
X103915000Y-91973752D02*
X103915000Y-91451248D01*
X105385000Y-91973752D02*
X105385000Y-91451248D01*
X107565000Y-138886252D02*
X107565000Y-138363748D01*
X109035000Y-138886252D02*
X109035000Y-138363748D01*
D11*
X98050000Y-133187500D02*
X98050000Y-138937500D01*
X98050000Y-133187500D02*
X98275000Y-133187500D01*
X98050000Y-138937500D02*
X98275000Y-138937500D01*
X106700000Y-133187500D02*
X106475000Y-133187500D01*
X106700000Y-133187500D02*
X106700000Y-138937500D01*
X106700000Y-138937500D02*
X106475000Y-138937500D01*
D13*
X106780000Y-132927500D02*
X106450000Y-132687500D01*
X106780000Y-132447500D01*
X106780000Y-132927500D01*
G36*
X106780000Y-132927500D02*
G01*
X106450000Y-132687500D01*
X106780000Y-132447500D01*
X106780000Y-132927500D01*
G37*
X91265000Y-138886252D02*
X91265000Y-138363748D01*
X92735000Y-138886252D02*
X92735000Y-138363748D01*
D10*
X100000000Y-91350000D02*
X100000000Y-91950000D01*
X101050000Y-90050000D02*
X101450000Y-90050000D01*
X101250000Y-90050000D02*
X101050000Y-90050000D01*
X101450000Y-93250000D02*
X101050000Y-93250000D01*
X102500000Y-91350000D02*
X102500000Y-91950000D01*
X102850000Y-89300000D02*
X99650000Y-89300000D01*
X99650000Y-94000000D01*
X102850000Y-94000000D01*
X102850000Y-89300000D01*
D14*
X99965139Y-88900000D02*
G75*
G02*
X99734861Y-88900000I-115139J0D01*
G01*
X99734861Y-88900000D02*
G75*
G02*
X99965139Y-88900000I115139J0D01*
G01*
D13*
X107565000Y-133238748D02*
X107565000Y-133761252D01*
X109035000Y-133238748D02*
X109035000Y-133761252D01*
D11*
X114300000Y-133187500D02*
X114300000Y-138937500D01*
X114300000Y-133187500D02*
X114525000Y-133187500D01*
X114300000Y-138937500D02*
X114525000Y-138937500D01*
X122950000Y-133187500D02*
X122725000Y-133187500D01*
X122950000Y-133187500D02*
X122950000Y-138937500D01*
X122950000Y-138937500D02*
X122725000Y-138937500D01*
D13*
X123030000Y-132927500D02*
X122700000Y-132687500D01*
X123030000Y-132447500D01*
X123030000Y-132927500D01*
G36*
X123030000Y-132927500D02*
G01*
X122700000Y-132687500D01*
X123030000Y-132447500D01*
X123030000Y-132927500D01*
G37*
D10*
X140700000Y-139200000D02*
X140900000Y-139200000D01*
X140700000Y-140900000D02*
X140700000Y-139200000D01*
X141900000Y-139200000D02*
X142900000Y-139200000D01*
X141900000Y-140900000D02*
X140700000Y-140900000D01*
X142900000Y-140900000D02*
X144100000Y-140900000D01*
X144100000Y-139200000D02*
X143900000Y-139200000D01*
X144100000Y-140900000D02*
X144100000Y-139200000D01*
D13*
X133422936Y-131215000D02*
X133877064Y-131215000D01*
X133422936Y-132685000D02*
X133877064Y-132685000D01*
D15*
G36*
X79053813Y-105742129D02*
G01*
X79102096Y-105745946D01*
X79144388Y-105751902D01*
X79163155Y-105755954D01*
X79204227Y-105769129D01*
X79245151Y-105786987D01*
X79282207Y-105807579D01*
X79311672Y-105828958D01*
X79322348Y-105839280D01*
X79339376Y-105861240D01*
X79345716Y-105878947D01*
X79342021Y-105895161D01*
X79337344Y-105902587D01*
X79331867Y-105913375D01*
X79333104Y-105925669D01*
X79337344Y-105936981D01*
X79346202Y-105973930D01*
X79343049Y-106010140D01*
X79329119Y-106043319D01*
X79305643Y-106071176D01*
X79273853Y-106091418D01*
X79250077Y-106099238D01*
X79228968Y-106100544D01*
X79197062Y-106097751D01*
X79161990Y-106092111D01*
X79124593Y-106086433D01*
X79084030Y-106082433D01*
X79043434Y-106080202D01*
X79005935Y-106079828D01*
X78974665Y-106081400D01*
X78952754Y-106085009D01*
X78949585Y-106086053D01*
X78936516Y-106093749D01*
X78917616Y-106108177D01*
X78896423Y-106126582D01*
X78890818Y-106131826D01*
X78870261Y-106150700D01*
X78851856Y-106166381D01*
X78838809Y-106176174D01*
X78836489Y-106177525D01*
X78807565Y-106186433D01*
X78774841Y-106188247D01*
X78753399Y-106184786D01*
X78718306Y-106169002D01*
X78692225Y-106143765D01*
X78680394Y-106123811D01*
X78668285Y-106085599D01*
X78669279Y-106048516D01*
X78679224Y-106020697D01*
X78694032Y-105998161D01*
X78716551Y-105971169D01*
X78743619Y-105942979D01*
X78772070Y-105916849D01*
X78798741Y-105896037D01*
X78803193Y-105893051D01*
X78819783Y-105881988D01*
X78826646Y-105876424D01*
X78823189Y-105876369D01*
X78808818Y-105881834D01*
X78782939Y-105892830D01*
X78781507Y-105893450D01*
X78746525Y-105908593D01*
X78728174Y-105894930D01*
X78708832Y-105874864D01*
X78707009Y-105869296D01*
X78839822Y-105869296D01*
X78843155Y-105872629D01*
X78846489Y-105869296D01*
X78843155Y-105865963D01*
X78839822Y-105869296D01*
X78707009Y-105869296D01*
X78701803Y-105853393D01*
X78707522Y-105831982D01*
X78708836Y-105829864D01*
X78725652Y-105813309D01*
X78753497Y-105796448D01*
X78790122Y-105780182D01*
X78833279Y-105765409D01*
X78880717Y-105753028D01*
X78919822Y-105745517D01*
X78957997Y-105741714D01*
X79004220Y-105740651D01*
X79053813Y-105742129D01*
G37*
G36*
X79791303Y-106196075D02*
G01*
X79818308Y-106207383D01*
X79843536Y-106228004D01*
X79869038Y-106259392D01*
X79881962Y-106278683D01*
X79898810Y-106301304D01*
X79917111Y-106316297D01*
X79940283Y-106325340D01*
X79971740Y-106330111D01*
X79989062Y-106331287D01*
X80030368Y-106331293D01*
X80070959Y-106327449D01*
X80107789Y-106320359D01*
X80137813Y-106310632D01*
X80157986Y-106298871D01*
X80159614Y-106297339D01*
X80173081Y-106281614D01*
X80187034Y-106262265D01*
X80188844Y-106259454D01*
X80214812Y-106229277D01*
X80246287Y-106209993D01*
X80280934Y-106201848D01*
X80316417Y-106205088D01*
X80350401Y-106219959D01*
X80374511Y-106239943D01*
X80395909Y-106271198D01*
X80405563Y-106306465D01*
X80403940Y-106344400D01*
X80391507Y-106383661D01*
X80368730Y-106422903D01*
X80336077Y-106460783D01*
X80294013Y-106495958D01*
X80282894Y-106503632D01*
X80236873Y-106528124D01*
X80181321Y-106547716D01*
X80119298Y-106561896D01*
X80053865Y-106570149D01*
X79988081Y-106571961D01*
X79925009Y-106566818D01*
X79915466Y-106565331D01*
X79861028Y-106551514D01*
X79809398Y-106529608D01*
X79776610Y-106509717D01*
X79744621Y-106486974D01*
X79719413Y-106502887D01*
X79674373Y-106525930D01*
X79625626Y-106539749D01*
X79570175Y-106545053D01*
X79542518Y-106544861D01*
X79510802Y-106543511D01*
X79487677Y-106541146D01*
X79468399Y-106536574D01*
X79448227Y-106528602D01*
X79422419Y-106516039D01*
X79417065Y-106513328D01*
X79370032Y-106484764D01*
X79331099Y-106451656D01*
X79300830Y-106415407D01*
X79279787Y-106377422D01*
X79268533Y-106339103D01*
X79267631Y-106301854D01*
X79277644Y-106267079D01*
X79299135Y-106236181D01*
X79304001Y-106231387D01*
X79335903Y-106209736D01*
X79370787Y-106199933D01*
X79406286Y-106201615D01*
X79440033Y-106214415D01*
X79469663Y-106237968D01*
X79485950Y-106259451D01*
X79506965Y-106287675D01*
X79528900Y-106304368D01*
X79552809Y-106309481D01*
X79579745Y-106302969D01*
X79610763Y-106284784D01*
X79646914Y-106254881D01*
X79649844Y-106252180D01*
X79678166Y-106226815D01*
X79700301Y-106209714D01*
X79719103Y-106199342D01*
X79737427Y-106194163D01*
X79758126Y-106192640D01*
X79760470Y-106192629D01*
X79791303Y-106196075D01*
G37*
G36*
X80795214Y-105748332D02*
G01*
X80846489Y-105759520D01*
X80882037Y-105770389D01*
X80920044Y-105783487D01*
X80957801Y-105797722D01*
X80992601Y-105812000D01*
X81021738Y-105825231D01*
X81042505Y-105836321D01*
X81049967Y-105841623D01*
X81066569Y-105862932D01*
X81070050Y-105884991D01*
X81060315Y-105907120D01*
X81059246Y-105908513D01*
X81047734Y-105920546D01*
X81035244Y-105924901D01*
X81017203Y-105924046D01*
X80999377Y-105920122D01*
X80973453Y-105912064D01*
X80943495Y-105901207D01*
X80924186Y-105893450D01*
X80890358Y-105879671D01*
X80866926Y-105870931D01*
X80854248Y-105867248D01*
X80852679Y-105868640D01*
X80862578Y-105875122D01*
X80884299Y-105886714D01*
X80894878Y-105892039D01*
X80953809Y-105925093D01*
X80999722Y-105959086D01*
X81032562Y-105993935D01*
X81052270Y-106029553D01*
X81058789Y-106065856D01*
X81052061Y-106102759D01*
X81046496Y-106115946D01*
X81030404Y-106140852D01*
X81010294Y-106160763D01*
X81007126Y-106162998D01*
X80978428Y-106176198D01*
X80945281Y-106182800D01*
X80913809Y-106181820D01*
X80904411Y-106179532D01*
X80888541Y-106171872D01*
X80868449Y-106158809D01*
X80856618Y-106149759D01*
X80803970Y-106114594D01*
X80743252Y-106087611D01*
X80677423Y-106069498D01*
X80609440Y-106060945D01*
X80542262Y-106062640D01*
X80506489Y-106068240D01*
X80461891Y-106074476D01*
X80425829Y-106072092D01*
X80396200Y-106060513D01*
X80370904Y-106039159D01*
X80362138Y-106028554D01*
X80348040Y-106001312D01*
X80340788Y-105968534D01*
X80340947Y-105935476D01*
X80349082Y-105907393D01*
X80349098Y-105907362D01*
X80356638Y-105887715D01*
X80359821Y-105869356D01*
X80359822Y-105869189D01*
X80360885Y-105861518D01*
X80828711Y-105861518D01*
X80829626Y-105865481D01*
X80833155Y-105865963D01*
X80838643Y-105863523D01*
X80837600Y-105861518D01*
X80829688Y-105860720D01*
X80828711Y-105861518D01*
X80360885Y-105861518D01*
X80361654Y-105855963D01*
X80806489Y-105855963D01*
X80809822Y-105859296D01*
X80813155Y-105855963D01*
X80809822Y-105852629D01*
X80806489Y-105855963D01*
X80361654Y-105855963D01*
X80362557Y-105849446D01*
X80372181Y-105833363D01*
X80390818Y-105818458D01*
X80414650Y-105805208D01*
X80484563Y-105776169D01*
X80560750Y-105755627D01*
X80640037Y-105743916D01*
X80719249Y-105741372D01*
X80795214Y-105748332D01*
G37*
G36*
X81249688Y-106135623D02*
G01*
X81257771Y-106153042D01*
X81269960Y-106180135D01*
X81285686Y-106215611D01*
X81304378Y-106258179D01*
X81325463Y-106306546D01*
X81348373Y-106359423D01*
X81359604Y-106385456D01*
X81468964Y-106639296D01*
X81539393Y-106639718D01*
X81579363Y-106640458D01*
X81624747Y-106642067D01*
X81667680Y-106644243D01*
X81680836Y-106645096D01*
X81713653Y-106647717D01*
X81736446Y-106650689D01*
X81752519Y-106654819D01*
X81765175Y-106660917D01*
X81775898Y-106668393D01*
X81794698Y-106686700D01*
X81811088Y-106709033D01*
X81813952Y-106714191D01*
X81824499Y-106748479D01*
X81823628Y-106784166D01*
X81812360Y-106818076D01*
X81791713Y-106847031D01*
X81765010Y-106866717D01*
X81756823Y-106870540D01*
X81747849Y-106873595D01*
X81736533Y-106875982D01*
X81721324Y-106877800D01*
X81700668Y-106879147D01*
X81673013Y-106880121D01*
X81636808Y-106880823D01*
X81590498Y-106881350D01*
X81532531Y-106881801D01*
X81527348Y-106881836D01*
X81463274Y-106882418D01*
X81410773Y-106883253D01*
X81368087Y-106884426D01*
X81333458Y-106886023D01*
X81305126Y-106888129D01*
X81281333Y-106890828D01*
X81260321Y-106894205D01*
X81256489Y-106894932D01*
X81179636Y-106912383D01*
X81114994Y-106932739D01*
X81061657Y-106956508D01*
X81018721Y-106984195D01*
X80985281Y-107016305D01*
X80960431Y-107053346D01*
X80955578Y-107063170D01*
X80940467Y-107104133D01*
X80934889Y-107140376D01*
X80939052Y-107170120D01*
X80942209Y-107177466D01*
X80957099Y-107197830D01*
X80981830Y-107222206D01*
X81014148Y-107248996D01*
X81051795Y-107276604D01*
X81092518Y-107303432D01*
X81134062Y-107327883D01*
X81174170Y-107348360D01*
X81198020Y-107358633D01*
X81244833Y-107374583D01*
X81302904Y-107390379D01*
X81370162Y-107405657D01*
X81444533Y-107420053D01*
X81523946Y-107433202D01*
X81606326Y-107444741D01*
X81689602Y-107454306D01*
X81771701Y-107461531D01*
X81791543Y-107462913D01*
X81831113Y-107466520D01*
X81860503Y-107471736D01*
X81882828Y-107479167D01*
X81888156Y-107481686D01*
X81919462Y-107504374D01*
X81940550Y-107534484D01*
X81950492Y-107569870D01*
X81948358Y-107608388D01*
X81946431Y-107616169D01*
X81930585Y-107650365D01*
X81903950Y-107677307D01*
X81874857Y-107693905D01*
X81862649Y-107698863D01*
X81850575Y-107702039D01*
X81835926Y-107703555D01*
X81815994Y-107703537D01*
X81788070Y-107702107D01*
X81751524Y-107699543D01*
X81645194Y-107690038D01*
X81540913Y-107677502D01*
X81440496Y-107662280D01*
X81345755Y-107644714D01*
X81258503Y-107625147D01*
X81180555Y-107603922D01*
X81113723Y-107581382D01*
X81101512Y-107576611D01*
X81044740Y-107553816D01*
X79910614Y-108043954D01*
X79793544Y-108094545D01*
X79679666Y-108143750D01*
X79569590Y-108191306D01*
X79463928Y-108236947D01*
X79363292Y-108280412D01*
X79268293Y-108321435D01*
X79179543Y-108359752D01*
X79097653Y-108395101D01*
X79023235Y-108427216D01*
X78956899Y-108455834D01*
X78899258Y-108480691D01*
X78850922Y-108501524D01*
X78812504Y-108518067D01*
X78784615Y-108530058D01*
X78767865Y-108537232D01*
X78762902Y-108539325D01*
X78759528Y-108539796D01*
X78755757Y-108537997D01*
X78751121Y-108532959D01*
X78745151Y-108523710D01*
X78737381Y-108509282D01*
X78727340Y-108488705D01*
X78714562Y-108461008D01*
X78698578Y-108425222D01*
X78678921Y-108380377D01*
X78655121Y-108325503D01*
X78626711Y-108259631D01*
X78616938Y-108236927D01*
X78591051Y-108176784D01*
X78566799Y-108120475D01*
X78544685Y-108069163D01*
X78525212Y-108024012D01*
X78508881Y-107986186D01*
X78496194Y-107956848D01*
X78487655Y-107937164D01*
X78483765Y-107928295D01*
X78483581Y-107927908D01*
X78477151Y-107928603D01*
X78461395Y-107931803D01*
X78442878Y-107936068D01*
X78415170Y-107941359D01*
X78379624Y-107946140D01*
X78339079Y-107950240D01*
X78296379Y-107953489D01*
X78254362Y-107955716D01*
X78215870Y-107956752D01*
X78183743Y-107956426D01*
X78160823Y-107954569D01*
X78154734Y-107953322D01*
X78121151Y-107938105D01*
X78093330Y-107914247D01*
X78073170Y-107884476D01*
X78062573Y-107851522D01*
X78062808Y-107821250D01*
X78075340Y-107782831D01*
X78097439Y-107753542D01*
X78129217Y-107733306D01*
X78170782Y-107722045D01*
X78208418Y-107719442D01*
X78307103Y-107714269D01*
X78319771Y-107712143D01*
X78865255Y-107712143D01*
X78906013Y-108004053D01*
X78916387Y-108078311D01*
X78925097Y-108140444D01*
X78932321Y-108191532D01*
X78938234Y-108232657D01*
X78943015Y-108264898D01*
X78946839Y-108289337D01*
X78949883Y-108307053D01*
X78952324Y-108319129D01*
X78954339Y-108326643D01*
X78956104Y-108330678D01*
X78957797Y-108332312D01*
X78959594Y-108332628D01*
X78959764Y-108332629D01*
X78967477Y-108330106D01*
X78985220Y-108323133D01*
X79010804Y-108312604D01*
X79042044Y-108299414D01*
X79064234Y-108289887D01*
X79112067Y-108269172D01*
X79149009Y-108252932D01*
X79176416Y-108240374D01*
X79195645Y-108230707D01*
X79208053Y-108223138D01*
X79214998Y-108216873D01*
X79217835Y-108211122D01*
X79217922Y-108205090D01*
X79217136Y-108200590D01*
X79214321Y-108184463D01*
X79210319Y-108158796D01*
X79205414Y-108125685D01*
X79199894Y-108087228D01*
X79194043Y-108045521D01*
X79188149Y-108002660D01*
X79182496Y-107960743D01*
X79177372Y-107921867D01*
X79173062Y-107888127D01*
X79169852Y-107861621D01*
X79168029Y-107844446D01*
X79167779Y-107838759D01*
X79172012Y-107842352D01*
X79182970Y-107855539D01*
X79199672Y-107877032D01*
X79221140Y-107905542D01*
X79246393Y-107939782D01*
X79274452Y-107978461D01*
X79281926Y-107988863D01*
X79394010Y-108145157D01*
X79448583Y-108121813D01*
X79480001Y-108108421D01*
X79513003Y-108094432D01*
X79541183Y-108082557D01*
X79544822Y-108081033D01*
X79568146Y-108070334D01*
X79581111Y-108061532D01*
X79586147Y-108052764D01*
X79586489Y-108049120D01*
X79585564Y-108038919D01*
X79582953Y-108017370D01*
X79578903Y-107986314D01*
X79573660Y-107947596D01*
X79567469Y-107903059D01*
X79560576Y-107854546D01*
X79559809Y-107849205D01*
X79552982Y-107801144D01*
X79546960Y-107757554D01*
X79541962Y-107720127D01*
X79538209Y-107690557D01*
X79535920Y-107670534D01*
X79535316Y-107661754D01*
X79535386Y-107661509D01*
X79540015Y-107665882D01*
X79552039Y-107679343D01*
X79570410Y-107700660D01*
X79594081Y-107728602D01*
X79622004Y-107761938D01*
X79653132Y-107799435D01*
X79666327Y-107815423D01*
X79703181Y-107860012D01*
X79732627Y-107895234D01*
X79755626Y-107922102D01*
X79773136Y-107941629D01*
X79786117Y-107954829D01*
X79795531Y-107962714D01*
X79802336Y-107966299D01*
X79807493Y-107966596D01*
X79809082Y-107966112D01*
X79819661Y-107961720D01*
X79840141Y-107952989D01*
X79868207Y-107940915D01*
X79901542Y-107926495D01*
X79929822Y-107914210D01*
X79963977Y-107899359D01*
X80007665Y-107880380D01*
X80058186Y-107858447D01*
X80112838Y-107834731D01*
X80168920Y-107810406D01*
X80223731Y-107786643D01*
X80233155Y-107782559D01*
X80282826Y-107760820D01*
X80330049Y-107739752D01*
X80373022Y-107720189D01*
X80409944Y-107702966D01*
X80439013Y-107688916D01*
X80458429Y-107678873D01*
X80463553Y-107675873D01*
X80506325Y-107641063D01*
X80539209Y-107597988D01*
X80561404Y-107548140D01*
X80572110Y-107493012D01*
X80572997Y-107472006D01*
X80571851Y-107442018D01*
X80567656Y-107413319D01*
X80559573Y-107383048D01*
X80546763Y-107348342D01*
X80528389Y-107306338D01*
X80517844Y-107283794D01*
X80486097Y-107228659D01*
X80448504Y-107185314D01*
X80404454Y-107153286D01*
X80353333Y-107132101D01*
X80309807Y-107123021D01*
X80288959Y-107121349D01*
X80267503Y-107122449D01*
X80243467Y-107126869D01*
X80214885Y-107135159D01*
X80179785Y-107147868D01*
X80136200Y-107165545D01*
X80096489Y-107182509D01*
X80051127Y-107202070D01*
X80016213Y-107216751D01*
X79989995Y-107227045D01*
X79970719Y-107233450D01*
X79956631Y-107236458D01*
X79945980Y-107236567D01*
X79937011Y-107234270D01*
X79928014Y-107230085D01*
X79908970Y-107213577D01*
X79899658Y-107191179D01*
X79900874Y-107166894D01*
X79911489Y-107146897D01*
X79919225Y-107141214D01*
X79935952Y-107132079D01*
X79962076Y-107119311D01*
X79998002Y-107102731D01*
X80044139Y-107082156D01*
X80100892Y-107057407D01*
X80168668Y-107028304D01*
X80247873Y-106994665D01*
X80338915Y-106956310D01*
X80371893Y-106942475D01*
X80480632Y-106896900D01*
X80501893Y-106909330D01*
X80515173Y-106917282D01*
X80537097Y-106930618D01*
X80564978Y-106947694D01*
X80596127Y-106966867D01*
X80607354Y-106973800D01*
X80691553Y-107025841D01*
X80682158Y-107070902D01*
X80678645Y-107087631D01*
X80672733Y-107115644D01*
X80664795Y-107153182D01*
X80655203Y-107198486D01*
X80644329Y-107249798D01*
X80632546Y-107305358D01*
X80620226Y-107363409D01*
X80619229Y-107368105D01*
X80607373Y-107424400D01*
X80596534Y-107476749D01*
X80587000Y-107523688D01*
X80579063Y-107563749D01*
X80573011Y-107595467D01*
X80569133Y-107617377D01*
X80567719Y-107628013D01*
X80567758Y-107628659D01*
X80574440Y-107629154D01*
X80592843Y-107623775D01*
X80623019Y-107612503D01*
X80665023Y-107595316D01*
X80714740Y-107574012D01*
X80760463Y-107554070D01*
X80795471Y-107538557D01*
X80821284Y-107526598D01*
X80839421Y-107517320D01*
X80851401Y-107509848D01*
X80858743Y-107503308D01*
X80862968Y-107496828D01*
X80865593Y-107489532D01*
X80866369Y-107486791D01*
X80870967Y-107467257D01*
X80870855Y-107452758D01*
X80864489Y-107439906D01*
X80850329Y-107425313D01*
X80830934Y-107408944D01*
X80789193Y-107368892D01*
X80752296Y-107322198D01*
X80722999Y-107272762D01*
X80706623Y-107233048D01*
X80698584Y-107205280D01*
X80694583Y-107181803D01*
X80693957Y-107156443D01*
X80695513Y-107129693D01*
X80707865Y-107050424D01*
X80732110Y-106976970D01*
X80767949Y-106909748D01*
X80815083Y-106849174D01*
X80873215Y-106795664D01*
X80942045Y-106749635D01*
X80983548Y-106728041D01*
X81006350Y-106716807D01*
X81023623Y-106707526D01*
X81032533Y-106701749D01*
X81033155Y-106700886D01*
X81034487Y-106693662D01*
X81038240Y-106675143D01*
X81044050Y-106647074D01*
X81051556Y-106611198D01*
X81060393Y-106569259D01*
X81069822Y-106524774D01*
X81079631Y-106478280D01*
X81088450Y-106435825D01*
X81095912Y-106399229D01*
X81101650Y-106370314D01*
X81105296Y-106350899D01*
X81106489Y-106342933D01*
X81101183Y-106341888D01*
X81085075Y-106346269D01*
X81057881Y-106356182D01*
X81019313Y-106371732D01*
X80969088Y-106393023D01*
X80962337Y-106395938D01*
X80921425Y-106413768D01*
X80884616Y-106430079D01*
X80853680Y-106444063D01*
X80830385Y-106454917D01*
X80816499Y-106461834D01*
X80813400Y-106463781D01*
X80810665Y-106471700D01*
X80805761Y-106490670D01*
X80799157Y-106518675D01*
X80791327Y-106553697D01*
X80782741Y-106593720D01*
X80780179Y-106605963D01*
X80771618Y-106646777D01*
X80763904Y-106682930D01*
X80757464Y-106712471D01*
X80752724Y-106733449D01*
X80750113Y-106743916D01*
X80749804Y-106744718D01*
X80743824Y-106742010D01*
X80728204Y-106733251D01*
X80704627Y-106719435D01*
X80674779Y-106701552D01*
X80640341Y-106680592D01*
X80628064Y-106673052D01*
X80591899Y-106651061D01*
X80559178Y-106631683D01*
X80531727Y-106615956D01*
X80511371Y-106604921D01*
X80499935Y-106599615D01*
X80498508Y-106599296D01*
X80489861Y-106601863D01*
X80470834Y-106609068D01*
X80443247Y-106620172D01*
X80408922Y-106634432D01*
X80369678Y-106651107D01*
X80342621Y-106662791D01*
X80297747Y-106682270D01*
X80243802Y-106705654D01*
X80183959Y-106731570D01*
X80121392Y-106758644D01*
X80059274Y-106785502D01*
X80000778Y-106810772D01*
X79993155Y-106814064D01*
X79942679Y-106836054D01*
X79894672Y-106857345D01*
X79850897Y-106877127D01*
X79813116Y-106894590D01*
X79783093Y-106908923D01*
X79762591Y-106919316D01*
X79755902Y-106923127D01*
X79712155Y-106958153D01*
X79677314Y-107001653D01*
X79652225Y-107051480D01*
X79637737Y-107105487D01*
X79634697Y-107161524D01*
X79642246Y-107211125D01*
X79654515Y-107249972D01*
X79671732Y-107292328D01*
X79692121Y-107334691D01*
X79713906Y-107373557D01*
X79735311Y-107405423D01*
X79748827Y-107421391D01*
X79793302Y-107457968D01*
X79843980Y-107482827D01*
X79901127Y-107496084D01*
X79927722Y-107498244D01*
X79985623Y-107500590D01*
X80104389Y-107450330D01*
X80141851Y-107434629D01*
X80175512Y-107420809D01*
X80203294Y-107409699D01*
X80223118Y-107402130D01*
X80232907Y-107398931D01*
X80233155Y-107398893D01*
X80258033Y-107401198D01*
X80277507Y-107412544D01*
X80290043Y-107430020D01*
X80294104Y-107450712D01*
X80288152Y-107471710D01*
X80278155Y-107484173D01*
X80267151Y-107491281D01*
X80246158Y-107502202D01*
X80217562Y-107515792D01*
X80183751Y-107530904D01*
X80156489Y-107542516D01*
X80113616Y-107560417D01*
X80067622Y-107579665D01*
X80023018Y-107598368D01*
X79984315Y-107614637D01*
X79970871Y-107620304D01*
X79941190Y-107632615D01*
X79916321Y-107642528D01*
X79898617Y-107649134D01*
X79890429Y-107651526D01*
X79890158Y-107651456D01*
X79885588Y-107645938D01*
X79873692Y-107631591D01*
X79855657Y-107609846D01*
X79832671Y-107582134D01*
X79805920Y-107549889D01*
X79785775Y-107525608D01*
X79753774Y-107486643D01*
X79715957Y-107439954D01*
X79674614Y-107388408D01*
X79632033Y-107334868D01*
X79590503Y-107282201D01*
X79553155Y-107234358D01*
X79521221Y-107193445D01*
X79491717Y-107156118D01*
X79465670Y-107123642D01*
X79444107Y-107097277D01*
X79428056Y-107078285D01*
X79418543Y-107067930D01*
X79416489Y-107066374D01*
X79406861Y-107068718D01*
X79388071Y-107075598D01*
X79362444Y-107085971D01*
X79332304Y-107098795D01*
X79299975Y-107113029D01*
X79267781Y-107127628D01*
X79238047Y-107141551D01*
X79213097Y-107153757D01*
X79195255Y-107163201D01*
X79186845Y-107168843D01*
X79186489Y-107169520D01*
X79187406Y-107178243D01*
X79189972Y-107198104D01*
X79193905Y-107227049D01*
X79198925Y-107263024D01*
X79204750Y-107303975D01*
X79206893Y-107318860D01*
X79212825Y-107360831D01*
X79217885Y-107398339D01*
X79221823Y-107429383D01*
X79224388Y-107451959D01*
X79225330Y-107464064D01*
X79225226Y-107465469D01*
X79220970Y-107461824D01*
X79210179Y-107448713D01*
X79193962Y-107427597D01*
X79173429Y-107399934D01*
X79149688Y-107367183D01*
X79136489Y-107348691D01*
X79111143Y-107313448D01*
X79088037Y-107282163D01*
X79068369Y-107256392D01*
X79053340Y-107237692D01*
X79044149Y-107227620D01*
X79042148Y-107226306D01*
X79029945Y-107228715D01*
X79011474Y-107235508D01*
X78990240Y-107244975D01*
X78969748Y-107255407D01*
X78953505Y-107265093D01*
X78945015Y-107272324D01*
X78944519Y-107273928D01*
X78947377Y-107284510D01*
X78953422Y-107303198D01*
X78959908Y-107321878D01*
X78975243Y-107383948D01*
X78978787Y-107448888D01*
X78970982Y-107514268D01*
X78952271Y-107577655D01*
X78923097Y-107636618D01*
X78895585Y-107675302D01*
X78865255Y-107712143D01*
X78319771Y-107712143D01*
X78397838Y-107699042D01*
X78481906Y-107673324D01*
X78560591Y-107636680D01*
X78635176Y-107588676D01*
X78667113Y-107563769D01*
X78700617Y-107533045D01*
X78722877Y-107504251D01*
X78735210Y-107474849D01*
X78738935Y-107442305D01*
X78738234Y-107426903D01*
X78735702Y-107405724D01*
X78730647Y-107390954D01*
X78720404Y-107377656D01*
X78702863Y-107361383D01*
X78675923Y-107340133D01*
X78646378Y-107322084D01*
X78612893Y-107306936D01*
X78574135Y-107294390D01*
X78528771Y-107284146D01*
X78475467Y-107275905D01*
X78412889Y-107269366D01*
X78339705Y-107264231D01*
X78254579Y-107260199D01*
X78252160Y-107260105D01*
X78208318Y-107258327D01*
X78175617Y-107256660D01*
X78151869Y-107254780D01*
X78134889Y-107252363D01*
X78122490Y-107249085D01*
X78112486Y-107244621D01*
X78102690Y-107238648D01*
X78101301Y-107237733D01*
X78076865Y-107215039D01*
X78058125Y-107185152D01*
X78047805Y-107153000D01*
X78046635Y-107138858D01*
X78050791Y-107113121D01*
X78061241Y-107085138D01*
X78075393Y-107060967D01*
X78084124Y-107051217D01*
X78101739Y-107039055D01*
X78124603Y-107029839D01*
X78153898Y-107023489D01*
X78190807Y-107019926D01*
X78236511Y-107019069D01*
X78292193Y-107020839D01*
X78359035Y-107025156D01*
X78409153Y-107029301D01*
X78487787Y-107037210D01*
X78555080Y-107046311D01*
X78613010Y-107057151D01*
X78663555Y-107070277D01*
X78708693Y-107086235D01*
X78750399Y-107105573D01*
X78790653Y-107128836D01*
X78806489Y-107139161D01*
X78843155Y-107163765D01*
X80042740Y-106645244D01*
X80163000Y-106593282D01*
X80279993Y-106542773D01*
X80393130Y-106493969D01*
X80501825Y-106447122D01*
X80605488Y-106402483D01*
X80703534Y-106360306D01*
X80795374Y-106320841D01*
X80880421Y-106284340D01*
X80958088Y-106251056D01*
X81027787Y-106221240D01*
X81088930Y-106195145D01*
X81140931Y-106173021D01*
X81183201Y-106155122D01*
X81215153Y-106141699D01*
X81236199Y-106133003D01*
X81245753Y-106129288D01*
X81246284Y-106129169D01*
X81249688Y-106135623D01*
G37*
G36*
X81872755Y-103548596D02*
G01*
X81916489Y-103552300D01*
X82013659Y-103568844D01*
X82103555Y-103594832D01*
X82185446Y-103629884D01*
X82258605Y-103673619D01*
X82322302Y-103725658D01*
X82375808Y-103785619D01*
X82383462Y-103796044D01*
X82424830Y-103864161D01*
X82453295Y-103933838D01*
X82469109Y-104004458D01*
X82472523Y-104075400D01*
X82463787Y-104146048D01*
X82443154Y-104215782D01*
X82410875Y-104283985D01*
X82367201Y-104350036D01*
X82312384Y-104413319D01*
X82246674Y-104473214D01*
X82170322Y-104529103D01*
X82083582Y-104580367D01*
X82059814Y-104592633D01*
X82032348Y-104605785D01*
X81995517Y-104622503D01*
X81952361Y-104641458D01*
X81905918Y-104661321D01*
X81859226Y-104680762D01*
X81846332Y-104686026D01*
X81767544Y-104718679D01*
X81699346Y-104748662D01*
X81639624Y-104777353D01*
X81586264Y-104806129D01*
X81537151Y-104836367D01*
X81490172Y-104869443D01*
X81443212Y-104906734D01*
X81394157Y-104949618D01*
X81340892Y-104999472D01*
X81292143Y-105046960D01*
X81244515Y-105093932D01*
X81333835Y-105140354D01*
X81405998Y-105179718D01*
X81472953Y-105220439D01*
X81535978Y-105263699D01*
X81596353Y-105310680D01*
X81655356Y-105362565D01*
X81714266Y-105420537D01*
X81774362Y-105485776D01*
X81836922Y-105559467D01*
X81903224Y-105642792D01*
X81964709Y-105723721D01*
X82088873Y-105897068D01*
X82200761Y-106068327D01*
X82301007Y-106238744D01*
X82390245Y-106409565D01*
X82469109Y-106582036D01*
X82538233Y-106757400D01*
X82598252Y-106936904D01*
X82620106Y-107011042D01*
X82642140Y-107093443D01*
X82663031Y-107180767D01*
X82682410Y-107270847D01*
X82699911Y-107361521D01*
X82715166Y-107450621D01*
X82727807Y-107535983D01*
X82737467Y-107615443D01*
X82743778Y-107686835D01*
X82746372Y-107747994D01*
X82746417Y-107755025D01*
X82746489Y-107800755D01*
X82771489Y-107796575D01*
X82815086Y-107791156D01*
X82863619Y-107788187D01*
X82912846Y-107787687D01*
X82958528Y-107789670D01*
X82996425Y-107794154D01*
X83004231Y-107795677D01*
X83074355Y-107816793D01*
X83141078Y-107848338D01*
X83202393Y-107888833D01*
X83256293Y-107936801D01*
X83300769Y-107990761D01*
X83325900Y-108032629D01*
X83344122Y-108070636D01*
X83356620Y-108103729D01*
X83364374Y-108136256D01*
X83368366Y-108172561D01*
X83369579Y-108216991D01*
X83369578Y-108225963D01*
X83368220Y-108276855D01*
X83363781Y-108319874D01*
X83355227Y-108359359D01*
X83341526Y-108399652D01*
X83321642Y-108445094D01*
X83313221Y-108462629D01*
X83277763Y-108526390D01*
X83237354Y-108580873D01*
X83188871Y-108630007D01*
X83162763Y-108652085D01*
X83096777Y-108698908D01*
X83030118Y-108733170D01*
X82960822Y-108755579D01*
X82886923Y-108766845D01*
X82839822Y-108768550D01*
X82803571Y-108768049D01*
X82775765Y-108766230D01*
X82751528Y-108762354D01*
X82725982Y-108755683D01*
X82699822Y-108747337D01*
X82664815Y-108734656D01*
X82627311Y-108719410D01*
X82593925Y-108704329D01*
X82585398Y-108700091D01*
X82534308Y-108673895D01*
X82502831Y-108724929D01*
X82441136Y-108814262D01*
X82366618Y-108903200D01*
X82279791Y-108991227D01*
X82181164Y-109077826D01*
X82071251Y-109162481D01*
X82065827Y-109166395D01*
X82020180Y-109198457D01*
X81976014Y-109227625D01*
X81932127Y-109254377D01*
X81887318Y-109279191D01*
X81840384Y-109302545D01*
X81790125Y-109324916D01*
X81735339Y-109346783D01*
X81674823Y-109368624D01*
X81607376Y-109390917D01*
X81531798Y-109414138D01*
X81446885Y-109438767D01*
X81351436Y-109465282D01*
X81244250Y-109494160D01*
X81236576Y-109496202D01*
X81165136Y-109515081D01*
X81104652Y-109530753D01*
X81053252Y-109543650D01*
X81009064Y-109554200D01*
X80970217Y-109562834D01*
X80934839Y-109569983D01*
X80901058Y-109576077D01*
X80867002Y-109581546D01*
X80862127Y-109582283D01*
X80812783Y-109588862D01*
X80752559Y-109595515D01*
X80683906Y-109602028D01*
X80609275Y-109608186D01*
X80531115Y-109613776D01*
X80451878Y-109618585D01*
X80436489Y-109619414D01*
X80402857Y-109620911D01*
X80360302Y-109622370D01*
X80310442Y-109623768D01*
X80254895Y-109625085D01*
X80195282Y-109626301D01*
X80133219Y-109627393D01*
X80070327Y-109628342D01*
X80008223Y-109629126D01*
X79948526Y-109629724D01*
X79892856Y-109630116D01*
X79842830Y-109630280D01*
X79800067Y-109630196D01*
X79766186Y-109629842D01*
X79742806Y-109629198D01*
X79733155Y-109628514D01*
X79602724Y-109611144D01*
X79478772Y-109593316D01*
X79362447Y-109575226D01*
X79254898Y-109557065D01*
X79157276Y-109539028D01*
X79070728Y-109521309D01*
X78999822Y-109504949D01*
X78950527Y-109491922D01*
X78892100Y-109475103D01*
X78827828Y-109455541D01*
X78761001Y-109434286D01*
X78694909Y-109412388D01*
X78632840Y-109390899D01*
X78578085Y-109370867D01*
X78568955Y-109367380D01*
X78476533Y-109329692D01*
X78391229Y-109290162D01*
X78311255Y-109247550D01*
X78234822Y-109200616D01*
X78160138Y-109148122D01*
X78085416Y-109088829D01*
X78008866Y-109021496D01*
X77928698Y-108944885D01*
X77863155Y-108878562D01*
X77777309Y-108785966D01*
X77703573Y-108698042D01*
X77642017Y-108614882D01*
X77592710Y-108536579D01*
X77569500Y-108492911D01*
X77546110Y-108439227D01*
X77523143Y-108374725D01*
X77501311Y-108301918D01*
X77481329Y-108223320D01*
X77463908Y-108141443D01*
X77454018Y-108085963D01*
X77444950Y-108028832D01*
X77437810Y-107978744D01*
X77432381Y-107932739D01*
X77428443Y-107887857D01*
X77425777Y-107841138D01*
X77424166Y-107789622D01*
X77423389Y-107730349D01*
X77423222Y-107669296D01*
X77423315Y-107629941D01*
X77655573Y-107629941D01*
X77655877Y-107709624D01*
X77660049Y-107794468D01*
X77667765Y-107882373D01*
X77678702Y-107971237D01*
X77692536Y-108058959D01*
X77708944Y-108143438D01*
X77727602Y-108222573D01*
X77748188Y-108294262D01*
X77770377Y-108356404D01*
X77788669Y-108397052D01*
X77815387Y-108443425D01*
X77851357Y-108496206D01*
X77895176Y-108553786D01*
X77945441Y-108614560D01*
X78000746Y-108676920D01*
X78059690Y-108739259D01*
X78120868Y-108799971D01*
X78182876Y-108857449D01*
X78216489Y-108886813D01*
X78281076Y-108939929D01*
X78342144Y-108985450D01*
X78402744Y-109025173D01*
X78465928Y-109060896D01*
X78534747Y-109094415D01*
X78612254Y-109127529D01*
X78651791Y-109143168D01*
X78701365Y-109161618D01*
X78758866Y-109181761D01*
X78820982Y-109202537D01*
X78884399Y-109222886D01*
X78945807Y-109241751D01*
X79001893Y-109258069D01*
X79049346Y-109270784D01*
X79055386Y-109272283D01*
X79113906Y-109285692D01*
X79183578Y-109300073D01*
X79262287Y-109315062D01*
X79347918Y-109330298D01*
X79438358Y-109345417D01*
X79531490Y-109360058D01*
X79625202Y-109373857D01*
X79717377Y-109386452D01*
X79733155Y-109388501D01*
X79747590Y-109389378D01*
X79773746Y-109389956D01*
X79810017Y-109390253D01*
X79854795Y-109390291D01*
X79906473Y-109390090D01*
X79963443Y-109389671D01*
X80024099Y-109389055D01*
X80086831Y-109388261D01*
X80150034Y-109387312D01*
X80212100Y-109386227D01*
X80271420Y-109385027D01*
X80326389Y-109383732D01*
X80375398Y-109382364D01*
X80416839Y-109380943D01*
X80449107Y-109379489D01*
X80453155Y-109379264D01*
X80533387Y-109374189D01*
X80610941Y-109368398D01*
X80683699Y-109362089D01*
X80749543Y-109355461D01*
X80806354Y-109348711D01*
X80852014Y-109342039D01*
X80853155Y-109341847D01*
X80895633Y-109333789D01*
X80949719Y-109322011D01*
X81014298Y-109306789D01*
X81088258Y-109288396D01*
X81170483Y-109267106D01*
X81259861Y-109243193D01*
X81309822Y-109229530D01*
X81407553Y-109202009D01*
X81493802Y-109176246D01*
X81570183Y-109151497D01*
X81638308Y-109127014D01*
X81699792Y-109102053D01*
X81756249Y-109075866D01*
X81809292Y-109047709D01*
X81860534Y-109016835D01*
X81911590Y-108982499D01*
X81964073Y-108943954D01*
X82016699Y-108902778D01*
X82098633Y-108833486D01*
X82169355Y-108765274D01*
X82230568Y-108695907D01*
X82283975Y-108623150D01*
X82331279Y-108544768D01*
X82374184Y-108458525D01*
X82380012Y-108444996D01*
X82644295Y-108444996D01*
X82645708Y-108454420D01*
X82653018Y-108463242D01*
X82668562Y-108473584D01*
X82686489Y-108483334D01*
X82742218Y-108509227D01*
X82791957Y-108525041D01*
X82837945Y-108531184D01*
X82882425Y-108528065D01*
X82904915Y-108523129D01*
X82958713Y-108502166D01*
X83007870Y-108470176D01*
X83050927Y-108429083D01*
X83086423Y-108380809D01*
X83112897Y-108327276D01*
X83128889Y-108270407D01*
X83133155Y-108222728D01*
X83126794Y-108175807D01*
X83108066Y-108132995D01*
X83077510Y-108095037D01*
X83035660Y-108062677D01*
X83006489Y-108046798D01*
X82988464Y-108038866D01*
X82971849Y-108033749D01*
X82952875Y-108030849D01*
X82927770Y-108029565D01*
X82896489Y-108029296D01*
X82862956Y-108029592D01*
X82838967Y-108030907D01*
X82820737Y-108033878D01*
X82804481Y-108039143D01*
X82786414Y-108047340D01*
X82784826Y-108048117D01*
X82759220Y-108062841D01*
X82745988Y-108075952D01*
X82743874Y-108081451D01*
X82733169Y-108137556D01*
X82722498Y-108185737D01*
X82710487Y-108231327D01*
X82695760Y-108279662D01*
X82682420Y-108319999D01*
X82670151Y-108356950D01*
X82659466Y-108390449D01*
X82651106Y-108418065D01*
X82645813Y-108437368D01*
X82644295Y-108444996D01*
X82380012Y-108444996D01*
X82398934Y-108401074D01*
X82417431Y-108354044D01*
X82436330Y-108302655D01*
X82454653Y-108249861D01*
X82471421Y-108198616D01*
X82485659Y-108151874D01*
X82496389Y-108112590D01*
X82500983Y-108092629D01*
X82504472Y-108066990D01*
X82507048Y-108030360D01*
X82508729Y-107985051D01*
X82509536Y-107933373D01*
X82509486Y-107877636D01*
X82508599Y-107820151D01*
X82506893Y-107763228D01*
X82504388Y-107709178D01*
X82501103Y-107660312D01*
X82497099Y-107619296D01*
X82467753Y-107418335D01*
X82428279Y-107223407D01*
X82378311Y-107033635D01*
X82317484Y-106848140D01*
X82245435Y-106666044D01*
X82161798Y-106486469D01*
X82066208Y-106308536D01*
X81958303Y-106131367D01*
X81837716Y-105954084D01*
X81764392Y-105854270D01*
X81698873Y-105769100D01*
X81638412Y-105694460D01*
X81581737Y-105629144D01*
X81527578Y-105571948D01*
X81474661Y-105521668D01*
X81421715Y-105477098D01*
X81367467Y-105437034D01*
X81310646Y-105400271D01*
X81249980Y-105365604D01*
X81246489Y-105363724D01*
X81190771Y-105335574D01*
X81136058Y-105311887D01*
X81079365Y-105291689D01*
X81017706Y-105274003D01*
X80948097Y-105257854D01*
X80884421Y-105245337D01*
X80844991Y-105232336D01*
X80814052Y-105210570D01*
X80792583Y-105181880D01*
X80781560Y-105148107D01*
X80781961Y-105111093D01*
X80793795Y-105074640D01*
X80814230Y-105045899D01*
X80837664Y-105028254D01*
X80851813Y-105020405D01*
X80864143Y-105015564D01*
X80878153Y-105013269D01*
X80897337Y-105013059D01*
X80925194Y-105014473D01*
X80936586Y-105015197D01*
X81005612Y-105019660D01*
X81045742Y-104966943D01*
X81065920Y-104942676D01*
X81094223Y-104911752D01*
X81128619Y-104876150D01*
X81167073Y-104837850D01*
X81207552Y-104798829D01*
X81248024Y-104761066D01*
X81286453Y-104726540D01*
X81320809Y-104697230D01*
X81333155Y-104687251D01*
X81374841Y-104655937D01*
X81419022Y-104626326D01*
X81467361Y-104597540D01*
X81521521Y-104568706D01*
X81583163Y-104538946D01*
X81653950Y-104507385D01*
X81735544Y-104473147D01*
X81753312Y-104465899D01*
X81826407Y-104435740D01*
X81888421Y-104408997D01*
X81940898Y-104384798D01*
X81985381Y-104362273D01*
X82023416Y-104340551D01*
X82056545Y-104318762D01*
X82086314Y-104296034D01*
X82114266Y-104271498D01*
X82136489Y-104249849D01*
X82161027Y-104222771D01*
X82184415Y-104193089D01*
X82202776Y-104165817D01*
X82206489Y-104159296D01*
X82218183Y-104136393D01*
X82225156Y-104117943D01*
X82228609Y-104098792D01*
X82229746Y-104073788D01*
X82229822Y-104059296D01*
X82229282Y-104029582D01*
X82226978Y-104008378D01*
X82221885Y-103990882D01*
X82212979Y-103972292D01*
X82210141Y-103967099D01*
X82187590Y-103934592D01*
X82156634Y-103901057D01*
X82121277Y-103870339D01*
X82085524Y-103846285D01*
X82082661Y-103844707D01*
X82045392Y-103827989D01*
X81999516Y-103812655D01*
X81949760Y-103799999D01*
X81900851Y-103791315D01*
X81878666Y-103788903D01*
X81829534Y-103788731D01*
X81772029Y-103794869D01*
X81709112Y-103806605D01*
X81643740Y-103823221D01*
X81578874Y-103844005D01*
X81517472Y-103868240D01*
X81482649Y-103884580D01*
X81431278Y-103912789D01*
X81373420Y-103948570D01*
X81311890Y-103989941D01*
X81249501Y-104034918D01*
X81189067Y-104081521D01*
X81133403Y-104127766D01*
X81117112Y-104142116D01*
X81065799Y-104190999D01*
X81011703Y-104247836D01*
X80956605Y-104310369D01*
X80902288Y-104376340D01*
X80850531Y-104443491D01*
X80803117Y-104509563D01*
X80761826Y-104572298D01*
X80728440Y-104629438D01*
X80720044Y-104645522D01*
X80706352Y-104675659D01*
X80692497Y-104711494D01*
X80678992Y-104751030D01*
X80666349Y-104792274D01*
X80655081Y-104833230D01*
X80645701Y-104871903D01*
X80638720Y-104906299D01*
X80634653Y-104934422D01*
X80634011Y-104954278D01*
X80637308Y-104963871D01*
X80638130Y-104964287D01*
X80657756Y-104974627D01*
X80679741Y-104991656D01*
X80698864Y-105011100D01*
X80704663Y-105018774D01*
X80715463Y-105040942D01*
X80719633Y-105067995D01*
X80719822Y-105077279D01*
X80716156Y-105113002D01*
X80703913Y-105141637D01*
X80682084Y-105166825D01*
X80666604Y-105179544D01*
X80650471Y-105188417D01*
X80631386Y-105193747D01*
X80607047Y-105195837D01*
X80575155Y-105194989D01*
X80533408Y-105191507D01*
X80511697Y-105189258D01*
X80476157Y-105186071D01*
X80430500Y-105182937D01*
X80377938Y-105180020D01*
X80321688Y-105177486D01*
X80264962Y-105175501D01*
X80225855Y-105174510D01*
X80125590Y-105173386D01*
X80035715Y-105174584D01*
X79953451Y-105178337D01*
X79876019Y-105184882D01*
X79800639Y-105194453D01*
X79724533Y-105207285D01*
X79644921Y-105223615D01*
X79644369Y-105223737D01*
X79609295Y-105231177D01*
X79584158Y-105235556D01*
X79565988Y-105237148D01*
X79551811Y-105236226D01*
X79539669Y-105233371D01*
X79503039Y-105216143D01*
X79475802Y-105189865D01*
X79458870Y-105155778D01*
X79453155Y-105115846D01*
X79457552Y-105081796D01*
X79471887Y-105052931D01*
X79495325Y-105027878D01*
X79511872Y-105009028D01*
X79524520Y-104987188D01*
X79526527Y-104981888D01*
X79542556Y-104941190D01*
X79565822Y-104894428D01*
X79594339Y-104845168D01*
X79626120Y-104796976D01*
X79640672Y-104776966D01*
X79702405Y-104702461D01*
X79777136Y-104625898D01*
X79864711Y-104547405D01*
X79964977Y-104467110D01*
X80077778Y-104385140D01*
X80202961Y-104301622D01*
X80259822Y-104265722D01*
X80338712Y-104215110D01*
X80405724Y-104168640D01*
X80461476Y-104125802D01*
X80506586Y-104086084D01*
X80541671Y-104048976D01*
X80567348Y-104013967D01*
X80570435Y-104008852D01*
X80580647Y-103990509D01*
X80584577Y-103978451D01*
X80582915Y-103967597D01*
X80577666Y-103955616D01*
X80557584Y-103927983D01*
X80526070Y-103903329D01*
X80484788Y-103882127D01*
X80435404Y-103864852D01*
X80379582Y-103851980D01*
X80318986Y-103843984D01*
X80255280Y-103841340D01*
X80190130Y-103844523D01*
X80188714Y-103844660D01*
X80074165Y-103862453D01*
X79960171Y-103893114D01*
X79847677Y-103936182D01*
X79737628Y-103991199D01*
X79630971Y-104057704D01*
X79528651Y-104135238D01*
X79453525Y-104202061D01*
X79370265Y-104286093D01*
X79298687Y-104368507D01*
X79239114Y-104448873D01*
X79191869Y-104526762D01*
X79161689Y-104590589D01*
X79141724Y-104649148D01*
X79124754Y-104718622D01*
X79111097Y-104796865D01*
X79101070Y-104881732D01*
X79094990Y-104971077D01*
X79093155Y-105054232D01*
X79093473Y-105087464D01*
X79094734Y-105110391D01*
X79097396Y-105126034D01*
X79101918Y-105137414D01*
X79106986Y-105145209D01*
X79120786Y-105174342D01*
X79124643Y-105207988D01*
X79119088Y-105242413D01*
X79104653Y-105273883D01*
X79085535Y-105295742D01*
X79071776Y-105305352D01*
X79049202Y-105318993D01*
X79020974Y-105334829D01*
X78991014Y-105350637D01*
X78877099Y-105415596D01*
X78764174Y-105493445D01*
X78652677Y-105583753D01*
X78543050Y-105686089D01*
X78435731Y-105800020D01*
X78331160Y-105925115D01*
X78229777Y-106060943D01*
X78154530Y-106172003D01*
X78075630Y-106299198D01*
X78001283Y-106430619D01*
X77932662Y-106563859D01*
X77870940Y-106696509D01*
X77817290Y-106826159D01*
X77772884Y-106950403D01*
X77767874Y-106965963D01*
X77753507Y-107015972D01*
X77738555Y-107076686D01*
X77723490Y-107145517D01*
X77708787Y-107219877D01*
X77694921Y-107297180D01*
X77682364Y-107374838D01*
X77671592Y-107450265D01*
X77663079Y-107520872D01*
X77659459Y-107557520D01*
X77655573Y-107629941D01*
X77423315Y-107629941D01*
X77423363Y-107609761D01*
X77423823Y-107561201D01*
X77424726Y-107521259D01*
X77426198Y-107487577D01*
X77428360Y-107457800D01*
X77431339Y-107429569D01*
X77435257Y-107400528D01*
X77438493Y-107379296D01*
X77452971Y-107291224D01*
X77468450Y-107204282D01*
X77484238Y-107122161D01*
X77499647Y-107048550D01*
X77503951Y-107029296D01*
X77534272Y-106914683D01*
X77574308Y-106793455D01*
X77623239Y-106667169D01*
X77680244Y-106537380D01*
X77744503Y-106405646D01*
X77815193Y-106273522D01*
X77891495Y-106142563D01*
X77972587Y-106014327D01*
X78057649Y-105890370D01*
X78145859Y-105772247D01*
X78207294Y-105695963D01*
X78241194Y-105656920D01*
X78282274Y-105612353D01*
X78328251Y-105564518D01*
X78376846Y-105515674D01*
X78425777Y-105468080D01*
X78472762Y-105423992D01*
X78515522Y-105385669D01*
X78549822Y-105356920D01*
X78591981Y-105324305D01*
X78638942Y-105289716D01*
X78687679Y-105255253D01*
X78735164Y-105223014D01*
X78778371Y-105195098D01*
X78813760Y-105173894D01*
X78851032Y-105152865D01*
X78855364Y-105014414D01*
X78860365Y-104904940D01*
X78868502Y-104806782D01*
X78880340Y-104718173D01*
X78896440Y-104637345D01*
X78917366Y-104562532D01*
X78943681Y-104491967D01*
X78975948Y-104423883D01*
X79014731Y-104356512D01*
X79060593Y-104288088D01*
X79106434Y-104226656D01*
X79175593Y-104144238D01*
X79254353Y-104061959D01*
X79339339Y-103983019D01*
X79427174Y-103910614D01*
X79485259Y-103867826D01*
X79588021Y-103801778D01*
X79694753Y-103744325D01*
X79803976Y-103695927D01*
X79914210Y-103657046D01*
X80023978Y-103628145D01*
X80131800Y-103609686D01*
X80236199Y-103602129D01*
X80326489Y-103605074D01*
X80424975Y-103617891D01*
X80512560Y-103638166D01*
X80589467Y-103666006D01*
X80655918Y-103701517D01*
X80712135Y-103744805D01*
X80758343Y-103795979D01*
X80774932Y-103820028D01*
X80798628Y-103861630D01*
X80813545Y-103899653D01*
X80821172Y-103939028D01*
X80823034Y-103979296D01*
X80822315Y-104009920D01*
X80819517Y-104032889D01*
X80813441Y-104053854D01*
X80802889Y-104078463D01*
X80801270Y-104081919D01*
X80773447Y-104133506D01*
X80739233Y-104182505D01*
X80696417Y-104231844D01*
X80662295Y-104266093D01*
X80630064Y-104295927D01*
X80596687Y-104324330D01*
X80560226Y-104352722D01*
X80518739Y-104382527D01*
X80470286Y-104415168D01*
X80412928Y-104452066D01*
X80383155Y-104470775D01*
X80269757Y-104543696D01*
X80168600Y-104613180D01*
X80079163Y-104679653D01*
X80000925Y-104743539D01*
X79933364Y-104805260D01*
X79875959Y-104865243D01*
X79831165Y-104919925D01*
X79820335Y-104934937D01*
X79813914Y-104945001D01*
X79813155Y-104946865D01*
X79819277Y-104947529D01*
X79835654Y-104946785D01*
X79859298Y-104944801D01*
X79871489Y-104943553D01*
X79892285Y-104942023D01*
X79924345Y-104940588D01*
X79965602Y-104939299D01*
X80013986Y-104938203D01*
X80067428Y-104937352D01*
X80123860Y-104936794D01*
X80161147Y-104936612D01*
X80222758Y-104936416D01*
X80272361Y-104936158D01*
X80311285Y-104935759D01*
X80340854Y-104935139D01*
X80362396Y-104934221D01*
X80377237Y-104932924D01*
X80386704Y-104931170D01*
X80392123Y-104928881D01*
X80394820Y-104925976D01*
X80396056Y-104922629D01*
X80399008Y-104905038D01*
X80399791Y-104892629D01*
X80401593Y-104876393D01*
X80406345Y-104850323D01*
X80413350Y-104817410D01*
X80421910Y-104780646D01*
X80431328Y-104743022D01*
X80440907Y-104707529D01*
X80449948Y-104677158D01*
X80450290Y-104676088D01*
X80478547Y-104602004D01*
X80517037Y-104522655D01*
X80564553Y-104439618D01*
X80619886Y-104354472D01*
X80681826Y-104268795D01*
X80749165Y-104184165D01*
X80820693Y-104102160D01*
X80895202Y-104024357D01*
X80971483Y-103952335D01*
X81048326Y-103887671D01*
X81063155Y-103876144D01*
X81149398Y-103811974D01*
X81229063Y-103757085D01*
X81304106Y-103710508D01*
X81376482Y-103671277D01*
X81448144Y-103638426D01*
X81521049Y-103610988D01*
X81597150Y-103587997D01*
X81678401Y-103568485D01*
X81690385Y-103565958D01*
X81756837Y-103554217D01*
X81816107Y-103548521D01*
X81872755Y-103548596D01*
G37*
D13*
X123815000Y-138886252D02*
X123815000Y-138363748D01*
X125285000Y-138886252D02*
X125285000Y-138363748D01*
X91265000Y-133238748D02*
X91265000Y-133761252D01*
X92735000Y-133238748D02*
X92735000Y-133761252D01*
D11*
X81850000Y-133187500D02*
X81850000Y-138937500D01*
X81850000Y-133187500D02*
X82075000Y-133187500D01*
X81850000Y-138937500D02*
X82075000Y-138937500D01*
X90500000Y-133187500D02*
X90275000Y-133187500D01*
X90500000Y-133187500D02*
X90500000Y-138937500D01*
X90500000Y-138937500D02*
X90275000Y-138937500D01*
D13*
X90580000Y-132927500D02*
X90250000Y-132687500D01*
X90580000Y-132447500D01*
X90580000Y-132927500D01*
G36*
X90580000Y-132927500D02*
G01*
X90250000Y-132687500D01*
X90580000Y-132447500D01*
X90580000Y-132927500D01*
G37*
X133877064Y-128865000D02*
X133422936Y-128865000D01*
X133877064Y-130335000D02*
X133422936Y-130335000D01*
D10*
X135300000Y-139200000D02*
X135500000Y-139200000D01*
X135300000Y-140900000D02*
X135300000Y-139200000D01*
X136500000Y-139200000D02*
X137500000Y-139200000D01*
X136500000Y-140900000D02*
X135300000Y-140900000D01*
X137500000Y-140900000D02*
X138700000Y-140900000D01*
X138700000Y-139200000D02*
X138500000Y-139200000D01*
X138700000Y-140900000D02*
X138700000Y-139200000D01*
D15*
G36*
X75756902Y-106683215D02*
G01*
X75756902Y-109501522D01*
X68314808Y-109501522D01*
X60872713Y-109501522D01*
X60872713Y-108951072D01*
X62150080Y-108951072D01*
X62154711Y-108957526D01*
X62175841Y-108962596D01*
X62216470Y-108966395D01*
X62279602Y-108969037D01*
X62368237Y-108970638D01*
X62485378Y-108971312D01*
X62634026Y-108971171D01*
X62674341Y-108971031D01*
X62814118Y-108970134D01*
X62947957Y-108968608D01*
X63070262Y-108966568D01*
X63175437Y-108964129D01*
X63257886Y-108961405D01*
X63312012Y-108958510D01*
X63319990Y-108957820D01*
X63433356Y-108946668D01*
X63679505Y-108043815D01*
X63726352Y-107872354D01*
X63770441Y-107711713D01*
X63810905Y-107564993D01*
X63846880Y-107435297D01*
X63877501Y-107325727D01*
X63901902Y-107239386D01*
X63919219Y-107179376D01*
X63928586Y-107148799D01*
X63929998Y-107145480D01*
X63934477Y-107163045D01*
X63945728Y-107211822D01*
X63963038Y-107288598D01*
X63985694Y-107390159D01*
X64012982Y-107513293D01*
X64044190Y-107654786D01*
X64078603Y-107811426D01*
X64115508Y-107980000D01*
X64130217Y-108047340D01*
X64168021Y-108219875D01*
X64203792Y-108381878D01*
X64236798Y-108530109D01*
X64266302Y-108661329D01*
X64291571Y-108772300D01*
X64311870Y-108859781D01*
X64326466Y-108920534D01*
X64334623Y-108951319D01*
X64335878Y-108954482D01*
X64355438Y-108957353D01*
X64405451Y-108960367D01*
X64481145Y-108963361D01*
X64577744Y-108966171D01*
X64690475Y-108968633D01*
X64800648Y-108970402D01*
X64939256Y-108972133D01*
X65046774Y-108972991D01*
X65127333Y-108972742D01*
X65185064Y-108971154D01*
X65224100Y-108967998D01*
X65248574Y-108963040D01*
X65262616Y-108956049D01*
X65270358Y-108946793D01*
X65271853Y-108943980D01*
X65279461Y-108921148D01*
X65295322Y-108867580D01*
X65318521Y-108786555D01*
X65348142Y-108681351D01*
X65383268Y-108555247D01*
X65422985Y-108411521D01*
X65466377Y-108253452D01*
X65512527Y-108084318D01*
X65532888Y-108009387D01*
X65579560Y-107838569D01*
X65623737Y-107679106D01*
X65664536Y-107534030D01*
X65701077Y-107406373D01*
X65732476Y-107299166D01*
X65757852Y-107215440D01*
X65776323Y-107158226D01*
X65787007Y-107130557D01*
X65789114Y-107128666D01*
X65796068Y-107149218D01*
X65811844Y-107200414D01*
X65835494Y-107279048D01*
X65866072Y-107381918D01*
X65902630Y-107505819D01*
X65944222Y-107647546D01*
X65989900Y-107803896D01*
X66038717Y-107971665D01*
X66061724Y-108050954D01*
X66322918Y-108951911D01*
X66402913Y-108962441D01*
X66432225Y-108963899D01*
X66494083Y-108965077D01*
X66585807Y-108965973D01*
X66704716Y-108966586D01*
X66848129Y-108966916D01*
X67013364Y-108966960D01*
X67197741Y-108966719D01*
X67398579Y-108966190D01*
X67613196Y-108965374D01*
X67838912Y-108964268D01*
X68041784Y-108963073D01*
X68322421Y-108961296D01*
X68570189Y-108959642D01*
X68787447Y-108957956D01*
X68976555Y-108956082D01*
X69139872Y-108953865D01*
X69279757Y-108951149D01*
X69398569Y-108947779D01*
X69498666Y-108943598D01*
X69582409Y-108938452D01*
X69652157Y-108932184D01*
X69710267Y-108924640D01*
X69759100Y-108915663D01*
X69801015Y-108905097D01*
X69838371Y-108892788D01*
X69873526Y-108878579D01*
X69908840Y-108862316D01*
X69946673Y-108843841D01*
X69961756Y-108836427D01*
X70096685Y-108753879D01*
X70225160Y-108644668D01*
X70338824Y-108517308D01*
X70429321Y-108380313D01*
X70451002Y-108337981D01*
X70486463Y-108261041D01*
X70514086Y-108192938D01*
X70534832Y-108127585D01*
X70549661Y-108058894D01*
X70559534Y-107980780D01*
X70565412Y-107887155D01*
X70568257Y-107771931D01*
X70569028Y-107629022D01*
X70569011Y-107590357D01*
X70568412Y-107451582D01*
X70566727Y-107342496D01*
X70563614Y-107257569D01*
X70558729Y-107191270D01*
X70551732Y-107138067D01*
X70542280Y-107092429D01*
X70536958Y-107072257D01*
X70467311Y-106885186D01*
X70369064Y-106715265D01*
X70244981Y-106565924D01*
X70097824Y-106440594D01*
X69961727Y-106358071D01*
X69903495Y-106328689D01*
X69852105Y-106304470D01*
X69803417Y-106284858D01*
X69753288Y-106269296D01*
X69697577Y-106257227D01*
X69632143Y-106248095D01*
X69552845Y-106241341D01*
X69455540Y-106236410D01*
X69336088Y-106232745D01*
X69190347Y-106229789D01*
X69014175Y-106226985D01*
X68983320Y-106226520D01*
X68810284Y-106223793D01*
X68668965Y-106221196D01*
X68555849Y-106218525D01*
X68467428Y-106215576D01*
X68400188Y-106212143D01*
X68350619Y-106208023D01*
X68315209Y-106203011D01*
X68290447Y-106196901D01*
X68272822Y-106189490D01*
X68264691Y-106184650D01*
X68198473Y-106122474D01*
X68159451Y-106045765D01*
X68147246Y-105961914D01*
X68161478Y-105878310D01*
X68201765Y-105802343D01*
X68267729Y-105741402D01*
X68288111Y-105729422D01*
X68300718Y-105723458D01*
X68316160Y-105718267D01*
X68336823Y-105713796D01*
X68365092Y-105709991D01*
X68403353Y-105706798D01*
X68453990Y-105704165D01*
X68519389Y-105702038D01*
X68601935Y-105700363D01*
X68704013Y-105699087D01*
X68828009Y-105698156D01*
X68976308Y-105697517D01*
X69151295Y-105697116D01*
X69355356Y-105696901D01*
X69590876Y-105696816D01*
X69742975Y-105696807D01*
X69997924Y-105696843D01*
X70219962Y-105696987D01*
X70411409Y-105697288D01*
X70574582Y-105697797D01*
X70711800Y-105698564D01*
X70825382Y-105699639D01*
X70917645Y-105701072D01*
X70990908Y-105702914D01*
X71047490Y-105705216D01*
X71089709Y-105708027D01*
X71119883Y-105711398D01*
X71140331Y-105715379D01*
X71153372Y-105720020D01*
X71161323Y-105725372D01*
X71163518Y-105727632D01*
X71179721Y-105748882D01*
X71212978Y-105794571D01*
X71260156Y-105860270D01*
X71318121Y-105941550D01*
X71383737Y-106033980D01*
X71453871Y-106133130D01*
X71525388Y-106234571D01*
X71595153Y-106333873D01*
X71660033Y-106426606D01*
X71716891Y-106508341D01*
X71754372Y-106562651D01*
X71810671Y-106644654D01*
X71139003Y-107593095D01*
X71019020Y-107762509D01*
X70901311Y-107928692D01*
X70788079Y-108088534D01*
X70681528Y-108238925D01*
X70583862Y-108376755D01*
X70497285Y-108498914D01*
X70424001Y-108602292D01*
X70366214Y-108683779D01*
X70326126Y-108740265D01*
X70320272Y-108748506D01*
X70173208Y-108955475D01*
X70893845Y-108955475D01*
X71614481Y-108955475D01*
X72068488Y-108313563D01*
X72162667Y-108180946D01*
X72250780Y-108057910D01*
X72330733Y-107947304D01*
X72400431Y-107851978D01*
X72457782Y-107774780D01*
X72500690Y-107718558D01*
X72527062Y-107686163D01*
X72534761Y-107679232D01*
X72547147Y-107694791D01*
X72577634Y-107736243D01*
X72624111Y-107800628D01*
X72684465Y-107884988D01*
X72756583Y-107986363D01*
X72838353Y-108101795D01*
X72927663Y-108228323D01*
X72992996Y-108321144D01*
X73438964Y-108955475D01*
X74159118Y-108955475D01*
X74879273Y-108955475D01*
X74801309Y-108845385D01*
X74595412Y-108554297D01*
X74401686Y-108279715D01*
X74220809Y-108022618D01*
X74053457Y-107783985D01*
X73900307Y-107564797D01*
X73762036Y-107366032D01*
X73639321Y-107188670D01*
X73532839Y-107033691D01*
X73443267Y-106902074D01*
X73371282Y-106794798D01*
X73317560Y-106712843D01*
X73282778Y-106657189D01*
X73267614Y-106628814D01*
X73267105Y-106625436D01*
X73279185Y-106607833D01*
X73309983Y-106563833D01*
X73357845Y-106495776D01*
X73421116Y-106406005D01*
X73498143Y-106296864D01*
X73587273Y-106170694D01*
X73686850Y-106029838D01*
X73795221Y-105876639D01*
X73910732Y-105713440D01*
X74005734Y-105579281D01*
X74125664Y-105409923D01*
X74239731Y-105248780D01*
X74346285Y-105098187D01*
X74443677Y-104960479D01*
X74530255Y-104837990D01*
X74604370Y-104733058D01*
X74664371Y-104648016D01*
X74708608Y-104585201D01*
X74735431Y-104546947D01*
X74743225Y-104535626D01*
X74734008Y-104530465D01*
X74698458Y-104526185D01*
X74635140Y-104522749D01*
X74542615Y-104520118D01*
X74419447Y-104518253D01*
X74264200Y-104517115D01*
X74075437Y-104516666D01*
X74036131Y-104516656D01*
X73317304Y-104516671D01*
X72931162Y-105062703D01*
X72844432Y-105184953D01*
X72763937Y-105297662D01*
X72691954Y-105397698D01*
X72630763Y-105481924D01*
X72582645Y-105547207D01*
X72549877Y-105590412D01*
X72534739Y-105608404D01*
X72534125Y-105608735D01*
X72521907Y-105594815D01*
X72491796Y-105555150D01*
X72446064Y-105492885D01*
X72386982Y-105411164D01*
X72316819Y-105313130D01*
X72237849Y-105201926D01*
X72152340Y-105080697D01*
X72139360Y-105062227D01*
X71755490Y-104515719D01*
X69885426Y-104520583D01*
X68015362Y-104525448D01*
X67892061Y-104566638D01*
X67730034Y-104631960D01*
X67586754Y-104715507D01*
X67451398Y-104824047D01*
X67396837Y-104876187D01*
X67324963Y-104950806D01*
X67271618Y-105015203D01*
X67228089Y-105081489D01*
X67185662Y-105161778D01*
X67173952Y-105185988D01*
X67135262Y-105269318D01*
X67105269Y-105341909D01*
X67082877Y-105410204D01*
X67066991Y-105480642D01*
X67056513Y-105559662D01*
X67050349Y-105653706D01*
X67047402Y-105769213D01*
X67046577Y-105912624D01*
X67046569Y-105934601D01*
X67047190Y-106082297D01*
X67049784Y-106201215D01*
X67055447Y-106297796D01*
X67065275Y-106378478D01*
X67080363Y-106449704D01*
X67101807Y-106517911D01*
X67130704Y-106589542D01*
X67168149Y-106671035D01*
X67173952Y-106683215D01*
X67273814Y-106852136D01*
X67401582Y-107002357D01*
X67553523Y-107130659D01*
X67725902Y-107233829D01*
X67892061Y-107301445D01*
X67927394Y-107312336D01*
X67962296Y-107321176D01*
X68001032Y-107328259D01*
X68047870Y-107333882D01*
X68107074Y-107338338D01*
X68182913Y-107341923D01*
X68279650Y-107344932D01*
X68401554Y-107347659D01*
X68552889Y-107350401D01*
X68615088Y-107351443D01*
X68778555Y-107354307D01*
X68910513Y-107357081D01*
X69014677Y-107360002D01*
X69094766Y-107363305D01*
X69154496Y-107367224D01*
X69197585Y-107371997D01*
X69227749Y-107377857D01*
X69248707Y-107385042D01*
X69262173Y-107392440D01*
X69328063Y-107454170D01*
X69365519Y-107529423D01*
X69374594Y-107611006D01*
X69355346Y-107691722D01*
X69307829Y-107764375D01*
X69258978Y-107805783D01*
X69199126Y-107845767D01*
X68237341Y-107845743D01*
X67275556Y-107845719D01*
X67144725Y-107392171D01*
X67106398Y-107260040D01*
X67067918Y-107128715D01*
X67031356Y-107005162D01*
X66998781Y-106896347D01*
X66972263Y-106809236D01*
X66957640Y-106762479D01*
X66942925Y-106713302D01*
X66920342Y-106633658D01*
X66890873Y-106527181D01*
X66855499Y-106397503D01*
X66815201Y-106248257D01*
X66770962Y-106083077D01*
X66723762Y-105905594D01*
X66674582Y-105719442D01*
X66630496Y-105551533D01*
X66359606Y-104516730D01*
X65792220Y-104516685D01*
X65224834Y-104516640D01*
X65204890Y-104591502D01*
X65195766Y-104625336D01*
X65178536Y-104688846D01*
X65154371Y-104777719D01*
X65124446Y-104887647D01*
X65089933Y-105014320D01*
X65052006Y-105153427D01*
X65011839Y-105300659D01*
X65010452Y-105305741D01*
X64971187Y-105449894D01*
X64935008Y-105583257D01*
X64902933Y-105702038D01*
X64875979Y-105802444D01*
X64855164Y-105880684D01*
X64841505Y-105932965D01*
X64836019Y-105955495D01*
X64835959Y-105956006D01*
X64834386Y-105966030D01*
X64829344Y-105957286D01*
X64820346Y-105927745D01*
X64806905Y-105875375D01*
X64788534Y-105798144D01*
X64764746Y-105694022D01*
X64735055Y-105560978D01*
X64698975Y-105396980D01*
X64668092Y-105255495D01*
X64634858Y-105103116D01*
X64603698Y-104960738D01*
X64575463Y-104832211D01*
X64551004Y-104721384D01*
X64531171Y-104632109D01*
X64516814Y-104568235D01*
X64508784Y-104533611D01*
X64507637Y-104529155D01*
X64503252Y-104520427D01*
X64493315Y-104513535D01*
X64474180Y-104508310D01*
X64442205Y-104504583D01*
X64393747Y-104502186D01*
X64325162Y-104500949D01*
X64232807Y-104500703D01*
X64113039Y-104501280D01*
X63962215Y-104502511D01*
X63937660Y-104502733D01*
X63800547Y-104504290D01*
X63674926Y-104506313D01*
X63565080Y-104508685D01*
X63475291Y-104511291D01*
X63409841Y-104514015D01*
X63373014Y-104516740D01*
X63366529Y-104518179D01*
X63360716Y-104536135D01*
X63346229Y-104586075D01*
X63323620Y-104665988D01*
X63293445Y-104773860D01*
X63256260Y-104907678D01*
X63212618Y-105065430D01*
X63163075Y-105245102D01*
X63108186Y-105444681D01*
X63048505Y-105662154D01*
X62984587Y-105895509D01*
X62916988Y-106142732D01*
X62846262Y-106401811D01*
X62772964Y-106670732D01*
X62757154Y-106728789D01*
X62683362Y-106999765D01*
X62612061Y-107261484D01*
X62543804Y-107511919D01*
X62479145Y-107749044D01*
X62418638Y-107970832D01*
X62362836Y-108175257D01*
X62312293Y-108360291D01*
X62267563Y-108523907D01*
X62229199Y-108664080D01*
X62197755Y-108778782D01*
X62173785Y-108865987D01*
X62157842Y-108923667D01*
X62150480Y-108949796D01*
X62150080Y-108951072D01*
X60872713Y-108951072D01*
X60872713Y-106683215D01*
X60872713Y-103864907D01*
X68314808Y-103864907D01*
X75756902Y-103864907D01*
X75756902Y-106683215D01*
G37*
M02*
