G04 #@! TF.GenerationSoftware,KiCad,Pcbnew,9.0.2*
G04 #@! TF.CreationDate,2025-06-08T15:26:52+09:00*
G04 #@! TF.ProjectId,vdp_cartridge,7664705f-6361-4727-9472-696467652e6b,rev?*
G04 #@! TF.SameCoordinates,Original*
G04 #@! TF.FileFunction,Soldermask,Bot*
G04 #@! TF.FilePolarity,Negative*
%FSLAX46Y46*%
G04 Gerber Fmt 4.6, Leading zero omitted, Abs format (unit mm)*
G04 Created by KiCad (PCBNEW 9.0.2) date 2025-06-08 15:26:52*
%MOMM*%
%LPD*%
G01*
G04 APERTURE LIST*
G04 Aperture macros list*
%AMRoundRect*
0 Rectangle with rounded corners*
0 $1 Rounding radius*
0 $2 $3 $4 $5 $6 $7 $8 $9 X,Y pos of 4 corners*
0 Add a 4 corners polygon primitive as box body*
4,1,4,$2,$3,$4,$5,$6,$7,$8,$9,$2,$3,0*
0 Add four circle primitives for the rounded corners*
1,1,$1+$1,$2,$3*
1,1,$1+$1,$4,$5*
1,1,$1+$1,$6,$7*
1,1,$1+$1,$8,$9*
0 Add four rect primitives between the rounded corners*
20,1,$1+$1,$2,$3,$4,$5,0*
20,1,$1+$1,$4,$5,$6,$7,0*
20,1,$1+$1,$6,$7,$8,$9,0*
20,1,$1+$1,$8,$9,$2,$3,0*%
%AMFreePoly0*
4,1,21,0.153073,0.369552,0.243505,0.317341,0.317341,0.243505,0.369552,0.153073,0.396578,0.052210,0.400000,0.000000,0.400000,-1.500000,0.850000,-1.500000,0.850000,-10.500000,-0.850000,-10.500000,-0.850000,-1.500000,-0.400000,-1.500000,-0.400000,0.000000,-0.396578,0.052210,-0.369552,0.153073,-0.317341,0.243505,-0.243505,0.317341,-0.153073,0.369552,-0.052210,0.396578,0.052210,0.396578,
0.153073,0.369552,0.153073,0.369552,$1*%
G04 Aperture macros list end*
%ADD10RoundRect,0.250000X-0.550000X0.550000X-0.550000X-0.550000X0.550000X-0.550000X0.550000X0.550000X0*%
%ADD11C,1.600000*%
%ADD12C,1.524000*%
%ADD13C,3.200000*%
%ADD14C,2.000000*%
%ADD15C,6.000000*%
%ADD16FreePoly0,0.000000*%
G04 APERTURE END LIST*
G36*
X139359000Y-156257000D02*
G01*
X73954000Y-156257000D01*
X73954000Y-165858200D01*
X139359000Y-165858200D01*
X139359000Y-156257000D01*
G37*
D10*
X68150000Y-136450000D03*
D11*
X68150000Y-138950000D03*
D12*
X97040000Y-117850000D03*
X99580000Y-117850000D03*
X102120000Y-117850000D03*
X104660000Y-117850000D03*
X107200000Y-117850000D03*
X109740000Y-117850000D03*
X112280000Y-117850000D03*
X114820000Y-117850000D03*
X117360000Y-117850000D03*
X119900000Y-117850000D03*
X122440000Y-117850000D03*
X124980000Y-117850000D03*
X127520000Y-117850000D03*
X130060000Y-117850000D03*
X132600000Y-117850000D03*
X135140000Y-117850000D03*
X137680000Y-117850000D03*
X140220000Y-117850000D03*
X142760000Y-117850000D03*
X145300000Y-117850000D03*
X145300000Y-97530000D03*
X142760000Y-97530000D03*
X140220000Y-97530000D03*
X137680000Y-97530000D03*
X135140000Y-97530000D03*
X132600000Y-97530000D03*
X130060000Y-97530000D03*
X127520000Y-97530000D03*
X124980000Y-97530000D03*
X122440000Y-97530000D03*
X119900000Y-97530000D03*
X117360000Y-97530000D03*
X114820000Y-97530000D03*
X112280000Y-97530000D03*
X109740000Y-97530000D03*
X107200000Y-97530000D03*
X104660000Y-97530000D03*
X102120000Y-97530000D03*
X99580000Y-97530000D03*
X97040000Y-97530000D03*
D13*
X147805400Y-87050000D03*
X59848004Y-87005600D03*
D14*
X142740000Y-122950000D03*
X140200000Y-122950000D03*
X137660000Y-122950000D03*
D15*
X78805400Y-144874400D03*
X134685400Y-149827400D03*
D16*
X137200000Y-154700000D03*
X134660000Y-154700000D03*
X132120000Y-154700000D03*
X129580000Y-154700000D03*
X127040000Y-154700000D03*
X124500000Y-154700000D03*
X121960000Y-154700000D03*
X119420000Y-154700000D03*
X116880000Y-154700000D03*
X114340000Y-154700000D03*
X111800000Y-154700000D03*
X109260000Y-154700000D03*
X106720000Y-154700000D03*
X104180000Y-154700000D03*
X101640000Y-154700000D03*
X99100000Y-154700000D03*
X96560000Y-154700000D03*
X94020000Y-154700000D03*
X91480000Y-154700000D03*
X88940000Y-154700000D03*
X86400000Y-154700000D03*
X83860000Y-154700000D03*
X81320000Y-154700000D03*
X78780000Y-154700000D03*
X76240000Y-154700000D03*
M02*
