G04 #@! TF.GenerationSoftware,KiCad,Pcbnew,9.0.2*
G04 #@! TF.CreationDate,2025-06-08T15:26:52+09:00*
G04 #@! TF.ProjectId,vdp_cartridge,7664705f-6361-4727-9472-696467652e6b,rev?*
G04 #@! TF.SameCoordinates,Original*
G04 #@! TF.FileFunction,Copper,L2,Bot*
G04 #@! TF.FilePolarity,Positive*
%FSLAX46Y46*%
G04 Gerber Fmt 4.6, Leading zero omitted, Abs format (unit mm)*
G04 Created by KiCad (PCBNEW 9.0.2) date 2025-06-08 15:26:52*
%MOMM*%
%LPD*%
G01*
G04 APERTURE LIST*
G04 Aperture macros list*
%AMRoundRect*
0 Rectangle with rounded corners*
0 $1 Rounding radius*
0 $2 $3 $4 $5 $6 $7 $8 $9 X,Y pos of 4 corners*
0 Add a 4 corners polygon primitive as box body*
4,1,4,$2,$3,$4,$5,$6,$7,$8,$9,$2,$3,0*
0 Add four circle primitives for the rounded corners*
1,1,$1+$1,$2,$3*
1,1,$1+$1,$4,$5*
1,1,$1+$1,$6,$7*
1,1,$1+$1,$8,$9*
0 Add four rect primitives between the rounded corners*
20,1,$1+$1,$2,$3,$4,$5,0*
20,1,$1+$1,$4,$5,$6,$7,0*
20,1,$1+$1,$6,$7,$8,$9,0*
20,1,$1+$1,$8,$9,$2,$3,0*%
%AMFreePoly0*
4,1,21,0.153073,0.369552,0.243505,0.317341,0.317341,0.243505,0.369552,0.153073,0.396578,0.052210,0.400000,0.000000,0.400000,-1.500000,0.850000,-1.500000,0.850000,-10.500000,-0.850000,-10.500000,-0.850000,-1.500000,-0.400000,-1.500000,-0.400000,0.000000,-0.396578,0.052210,-0.369552,0.153073,-0.317341,0.243505,-0.243505,0.317341,-0.153073,0.369552,-0.052210,0.396578,0.052210,0.396578,
0.153073,0.369552,0.153073,0.369552,$1*%
G04 Aperture macros list end*
G04 #@! TA.AperFunction,ComponentPad*
%ADD10RoundRect,0.250000X-0.550000X0.550000X-0.550000X-0.550000X0.550000X-0.550000X0.550000X0.550000X0*%
G04 #@! TD*
G04 #@! TA.AperFunction,ComponentPad*
%ADD11C,1.600000*%
G04 #@! TD*
G04 #@! TA.AperFunction,ComponentPad*
%ADD12C,1.524000*%
G04 #@! TD*
G04 #@! TA.AperFunction,ComponentPad*
%ADD13C,2.000000*%
G04 #@! TD*
G04 #@! TA.AperFunction,SMDPad,CuDef*
%ADD14FreePoly0,0.000000*%
G04 #@! TD*
G04 #@! TA.AperFunction,ViaPad*
%ADD15C,0.600000*%
G04 #@! TD*
G04 #@! TA.AperFunction,Conductor*
%ADD16C,0.600000*%
G04 #@! TD*
G04 #@! TA.AperFunction,Conductor*
%ADD17C,0.200000*%
G04 #@! TD*
G04 APERTURE END LIST*
D10*
X68150000Y-136450000D03*
D11*
X68150000Y-138950000D03*
D12*
X97040000Y-117850000D03*
X99580000Y-117850000D03*
X102120000Y-117850000D03*
X104660000Y-117850000D03*
X107200000Y-117850000D03*
X109740000Y-117850000D03*
X112280000Y-117850000D03*
X114820000Y-117850000D03*
X117360000Y-117850000D03*
X119900000Y-117850000D03*
X122440000Y-117850000D03*
X124980000Y-117850000D03*
X127520000Y-117850000D03*
X130060000Y-117850000D03*
X132600000Y-117850000D03*
X135140000Y-117850000D03*
X137680000Y-117850000D03*
X140220000Y-117850000D03*
X142760000Y-117850000D03*
X145300000Y-117850000D03*
X145300000Y-97530000D03*
X142760000Y-97530000D03*
X140220000Y-97530000D03*
X137680000Y-97530000D03*
X135140000Y-97530000D03*
X132600000Y-97530000D03*
X130060000Y-97530000D03*
X127520000Y-97530000D03*
X124980000Y-97530000D03*
X122440000Y-97530000D03*
X119900000Y-97530000D03*
X117360000Y-97530000D03*
X114820000Y-97530000D03*
X112280000Y-97530000D03*
X109740000Y-97530000D03*
X107200000Y-97530000D03*
X104660000Y-97530000D03*
X102120000Y-97530000D03*
X99580000Y-97530000D03*
X97040000Y-97530000D03*
D13*
X142740000Y-122950000D03*
X140200000Y-122950000D03*
X137660000Y-122950000D03*
D14*
X137200000Y-154700000D03*
X134660000Y-154700000D03*
X132120000Y-154700000D03*
X129580000Y-154700000D03*
X127040000Y-154700000D03*
X124500000Y-154700000D03*
X121960000Y-154700000D03*
X119420000Y-154700000D03*
X116880000Y-154700000D03*
X114340000Y-154700000D03*
X111800000Y-154700000D03*
X109260000Y-154700000D03*
X106720000Y-154700000D03*
X104180000Y-154700000D03*
X101640000Y-154700000D03*
X99100000Y-154700000D03*
X96560000Y-154700000D03*
X94020000Y-154700000D03*
X91480000Y-154700000D03*
X88940000Y-154700000D03*
X86400000Y-154700000D03*
X83860000Y-154700000D03*
X81320000Y-154700000D03*
X78780000Y-154700000D03*
X76240000Y-154700000D03*
D15*
X132644200Y-119797400D03*
X80193200Y-84593000D03*
X104932800Y-84618400D03*
X80040800Y-151217200D03*
X138257600Y-153452400D03*
X131704400Y-146010200D03*
X97770000Y-151191800D03*
X108057000Y-151191800D03*
X64115000Y-152385600D03*
X126421200Y-122845400D03*
X79050200Y-121499200D03*
X112654400Y-139584000D03*
X126649800Y-135875600D03*
X148163600Y-118171800D03*
X131679000Y-141844600D03*
X57993600Y-139431600D03*
X57333200Y-86675800D03*
X85095400Y-151191800D03*
X131704400Y-140092000D03*
X137673400Y-119797400D03*
X148316000Y-84593000D03*
X131679000Y-143825800D03*
X79050200Y-101890400D03*
X150348000Y-86726600D03*
X117378800Y-120000600D03*
X115778600Y-151191800D03*
X123068400Y-121194400D03*
X128097600Y-135875600D03*
X57866600Y-121524600D03*
X57993600Y-101941200D03*
X123601800Y-84618400D03*
X112654400Y-127849200D03*
X123779600Y-122845400D03*
X59543000Y-84542200D03*
X150398800Y-152538000D03*
X79050200Y-139507800D03*
X110038200Y-136450000D03*
X93833000Y-136450000D03*
X126005000Y-136450000D03*
X129164400Y-134961200D03*
X95865000Y-88123600D03*
X126014799Y-134905679D03*
X93833000Y-134961200D03*
X110038200Y-134961200D03*
X137976600Y-134350000D03*
X148849400Y-129576400D03*
X143388400Y-131964000D03*
X129596200Y-151217200D03*
X100750000Y-130871800D03*
X84943000Y-93356000D03*
X95331600Y-93381400D03*
X101400000Y-130109800D03*
X94595000Y-93991000D03*
X85773060Y-94006000D03*
X103332600Y-127849200D03*
X88194200Y-96277000D03*
X92004200Y-96277000D03*
X102697600Y-128585800D03*
X92893200Y-95489600D03*
X87356000Y-95489600D03*
X93777600Y-94656000D03*
X102037200Y-129347800D03*
X86532085Y-94656000D03*
X103993000Y-126477600D03*
X100056000Y-127112600D03*
X127437200Y-127773000D03*
X122128600Y-141946200D03*
X104653400Y-141946200D03*
X90048400Y-141946200D03*
X104678800Y-125715600D03*
X89413400Y-90663600D03*
X123627200Y-88123600D03*
X116997800Y-124928200D03*
X119588600Y-122870800D03*
X120503000Y-123683600D03*
X123627200Y-88987200D03*
X118293200Y-122870800D03*
X99450000Y-147454400D03*
X100741800Y-151217200D03*
X119410800Y-151191800D03*
X90251600Y-151217200D03*
X95306200Y-151191800D03*
X124500000Y-151200000D03*
X92766200Y-151191800D03*
X103358000Y-151217200D03*
X111079600Y-151191800D03*
X100100000Y-148213200D03*
X102062600Y-151217200D03*
X121950800Y-151191800D03*
X87660800Y-151217200D03*
D16*
X69957000Y-148829600D02*
X68150000Y-147022600D01*
X69957000Y-148880400D02*
X69957000Y-148829600D01*
X83860000Y-154700000D02*
X83860000Y-151988400D01*
D17*
X126649800Y-135875600D02*
X128097600Y-135875600D01*
D16*
X83860000Y-151988400D02*
X80752000Y-148880400D01*
X83860000Y-154700000D02*
X86400000Y-154700000D01*
X68150000Y-147022600D02*
X68150000Y-138950000D01*
X80752000Y-148880400D02*
X69957000Y-148880400D01*
X65918400Y-148880400D02*
X65918400Y-138681600D01*
X110038200Y-136450000D02*
X126005000Y-136450000D01*
X67137600Y-150099600D02*
X65918400Y-148880400D01*
X78780000Y-154700000D02*
X78780000Y-151937600D01*
X78780000Y-154700000D02*
X81320000Y-154700000D01*
X65918400Y-138681600D02*
X68150000Y-136450000D01*
X68150000Y-136450000D02*
X93833000Y-136450000D01*
X93833000Y-136450000D02*
X110038200Y-136450000D01*
X76942000Y-150099600D02*
X67137600Y-150099600D01*
X78780000Y-151937600D02*
X76942000Y-150099600D01*
X93833000Y-134961200D02*
X76332400Y-134961200D01*
X126070320Y-134961200D02*
X126014799Y-134905679D01*
X142760000Y-117850000D02*
X142760000Y-122930000D01*
X135920800Y-134961200D02*
X129164400Y-134961200D01*
X65689800Y-124318600D02*
X64597600Y-123226400D01*
X125959278Y-134961200D02*
X126014799Y-134905679D01*
D17*
X142760000Y-122930000D02*
X142740000Y-122950000D01*
D16*
X110038200Y-134961200D02*
X125959278Y-134961200D01*
X142760000Y-122930000D02*
X142760000Y-128122000D01*
X78593000Y-88123600D02*
X95865000Y-88123600D01*
X76332400Y-134961200D02*
X65689800Y-124318600D01*
X110038200Y-134961200D02*
X93833000Y-134961200D01*
X142760000Y-128122000D02*
X135920800Y-134961200D01*
X64597600Y-123226400D02*
X64597600Y-102119000D01*
X129164400Y-134961200D02*
X126070320Y-134961200D01*
X64597600Y-102119000D02*
X78593000Y-88123600D01*
X95865000Y-88123600D02*
X95890400Y-88123600D01*
D17*
X150602000Y-130313000D02*
X150602000Y-97496200D01*
X148112800Y-95007000D02*
X140203000Y-95007000D01*
X146565000Y-134350000D02*
X150602000Y-130313000D01*
X137976600Y-134350000D02*
X146565000Y-134350000D01*
X150602000Y-97496200D02*
X148112800Y-95007000D01*
X140203000Y-95007000D02*
X137680000Y-97530000D01*
X145300000Y-97530000D02*
X148310742Y-97530000D01*
X148310742Y-97530000D02*
X148993200Y-98212458D01*
X148993200Y-98212458D02*
X148993200Y-129432600D01*
X148993200Y-129432600D02*
X148849400Y-129576400D01*
X147808000Y-131964000D02*
X149789200Y-129982800D01*
X143388400Y-131964000D02*
X147808000Y-131964000D01*
X147833400Y-95565800D02*
X144724200Y-95565800D01*
X149789200Y-129982800D02*
X149789200Y-97521600D01*
X149789200Y-97521600D02*
X147833400Y-95565800D01*
X144724200Y-95565800D02*
X142760000Y-97530000D01*
X129580000Y-151233400D02*
X129580000Y-154700000D01*
X129596200Y-151217200D02*
X129580000Y-151233400D01*
X97211200Y-130871800D02*
X84943000Y-118603600D01*
X100750000Y-130871800D02*
X97211200Y-130871800D01*
X84943000Y-93356000D02*
X84943000Y-93254400D01*
X120831400Y-93381400D02*
X124980000Y-97530000D01*
X84943000Y-118603600D02*
X84943000Y-93356000D01*
X95331600Y-93381400D02*
X120831400Y-93381400D01*
X94595000Y-93991000D02*
X116361000Y-93991000D01*
X116361000Y-93991000D02*
X119900000Y-97530000D01*
X85679600Y-118552800D02*
X85679600Y-94099460D01*
X85679600Y-94099460D02*
X85773060Y-94006000D01*
X97236600Y-130109800D02*
X85679600Y-118552800D01*
X101400000Y-130109800D02*
X97236600Y-130109800D01*
X85773060Y-93830460D02*
X85773060Y-94006000D01*
X97490600Y-127849200D02*
X88194200Y-118552800D01*
X103332600Y-127849200D02*
X97490600Y-127849200D01*
X100867000Y-96277000D02*
X102120000Y-97530000D01*
X92004200Y-96277000D02*
X100867000Y-96277000D01*
X88194200Y-118552800D02*
X88194200Y-96277000D01*
X87356000Y-118552800D02*
X87356000Y-95489600D01*
X102697600Y-128585800D02*
X97389000Y-128585800D01*
X97389000Y-128585800D02*
X87356000Y-118552800D01*
X105159600Y-95489600D02*
X107200000Y-97530000D01*
X92893200Y-95489600D02*
X105159600Y-95489600D01*
X86467000Y-118502000D02*
X86467000Y-94721085D01*
X97312800Y-129347800D02*
X86467000Y-118502000D01*
X86467000Y-94721085D02*
X86532085Y-94656000D01*
X106866000Y-94656000D02*
X109740000Y-97530000D01*
X102037200Y-129347800D02*
X97312800Y-129347800D01*
X93777600Y-94656000D02*
X106866000Y-94656000D01*
X121442800Y-126467200D02*
X130060000Y-117850000D01*
X103993000Y-126477600D02*
X121442800Y-126477600D01*
X121442800Y-126477600D02*
X121442800Y-126467200D01*
X100056000Y-127112600D02*
X123337400Y-127112600D01*
X123337400Y-127112600D02*
X132600000Y-117850000D01*
X135140000Y-120070200D02*
X127437200Y-127773000D01*
X135140000Y-117850000D02*
X135140000Y-120070200D01*
X122128600Y-141946200D02*
X90099200Y-141946200D01*
X127520000Y-117850000D02*
X119654400Y-125715600D01*
X119654400Y-125715600D02*
X104678800Y-125715600D01*
X127513400Y-90638200D02*
X127513400Y-93000400D01*
X89413400Y-116597000D02*
X89413400Y-90663600D01*
X123627200Y-88123600D02*
X124998800Y-88123600D01*
X97744600Y-124928200D02*
X89413400Y-116597000D01*
X127513400Y-93000400D02*
X127520000Y-93007000D01*
X116997800Y-124928200D02*
X97744600Y-124928200D01*
X124998800Y-88123600D02*
X127513400Y-90638200D01*
X127520000Y-93007000D02*
X127520000Y-97530000D01*
X117632800Y-120915000D02*
X115345000Y-120915000D01*
X119588600Y-122870800D02*
X117632800Y-120915000D01*
X115345000Y-120915000D02*
X112280000Y-117850000D01*
X97338200Y-123683600D02*
X90607200Y-116952600D01*
X120503000Y-123683600D02*
X97338200Y-123683600D01*
X90607200Y-91451000D02*
X93071000Y-88987200D01*
X93071000Y-88987200D02*
X123627200Y-88987200D01*
X90607200Y-116952600D02*
X90607200Y-91451000D01*
X113236800Y-121346800D02*
X109740000Y-117850000D01*
X118293200Y-122870800D02*
X116769200Y-121346800D01*
X116769200Y-121346800D02*
X113236800Y-121346800D01*
X99450000Y-147454400D02*
X109552000Y-147454400D01*
X111800000Y-149702400D02*
X111800000Y-154700000D01*
X109552000Y-147454400D02*
X111800000Y-149702400D01*
X100741800Y-151623600D02*
X99100000Y-153265400D01*
X99100000Y-153265400D02*
X99100000Y-154700000D01*
X100741800Y-151217200D02*
X100741800Y-151623600D01*
X119410800Y-151191800D02*
X119410800Y-151217200D01*
X119420000Y-151226400D02*
X119420000Y-154700000D01*
X119410800Y-151217200D02*
X119420000Y-151226400D01*
X90277000Y-151242600D02*
X90277000Y-151852200D01*
X90277000Y-151852200D02*
X91480000Y-153055200D01*
X90251600Y-151217200D02*
X90277000Y-151242600D01*
X91480000Y-153055200D02*
X91480000Y-154700000D01*
X95306200Y-151928400D02*
X96560000Y-153182200D01*
X96560000Y-153182200D02*
X96560000Y-154700000D01*
X95306200Y-151191800D02*
X95306200Y-151928400D01*
X124500000Y-151200000D02*
X124500000Y-154700000D01*
X92766200Y-151191800D02*
X92766200Y-151903000D01*
X94020000Y-153156800D02*
X94020000Y-154700000D01*
X92766200Y-151903000D02*
X94020000Y-153156800D01*
X103358000Y-152030000D02*
X104180000Y-152852000D01*
X104180000Y-152852000D02*
X104180000Y-154700000D01*
X103358000Y-151217200D02*
X103358000Y-152030000D01*
X100100000Y-148213200D02*
X108101000Y-148213200D01*
X108101000Y-148213200D02*
X111079600Y-151191800D01*
X102062600Y-151217200D02*
X102062600Y-152394800D01*
X101640000Y-152817400D02*
X101640000Y-154700000D01*
X102062600Y-152394800D02*
X101640000Y-152817400D01*
X121960000Y-151201000D02*
X121960000Y-154700000D01*
X121950800Y-151191800D02*
X121960000Y-151201000D01*
X87660800Y-151826800D02*
X87686200Y-151826800D01*
X87660800Y-151217200D02*
X87660800Y-151826800D01*
X87686200Y-151826800D02*
X88940000Y-153080600D01*
X88940000Y-153080600D02*
X88940000Y-154700000D01*
G04 #@! TA.AperFunction,Conductor*
G36*
X148389411Y-83959525D02*
G01*
X148453531Y-83969681D01*
X148466184Y-83972370D01*
X148526144Y-83988436D01*
X148581729Y-84020529D01*
X150834869Y-86273669D01*
X150866963Y-86329257D01*
X150883025Y-86389202D01*
X150885723Y-86401897D01*
X150935236Y-86714512D01*
X150936593Y-86727420D01*
X150953330Y-87046756D01*
X150953500Y-87053246D01*
X150953500Y-97123367D01*
X150933815Y-97190406D01*
X150881011Y-97236161D01*
X150811853Y-97246105D01*
X150748297Y-97217080D01*
X150741819Y-97211048D01*
X148297312Y-94766541D01*
X148297307Y-94766537D01*
X148287106Y-94760648D01*
X148287104Y-94760647D01*
X148228791Y-94726980D01*
X148228790Y-94726979D01*
X148203313Y-94720152D01*
X148152362Y-94706500D01*
X140163438Y-94706500D01*
X140125224Y-94716739D01*
X140087009Y-94726979D01*
X140087008Y-94726980D01*
X140028696Y-94760647D01*
X140028694Y-94760648D01*
X140018492Y-94766537D01*
X140018487Y-94766541D01*
X138174751Y-96610276D01*
X138113428Y-96643761D01*
X138043736Y-96638777D01*
X138039637Y-96637164D01*
X137960751Y-96604488D01*
X137960743Y-96604486D01*
X137774802Y-96567500D01*
X137774798Y-96567500D01*
X137585202Y-96567500D01*
X137585197Y-96567500D01*
X137399256Y-96604486D01*
X137399248Y-96604488D01*
X137224087Y-96677042D01*
X137066441Y-96782377D01*
X136932377Y-96916441D01*
X136827042Y-97074087D01*
X136754488Y-97249248D01*
X136754486Y-97249256D01*
X136717500Y-97435197D01*
X136717500Y-97624802D01*
X136754877Y-97812709D01*
X136748650Y-97882301D01*
X136705787Y-97937478D01*
X136639897Y-97960722D01*
X136633260Y-97960900D01*
X136186740Y-97960900D01*
X136119701Y-97941215D01*
X136073946Y-97888411D01*
X136064002Y-97819253D01*
X136065123Y-97812709D01*
X136097965Y-97647596D01*
X136102500Y-97624798D01*
X136102500Y-97435202D01*
X136065512Y-97249249D01*
X135992956Y-97074085D01*
X135957686Y-97021300D01*
X135887622Y-96916441D01*
X135753558Y-96782377D01*
X135595912Y-96677042D01*
X135420751Y-96604488D01*
X135420743Y-96604486D01*
X135234802Y-96567500D01*
X135234798Y-96567500D01*
X135045202Y-96567500D01*
X135045197Y-96567500D01*
X134859256Y-96604486D01*
X134859248Y-96604488D01*
X134684087Y-96677042D01*
X134526441Y-96782377D01*
X134392377Y-96916441D01*
X134287042Y-97074087D01*
X134214488Y-97249248D01*
X134214486Y-97249256D01*
X134177500Y-97435197D01*
X134177500Y-97624802D01*
X134214877Y-97812709D01*
X134212999Y-97833692D01*
X134215998Y-97854547D01*
X134209948Y-97867794D01*
X134208650Y-97882301D01*
X134195724Y-97898939D01*
X134186973Y-97918103D01*
X134174721Y-97925976D01*
X134165787Y-97937478D01*
X134145918Y-97944487D01*
X134128195Y-97955877D01*
X134103611Y-97959411D01*
X134099897Y-97960722D01*
X134093260Y-97960900D01*
X133954668Y-97960900D01*
X133887629Y-97941215D01*
X133841874Y-97888411D01*
X133831930Y-97819253D01*
X133832195Y-97817502D01*
X133862000Y-97629321D01*
X133862000Y-97430678D01*
X133830924Y-97234479D01*
X133830924Y-97234476D01*
X133769542Y-97045562D01*
X133679358Y-96868567D01*
X133652268Y-96831283D01*
X132981000Y-97502551D01*
X132981000Y-97479840D01*
X132955036Y-97382939D01*
X132904876Y-97296060D01*
X132833940Y-97225124D01*
X132747061Y-97174964D01*
X132650160Y-97149000D01*
X132627447Y-97149000D01*
X133298716Y-96477731D01*
X133298715Y-96477730D01*
X133261432Y-96450641D01*
X133084437Y-96360457D01*
X132895522Y-96299075D01*
X132699321Y-96268000D01*
X132500679Y-96268000D01*
X132304479Y-96299075D01*
X132304476Y-96299075D01*
X132115562Y-96360457D01*
X131938564Y-96450643D01*
X131901283Y-96477729D01*
X131901282Y-96477730D01*
X132572554Y-97149000D01*
X132549840Y-97149000D01*
X132452939Y-97174964D01*
X132366060Y-97225124D01*
X132295124Y-97296060D01*
X132244964Y-97382939D01*
X132219000Y-97479840D01*
X132219000Y-97502552D01*
X131547730Y-96831282D01*
X131547729Y-96831283D01*
X131520643Y-96868564D01*
X131430457Y-97045562D01*
X131369075Y-97234476D01*
X131369075Y-97234479D01*
X131338000Y-97430678D01*
X131338000Y-97629321D01*
X131367805Y-97817502D01*
X131365409Y-97836041D01*
X131368070Y-97854547D01*
X131361023Y-97869976D01*
X131358850Y-97886796D01*
X131346811Y-97901096D01*
X131339045Y-97918103D01*
X131324775Y-97927273D01*
X131313854Y-97940247D01*
X131295995Y-97945769D01*
X131280267Y-97955877D01*
X131248563Y-97960435D01*
X131247103Y-97960887D01*
X131245332Y-97960900D01*
X131106740Y-97960900D01*
X131039701Y-97941215D01*
X130993946Y-97888411D01*
X130984002Y-97819253D01*
X130985123Y-97812709D01*
X131017965Y-97647596D01*
X131022500Y-97624798D01*
X131022500Y-97435202D01*
X130985512Y-97249249D01*
X130912956Y-97074085D01*
X130877686Y-97021300D01*
X130807622Y-96916441D01*
X130673558Y-96782377D01*
X130515912Y-96677042D01*
X130425400Y-96639551D01*
X130340751Y-96604488D01*
X130340743Y-96604486D01*
X130154802Y-96567500D01*
X130154798Y-96567500D01*
X129965202Y-96567500D01*
X129965197Y-96567500D01*
X129779256Y-96604486D01*
X129779248Y-96604488D01*
X129604087Y-96677042D01*
X129446441Y-96782377D01*
X129312377Y-96916441D01*
X129207042Y-97074087D01*
X129134488Y-97249248D01*
X129134486Y-97249256D01*
X129097500Y-97435197D01*
X129097500Y-97624802D01*
X129134877Y-97812709D01*
X129128650Y-97882301D01*
X129085787Y-97937478D01*
X129019897Y-97960722D01*
X129013260Y-97960900D01*
X128566740Y-97960900D01*
X128499701Y-97941215D01*
X128453946Y-97888411D01*
X128444002Y-97819253D01*
X128445123Y-97812709D01*
X128477965Y-97647596D01*
X128482500Y-97624798D01*
X128482500Y-97435202D01*
X128445512Y-97249249D01*
X128372956Y-97074085D01*
X128337686Y-97021300D01*
X128267622Y-96916441D01*
X128133558Y-96782377D01*
X127975912Y-96677042D01*
X127897047Y-96644375D01*
X127842643Y-96600533D01*
X127820579Y-96534239D01*
X127820500Y-96529814D01*
X127820500Y-92967439D01*
X127820499Y-92967435D01*
X127818125Y-92958573D01*
X127813900Y-92926481D01*
X127813900Y-90598639D01*
X127793420Y-90522209D01*
X127793417Y-90522204D01*
X127753864Y-90453695D01*
X127753858Y-90453687D01*
X125183310Y-87883139D01*
X125172115Y-87876676D01*
X125160919Y-87870212D01*
X125114791Y-87843580D01*
X125114790Y-87843579D01*
X125089313Y-87836752D01*
X125038362Y-87823100D01*
X125038360Y-87823100D01*
X124085876Y-87823100D01*
X124018837Y-87803415D01*
X123998195Y-87786781D01*
X123934516Y-87723102D01*
X123934514Y-87723100D01*
X123877450Y-87690154D01*
X123820387Y-87657208D01*
X123756739Y-87640154D01*
X123693092Y-87623100D01*
X123561308Y-87623100D01*
X123434012Y-87657208D01*
X123319886Y-87723100D01*
X123319883Y-87723102D01*
X123226702Y-87816283D01*
X123226700Y-87816286D01*
X123160808Y-87930412D01*
X123126700Y-88057708D01*
X123126700Y-88189491D01*
X123160808Y-88316787D01*
X123193754Y-88373850D01*
X123226700Y-88430914D01*
X123226702Y-88430916D01*
X123263505Y-88467719D01*
X123267843Y-88475664D01*
X123275091Y-88481090D01*
X123284325Y-88505849D01*
X123296990Y-88529042D01*
X123296344Y-88538071D01*
X123299508Y-88546554D01*
X123293891Y-88572374D01*
X123292006Y-88598734D01*
X123286187Y-88607787D01*
X123284656Y-88614827D01*
X123263505Y-88643081D01*
X123256205Y-88650381D01*
X123194882Y-88683866D01*
X123168524Y-88686700D01*
X96334476Y-88686700D01*
X96267437Y-88667015D01*
X96221682Y-88614211D01*
X96211738Y-88545053D01*
X96240763Y-88481497D01*
X96246795Y-88475019D01*
X96261395Y-88460419D01*
X96290900Y-88430914D01*
X96356792Y-88316786D01*
X96390900Y-88189492D01*
X96390900Y-88057708D01*
X96356792Y-87930414D01*
X96290900Y-87816286D01*
X96197714Y-87723100D01*
X96140650Y-87690154D01*
X96083587Y-87657208D01*
X96019939Y-87640154D01*
X95956292Y-87623100D01*
X95930892Y-87623100D01*
X78658892Y-87623100D01*
X78527107Y-87623100D01*
X78441270Y-87646099D01*
X78441270Y-87646100D01*
X78399814Y-87657208D01*
X78399813Y-87657208D01*
X78399811Y-87657209D01*
X78285686Y-87723100D01*
X78285683Y-87723102D01*
X64197102Y-101811683D01*
X64197100Y-101811686D01*
X64131208Y-101925812D01*
X64097100Y-102053108D01*
X64097100Y-123160508D01*
X64097100Y-123292292D01*
X64100118Y-123303554D01*
X64131208Y-123419587D01*
X64164154Y-123476650D01*
X64197100Y-123533714D01*
X64197102Y-123533716D01*
X65289300Y-124625914D01*
X75927559Y-135264172D01*
X75927569Y-135264183D01*
X75931899Y-135268513D01*
X75931900Y-135268514D01*
X76025086Y-135361700D01*
X76102126Y-135406179D01*
X76102127Y-135406180D01*
X76124823Y-135419283D01*
X76139214Y-135427592D01*
X76266507Y-135461700D01*
X76266508Y-135461700D01*
X76266509Y-135461700D01*
X135986690Y-135461700D01*
X135986692Y-135461700D01*
X136113986Y-135427592D01*
X136228114Y-135361700D01*
X137264419Y-134325395D01*
X137325742Y-134291910D01*
X137395434Y-134296894D01*
X137451367Y-134338766D01*
X137475784Y-134404230D01*
X137476100Y-134413076D01*
X137476100Y-134415891D01*
X137510208Y-134543187D01*
X137537502Y-134590460D01*
X137576100Y-134657314D01*
X137669286Y-134750500D01*
X137783414Y-134816392D01*
X137910708Y-134850500D01*
X137910710Y-134850500D01*
X138042490Y-134850500D01*
X138042492Y-134850500D01*
X138169786Y-134816392D01*
X138283914Y-134750500D01*
X138347595Y-134686819D01*
X138408918Y-134653334D01*
X138435276Y-134650500D01*
X146604560Y-134650500D01*
X146604562Y-134650500D01*
X146680989Y-134630021D01*
X146749511Y-134590460D01*
X146805460Y-134534511D01*
X150741819Y-130598152D01*
X150803142Y-130564667D01*
X150872834Y-130569651D01*
X150928767Y-130611523D01*
X150953184Y-130676987D01*
X150953500Y-130685833D01*
X150953500Y-136861187D01*
X150953480Y-136861262D01*
X150953500Y-136926040D01*
X150953500Y-137000668D01*
X150953522Y-137001015D01*
X150958367Y-152765231D01*
X150938703Y-152832276D01*
X150922048Y-152852950D01*
X150568850Y-153206150D01*
X150507527Y-153239635D01*
X150481169Y-153242469D01*
X140020951Y-153242469D01*
X140020281Y-153242467D01*
X139930608Y-153241982D01*
X139748563Y-153269974D01*
X139743775Y-153271106D01*
X139743531Y-153270077D01*
X139714730Y-153274600D01*
X139476799Y-153274600D01*
X138867200Y-153884199D01*
X138867200Y-154246536D01*
X138867025Y-154253119D01*
X138866714Y-154258952D01*
X138857552Y-154320712D01*
X138858500Y-154409519D01*
X138858500Y-154413478D01*
X138858500Y-154654338D01*
X138838815Y-154721377D01*
X138822181Y-154742019D01*
X138471719Y-155092481D01*
X138410396Y-155125966D01*
X138384038Y-155128800D01*
X137929500Y-155128800D01*
X137862461Y-155109115D01*
X137816706Y-155056311D01*
X137805500Y-155004800D01*
X137805500Y-154647338D01*
X137804248Y-154637833D01*
X137798498Y-154594152D01*
X137771239Y-154492419D01*
X137750709Y-154442856D01*
X137698048Y-154351644D01*
X137689963Y-154341108D01*
X137665390Y-154309084D01*
X137590915Y-154234609D01*
X137548358Y-154201953D01*
X137457150Y-154149294D01*
X137457140Y-154149289D01*
X137407581Y-154128761D01*
X137305850Y-154101502D01*
X137252662Y-154094500D01*
X137252661Y-154094500D01*
X137147339Y-154094500D01*
X137147338Y-154094500D01*
X137094149Y-154101502D01*
X136992418Y-154128761D01*
X136942859Y-154149289D01*
X136942849Y-154149294D01*
X136851641Y-154201953D01*
X136809084Y-154234609D01*
X136734609Y-154309084D01*
X136701953Y-154351641D01*
X136649294Y-154442849D01*
X136649289Y-154442859D01*
X136628761Y-154492418D01*
X136601502Y-154594149D01*
X136594500Y-154647338D01*
X136594500Y-155004800D01*
X136574815Y-155071839D01*
X136522011Y-155117594D01*
X136470500Y-155128800D01*
X135389500Y-155128800D01*
X135322461Y-155109115D01*
X135276706Y-155056311D01*
X135265500Y-155004800D01*
X135265500Y-154647338D01*
X135264248Y-154637833D01*
X135258498Y-154594152D01*
X135231239Y-154492419D01*
X135210709Y-154442856D01*
X135158048Y-154351644D01*
X135149963Y-154341108D01*
X135125390Y-154309084D01*
X135050915Y-154234609D01*
X135008358Y-154201953D01*
X134917150Y-154149294D01*
X134917140Y-154149289D01*
X134867581Y-154128761D01*
X134765850Y-154101502D01*
X134712662Y-154094500D01*
X134712661Y-154094500D01*
X134607339Y-154094500D01*
X134607338Y-154094500D01*
X134554149Y-154101502D01*
X134452418Y-154128761D01*
X134402859Y-154149289D01*
X134402849Y-154149294D01*
X134311641Y-154201953D01*
X134269084Y-154234609D01*
X134194609Y-154309084D01*
X134161953Y-154351641D01*
X134109294Y-154442849D01*
X134109289Y-154442859D01*
X134088761Y-154492418D01*
X134061502Y-154594149D01*
X134054500Y-154647338D01*
X134054500Y-155004800D01*
X134034815Y-155071839D01*
X133982011Y-155117594D01*
X133930500Y-155128800D01*
X132849500Y-155128800D01*
X132782461Y-155109115D01*
X132736706Y-155056311D01*
X132725500Y-155004800D01*
X132725500Y-154647338D01*
X132724248Y-154637833D01*
X132718498Y-154594152D01*
X132691239Y-154492419D01*
X132670709Y-154442856D01*
X132618048Y-154351644D01*
X132609963Y-154341108D01*
X132585390Y-154309084D01*
X132510915Y-154234609D01*
X132468358Y-154201953D01*
X132377150Y-154149294D01*
X132377140Y-154149289D01*
X132327581Y-154128761D01*
X132225850Y-154101502D01*
X132172662Y-154094500D01*
X132172661Y-154094500D01*
X132067339Y-154094500D01*
X132067338Y-154094500D01*
X132014149Y-154101502D01*
X131912418Y-154128761D01*
X131862859Y-154149289D01*
X131862849Y-154149294D01*
X131771641Y-154201953D01*
X131729084Y-154234609D01*
X131654609Y-154309084D01*
X131621953Y-154351641D01*
X131569294Y-154442849D01*
X131569289Y-154442859D01*
X131548761Y-154492418D01*
X131521502Y-154594149D01*
X131514500Y-154647338D01*
X131514500Y-155004800D01*
X131494815Y-155071839D01*
X131442011Y-155117594D01*
X131390500Y-155128800D01*
X130309500Y-155128800D01*
X130242461Y-155109115D01*
X130196706Y-155056311D01*
X130185500Y-155004800D01*
X130185500Y-154647338D01*
X130184248Y-154637833D01*
X130178498Y-154594152D01*
X130151239Y-154492419D01*
X130130709Y-154442856D01*
X130078048Y-154351644D01*
X130069963Y-154341108D01*
X130045390Y-154309084D01*
X129970915Y-154234609D01*
X129929012Y-154202455D01*
X129887810Y-154146026D01*
X129880500Y-154104080D01*
X129880500Y-151692076D01*
X129900185Y-151625037D01*
X129916819Y-151604395D01*
X129950219Y-151570995D01*
X129996700Y-151524514D01*
X130062592Y-151410386D01*
X130096700Y-151283092D01*
X130096700Y-151151308D01*
X130062592Y-151024014D01*
X129996700Y-150909886D01*
X129903514Y-150816700D01*
X129846450Y-150783754D01*
X129789387Y-150750808D01*
X129694591Y-150725408D01*
X129662092Y-150716700D01*
X129530308Y-150716700D01*
X129403012Y-150750808D01*
X129288886Y-150816700D01*
X129288883Y-150816702D01*
X129195702Y-150909883D01*
X129195700Y-150909886D01*
X129129808Y-151024012D01*
X129095700Y-151151308D01*
X129095700Y-151283091D01*
X129129808Y-151410387D01*
X129161635Y-151465512D01*
X129195700Y-151524514D01*
X129195702Y-151524516D01*
X129243181Y-151571995D01*
X129276666Y-151633318D01*
X129279500Y-151659676D01*
X129279500Y-154104080D01*
X129259815Y-154171119D01*
X129230988Y-154202455D01*
X129189084Y-154234609D01*
X129114609Y-154309084D01*
X129081953Y-154351641D01*
X129029294Y-154442849D01*
X129029289Y-154442859D01*
X129008761Y-154492418D01*
X128981502Y-154594149D01*
X128974500Y-154647338D01*
X128974500Y-155004800D01*
X128954815Y-155071839D01*
X128902011Y-155117594D01*
X128850500Y-155128800D01*
X127769500Y-155128800D01*
X127702461Y-155109115D01*
X127656706Y-155056311D01*
X127645500Y-155004800D01*
X127645500Y-154647338D01*
X127644248Y-154637833D01*
X127638498Y-154594152D01*
X127611239Y-154492419D01*
X127590709Y-154442856D01*
X127538048Y-154351644D01*
X127529963Y-154341108D01*
X127505390Y-154309084D01*
X127430915Y-154234609D01*
X127388358Y-154201953D01*
X127297150Y-154149294D01*
X127297140Y-154149289D01*
X127247581Y-154128761D01*
X127145850Y-154101502D01*
X127092662Y-154094500D01*
X127092661Y-154094500D01*
X126987339Y-154094500D01*
X126987338Y-154094500D01*
X126934149Y-154101502D01*
X126832418Y-154128761D01*
X126782859Y-154149289D01*
X126782849Y-154149294D01*
X126691641Y-154201953D01*
X126649084Y-154234609D01*
X126574609Y-154309084D01*
X126541953Y-154351641D01*
X126489294Y-154442849D01*
X126489289Y-154442859D01*
X126468761Y-154492418D01*
X126441502Y-154594149D01*
X126434500Y-154647338D01*
X126434500Y-155004800D01*
X126414815Y-155071839D01*
X126362011Y-155117594D01*
X126310500Y-155128800D01*
X125229500Y-155128800D01*
X125162461Y-155109115D01*
X125116706Y-155056311D01*
X125105500Y-155004800D01*
X125105500Y-154647338D01*
X125104248Y-154637833D01*
X125098498Y-154594152D01*
X125071239Y-154492419D01*
X125050709Y-154442856D01*
X124998048Y-154351644D01*
X124989963Y-154341108D01*
X124965390Y-154309084D01*
X124890915Y-154234609D01*
X124849012Y-154202455D01*
X124807810Y-154146026D01*
X124800500Y-154104080D01*
X124800500Y-151658676D01*
X124820185Y-151591637D01*
X124836819Y-151570995D01*
X124854219Y-151553595D01*
X124900500Y-151507314D01*
X124966392Y-151393186D01*
X125000500Y-151265892D01*
X125000500Y-151134108D01*
X124966392Y-151006814D01*
X124900500Y-150892686D01*
X124807314Y-150799500D01*
X124746284Y-150764264D01*
X124693187Y-150733608D01*
X124599723Y-150708565D01*
X124565892Y-150699500D01*
X124434108Y-150699500D01*
X124306812Y-150733608D01*
X124192686Y-150799500D01*
X124192683Y-150799502D01*
X124099502Y-150892683D01*
X124099500Y-150892686D01*
X124033608Y-151006812D01*
X124028999Y-151024014D01*
X123999500Y-151134108D01*
X123999500Y-151265892D01*
X124004109Y-151283092D01*
X124033608Y-151393187D01*
X124043538Y-151410386D01*
X124099500Y-151507314D01*
X124099502Y-151507316D01*
X124163181Y-151570995D01*
X124196666Y-151632318D01*
X124199500Y-151658676D01*
X124199500Y-154104080D01*
X124179815Y-154171119D01*
X124150988Y-154202455D01*
X124109084Y-154234609D01*
X124034609Y-154309084D01*
X124001953Y-154351641D01*
X123949294Y-154442849D01*
X123949289Y-154442859D01*
X123928761Y-154492418D01*
X123901502Y-154594149D01*
X123894500Y-154647338D01*
X123894500Y-155004800D01*
X123874815Y-155071839D01*
X123822011Y-155117594D01*
X123770500Y-155128800D01*
X122689500Y-155128800D01*
X122622461Y-155109115D01*
X122576706Y-155056311D01*
X122565500Y-155004800D01*
X122565500Y-154647338D01*
X122564248Y-154637833D01*
X122558498Y-154594152D01*
X122531239Y-154492419D01*
X122510709Y-154442856D01*
X122458048Y-154351644D01*
X122449963Y-154341108D01*
X122425390Y-154309084D01*
X122350915Y-154234609D01*
X122309012Y-154202455D01*
X122267810Y-154146026D01*
X122260500Y-154104080D01*
X122260500Y-151641276D01*
X122280185Y-151574237D01*
X122296819Y-151553595D01*
X122313314Y-151537100D01*
X122351300Y-151499114D01*
X122417192Y-151384986D01*
X122451300Y-151257692D01*
X122451300Y-151125908D01*
X122417192Y-150998614D01*
X122351300Y-150884486D01*
X122258114Y-150791300D01*
X122187980Y-150750808D01*
X122143987Y-150725408D01*
X122047295Y-150699500D01*
X122016692Y-150691300D01*
X121884908Y-150691300D01*
X121757612Y-150725408D01*
X121643486Y-150791300D01*
X121643483Y-150791302D01*
X121550302Y-150884483D01*
X121550300Y-150884486D01*
X121484408Y-150998612D01*
X121450300Y-151125908D01*
X121450300Y-151257691D01*
X121484408Y-151384987D01*
X121499073Y-151410387D01*
X121550300Y-151499114D01*
X121550302Y-151499116D01*
X121623181Y-151571995D01*
X121656666Y-151633318D01*
X121659500Y-151659676D01*
X121659500Y-154104080D01*
X121639815Y-154171119D01*
X121610988Y-154202455D01*
X121569084Y-154234609D01*
X121494609Y-154309084D01*
X121461953Y-154351641D01*
X121409294Y-154442849D01*
X121409289Y-154442859D01*
X121388761Y-154492418D01*
X121361502Y-154594149D01*
X121354500Y-154647338D01*
X121354500Y-155004800D01*
X121334815Y-155071839D01*
X121282011Y-155117594D01*
X121230500Y-155128800D01*
X120149500Y-155128800D01*
X120082461Y-155109115D01*
X120036706Y-155056311D01*
X120025500Y-155004800D01*
X120025500Y-154647338D01*
X120024248Y-154637833D01*
X120018498Y-154594152D01*
X119991239Y-154492419D01*
X119970709Y-154442856D01*
X119918048Y-154351644D01*
X119909963Y-154341108D01*
X119885390Y-154309084D01*
X119810915Y-154234609D01*
X119769012Y-154202455D01*
X119727810Y-154146026D01*
X119720500Y-154104080D01*
X119720500Y-151641276D01*
X119740185Y-151574237D01*
X119756819Y-151553595D01*
X119773314Y-151537100D01*
X119811300Y-151499114D01*
X119877192Y-151384986D01*
X119911300Y-151257692D01*
X119911300Y-151125908D01*
X119877192Y-150998614D01*
X119811300Y-150884486D01*
X119718114Y-150791300D01*
X119647980Y-150750808D01*
X119603987Y-150725408D01*
X119507295Y-150699500D01*
X119476692Y-150691300D01*
X119344908Y-150691300D01*
X119217612Y-150725408D01*
X119103486Y-150791300D01*
X119103483Y-150791302D01*
X119010302Y-150884483D01*
X119010300Y-150884486D01*
X118944408Y-150998612D01*
X118910300Y-151125908D01*
X118910300Y-151257691D01*
X118944408Y-151384987D01*
X118959073Y-151410387D01*
X119010300Y-151499114D01*
X119010302Y-151499116D01*
X119083181Y-151571995D01*
X119116666Y-151633318D01*
X119119500Y-151659676D01*
X119119500Y-154104080D01*
X119099815Y-154171119D01*
X119070988Y-154202455D01*
X119029084Y-154234609D01*
X118954609Y-154309084D01*
X118921953Y-154351641D01*
X118869294Y-154442849D01*
X118869289Y-154442859D01*
X118848761Y-154492418D01*
X118821502Y-154594149D01*
X118814500Y-154647338D01*
X118814500Y-155004800D01*
X118794815Y-155071839D01*
X118742011Y-155117594D01*
X118690500Y-155128800D01*
X117609500Y-155128800D01*
X117542461Y-155109115D01*
X117496706Y-155056311D01*
X117485500Y-155004800D01*
X117485500Y-154647338D01*
X117484248Y-154637833D01*
X117478498Y-154594152D01*
X117451239Y-154492419D01*
X117430709Y-154442856D01*
X117378048Y-154351644D01*
X117369963Y-154341108D01*
X117345390Y-154309084D01*
X117270915Y-154234609D01*
X117228358Y-154201953D01*
X117137150Y-154149294D01*
X117137140Y-154149289D01*
X117087581Y-154128761D01*
X116985850Y-154101502D01*
X116932662Y-154094500D01*
X116932661Y-154094500D01*
X116827339Y-154094500D01*
X116827338Y-154094500D01*
X116774149Y-154101502D01*
X116672418Y-154128761D01*
X116622859Y-154149289D01*
X116622849Y-154149294D01*
X116531641Y-154201953D01*
X116489084Y-154234609D01*
X116414609Y-154309084D01*
X116381953Y-154351641D01*
X116329294Y-154442849D01*
X116329289Y-154442859D01*
X116308761Y-154492418D01*
X116281502Y-154594149D01*
X116274500Y-154647338D01*
X116274500Y-155004800D01*
X116254815Y-155071839D01*
X116202011Y-155117594D01*
X116150500Y-155128800D01*
X115069500Y-155128800D01*
X115002461Y-155109115D01*
X114956706Y-155056311D01*
X114945500Y-155004800D01*
X114945500Y-154647338D01*
X114944248Y-154637833D01*
X114938498Y-154594152D01*
X114911239Y-154492419D01*
X114890709Y-154442856D01*
X114838048Y-154351644D01*
X114829963Y-154341108D01*
X114805390Y-154309084D01*
X114730915Y-154234609D01*
X114688358Y-154201953D01*
X114597150Y-154149294D01*
X114597140Y-154149289D01*
X114547581Y-154128761D01*
X114445850Y-154101502D01*
X114392662Y-154094500D01*
X114392661Y-154094500D01*
X114287339Y-154094500D01*
X114287338Y-154094500D01*
X114234149Y-154101502D01*
X114132418Y-154128761D01*
X114082859Y-154149289D01*
X114082849Y-154149294D01*
X113991641Y-154201953D01*
X113949084Y-154234609D01*
X113874609Y-154309084D01*
X113841953Y-154351641D01*
X113789294Y-154442849D01*
X113789289Y-154442859D01*
X113768761Y-154492418D01*
X113741502Y-154594149D01*
X113734500Y-154647338D01*
X113734500Y-155004800D01*
X113714815Y-155071839D01*
X113662011Y-155117594D01*
X113610500Y-155128800D01*
X112529500Y-155128800D01*
X112462461Y-155109115D01*
X112416706Y-155056311D01*
X112405500Y-155004800D01*
X112405500Y-154647338D01*
X112404248Y-154637833D01*
X112398498Y-154594152D01*
X112371239Y-154492419D01*
X112350709Y-154442856D01*
X112298048Y-154351644D01*
X112289963Y-154341108D01*
X112265390Y-154309084D01*
X112190915Y-154234609D01*
X112149012Y-154202455D01*
X112107810Y-154146026D01*
X112100500Y-154104080D01*
X112100500Y-149672928D01*
X131934900Y-149672928D01*
X131934900Y-149981871D01*
X131969486Y-150288837D01*
X131969489Y-150288855D01*
X132038231Y-150590035D01*
X132038235Y-150590047D01*
X132140262Y-150881622D01*
X132140268Y-150881636D01*
X132274303Y-151159962D01*
X132274305Y-151159965D01*
X132438665Y-151421543D01*
X132577977Y-151596234D01*
X132600213Y-151624118D01*
X132631280Y-151663074D01*
X132849726Y-151881520D01*
X133091257Y-152074135D01*
X133352835Y-152238495D01*
X133631171Y-152372535D01*
X133728368Y-152406546D01*
X133922752Y-152474564D01*
X133922764Y-152474568D01*
X134223948Y-152543311D01*
X134223954Y-152543311D01*
X134223962Y-152543313D01*
X134428606Y-152566370D01*
X134530929Y-152577899D01*
X134530932Y-152577900D01*
X134530935Y-152577900D01*
X134839868Y-152577900D01*
X134839869Y-152577899D01*
X134996756Y-152560222D01*
X135146837Y-152543313D01*
X135146842Y-152543312D01*
X135146852Y-152543311D01*
X135448036Y-152474568D01*
X135739629Y-152372535D01*
X136017965Y-152238495D01*
X136279543Y-152074135D01*
X136521074Y-151881520D01*
X136739520Y-151663074D01*
X136932135Y-151421543D01*
X137096495Y-151159965D01*
X137230535Y-150881629D01*
X137332568Y-150590036D01*
X137401311Y-150288852D01*
X137435900Y-149981865D01*
X137435900Y-149672935D01*
X137401311Y-149365948D01*
X137332568Y-149064764D01*
X137291112Y-148946291D01*
X137230537Y-148773177D01*
X137230535Y-148773171D01*
X137096495Y-148494835D01*
X136932135Y-148233257D01*
X136739520Y-147991726D01*
X136521074Y-147773280D01*
X136506569Y-147761713D01*
X136363459Y-147647586D01*
X136279543Y-147580665D01*
X136017965Y-147416305D01*
X136017962Y-147416303D01*
X135739636Y-147282268D01*
X135739622Y-147282262D01*
X135448047Y-147180235D01*
X135448035Y-147180231D01*
X135146855Y-147111489D01*
X135146837Y-147111486D01*
X134839871Y-147076900D01*
X134839865Y-147076900D01*
X134530935Y-147076900D01*
X134530928Y-147076900D01*
X134223962Y-147111486D01*
X134223944Y-147111489D01*
X133922764Y-147180231D01*
X133922752Y-147180235D01*
X133631177Y-147282262D01*
X133631163Y-147282268D01*
X133352837Y-147416303D01*
X133091258Y-147580664D01*
X132849726Y-147773279D01*
X132631279Y-147991726D01*
X132438664Y-148233258D01*
X132274303Y-148494837D01*
X132140268Y-148773163D01*
X132140262Y-148773177D01*
X132038235Y-149064752D01*
X132038231Y-149064764D01*
X131969489Y-149365944D01*
X131969486Y-149365962D01*
X131934900Y-149672928D01*
X112100500Y-149672928D01*
X112100500Y-149662839D01*
X112080020Y-149586409D01*
X112080017Y-149586404D01*
X112040464Y-149517895D01*
X112040458Y-149517887D01*
X109736512Y-147213941D01*
X109736507Y-147213937D01*
X109727065Y-147208486D01*
X109727064Y-147208486D01*
X109667991Y-147174380D01*
X109667990Y-147174379D01*
X109642513Y-147167552D01*
X109591562Y-147153900D01*
X109591560Y-147153900D01*
X99908676Y-147153900D01*
X99841637Y-147134215D01*
X99820995Y-147117581D01*
X99757316Y-147053902D01*
X99757314Y-147053900D01*
X99700250Y-147020954D01*
X99643187Y-146988008D01*
X99579539Y-146970954D01*
X99515892Y-146953900D01*
X99384108Y-146953900D01*
X99256812Y-146988008D01*
X99142686Y-147053900D01*
X99142683Y-147053902D01*
X99049502Y-147147083D01*
X99049500Y-147147086D01*
X98983608Y-147261212D01*
X98949500Y-147388508D01*
X98949500Y-147520291D01*
X98983608Y-147647587D01*
X99016554Y-147704650D01*
X99049500Y-147761714D01*
X99142686Y-147854900D01*
X99256814Y-147920792D01*
X99384108Y-147954900D01*
X99384110Y-147954900D01*
X99489456Y-147954900D01*
X99556495Y-147974585D01*
X99602250Y-148027389D01*
X99612194Y-148096547D01*
X99609233Y-148110981D01*
X99599500Y-148147308D01*
X99599500Y-148147310D01*
X99599500Y-148279091D01*
X99633608Y-148406387D01*
X99666554Y-148463450D01*
X99699500Y-148520514D01*
X99792686Y-148613700D01*
X99906814Y-148679592D01*
X100034108Y-148713700D01*
X100034110Y-148713700D01*
X100165890Y-148713700D01*
X100165892Y-148713700D01*
X100293186Y-148679592D01*
X100407314Y-148613700D01*
X100470995Y-148550019D01*
X100532318Y-148516534D01*
X100558676Y-148513700D01*
X107925167Y-148513700D01*
X107992206Y-148533385D01*
X108012848Y-148550019D01*
X110542781Y-151079952D01*
X110576266Y-151141275D01*
X110579100Y-151167633D01*
X110579100Y-151257691D01*
X110613208Y-151384987D01*
X110627873Y-151410387D01*
X110679100Y-151499114D01*
X110772286Y-151592300D01*
X110845701Y-151634686D01*
X110873049Y-151650476D01*
X110886414Y-151658192D01*
X111013708Y-151692300D01*
X111013710Y-151692300D01*
X111145490Y-151692300D01*
X111145492Y-151692300D01*
X111272786Y-151658192D01*
X111313499Y-151634685D01*
X111381399Y-151618213D01*
X111447426Y-151641065D01*
X111490617Y-151695986D01*
X111499500Y-151742073D01*
X111499500Y-154104080D01*
X111479815Y-154171119D01*
X111450988Y-154202455D01*
X111409084Y-154234609D01*
X111334609Y-154309084D01*
X111301953Y-154351641D01*
X111249294Y-154442849D01*
X111249289Y-154442859D01*
X111228761Y-154492418D01*
X111201502Y-154594149D01*
X111194500Y-154647338D01*
X111194500Y-155004800D01*
X111174815Y-155071839D01*
X111122011Y-155117594D01*
X111070500Y-155128800D01*
X109989500Y-155128800D01*
X109922461Y-155109115D01*
X109876706Y-155056311D01*
X109865500Y-155004800D01*
X109865500Y-154647338D01*
X109864248Y-154637833D01*
X109858498Y-154594152D01*
X109831239Y-154492419D01*
X109810709Y-154442856D01*
X109758048Y-154351644D01*
X109749963Y-154341108D01*
X109725390Y-154309084D01*
X109650915Y-154234609D01*
X109608358Y-154201953D01*
X109517150Y-154149294D01*
X109517140Y-154149289D01*
X109467581Y-154128761D01*
X109365850Y-154101502D01*
X109312662Y-154094500D01*
X109312661Y-154094500D01*
X109207339Y-154094500D01*
X109207338Y-154094500D01*
X109154149Y-154101502D01*
X109052418Y-154128761D01*
X109002859Y-154149289D01*
X109002849Y-154149294D01*
X108911641Y-154201953D01*
X108869084Y-154234609D01*
X108794609Y-154309084D01*
X108761953Y-154351641D01*
X108709294Y-154442849D01*
X108709289Y-154442859D01*
X108688761Y-154492418D01*
X108661502Y-154594149D01*
X108654500Y-154647338D01*
X108654500Y-155004800D01*
X108634815Y-155071839D01*
X108582011Y-155117594D01*
X108530500Y-155128800D01*
X107449500Y-155128800D01*
X107382461Y-155109115D01*
X107336706Y-155056311D01*
X107325500Y-155004800D01*
X107325500Y-154647338D01*
X107324248Y-154637833D01*
X107318498Y-154594152D01*
X107291239Y-154492419D01*
X107270709Y-154442856D01*
X107218048Y-154351644D01*
X107209963Y-154341108D01*
X107185390Y-154309084D01*
X107110915Y-154234609D01*
X107068358Y-154201953D01*
X106977150Y-154149294D01*
X106977140Y-154149289D01*
X106927581Y-154128761D01*
X106825850Y-154101502D01*
X106772662Y-154094500D01*
X106772661Y-154094500D01*
X106667339Y-154094500D01*
X106667338Y-154094500D01*
X106614149Y-154101502D01*
X106512418Y-154128761D01*
X106462859Y-154149289D01*
X106462849Y-154149294D01*
X106371641Y-154201953D01*
X106329084Y-154234609D01*
X106254609Y-154309084D01*
X106221953Y-154351641D01*
X106169294Y-154442849D01*
X106169289Y-154442859D01*
X106148761Y-154492418D01*
X106121502Y-154594149D01*
X106114500Y-154647338D01*
X106114500Y-155004800D01*
X106094815Y-155071839D01*
X106042011Y-155117594D01*
X105990500Y-155128800D01*
X104909500Y-155128800D01*
X104842461Y-155109115D01*
X104796706Y-155056311D01*
X104785500Y-155004800D01*
X104785500Y-154647338D01*
X104784248Y-154637833D01*
X104778498Y-154594152D01*
X104751239Y-154492419D01*
X104730709Y-154442856D01*
X104678048Y-154351644D01*
X104669963Y-154341108D01*
X104645390Y-154309084D01*
X104570915Y-154234609D01*
X104529012Y-154202455D01*
X104487810Y-154146026D01*
X104480500Y-154104080D01*
X104480500Y-152812440D01*
X104480499Y-152812436D01*
X104471229Y-152777838D01*
X104460022Y-152736012D01*
X104420460Y-152667489D01*
X103694819Y-151941848D01*
X103680115Y-151914920D01*
X103663523Y-151889102D01*
X103662631Y-151882901D01*
X103661334Y-151880525D01*
X103658500Y-151854167D01*
X103658500Y-151675876D01*
X103678185Y-151608837D01*
X103694819Y-151588195D01*
X103725699Y-151557315D01*
X103758500Y-151524514D01*
X103824392Y-151410386D01*
X103858500Y-151283092D01*
X103858500Y-151151308D01*
X103824392Y-151024014D01*
X103758500Y-150909886D01*
X103665314Y-150816700D01*
X103608250Y-150783754D01*
X103551187Y-150750808D01*
X103456391Y-150725408D01*
X103423892Y-150716700D01*
X103292108Y-150716700D01*
X103164812Y-150750808D01*
X103050686Y-150816700D01*
X103050683Y-150816702D01*
X102957502Y-150909883D01*
X102957500Y-150909886D01*
X102891608Y-151024012D01*
X102857500Y-151151308D01*
X102857500Y-151283091D01*
X102891608Y-151410387D01*
X102923435Y-151465512D01*
X102957500Y-151524514D01*
X102957502Y-151524516D01*
X103021181Y-151588195D01*
X103054666Y-151649518D01*
X103057500Y-151675876D01*
X103057500Y-152069562D01*
X103063993Y-152093792D01*
X103077979Y-152145990D01*
X103091794Y-152169918D01*
X103111182Y-152203498D01*
X103111182Y-152203500D01*
X103117538Y-152214508D01*
X103117542Y-152214513D01*
X103843181Y-152940152D01*
X103876666Y-153001475D01*
X103879500Y-153027833D01*
X103879500Y-154104080D01*
X103859815Y-154171119D01*
X103830988Y-154202455D01*
X103789084Y-154234609D01*
X103714609Y-154309084D01*
X103681953Y-154351641D01*
X103629294Y-154442849D01*
X103629289Y-154442859D01*
X103608761Y-154492418D01*
X103581502Y-154594149D01*
X103574500Y-154647338D01*
X103574500Y-155004800D01*
X103554815Y-155071839D01*
X103502011Y-155117594D01*
X103450500Y-155128800D01*
X102369500Y-155128800D01*
X102302461Y-155109115D01*
X102256706Y-155056311D01*
X102245500Y-155004800D01*
X102245500Y-154647338D01*
X102244248Y-154637833D01*
X102238498Y-154594152D01*
X102211239Y-154492419D01*
X102190709Y-154442856D01*
X102138048Y-154351644D01*
X102129963Y-154341108D01*
X102105390Y-154309084D01*
X102030915Y-154234609D01*
X101989012Y-154202455D01*
X101947810Y-154146026D01*
X101940500Y-154104080D01*
X101940500Y-152993233D01*
X101960185Y-152926194D01*
X101976819Y-152905552D01*
X102117140Y-152765231D01*
X102303060Y-152579311D01*
X102342622Y-152510788D01*
X102363100Y-152434362D01*
X102363100Y-152355238D01*
X102363100Y-151675876D01*
X102382785Y-151608837D01*
X102399419Y-151588195D01*
X102430299Y-151557315D01*
X102463100Y-151524514D01*
X102528992Y-151410386D01*
X102563100Y-151283092D01*
X102563100Y-151151308D01*
X102528992Y-151024014D01*
X102463100Y-150909886D01*
X102369914Y-150816700D01*
X102312850Y-150783754D01*
X102255787Y-150750808D01*
X102160991Y-150725408D01*
X102128492Y-150716700D01*
X101996708Y-150716700D01*
X101869412Y-150750808D01*
X101755286Y-150816700D01*
X101755283Y-150816702D01*
X101662102Y-150909883D01*
X101662100Y-150909886D01*
X101596208Y-151024012D01*
X101562100Y-151151308D01*
X101562100Y-151283091D01*
X101596208Y-151410387D01*
X101628035Y-151465512D01*
X101662100Y-151524514D01*
X101662102Y-151524516D01*
X101725781Y-151588195D01*
X101759266Y-151649518D01*
X101762100Y-151675876D01*
X101762100Y-152218967D01*
X101742415Y-152286006D01*
X101725781Y-152306648D01*
X101399541Y-152632887D01*
X101399535Y-152632895D01*
X101359982Y-152701404D01*
X101359979Y-152701409D01*
X101339500Y-152777839D01*
X101339500Y-154104080D01*
X101319815Y-154171119D01*
X101290988Y-154202455D01*
X101249084Y-154234609D01*
X101174609Y-154309084D01*
X101141953Y-154351641D01*
X101089294Y-154442849D01*
X101089289Y-154442859D01*
X101068761Y-154492418D01*
X101041502Y-154594149D01*
X101034500Y-154647338D01*
X101034500Y-155004800D01*
X101014815Y-155071839D01*
X100962011Y-155117594D01*
X100910500Y-155128800D01*
X99829500Y-155128800D01*
X99762461Y-155109115D01*
X99716706Y-155056311D01*
X99705500Y-155004800D01*
X99705500Y-154647338D01*
X99704248Y-154637833D01*
X99698498Y-154594152D01*
X99671239Y-154492419D01*
X99650709Y-154442856D01*
X99598048Y-154351644D01*
X99589963Y-154341108D01*
X99565390Y-154309084D01*
X99490915Y-154234609D01*
X99449012Y-154202455D01*
X99407810Y-154146026D01*
X99400500Y-154104080D01*
X99400500Y-153441233D01*
X99420185Y-153374194D01*
X99436819Y-153353552D01*
X100157484Y-152632887D01*
X100982260Y-151808111D01*
X101015822Y-151749979D01*
X101021821Y-151739589D01*
X101042300Y-151663162D01*
X101042300Y-151655388D01*
X101047268Y-151639521D01*
X101060959Y-151619029D01*
X101070928Y-151596493D01*
X101077900Y-151588913D01*
X101142300Y-151524514D01*
X101208192Y-151410386D01*
X101242300Y-151283092D01*
X101242300Y-151151308D01*
X101208192Y-151024014D01*
X101142300Y-150909886D01*
X101049114Y-150816700D01*
X100992050Y-150783754D01*
X100934987Y-150750808D01*
X100840191Y-150725408D01*
X100807692Y-150716700D01*
X100675908Y-150716700D01*
X100548612Y-150750808D01*
X100434486Y-150816700D01*
X100434483Y-150816702D01*
X100341302Y-150909883D01*
X100341300Y-150909886D01*
X100275408Y-151024012D01*
X100241300Y-151151308D01*
X100241300Y-151283091D01*
X100275408Y-151410387D01*
X100321036Y-151489415D01*
X100337509Y-151557315D01*
X100314657Y-151623343D01*
X100301330Y-151639097D01*
X98915489Y-153024940D01*
X98859541Y-153080887D01*
X98859535Y-153080895D01*
X98819982Y-153149404D01*
X98819979Y-153149409D01*
X98806617Y-153199279D01*
X98804776Y-153206150D01*
X98799500Y-153225839D01*
X98799500Y-154104080D01*
X98779815Y-154171119D01*
X98750988Y-154202455D01*
X98709084Y-154234609D01*
X98634609Y-154309084D01*
X98601953Y-154351641D01*
X98549294Y-154442849D01*
X98549289Y-154442859D01*
X98528761Y-154492418D01*
X98501502Y-154594149D01*
X98494500Y-154647338D01*
X98494500Y-155004800D01*
X98474815Y-155071839D01*
X98422011Y-155117594D01*
X98370500Y-155128800D01*
X97289500Y-155128800D01*
X97222461Y-155109115D01*
X97176706Y-155056311D01*
X97165500Y-155004800D01*
X97165500Y-154647338D01*
X97164248Y-154637833D01*
X97158498Y-154594152D01*
X97131239Y-154492419D01*
X97110709Y-154442856D01*
X97058048Y-154351644D01*
X97049963Y-154341108D01*
X97025390Y-154309084D01*
X96950915Y-154234609D01*
X96909012Y-154202455D01*
X96867810Y-154146026D01*
X96860500Y-154104080D01*
X96860500Y-153142639D01*
X96848914Y-153099400D01*
X96840021Y-153066211D01*
X96825488Y-153041039D01*
X96800464Y-152997695D01*
X96800458Y-152997687D01*
X95643019Y-151840248D01*
X95628315Y-151813320D01*
X95611723Y-151787502D01*
X95610831Y-151781301D01*
X95609534Y-151778925D01*
X95606700Y-151752567D01*
X95606700Y-151650476D01*
X95626385Y-151583437D01*
X95643019Y-151562795D01*
X95668714Y-151537100D01*
X95706700Y-151499114D01*
X95772592Y-151384986D01*
X95806700Y-151257692D01*
X95806700Y-151125908D01*
X95772592Y-150998614D01*
X95706700Y-150884486D01*
X95613514Y-150791300D01*
X95543380Y-150750808D01*
X95499387Y-150725408D01*
X95402695Y-150699500D01*
X95372092Y-150691300D01*
X95240308Y-150691300D01*
X95113012Y-150725408D01*
X94998886Y-150791300D01*
X94998883Y-150791302D01*
X94905702Y-150884483D01*
X94905700Y-150884486D01*
X94839808Y-150998612D01*
X94805700Y-151125908D01*
X94805700Y-151257691D01*
X94839808Y-151384987D01*
X94854473Y-151410387D01*
X94905700Y-151499114D01*
X94905702Y-151499116D01*
X94969381Y-151562795D01*
X95002866Y-151624118D01*
X95005700Y-151650476D01*
X95005700Y-151967962D01*
X95005761Y-151968189D01*
X95026179Y-152044390D01*
X95026180Y-152044391D01*
X95054048Y-152092660D01*
X95065740Y-152112911D01*
X95065742Y-152112913D01*
X96223181Y-153270352D01*
X96256666Y-153331675D01*
X96259500Y-153358033D01*
X96259500Y-154104080D01*
X96239815Y-154171119D01*
X96210988Y-154202455D01*
X96169084Y-154234609D01*
X96094609Y-154309084D01*
X96061953Y-154351641D01*
X96009294Y-154442849D01*
X96009289Y-154442859D01*
X95988761Y-154492418D01*
X95961502Y-154594149D01*
X95954500Y-154647338D01*
X95954500Y-155004800D01*
X95934815Y-155071839D01*
X95882011Y-155117594D01*
X95830500Y-155128800D01*
X94749500Y-155128800D01*
X94682461Y-155109115D01*
X94636706Y-155056311D01*
X94625500Y-155004800D01*
X94625500Y-154647338D01*
X94624248Y-154637833D01*
X94618498Y-154594152D01*
X94591239Y-154492419D01*
X94570709Y-154442856D01*
X94518048Y-154351644D01*
X94509963Y-154341108D01*
X94485390Y-154309084D01*
X94410915Y-154234609D01*
X94369012Y-154202455D01*
X94327810Y-154146026D01*
X94320500Y-154104080D01*
X94320500Y-153117239D01*
X94315720Y-153099400D01*
X94300021Y-153040811D01*
X94285488Y-153015639D01*
X94260464Y-152972295D01*
X94260458Y-152972287D01*
X93103019Y-151814848D01*
X93088315Y-151787920D01*
X93071723Y-151762102D01*
X93070831Y-151755901D01*
X93069534Y-151753525D01*
X93066700Y-151727167D01*
X93066700Y-151650476D01*
X93086385Y-151583437D01*
X93103019Y-151562795D01*
X93128714Y-151537100D01*
X93166700Y-151499114D01*
X93232592Y-151384986D01*
X93266700Y-151257692D01*
X93266700Y-151125908D01*
X93232592Y-150998614D01*
X93166700Y-150884486D01*
X93073514Y-150791300D01*
X93003380Y-150750808D01*
X92959387Y-150725408D01*
X92862695Y-150699500D01*
X92832092Y-150691300D01*
X92700308Y-150691300D01*
X92573012Y-150725408D01*
X92458886Y-150791300D01*
X92458883Y-150791302D01*
X92365702Y-150884483D01*
X92365700Y-150884486D01*
X92299808Y-150998612D01*
X92265700Y-151125908D01*
X92265700Y-151257691D01*
X92299808Y-151384987D01*
X92314473Y-151410387D01*
X92365700Y-151499114D01*
X92365702Y-151499116D01*
X92429381Y-151562795D01*
X92462866Y-151624118D01*
X92465700Y-151650476D01*
X92465700Y-151942562D01*
X92472506Y-151967960D01*
X92486179Y-152018990D01*
X92486182Y-152018995D01*
X92525735Y-152087504D01*
X92525741Y-152087512D01*
X93683181Y-153244952D01*
X93716666Y-153306275D01*
X93719500Y-153332633D01*
X93719500Y-154104080D01*
X93699815Y-154171119D01*
X93670988Y-154202455D01*
X93629084Y-154234609D01*
X93554609Y-154309084D01*
X93521953Y-154351641D01*
X93469294Y-154442849D01*
X93469289Y-154442859D01*
X93448761Y-154492418D01*
X93421502Y-154594149D01*
X93414500Y-154647338D01*
X93414500Y-155004800D01*
X93394815Y-155071839D01*
X93342011Y-155117594D01*
X93290500Y-155128800D01*
X92209500Y-155128800D01*
X92142461Y-155109115D01*
X92096706Y-155056311D01*
X92085500Y-155004800D01*
X92085500Y-154647338D01*
X92084248Y-154637833D01*
X92078498Y-154594152D01*
X92051239Y-154492419D01*
X92030709Y-154442856D01*
X91978048Y-154351644D01*
X91969963Y-154341108D01*
X91945390Y-154309084D01*
X91870915Y-154234609D01*
X91829012Y-154202455D01*
X91787810Y-154146026D01*
X91780500Y-154104080D01*
X91780500Y-153015639D01*
X91766827Y-152964611D01*
X91760021Y-152939211D01*
X91752506Y-152926194D01*
X91720464Y-152870695D01*
X91720458Y-152870687D01*
X90613819Y-151764048D01*
X90599115Y-151737120D01*
X90582523Y-151711302D01*
X90581631Y-151705101D01*
X90580334Y-151702725D01*
X90577500Y-151676367D01*
X90577500Y-151650476D01*
X90597185Y-151583437D01*
X90613819Y-151562795D01*
X90623019Y-151553595D01*
X90652100Y-151524514D01*
X90717992Y-151410386D01*
X90752100Y-151283092D01*
X90752100Y-151151308D01*
X90717992Y-151024014D01*
X90652100Y-150909886D01*
X90558914Y-150816700D01*
X90501850Y-150783754D01*
X90444787Y-150750808D01*
X90349991Y-150725408D01*
X90317492Y-150716700D01*
X90185708Y-150716700D01*
X90058412Y-150750808D01*
X89944286Y-150816700D01*
X89944283Y-150816702D01*
X89851102Y-150909883D01*
X89851100Y-150909886D01*
X89785208Y-151024012D01*
X89751100Y-151151308D01*
X89751100Y-151283091D01*
X89785208Y-151410387D01*
X89817035Y-151465512D01*
X89851100Y-151524514D01*
X89851102Y-151524516D01*
X89940181Y-151613595D01*
X89973666Y-151674918D01*
X89976500Y-151701276D01*
X89976500Y-151891762D01*
X89996979Y-151968189D01*
X90026308Y-152018988D01*
X90026312Y-152018995D01*
X90036542Y-152036714D01*
X90036543Y-152036715D01*
X91143181Y-153143352D01*
X91176666Y-153204675D01*
X91179500Y-153231033D01*
X91179500Y-154104080D01*
X91159815Y-154171119D01*
X91130988Y-154202455D01*
X91089084Y-154234609D01*
X91014609Y-154309084D01*
X90981953Y-154351641D01*
X90929294Y-154442849D01*
X90929289Y-154442859D01*
X90908761Y-154492418D01*
X90881502Y-154594149D01*
X90874500Y-154647338D01*
X90874500Y-155004800D01*
X90854815Y-155071839D01*
X90802011Y-155117594D01*
X90750500Y-155128800D01*
X89669500Y-155128800D01*
X89602461Y-155109115D01*
X89556706Y-155056311D01*
X89545500Y-155004800D01*
X89545500Y-154647338D01*
X89544248Y-154637833D01*
X89538498Y-154594152D01*
X89511239Y-154492419D01*
X89490709Y-154442856D01*
X89438048Y-154351644D01*
X89429963Y-154341108D01*
X89405390Y-154309084D01*
X89330915Y-154234609D01*
X89289012Y-154202455D01*
X89247810Y-154146026D01*
X89240500Y-154104080D01*
X89240500Y-153041039D01*
X89240439Y-153040811D01*
X89220021Y-152964611D01*
X89206892Y-152941871D01*
X89180464Y-152896095D01*
X89180458Y-152896087D01*
X88022773Y-151738402D01*
X87989288Y-151677079D01*
X87994272Y-151607387D01*
X88022772Y-151563041D01*
X88061300Y-151524514D01*
X88127192Y-151410386D01*
X88161300Y-151283092D01*
X88161300Y-151151308D01*
X88127192Y-151024014D01*
X88061300Y-150909886D01*
X87968114Y-150816700D01*
X87911050Y-150783754D01*
X87853987Y-150750808D01*
X87759191Y-150725408D01*
X87726692Y-150716700D01*
X87594908Y-150716700D01*
X87467612Y-150750808D01*
X87353486Y-150816700D01*
X87353483Y-150816702D01*
X87260302Y-150909883D01*
X87260300Y-150909886D01*
X87194408Y-151024012D01*
X87160300Y-151151308D01*
X87160300Y-151283091D01*
X87194408Y-151410387D01*
X87226235Y-151465512D01*
X87260300Y-151524514D01*
X87260302Y-151524516D01*
X87323981Y-151588195D01*
X87357466Y-151649518D01*
X87360300Y-151675876D01*
X87360300Y-151866362D01*
X87367106Y-151891760D01*
X87380779Y-151942790D01*
X87380782Y-151942795D01*
X87420335Y-152011304D01*
X87420339Y-152011309D01*
X87420340Y-152011311D01*
X87476289Y-152067260D01*
X87476290Y-152067261D01*
X87476292Y-152067262D01*
X87480276Y-152069562D01*
X87522246Y-152093793D01*
X87547928Y-152113499D01*
X88603181Y-153168752D01*
X88636666Y-153230075D01*
X88639500Y-153256433D01*
X88639500Y-154104080D01*
X88619815Y-154171119D01*
X88590988Y-154202455D01*
X88549084Y-154234609D01*
X88474609Y-154309084D01*
X88441953Y-154351641D01*
X88389294Y-154442849D01*
X88389289Y-154442859D01*
X88368761Y-154492418D01*
X88341502Y-154594149D01*
X88334500Y-154647338D01*
X88334500Y-155004800D01*
X88314815Y-155071839D01*
X88262011Y-155117594D01*
X88210500Y-155128800D01*
X87429000Y-155128800D01*
X87361961Y-155109115D01*
X87316206Y-155056311D01*
X87305000Y-155004800D01*
X87305000Y-154647338D01*
X87287793Y-154516640D01*
X87287791Y-154516631D01*
X87260532Y-154414901D01*
X87260530Y-154414894D01*
X87210086Y-154293113D01*
X87210078Y-154293096D01*
X87157426Y-154201899D01*
X87157425Y-154201897D01*
X87077170Y-154097306D01*
X87077164Y-154097299D01*
X87002700Y-154022835D01*
X87002693Y-154022829D01*
X86898102Y-153942574D01*
X86898100Y-153942573D01*
X86806903Y-153889921D01*
X86806881Y-153889910D01*
X86685096Y-153839466D01*
X86650000Y-153830062D01*
X86650000Y-155128800D01*
X86150000Y-155128800D01*
X86150000Y-153830062D01*
X86149999Y-153830062D01*
X86114903Y-153839466D01*
X85993118Y-153889910D01*
X85993096Y-153889921D01*
X85901899Y-153942573D01*
X85901897Y-153942574D01*
X85797306Y-154022829D01*
X85797299Y-154022835D01*
X85722835Y-154097299D01*
X85722829Y-154097306D01*
X85642574Y-154201897D01*
X85642573Y-154201899D01*
X85589921Y-154293096D01*
X85589913Y-154293113D01*
X85539469Y-154414894D01*
X85539467Y-154414901D01*
X85512208Y-154516631D01*
X85512206Y-154516640D01*
X85495000Y-154647338D01*
X85495000Y-155004800D01*
X85475315Y-155071839D01*
X85422511Y-155117594D01*
X85371000Y-155128800D01*
X84889000Y-155128800D01*
X84821961Y-155109115D01*
X84776206Y-155056311D01*
X84765000Y-155004800D01*
X84765000Y-154647338D01*
X84747793Y-154516640D01*
X84747791Y-154516631D01*
X84720532Y-154414901D01*
X84720530Y-154414894D01*
X84670086Y-154293113D01*
X84670078Y-154293096D01*
X84617426Y-154201899D01*
X84617425Y-154201897D01*
X84537170Y-154097306D01*
X84537164Y-154097299D01*
X84462700Y-154022835D01*
X84462693Y-154022829D01*
X84358102Y-153942574D01*
X84358100Y-153942573D01*
X84266903Y-153889921D01*
X84266881Y-153889910D01*
X84145096Y-153839466D01*
X84110000Y-153830062D01*
X84110000Y-155128800D01*
X83610000Y-155128800D01*
X83610000Y-153830062D01*
X83609999Y-153830062D01*
X83574903Y-153839466D01*
X83453118Y-153889910D01*
X83453096Y-153889921D01*
X83361899Y-153942573D01*
X83361897Y-153942574D01*
X83257306Y-154022829D01*
X83257299Y-154022835D01*
X83182835Y-154097299D01*
X83182829Y-154097306D01*
X83102574Y-154201897D01*
X83102573Y-154201899D01*
X83049921Y-154293096D01*
X83049913Y-154293113D01*
X82999469Y-154414894D01*
X82999467Y-154414901D01*
X82972208Y-154516631D01*
X82972206Y-154516640D01*
X82955000Y-154647338D01*
X82955000Y-155004800D01*
X82935315Y-155071839D01*
X82882511Y-155117594D01*
X82831000Y-155128800D01*
X82049500Y-155128800D01*
X81982461Y-155109115D01*
X81936706Y-155056311D01*
X81925500Y-155004800D01*
X81925500Y-154647338D01*
X81924248Y-154637833D01*
X81918498Y-154594152D01*
X81891239Y-154492419D01*
X81870709Y-154442856D01*
X81818048Y-154351644D01*
X81809963Y-154341108D01*
X81785390Y-154309084D01*
X81710915Y-154234609D01*
X81668358Y-154201953D01*
X81577150Y-154149294D01*
X81577140Y-154149289D01*
X81527581Y-154128761D01*
X81425850Y-154101502D01*
X81372662Y-154094500D01*
X81372661Y-154094500D01*
X81267339Y-154094500D01*
X81267338Y-154094500D01*
X81214149Y-154101502D01*
X81112418Y-154128761D01*
X81062859Y-154149289D01*
X81062849Y-154149294D01*
X81004666Y-154182887D01*
X80942666Y-154199500D01*
X79404500Y-154199500D01*
X79337461Y-154179815D01*
X79291706Y-154127011D01*
X79280500Y-154075500D01*
X79280500Y-151871710D01*
X79280500Y-151871708D01*
X79246392Y-151744414D01*
X79245040Y-151742073D01*
X79227275Y-151711302D01*
X79180500Y-151630286D01*
X79087314Y-151537100D01*
X77249314Y-149699100D01*
X77186507Y-149662838D01*
X77135187Y-149633208D01*
X77071539Y-149616154D01*
X77007892Y-149599100D01*
X77007891Y-149599100D01*
X67396276Y-149599100D01*
X67329237Y-149579415D01*
X67308595Y-149562781D01*
X66455219Y-148709405D01*
X66421734Y-148648082D01*
X66418900Y-148621724D01*
X66418900Y-144719928D01*
X76054900Y-144719928D01*
X76054900Y-145028871D01*
X76089486Y-145335837D01*
X76089489Y-145335855D01*
X76158231Y-145637035D01*
X76158235Y-145637047D01*
X76260262Y-145928622D01*
X76260268Y-145928636D01*
X76394303Y-146206962D01*
X76394305Y-146206965D01*
X76558665Y-146468543D01*
X76751280Y-146710074D01*
X76969726Y-146928520D01*
X77211257Y-147121135D01*
X77472835Y-147285495D01*
X77751171Y-147419535D01*
X77751177Y-147419537D01*
X78042752Y-147521564D01*
X78042764Y-147521568D01*
X78343948Y-147590311D01*
X78343954Y-147590311D01*
X78343962Y-147590313D01*
X78548606Y-147613370D01*
X78650929Y-147624899D01*
X78650932Y-147624900D01*
X78650935Y-147624900D01*
X78959868Y-147624900D01*
X78959869Y-147624899D01*
X79116756Y-147607222D01*
X79266837Y-147590313D01*
X79266842Y-147590312D01*
X79266852Y-147590311D01*
X79568036Y-147521568D01*
X79859629Y-147419535D01*
X80137965Y-147285495D01*
X80399543Y-147121135D01*
X80641074Y-146928520D01*
X80859520Y-146710074D01*
X81052135Y-146468543D01*
X81216495Y-146206965D01*
X81350535Y-145928629D01*
X81452568Y-145637036D01*
X81521311Y-145335852D01*
X81555900Y-145028865D01*
X81555900Y-144719935D01*
X81521311Y-144412948D01*
X81452568Y-144111764D01*
X81350535Y-143820171D01*
X81216495Y-143541835D01*
X81052135Y-143280257D01*
X80859520Y-143038726D01*
X80641074Y-142820280D01*
X80399543Y-142627665D01*
X80137965Y-142463305D01*
X80137962Y-142463303D01*
X79859636Y-142329268D01*
X79859622Y-142329262D01*
X79568047Y-142227235D01*
X79568035Y-142227231D01*
X79266855Y-142158489D01*
X79266837Y-142158486D01*
X78959871Y-142123900D01*
X78959865Y-142123900D01*
X78650935Y-142123900D01*
X78650928Y-142123900D01*
X78343962Y-142158486D01*
X78343944Y-142158489D01*
X78042764Y-142227231D01*
X78042752Y-142227235D01*
X77751177Y-142329262D01*
X77751163Y-142329268D01*
X77472837Y-142463303D01*
X77211258Y-142627664D01*
X76969726Y-142820279D01*
X76751279Y-143038726D01*
X76558664Y-143280258D01*
X76394303Y-143541837D01*
X76260268Y-143820163D01*
X76260262Y-143820177D01*
X76158235Y-144111752D01*
X76158231Y-144111764D01*
X76089489Y-144412944D01*
X76089486Y-144412962D01*
X76054900Y-144719928D01*
X66418900Y-144719928D01*
X66418900Y-141880308D01*
X89547900Y-141880308D01*
X89547900Y-142012091D01*
X89582008Y-142139387D01*
X89593035Y-142158486D01*
X89647900Y-142253514D01*
X89741086Y-142346700D01*
X89855214Y-142412592D01*
X89982508Y-142446700D01*
X89982510Y-142446700D01*
X90114290Y-142446700D01*
X90114292Y-142446700D01*
X90241586Y-142412592D01*
X90355714Y-142346700D01*
X90419395Y-142283019D01*
X90480718Y-142249534D01*
X90507076Y-142246700D01*
X104194724Y-142246700D01*
X104261763Y-142266385D01*
X104282405Y-142283019D01*
X104346086Y-142346700D01*
X104460214Y-142412592D01*
X104587508Y-142446700D01*
X104587510Y-142446700D01*
X104719290Y-142446700D01*
X104719292Y-142446700D01*
X104846586Y-142412592D01*
X104960714Y-142346700D01*
X105024395Y-142283019D01*
X105085718Y-142249534D01*
X105112076Y-142246700D01*
X121669924Y-142246700D01*
X121736963Y-142266385D01*
X121757605Y-142283019D01*
X121821286Y-142346700D01*
X121935414Y-142412592D01*
X122062708Y-142446700D01*
X122062710Y-142446700D01*
X122194490Y-142446700D01*
X122194492Y-142446700D01*
X122321786Y-142412592D01*
X122435914Y-142346700D01*
X122529100Y-142253514D01*
X122594992Y-142139386D01*
X122629100Y-142012092D01*
X122629100Y-141880308D01*
X122594992Y-141753014D01*
X122529100Y-141638886D01*
X122435914Y-141545700D01*
X122378850Y-141512754D01*
X122321787Y-141479808D01*
X122258139Y-141462754D01*
X122194492Y-141445700D01*
X122062708Y-141445700D01*
X121935412Y-141479808D01*
X121821286Y-141545700D01*
X121821283Y-141545702D01*
X121757605Y-141609381D01*
X121696282Y-141642866D01*
X121669924Y-141645700D01*
X105112076Y-141645700D01*
X105045037Y-141626015D01*
X105024395Y-141609381D01*
X104960716Y-141545702D01*
X104960714Y-141545700D01*
X104903650Y-141512754D01*
X104846587Y-141479808D01*
X104782939Y-141462754D01*
X104719292Y-141445700D01*
X104587508Y-141445700D01*
X104460212Y-141479808D01*
X104346086Y-141545700D01*
X104346083Y-141545702D01*
X104282405Y-141609381D01*
X104221082Y-141642866D01*
X104194724Y-141645700D01*
X90507076Y-141645700D01*
X90440037Y-141626015D01*
X90419395Y-141609381D01*
X90355716Y-141545702D01*
X90355714Y-141545700D01*
X90298650Y-141512754D01*
X90241587Y-141479808D01*
X90177939Y-141462754D01*
X90114292Y-141445700D01*
X89982508Y-141445700D01*
X89855212Y-141479808D01*
X89741086Y-141545700D01*
X89741083Y-141545702D01*
X89647902Y-141638883D01*
X89647900Y-141638886D01*
X89582008Y-141753012D01*
X89547900Y-141880308D01*
X66418900Y-141880308D01*
X66418900Y-138940275D01*
X66438585Y-138873236D01*
X66455214Y-138852599D01*
X66653519Y-138654294D01*
X66714838Y-138620812D01*
X66784529Y-138625796D01*
X66840463Y-138667667D01*
X66864880Y-138733132D01*
X66863669Y-138761375D01*
X66850000Y-138847681D01*
X66850000Y-139052317D01*
X66882009Y-139254417D01*
X66945244Y-139449031D01*
X67038141Y-139631350D01*
X67038147Y-139631359D01*
X67070523Y-139675921D01*
X67070524Y-139675922D01*
X67750000Y-138996446D01*
X67750000Y-139002661D01*
X67777259Y-139104394D01*
X67829920Y-139195606D01*
X67904394Y-139270080D01*
X67995606Y-139322741D01*
X68097339Y-139350000D01*
X68103553Y-139350000D01*
X67424076Y-140029474D01*
X67468650Y-140061859D01*
X67650968Y-140154755D01*
X67845582Y-140217990D01*
X68047683Y-140250000D01*
X68252317Y-140250000D01*
X68454417Y-140217990D01*
X68649031Y-140154755D01*
X68831349Y-140061859D01*
X68875921Y-140029474D01*
X68196447Y-139350000D01*
X68202661Y-139350000D01*
X68304394Y-139322741D01*
X68395606Y-139270080D01*
X68470080Y-139195606D01*
X68522741Y-139104394D01*
X68550000Y-139002661D01*
X68550000Y-138996448D01*
X69229474Y-139675922D01*
X69229474Y-139675921D01*
X69261859Y-139631349D01*
X69354755Y-139449031D01*
X69417990Y-139254417D01*
X69450000Y-139052317D01*
X69450000Y-138847682D01*
X69417990Y-138645582D01*
X69354755Y-138450968D01*
X69261859Y-138268650D01*
X69229474Y-138224077D01*
X69229474Y-138224076D01*
X68550000Y-138903551D01*
X68550000Y-138897339D01*
X68522741Y-138795606D01*
X68470080Y-138704394D01*
X68395606Y-138629920D01*
X68304394Y-138577259D01*
X68202661Y-138550000D01*
X68196446Y-138550000D01*
X68875922Y-137870524D01*
X68875921Y-137870523D01*
X68831359Y-137838147D01*
X68831350Y-137838141D01*
X68649031Y-137745244D01*
X68486490Y-137692431D01*
X68428815Y-137652993D01*
X68401617Y-137588634D01*
X68413532Y-137519788D01*
X68460776Y-137468312D01*
X68524809Y-137450500D01*
X68754270Y-137450500D01*
X68784699Y-137447646D01*
X68784701Y-137447646D01*
X68848790Y-137425219D01*
X68912882Y-137402793D01*
X69022150Y-137322150D01*
X69102793Y-137212882D01*
X69125219Y-137148790D01*
X69147646Y-137084701D01*
X69147646Y-137084699D01*
X69149689Y-137062921D01*
X69175547Y-136998013D01*
X69232393Y-136957388D01*
X69273147Y-136950500D01*
X126070890Y-136950500D01*
X126070892Y-136950500D01*
X126198186Y-136916392D01*
X126312314Y-136850500D01*
X126405500Y-136757314D01*
X126471392Y-136643186D01*
X126505500Y-136515892D01*
X126505500Y-136384108D01*
X126471392Y-136256814D01*
X126405500Y-136142686D01*
X126312314Y-136049500D01*
X126255250Y-136016554D01*
X126198187Y-135983608D01*
X126134539Y-135966554D01*
X126070892Y-135949500D01*
X126070891Y-135949500D01*
X69273147Y-135949500D01*
X69206108Y-135929815D01*
X69160353Y-135877011D01*
X69149689Y-135837079D01*
X69147646Y-135815300D01*
X69147646Y-135815298D01*
X69102793Y-135687119D01*
X69102792Y-135687117D01*
X69022150Y-135577850D01*
X68912882Y-135497207D01*
X68912880Y-135497206D01*
X68784700Y-135452353D01*
X68754270Y-135449500D01*
X68754266Y-135449500D01*
X67545734Y-135449500D01*
X67545730Y-135449500D01*
X67515300Y-135452353D01*
X67515298Y-135452353D01*
X67387119Y-135497206D01*
X67387117Y-135497207D01*
X67277850Y-135577850D01*
X67197207Y-135687117D01*
X67197206Y-135687119D01*
X67152353Y-135815298D01*
X67152353Y-135815300D01*
X67149500Y-135845730D01*
X67149500Y-136691324D01*
X67129815Y-136758363D01*
X67113181Y-136779005D01*
X65517902Y-138374283D01*
X65517900Y-138374286D01*
X65452008Y-138488412D01*
X65417900Y-138615708D01*
X65417900Y-148946291D01*
X65452008Y-149073587D01*
X65484954Y-149130650D01*
X65517900Y-149187714D01*
X66830286Y-150500100D01*
X66944414Y-150565992D01*
X67071707Y-150600100D01*
X67071708Y-150600100D01*
X76683324Y-150600100D01*
X76750363Y-150619785D01*
X76771005Y-150636419D01*
X78243181Y-152108595D01*
X78276666Y-152169918D01*
X78279500Y-152196276D01*
X78279500Y-154322665D01*
X78262888Y-154384664D01*
X78229292Y-154442854D01*
X78229289Y-154442859D01*
X78208761Y-154492418D01*
X78181502Y-154594149D01*
X78174500Y-154647338D01*
X78174500Y-155004800D01*
X78154815Y-155071839D01*
X78102011Y-155117594D01*
X78050500Y-155128800D01*
X76969500Y-155128800D01*
X76902461Y-155109115D01*
X76856706Y-155056311D01*
X76845500Y-155004800D01*
X76845500Y-154647338D01*
X76844248Y-154637833D01*
X76838498Y-154594152D01*
X76811239Y-154492419D01*
X76790709Y-154442856D01*
X76738048Y-154351644D01*
X76729963Y-154341108D01*
X76705390Y-154309084D01*
X76630915Y-154234609D01*
X76588358Y-154201953D01*
X76497150Y-154149294D01*
X76497140Y-154149289D01*
X76447581Y-154128761D01*
X76345850Y-154101502D01*
X76292662Y-154094500D01*
X76292661Y-154094500D01*
X76187339Y-154094500D01*
X76187338Y-154094500D01*
X76134149Y-154101502D01*
X76032418Y-154128761D01*
X75982859Y-154149289D01*
X75982849Y-154149294D01*
X75891641Y-154201953D01*
X75849084Y-154234609D01*
X75774609Y-154309084D01*
X75741953Y-154351641D01*
X75689294Y-154442849D01*
X75689289Y-154442859D01*
X75668761Y-154492418D01*
X75641502Y-154594149D01*
X75634500Y-154647338D01*
X75634500Y-155004800D01*
X75614815Y-155071839D01*
X75562011Y-155117594D01*
X75510500Y-155128800D01*
X74602200Y-155128800D01*
X74535161Y-155109115D01*
X74489406Y-155056311D01*
X74478200Y-155004800D01*
X74478200Y-153858800D01*
X73944800Y-153325400D01*
X73689172Y-153325400D01*
X73646763Y-153317922D01*
X73614010Y-153306001D01*
X73418345Y-153271500D01*
X73418343Y-153271500D01*
X73384892Y-153271500D01*
X64010862Y-153271500D01*
X63943823Y-153251815D01*
X63923181Y-153235181D01*
X63160719Y-152472719D01*
X63127234Y-152411396D01*
X63124400Y-152385038D01*
X63124400Y-141514400D01*
X62952291Y-141342291D01*
X62921875Y-141292411D01*
X62903068Y-141233650D01*
X62815851Y-141060836D01*
X62702587Y-140903856D01*
X62566086Y-140766602D01*
X62409730Y-140652477D01*
X62237399Y-140564311D01*
X62237395Y-140564309D01*
X62237392Y-140564308D01*
X62172008Y-140542983D01*
X62122776Y-140512776D01*
X61956000Y-140346000D01*
X57765562Y-140346000D01*
X57698523Y-140326315D01*
X57677881Y-140309681D01*
X56937719Y-139569519D01*
X56904234Y-139508196D01*
X56901400Y-139481838D01*
X56901400Y-86884311D01*
X57997504Y-86884311D01*
X57997504Y-87126888D01*
X58029165Y-87367385D01*
X58091951Y-87601704D01*
X58142236Y-87723102D01*
X58184780Y-87825812D01*
X58306068Y-88035889D01*
X58306070Y-88035892D01*
X58306071Y-88035893D01*
X58453737Y-88228336D01*
X58453743Y-88228343D01*
X58625260Y-88399860D01*
X58625267Y-88399866D01*
X58704182Y-88460419D01*
X58817715Y-88547536D01*
X59027792Y-88668824D01*
X59251904Y-88761654D01*
X59486215Y-88824438D01*
X59666590Y-88848184D01*
X59726715Y-88856100D01*
X59726716Y-88856100D01*
X59969293Y-88856100D01*
X60017392Y-88849767D01*
X60209793Y-88824438D01*
X60444104Y-88761654D01*
X60668216Y-88668824D01*
X60878293Y-88547536D01*
X61070742Y-88399865D01*
X61242269Y-88228338D01*
X61389940Y-88035889D01*
X61511228Y-87825812D01*
X61604058Y-87601700D01*
X61666842Y-87367389D01*
X61698504Y-87126888D01*
X61698504Y-86928711D01*
X145954900Y-86928711D01*
X145954900Y-87171288D01*
X145980716Y-87367389D01*
X145986562Y-87411789D01*
X146049346Y-87646100D01*
X146142176Y-87870212D01*
X146263464Y-88080289D01*
X146263466Y-88080292D01*
X146263467Y-88080293D01*
X146411133Y-88272736D01*
X146411139Y-88272743D01*
X146582656Y-88444260D01*
X146582662Y-88444265D01*
X146775111Y-88591936D01*
X146985188Y-88713224D01*
X147209300Y-88806054D01*
X147443611Y-88868838D01*
X147623986Y-88892584D01*
X147684111Y-88900500D01*
X147684112Y-88900500D01*
X147926689Y-88900500D01*
X147974788Y-88894167D01*
X148167189Y-88868838D01*
X148401500Y-88806054D01*
X148625612Y-88713224D01*
X148835689Y-88591936D01*
X149028138Y-88444265D01*
X149199665Y-88272738D01*
X149347336Y-88080289D01*
X149468624Y-87870212D01*
X149561454Y-87646100D01*
X149624238Y-87411789D01*
X149655900Y-87171288D01*
X149655900Y-86928712D01*
X149624238Y-86688211D01*
X149561454Y-86453900D01*
X149468624Y-86229788D01*
X149347336Y-86019711D01*
X149199665Y-85827262D01*
X149199660Y-85827256D01*
X149028143Y-85655739D01*
X149028136Y-85655733D01*
X148835693Y-85508067D01*
X148835692Y-85508066D01*
X148835689Y-85508064D01*
X148625612Y-85386776D01*
X148625605Y-85386773D01*
X148401504Y-85293947D01*
X148167185Y-85231161D01*
X147926689Y-85199500D01*
X147926688Y-85199500D01*
X147684112Y-85199500D01*
X147684111Y-85199500D01*
X147443614Y-85231161D01*
X147209295Y-85293947D01*
X146985194Y-85386773D01*
X146985185Y-85386777D01*
X146775106Y-85508067D01*
X146582663Y-85655733D01*
X146582656Y-85655739D01*
X146411139Y-85827256D01*
X146411133Y-85827263D01*
X146263467Y-86019706D01*
X146142177Y-86229785D01*
X146142173Y-86229794D01*
X146049347Y-86453895D01*
X145986561Y-86688214D01*
X145954900Y-86928711D01*
X61698504Y-86928711D01*
X61698504Y-86884312D01*
X61666842Y-86643811D01*
X61604058Y-86409500D01*
X61511228Y-86185388D01*
X61389940Y-85975311D01*
X61242269Y-85782862D01*
X61242264Y-85782856D01*
X61070747Y-85611339D01*
X61070740Y-85611333D01*
X60878297Y-85463667D01*
X60878296Y-85463666D01*
X60878293Y-85463664D01*
X60668216Y-85342376D01*
X60668209Y-85342373D01*
X60444108Y-85249547D01*
X60326948Y-85218154D01*
X60209793Y-85186762D01*
X60209792Y-85186761D01*
X60209789Y-85186761D01*
X59969293Y-85155100D01*
X59969292Y-85155100D01*
X59726716Y-85155100D01*
X59726715Y-85155100D01*
X59486218Y-85186761D01*
X59251899Y-85249547D01*
X59027798Y-85342373D01*
X59027789Y-85342377D01*
X58817710Y-85463667D01*
X58625267Y-85611333D01*
X58625260Y-85611339D01*
X58453743Y-85782856D01*
X58453737Y-85782863D01*
X58306071Y-85975306D01*
X58184781Y-86185385D01*
X58184777Y-86185394D01*
X58091951Y-86409495D01*
X58029165Y-86643814D01*
X57997504Y-86884311D01*
X56901400Y-86884311D01*
X56901400Y-86269961D01*
X56921085Y-86202922D01*
X56937714Y-86182285D01*
X59105488Y-84014511D01*
X59119370Y-84006496D01*
X59128628Y-83996313D01*
X59161063Y-83982423D01*
X59192218Y-83974075D01*
X59204863Y-83971387D01*
X59279759Y-83959525D01*
X59299148Y-83958000D01*
X148370023Y-83958000D01*
X148389411Y-83959525D01*
G37*
G04 #@! TD.AperFunction*
G04 #@! TA.AperFunction,Conductor*
G36*
X92776806Y-88643785D02*
G01*
X92822561Y-88696589D01*
X92832505Y-88765747D01*
X92803480Y-88829303D01*
X92797448Y-88835781D01*
X90366741Y-91266487D01*
X90366735Y-91266495D01*
X90327182Y-91335004D01*
X90327179Y-91335009D01*
X90306700Y-91411439D01*
X90306700Y-116765967D01*
X90287015Y-116833006D01*
X90234211Y-116878761D01*
X90165053Y-116888705D01*
X90101497Y-116859680D01*
X90095019Y-116853648D01*
X89750219Y-116508848D01*
X89716734Y-116447525D01*
X89713900Y-116421167D01*
X89713900Y-91122276D01*
X89733585Y-91055237D01*
X89750219Y-91034595D01*
X89813900Y-90970914D01*
X89879792Y-90856786D01*
X89913900Y-90729492D01*
X89913900Y-90597708D01*
X89879792Y-90470414D01*
X89813900Y-90356286D01*
X89720714Y-90263100D01*
X89663650Y-90230154D01*
X89606587Y-90197208D01*
X89542939Y-90180154D01*
X89479292Y-90163100D01*
X89347508Y-90163100D01*
X89220212Y-90197208D01*
X89106086Y-90263100D01*
X89106083Y-90263102D01*
X89012902Y-90356283D01*
X89012900Y-90356286D01*
X88947008Y-90470412D01*
X88912900Y-90597708D01*
X88912900Y-90729491D01*
X88947008Y-90856787D01*
X88979954Y-90913850D01*
X89012900Y-90970914D01*
X89012902Y-90970916D01*
X89076581Y-91034595D01*
X89110066Y-91095918D01*
X89112900Y-91122276D01*
X89112900Y-116636562D01*
X89126552Y-116687513D01*
X89133379Y-116712990D01*
X89147405Y-116737283D01*
X89165191Y-116768089D01*
X89172940Y-116781511D01*
X97504140Y-125112711D01*
X97560089Y-125168660D01*
X97560091Y-125168661D01*
X97560095Y-125168664D01*
X97628604Y-125208217D01*
X97628611Y-125208221D01*
X97705038Y-125228700D01*
X104167210Y-125228700D01*
X104234249Y-125248385D01*
X104280004Y-125301189D01*
X104289948Y-125370347D01*
X104274598Y-125414697D01*
X104250888Y-125455764D01*
X104212408Y-125522412D01*
X104178300Y-125649708D01*
X104178300Y-125781493D01*
X104188964Y-125821293D01*
X104187300Y-125891143D01*
X104148137Y-125949005D01*
X104083908Y-125976508D01*
X104067019Y-125976410D01*
X104067019Y-125977100D01*
X103927108Y-125977100D01*
X103799812Y-126011208D01*
X103685686Y-126077100D01*
X103685683Y-126077102D01*
X103592502Y-126170283D01*
X103592500Y-126170286D01*
X103526608Y-126284412D01*
X103492500Y-126411708D01*
X103492500Y-126543492D01*
X103509489Y-126606897D01*
X103522648Y-126656007D01*
X103520985Y-126725857D01*
X103481822Y-126783719D01*
X103417593Y-126811223D01*
X103402873Y-126812100D01*
X100514676Y-126812100D01*
X100447637Y-126792415D01*
X100426995Y-126775781D01*
X100363316Y-126712102D01*
X100363314Y-126712100D01*
X100291756Y-126670786D01*
X100249187Y-126646208D01*
X100185539Y-126629154D01*
X100121892Y-126612100D01*
X99990108Y-126612100D01*
X99862812Y-126646208D01*
X99748686Y-126712100D01*
X99748683Y-126712102D01*
X99655502Y-126805283D01*
X99655500Y-126805286D01*
X99589608Y-126919412D01*
X99555500Y-127046708D01*
X99555500Y-127178492D01*
X99580689Y-127272500D01*
X99589609Y-127305788D01*
X99589609Y-127305789D01*
X99622467Y-127362700D01*
X99638940Y-127430600D01*
X99616088Y-127496627D01*
X99561167Y-127539817D01*
X99515080Y-127548700D01*
X97666433Y-127548700D01*
X97599394Y-127529015D01*
X97578752Y-127512381D01*
X88531019Y-118464648D01*
X88497534Y-118403325D01*
X88494700Y-118376967D01*
X88494700Y-96735676D01*
X88514385Y-96668637D01*
X88531019Y-96647995D01*
X88541858Y-96637156D01*
X88594700Y-96584314D01*
X88660592Y-96470186D01*
X88694700Y-96342892D01*
X88694700Y-96211108D01*
X88660592Y-96083814D01*
X88594700Y-95969686D01*
X88501514Y-95876500D01*
X88433874Y-95837448D01*
X88387387Y-95810608D01*
X88309553Y-95789753D01*
X88260092Y-95776500D01*
X88128308Y-95776500D01*
X88094578Y-95785538D01*
X88001007Y-95810610D01*
X87993865Y-95813568D01*
X87924395Y-95821032D01*
X87861918Y-95789753D01*
X87826270Y-95729661D01*
X87826644Y-95666913D01*
X87856500Y-95555492D01*
X87856500Y-95423708D01*
X87822392Y-95296414D01*
X87756500Y-95182286D01*
X87663314Y-95089100D01*
X87574933Y-95038073D01*
X87549187Y-95023208D01*
X87455962Y-94998229D01*
X87421892Y-94989100D01*
X87290108Y-94989100D01*
X87162814Y-95023208D01*
X87162813Y-95023208D01*
X87162811Y-95023209D01*
X87155300Y-95026320D01*
X87154367Y-95024067D01*
X87098453Y-95037621D01*
X87032430Y-95014757D01*
X86989250Y-94959828D01*
X86982621Y-94890273D01*
X86996993Y-94851756D01*
X86998476Y-94849187D01*
X86998477Y-94849186D01*
X87032585Y-94721892D01*
X87032585Y-94590108D01*
X86998477Y-94462814D01*
X86932585Y-94348686D01*
X86839399Y-94255500D01*
X86741861Y-94199186D01*
X86725272Y-94189608D01*
X86661624Y-94172554D01*
X86597977Y-94155500D01*
X86466193Y-94155500D01*
X86429652Y-94165290D01*
X86359803Y-94163628D01*
X86301941Y-94124465D01*
X86274437Y-94060236D01*
X86273560Y-94045516D01*
X86273560Y-93940110D01*
X86273560Y-93940108D01*
X86239452Y-93812814D01*
X86173560Y-93698686D01*
X86080374Y-93605500D01*
X86015540Y-93568068D01*
X85966247Y-93539608D01*
X85902599Y-93522554D01*
X85838952Y-93505500D01*
X85707168Y-93505500D01*
X85599593Y-93534324D01*
X85529743Y-93532661D01*
X85471880Y-93493498D01*
X85444377Y-93429269D01*
X85443500Y-93414549D01*
X85443500Y-93290110D01*
X85443500Y-93290108D01*
X85409392Y-93162814D01*
X85343500Y-93048686D01*
X85250314Y-92955500D01*
X85180180Y-92915008D01*
X85136187Y-92889608D01*
X85072539Y-92872554D01*
X85008892Y-92855500D01*
X84877108Y-92855500D01*
X84749812Y-92889608D01*
X84635686Y-92955500D01*
X84635683Y-92955502D01*
X84542502Y-93048683D01*
X84542500Y-93048686D01*
X84476608Y-93162812D01*
X84442500Y-93290108D01*
X84442500Y-93421891D01*
X84476608Y-93549187D01*
X84500461Y-93590500D01*
X84542500Y-93663314D01*
X84542502Y-93663316D01*
X84606181Y-93726995D01*
X84639666Y-93788318D01*
X84642500Y-93814676D01*
X84642500Y-118643162D01*
X84662979Y-118719589D01*
X84668095Y-118728450D01*
X84673211Y-118737312D01*
X84702537Y-118788107D01*
X84702539Y-118788110D01*
X84702540Y-118788111D01*
X96970740Y-131056311D01*
X97026689Y-131112260D01*
X97026691Y-131112261D01*
X97026695Y-131112264D01*
X97095204Y-131151817D01*
X97095211Y-131151821D01*
X97171638Y-131172300D01*
X100291324Y-131172300D01*
X100358363Y-131191985D01*
X100379005Y-131208619D01*
X100442686Y-131272300D01*
X100556814Y-131338192D01*
X100684108Y-131372300D01*
X100684110Y-131372300D01*
X100815890Y-131372300D01*
X100815892Y-131372300D01*
X100943186Y-131338192D01*
X101057314Y-131272300D01*
X101150500Y-131179114D01*
X101216392Y-131064986D01*
X101250500Y-130937692D01*
X101250500Y-130805908D01*
X101239912Y-130766392D01*
X101241575Y-130696543D01*
X101280738Y-130638681D01*
X101344967Y-130611177D01*
X101359687Y-130610300D01*
X101465890Y-130610300D01*
X101465892Y-130610300D01*
X101593186Y-130576192D01*
X101707314Y-130510300D01*
X101800500Y-130417114D01*
X101866392Y-130302986D01*
X101900500Y-130175692D01*
X101900500Y-130043908D01*
X101889912Y-130004392D01*
X101891575Y-129934543D01*
X101930738Y-129876681D01*
X101994967Y-129849177D01*
X102009687Y-129848300D01*
X102103090Y-129848300D01*
X102103092Y-129848300D01*
X102230386Y-129814192D01*
X102344514Y-129748300D01*
X102437700Y-129655114D01*
X102503592Y-129540986D01*
X102537700Y-129413692D01*
X102537700Y-129281908D01*
X102527112Y-129242392D01*
X102528775Y-129172543D01*
X102567938Y-129114681D01*
X102632167Y-129087177D01*
X102646887Y-129086300D01*
X102763490Y-129086300D01*
X102763492Y-129086300D01*
X102890786Y-129052192D01*
X103004914Y-128986300D01*
X103098100Y-128893114D01*
X103163992Y-128778986D01*
X103198100Y-128651692D01*
X103198100Y-128519908D01*
X103198099Y-128519903D01*
X103194318Y-128505791D01*
X103195982Y-128435941D01*
X103235145Y-128378079D01*
X103299374Y-128350577D01*
X103314093Y-128349700D01*
X103398490Y-128349700D01*
X103398492Y-128349700D01*
X103525786Y-128315592D01*
X103639914Y-128249700D01*
X103733100Y-128156514D01*
X103798992Y-128042386D01*
X103833100Y-127915092D01*
X103833100Y-127783308D01*
X103798992Y-127656014D01*
X103766133Y-127599100D01*
X103749660Y-127531200D01*
X103772512Y-127465173D01*
X103827433Y-127421983D01*
X103873520Y-127413100D01*
X123376960Y-127413100D01*
X123376962Y-127413100D01*
X123453389Y-127392621D01*
X123521911Y-127353060D01*
X123577860Y-127297111D01*
X132105248Y-118769721D01*
X132166569Y-118736238D01*
X132236261Y-118741222D01*
X132240380Y-118742843D01*
X132319249Y-118775512D01*
X132505197Y-118812499D01*
X132505201Y-118812500D01*
X132505202Y-118812500D01*
X132694799Y-118812500D01*
X132694800Y-118812499D01*
X132880751Y-118775512D01*
X133055915Y-118702956D01*
X133213558Y-118597622D01*
X133347622Y-118463558D01*
X133452956Y-118305915D01*
X133525512Y-118130751D01*
X133562500Y-117944798D01*
X133562500Y-117755202D01*
X133525512Y-117569249D01*
X133519394Y-117554480D01*
X133516857Y-117548354D01*
X133509387Y-117478885D01*
X133540661Y-117416405D01*
X133600749Y-117380752D01*
X133631417Y-117376900D01*
X134108583Y-117376900D01*
X134175622Y-117396585D01*
X134221377Y-117449389D01*
X134231321Y-117518547D01*
X134223143Y-117548354D01*
X134214489Y-117569243D01*
X134214486Y-117569256D01*
X134177500Y-117755197D01*
X134177500Y-117944802D01*
X134214486Y-118130743D01*
X134214488Y-118130751D01*
X134287042Y-118305912D01*
X134392377Y-118463558D01*
X134526438Y-118597619D01*
X134526442Y-118597622D01*
X134684078Y-118702952D01*
X134684091Y-118702959D01*
X134762952Y-118735624D01*
X134817356Y-118779465D01*
X134839421Y-118845759D01*
X134839500Y-118850185D01*
X134839500Y-119894366D01*
X134819815Y-119961405D01*
X134803181Y-119982047D01*
X127549047Y-127236181D01*
X127487724Y-127269666D01*
X127461366Y-127272500D01*
X127371308Y-127272500D01*
X127244012Y-127306608D01*
X127129886Y-127372500D01*
X127129883Y-127372502D01*
X127036702Y-127465683D01*
X127036700Y-127465686D01*
X126970808Y-127579812D01*
X126950391Y-127656011D01*
X126936700Y-127707108D01*
X126936700Y-127838892D01*
X126953754Y-127902539D01*
X126970808Y-127966187D01*
X127003754Y-128023250D01*
X127036700Y-128080314D01*
X127129886Y-128173500D01*
X127244014Y-128239392D01*
X127371308Y-128273500D01*
X127371310Y-128273500D01*
X127503090Y-128273500D01*
X127503092Y-128273500D01*
X127630386Y-128239392D01*
X127744514Y-128173500D01*
X127837700Y-128080314D01*
X127903592Y-127966186D01*
X127937700Y-127838892D01*
X127937700Y-127748832D01*
X127957385Y-127681793D01*
X127974019Y-127661151D01*
X131597453Y-124037718D01*
X133948253Y-121686918D01*
X134625190Y-121009981D01*
X135380460Y-120254711D01*
X135420021Y-120186189D01*
X135440500Y-120109762D01*
X135440500Y-118850185D01*
X135460185Y-118783146D01*
X135512989Y-118737391D01*
X135517048Y-118735624D01*
X135595908Y-118702959D01*
X135595908Y-118702958D01*
X135595915Y-118702956D01*
X135753558Y-118597622D01*
X135887622Y-118463558D01*
X135992956Y-118305915D01*
X136065512Y-118130751D01*
X136102500Y-117944798D01*
X136102500Y-117755202D01*
X136065512Y-117569249D01*
X136059394Y-117554480D01*
X136056857Y-117548354D01*
X136049387Y-117478885D01*
X136080661Y-117416405D01*
X136140749Y-117380752D01*
X136171417Y-117376900D01*
X136648583Y-117376900D01*
X136715622Y-117396585D01*
X136761377Y-117449389D01*
X136771321Y-117518547D01*
X136763143Y-117548354D01*
X136754489Y-117569243D01*
X136754486Y-117569256D01*
X136717500Y-117755197D01*
X136717500Y-117944802D01*
X136754486Y-118130743D01*
X136754488Y-118130751D01*
X136827042Y-118305912D01*
X136932377Y-118463558D01*
X137066441Y-118597622D01*
X137134594Y-118643160D01*
X137224085Y-118702956D01*
X137399249Y-118775512D01*
X137585197Y-118812499D01*
X137585201Y-118812500D01*
X137585202Y-118812500D01*
X137774799Y-118812500D01*
X137774800Y-118812499D01*
X137960751Y-118775512D01*
X138135915Y-118702956D01*
X138293558Y-118597622D01*
X138427622Y-118463558D01*
X138532956Y-118305915D01*
X138605512Y-118130751D01*
X138642500Y-117944798D01*
X138642500Y-117755202D01*
X138605512Y-117569249D01*
X138599394Y-117554480D01*
X138596857Y-117548354D01*
X138589387Y-117478885D01*
X138620661Y-117416405D01*
X138680749Y-117380752D01*
X138711417Y-117376900D01*
X139188583Y-117376900D01*
X139255622Y-117396585D01*
X139301377Y-117449389D01*
X139311321Y-117518547D01*
X139303143Y-117548354D01*
X139294489Y-117569243D01*
X139294486Y-117569256D01*
X139257500Y-117755197D01*
X139257500Y-117944802D01*
X139294486Y-118130743D01*
X139294488Y-118130751D01*
X139367042Y-118305912D01*
X139472377Y-118463558D01*
X139606441Y-118597622D01*
X139674594Y-118643160D01*
X139764085Y-118702956D01*
X139939249Y-118775512D01*
X140125197Y-118812499D01*
X140125201Y-118812500D01*
X140125202Y-118812500D01*
X140314799Y-118812500D01*
X140314800Y-118812499D01*
X140500751Y-118775512D01*
X140675915Y-118702956D01*
X140833558Y-118597622D01*
X140967622Y-118463558D01*
X141072956Y-118305915D01*
X141145512Y-118130751D01*
X141182500Y-117944798D01*
X141182500Y-117755202D01*
X141145512Y-117569249D01*
X141139394Y-117554480D01*
X141136857Y-117548354D01*
X141129387Y-117478885D01*
X141160661Y-117416405D01*
X141220749Y-117380752D01*
X141251417Y-117376900D01*
X141728583Y-117376900D01*
X141795622Y-117396585D01*
X141841377Y-117449389D01*
X141851321Y-117518547D01*
X141843143Y-117548354D01*
X141834489Y-117569243D01*
X141834486Y-117569256D01*
X141797500Y-117755197D01*
X141797500Y-117944802D01*
X141834486Y-118130743D01*
X141834488Y-118130751D01*
X141907042Y-118305912D01*
X142012377Y-118463558D01*
X142146439Y-118597620D01*
X142146442Y-118597622D01*
X142204391Y-118636342D01*
X142249195Y-118689953D01*
X142259500Y-118739444D01*
X142259500Y-121771486D01*
X142239815Y-121838525D01*
X142191795Y-121881970D01*
X142110805Y-121923236D01*
X142008885Y-121997286D01*
X141957927Y-122034310D01*
X141957925Y-122034312D01*
X141957924Y-122034312D01*
X141824312Y-122167924D01*
X141824312Y-122167925D01*
X141824310Y-122167927D01*
X141824306Y-122167933D01*
X141713240Y-122320800D01*
X141627454Y-122489163D01*
X141587931Y-122610803D01*
X141548493Y-122668478D01*
X141484134Y-122695676D01*
X141415288Y-122683761D01*
X141363812Y-122636516D01*
X141352069Y-122610803D01*
X141341649Y-122578734D01*
X141312547Y-122489168D01*
X141312545Y-122489165D01*
X141312545Y-122489163D01*
X141267290Y-122400347D01*
X141226760Y-122320801D01*
X141115690Y-122167927D01*
X140982073Y-122034310D01*
X140829199Y-121923240D01*
X140788202Y-121902351D01*
X140660836Y-121837454D01*
X140481118Y-121779059D01*
X140294486Y-121749500D01*
X140294481Y-121749500D01*
X140105519Y-121749500D01*
X140105514Y-121749500D01*
X139918881Y-121779059D01*
X139739163Y-121837454D01*
X139570800Y-121923240D01*
X139483579Y-121986610D01*
X139417927Y-122034310D01*
X139417925Y-122034312D01*
X139417924Y-122034312D01*
X139284312Y-122167924D01*
X139284305Y-122167933D01*
X139203807Y-122278727D01*
X139148477Y-122321393D01*
X139078864Y-122327371D01*
X139017069Y-122294764D01*
X138993005Y-122262136D01*
X138942914Y-122163828D01*
X138882658Y-122080894D01*
X138882658Y-122080893D01*
X138102137Y-122861414D01*
X138079333Y-122776306D01*
X138020090Y-122673694D01*
X137936306Y-122589910D01*
X137833694Y-122530667D01*
X137748584Y-122507861D01*
X138529105Y-121727340D01*
X138529104Y-121727338D01*
X138446174Y-121667087D01*
X138235802Y-121559897D01*
X138011247Y-121486934D01*
X138011248Y-121486934D01*
X137778052Y-121450000D01*
X137541948Y-121450000D01*
X137308752Y-121486934D01*
X137084197Y-121559897D01*
X136873830Y-121667084D01*
X136790894Y-121727340D01*
X137571415Y-122507861D01*
X137486306Y-122530667D01*
X137383694Y-122589910D01*
X137299910Y-122673694D01*
X137240667Y-122776306D01*
X137217861Y-122861415D01*
X136437340Y-122080894D01*
X136377084Y-122163830D01*
X136269897Y-122374197D01*
X136196934Y-122598752D01*
X136160000Y-122831947D01*
X136160000Y-123068052D01*
X136196934Y-123301247D01*
X136269897Y-123525802D01*
X136377087Y-123736174D01*
X136437338Y-123819104D01*
X136437340Y-123819105D01*
X137217861Y-123038584D01*
X137240667Y-123123694D01*
X137299910Y-123226306D01*
X137383694Y-123310090D01*
X137486306Y-123369333D01*
X137571415Y-123392138D01*
X136790893Y-124172658D01*
X136873828Y-124232914D01*
X137084197Y-124340102D01*
X137308752Y-124413065D01*
X137308751Y-124413065D01*
X137541948Y-124450000D01*
X137778052Y-124450000D01*
X138011247Y-124413065D01*
X138235802Y-124340102D01*
X138446163Y-124232918D01*
X138446169Y-124232914D01*
X138529104Y-124172658D01*
X138529105Y-124172658D01*
X137748584Y-123392138D01*
X137833694Y-123369333D01*
X137936306Y-123310090D01*
X138020090Y-123226306D01*
X138079333Y-123123694D01*
X138102138Y-123038585D01*
X138882658Y-123819105D01*
X138882658Y-123819104D01*
X138942914Y-123736169D01*
X138942918Y-123736163D01*
X138993005Y-123637863D01*
X139040979Y-123587067D01*
X139108800Y-123570272D01*
X139174935Y-123592809D01*
X139203807Y-123621271D01*
X139284310Y-123732073D01*
X139417927Y-123865690D01*
X139570801Y-123976760D01*
X139623841Y-124003785D01*
X139739163Y-124062545D01*
X139739165Y-124062545D01*
X139739168Y-124062547D01*
X139805492Y-124084097D01*
X139918881Y-124120940D01*
X140105514Y-124150500D01*
X140105519Y-124150500D01*
X140294486Y-124150500D01*
X140481118Y-124120940D01*
X140660832Y-124062547D01*
X140829199Y-123976760D01*
X140982073Y-123865690D01*
X141115690Y-123732073D01*
X141226760Y-123579199D01*
X141312547Y-123410832D01*
X141352069Y-123289195D01*
X141391507Y-123231521D01*
X141455866Y-123204323D01*
X141524712Y-123216238D01*
X141576188Y-123263482D01*
X141587930Y-123289194D01*
X141592596Y-123303554D01*
X141627454Y-123410836D01*
X141686033Y-123525802D01*
X141713240Y-123579199D01*
X141824310Y-123732073D01*
X141957927Y-123865690D01*
X142030063Y-123918100D01*
X142110796Y-123976757D01*
X142110798Y-123976758D01*
X142110801Y-123976760D01*
X142191795Y-124018028D01*
X142242590Y-124066001D01*
X142259500Y-124128512D01*
X142259500Y-127863324D01*
X142239815Y-127930363D01*
X142223181Y-127951005D01*
X135749805Y-134424381D01*
X135688482Y-134457866D01*
X135662124Y-134460700D01*
X126278299Y-134460700D01*
X126216299Y-134444087D01*
X126207987Y-134439288D01*
X126207986Y-134439287D01*
X126207985Y-134439287D01*
X126080692Y-134405179D01*
X126080691Y-134405179D01*
X125948907Y-134405179D01*
X125821613Y-134439287D01*
X125821612Y-134439287D01*
X125821610Y-134439288D01*
X125821609Y-134439288D01*
X125813298Y-134444087D01*
X125751298Y-134460700D01*
X76591075Y-134460700D01*
X76524036Y-134441015D01*
X76503394Y-134424381D01*
X71254915Y-129175902D01*
X65997114Y-123918100D01*
X65134419Y-123055405D01*
X65100934Y-122994082D01*
X65098100Y-122967724D01*
X65098100Y-102377676D01*
X65117785Y-102310637D01*
X65134419Y-102289995D01*
X78763995Y-88660419D01*
X78825318Y-88626934D01*
X78851676Y-88624100D01*
X92709767Y-88624100D01*
X92776806Y-88643785D01*
G37*
G04 #@! TD.AperFunction*
G04 #@! TA.AperFunction,Conductor*
G36*
X148606456Y-117357524D02*
G01*
X148664318Y-117396686D01*
X148691823Y-117460914D01*
X148692700Y-117475636D01*
X148692700Y-129017351D01*
X148673015Y-129084390D01*
X148630701Y-129124738D01*
X148542086Y-129175900D01*
X148542083Y-129175902D01*
X148448902Y-129269083D01*
X148448900Y-129269086D01*
X148383008Y-129383212D01*
X148348900Y-129510508D01*
X148348900Y-129642292D01*
X148352336Y-129655114D01*
X148383008Y-129769587D01*
X148402003Y-129802486D01*
X148448900Y-129883714D01*
X148542086Y-129976900D01*
X148656214Y-130042792D01*
X148783508Y-130076900D01*
X148783510Y-130076900D01*
X148915290Y-130076900D01*
X148915292Y-130076900D01*
X148953004Y-130066795D01*
X149022852Y-130068456D01*
X149080715Y-130107618D01*
X149108220Y-130171846D01*
X149096634Y-130240749D01*
X149072778Y-130274250D01*
X147719848Y-131627181D01*
X147658525Y-131660666D01*
X147632167Y-131663500D01*
X143847076Y-131663500D01*
X143780037Y-131643815D01*
X143759395Y-131627181D01*
X143695716Y-131563502D01*
X143695714Y-131563500D01*
X143638650Y-131530554D01*
X143581587Y-131497608D01*
X143517939Y-131480554D01*
X143454292Y-131463500D01*
X143322508Y-131463500D01*
X143195212Y-131497608D01*
X143081086Y-131563500D01*
X143081083Y-131563502D01*
X142987902Y-131656683D01*
X142987900Y-131656686D01*
X142922008Y-131770812D01*
X142887900Y-131898108D01*
X142887900Y-132029891D01*
X142922008Y-132157187D01*
X142949302Y-132204460D01*
X142987900Y-132271314D01*
X143081086Y-132364500D01*
X143195214Y-132430392D01*
X143322508Y-132464500D01*
X143322510Y-132464500D01*
X143454290Y-132464500D01*
X143454292Y-132464500D01*
X143581586Y-132430392D01*
X143695714Y-132364500D01*
X143759395Y-132300819D01*
X143820718Y-132267334D01*
X143847076Y-132264500D01*
X147847561Y-132264500D01*
X147847562Y-132264500D01*
X147916868Y-132245929D01*
X147986718Y-132247591D01*
X148044581Y-132286752D01*
X148072086Y-132350981D01*
X148060500Y-132419883D01*
X148036644Y-132453384D01*
X146476848Y-134013181D01*
X146415525Y-134046666D01*
X146389167Y-134049500D01*
X138435276Y-134049500D01*
X138368237Y-134029815D01*
X138347595Y-134013181D01*
X138283916Y-133949502D01*
X138283914Y-133949500D01*
X138226850Y-133916554D01*
X138169787Y-133883608D01*
X138106139Y-133866554D01*
X138042492Y-133849500D01*
X138039676Y-133849500D01*
X138037388Y-133848828D01*
X138034432Y-133848439D01*
X138034492Y-133847978D01*
X137972637Y-133829815D01*
X137926882Y-133777011D01*
X137916938Y-133707853D01*
X137945963Y-133644297D01*
X137951995Y-133637819D01*
X143160496Y-128429318D01*
X143160499Y-128429315D01*
X143208983Y-128345340D01*
X143226392Y-128315186D01*
X143237562Y-128273500D01*
X143237563Y-128273498D01*
X143246701Y-128239391D01*
X143260500Y-128187893D01*
X143260500Y-128056108D01*
X143260500Y-124108131D01*
X143280185Y-124041092D01*
X143328204Y-123997647D01*
X143369199Y-123976760D01*
X143522073Y-123865690D01*
X143655690Y-123732073D01*
X143766760Y-123579199D01*
X143852547Y-123410832D01*
X143910940Y-123231118D01*
X143915184Y-123204323D01*
X143940500Y-123044486D01*
X143940500Y-122855513D01*
X143910940Y-122668881D01*
X143883846Y-122585497D01*
X143852547Y-122489168D01*
X143852545Y-122489165D01*
X143852545Y-122489163D01*
X143807290Y-122400347D01*
X143766760Y-122320801D01*
X143655690Y-122167927D01*
X143522073Y-122034310D01*
X143369199Y-121923240D01*
X143369198Y-121923239D01*
X143369196Y-121923238D01*
X143328204Y-121902351D01*
X143277408Y-121854376D01*
X143260500Y-121791867D01*
X143260500Y-118739444D01*
X143280185Y-118672405D01*
X143315608Y-118636342D01*
X143373558Y-118597622D01*
X143507622Y-118463558D01*
X143612956Y-118305915D01*
X143685512Y-118130751D01*
X143722500Y-117944798D01*
X143722500Y-117755202D01*
X143685512Y-117569249D01*
X143679394Y-117554480D01*
X143676857Y-117548354D01*
X143673349Y-117515735D01*
X143668679Y-117483253D01*
X143669632Y-117481165D01*
X143669387Y-117478885D01*
X143684072Y-117449546D01*
X143697704Y-117419697D01*
X143699634Y-117418456D01*
X143700661Y-117416405D01*
X143728884Y-117399658D01*
X143756482Y-117381923D01*
X143759508Y-117381487D01*
X143760749Y-117380752D01*
X143791417Y-117376900D01*
X143956103Y-117376900D01*
X144023142Y-117396585D01*
X144068897Y-117449389D01*
X144078841Y-117518547D01*
X144074034Y-117539218D01*
X144069074Y-117554480D01*
X144038000Y-117750678D01*
X144038000Y-117949321D01*
X144069075Y-118145520D01*
X144069075Y-118145523D01*
X144130457Y-118334437D01*
X144220641Y-118511432D01*
X144247730Y-118548715D01*
X144919000Y-117877445D01*
X144919000Y-117900160D01*
X144944964Y-117997061D01*
X144995124Y-118083940D01*
X145066060Y-118154876D01*
X145152939Y-118205036D01*
X145249840Y-118231000D01*
X145272553Y-118231000D01*
X144601283Y-118902268D01*
X144601283Y-118902269D01*
X144638567Y-118929358D01*
X144815562Y-119019542D01*
X145004477Y-119080924D01*
X145200679Y-119112000D01*
X145399321Y-119112000D01*
X145595520Y-119080924D01*
X145595523Y-119080924D01*
X145784437Y-119019542D01*
X145961425Y-118929362D01*
X145998716Y-118902268D01*
X145327448Y-118231000D01*
X145350160Y-118231000D01*
X145447061Y-118205036D01*
X145533940Y-118154876D01*
X145604876Y-118083940D01*
X145655036Y-117997061D01*
X145681000Y-117900160D01*
X145681000Y-117877447D01*
X146352268Y-118548715D01*
X146379362Y-118511425D01*
X146469542Y-118334437D01*
X146530924Y-118145523D01*
X146530924Y-118145520D01*
X146562000Y-117949321D01*
X146562000Y-117750678D01*
X146530925Y-117554480D01*
X146525966Y-117539218D01*
X146523971Y-117469377D01*
X146560051Y-117409544D01*
X146622752Y-117378716D01*
X146643897Y-117376900D01*
X148458089Y-117376900D01*
X148458092Y-117376900D01*
X148536610Y-117355861D01*
X148606456Y-117357524D01*
G37*
G04 #@! TD.AperFunction*
G04 #@! TA.AperFunction,Conductor*
G36*
X131635622Y-117396585D02*
G01*
X131681377Y-117449389D01*
X131691321Y-117518547D01*
X131683143Y-117548354D01*
X131674489Y-117569243D01*
X131674486Y-117569256D01*
X131637500Y-117755197D01*
X131637500Y-117944802D01*
X131674486Y-118130743D01*
X131674488Y-118130751D01*
X131707156Y-118209617D01*
X131714625Y-118279086D01*
X131683350Y-118341565D01*
X131680276Y-118344751D01*
X123249248Y-126775781D01*
X123187925Y-126809266D01*
X123161567Y-126812100D01*
X121822232Y-126812100D01*
X121755193Y-126792415D01*
X121709438Y-126739611D01*
X121699494Y-126670453D01*
X121728519Y-126606897D01*
X121734551Y-126600419D01*
X125647531Y-122687439D01*
X129565248Y-118769721D01*
X129626569Y-118736238D01*
X129696261Y-118741222D01*
X129700380Y-118742843D01*
X129779249Y-118775512D01*
X129965197Y-118812499D01*
X129965201Y-118812500D01*
X129965202Y-118812500D01*
X130154799Y-118812500D01*
X130154800Y-118812499D01*
X130340751Y-118775512D01*
X130515915Y-118702956D01*
X130673558Y-118597622D01*
X130807622Y-118463558D01*
X130912956Y-118305915D01*
X130985512Y-118130751D01*
X131022500Y-117944798D01*
X131022500Y-117755202D01*
X130985512Y-117569249D01*
X130979394Y-117554480D01*
X130976857Y-117548354D01*
X130969387Y-117478885D01*
X131000661Y-117416405D01*
X131060749Y-117380752D01*
X131091417Y-117376900D01*
X131568583Y-117376900D01*
X131635622Y-117396585D01*
G37*
G04 #@! TD.AperFunction*
G04 #@! TA.AperFunction,Conductor*
G36*
X129095622Y-117396585D02*
G01*
X129141377Y-117449389D01*
X129151321Y-117518547D01*
X129143143Y-117548354D01*
X129134489Y-117569243D01*
X129134486Y-117569256D01*
X129097500Y-117755197D01*
X129097500Y-117944802D01*
X129134486Y-118130743D01*
X129134488Y-118130751D01*
X129167156Y-118209617D01*
X129174625Y-118279086D01*
X129143350Y-118341565D01*
X129140276Y-118344751D01*
X121344248Y-126140781D01*
X121282925Y-126174266D01*
X121256567Y-126177100D01*
X119916138Y-126177100D01*
X119849099Y-126157415D01*
X119803344Y-126104611D01*
X119793400Y-126035453D01*
X119822425Y-125971897D01*
X119833657Y-125961313D01*
X119838908Y-125956061D01*
X119838911Y-125956060D01*
X119894860Y-125900111D01*
X127025248Y-118769721D01*
X127086569Y-118736238D01*
X127156261Y-118741222D01*
X127160380Y-118742843D01*
X127239249Y-118775512D01*
X127425197Y-118812499D01*
X127425201Y-118812500D01*
X127425202Y-118812500D01*
X127614799Y-118812500D01*
X127614800Y-118812499D01*
X127800751Y-118775512D01*
X127975915Y-118702956D01*
X128133558Y-118597622D01*
X128267622Y-118463558D01*
X128372956Y-118305915D01*
X128445512Y-118130751D01*
X128482500Y-117944798D01*
X128482500Y-117755202D01*
X128445512Y-117569249D01*
X128439394Y-117554480D01*
X128436857Y-117548354D01*
X128429387Y-117478885D01*
X128460661Y-117416405D01*
X128520749Y-117380752D01*
X128551417Y-117376900D01*
X129028583Y-117376900D01*
X129095622Y-117396585D01*
G37*
G04 #@! TD.AperFunction*
G04 #@! TA.AperFunction,Conductor*
G36*
X113855622Y-117396585D02*
G01*
X113901377Y-117449389D01*
X113911321Y-117518547D01*
X113903143Y-117548354D01*
X113894489Y-117569243D01*
X113894486Y-117569256D01*
X113857500Y-117755197D01*
X113857500Y-117944802D01*
X113894486Y-118130743D01*
X113894488Y-118130751D01*
X113967042Y-118305912D01*
X114072377Y-118463558D01*
X114206441Y-118597622D01*
X114274594Y-118643160D01*
X114364085Y-118702956D01*
X114539249Y-118775512D01*
X114725197Y-118812499D01*
X114725201Y-118812500D01*
X114725202Y-118812500D01*
X114914799Y-118812500D01*
X114914800Y-118812499D01*
X115100751Y-118775512D01*
X115275915Y-118702956D01*
X115433558Y-118597622D01*
X115567622Y-118463558D01*
X115672956Y-118305915D01*
X115745512Y-118130751D01*
X115782500Y-117944798D01*
X115782500Y-117755202D01*
X115745512Y-117569249D01*
X115739394Y-117554480D01*
X115736857Y-117548354D01*
X115729387Y-117478885D01*
X115760661Y-117416405D01*
X115820749Y-117380752D01*
X115851417Y-117376900D01*
X116328583Y-117376900D01*
X116395622Y-117396585D01*
X116441377Y-117449389D01*
X116451321Y-117518547D01*
X116443143Y-117548354D01*
X116434489Y-117569243D01*
X116434486Y-117569256D01*
X116397500Y-117755197D01*
X116397500Y-117944802D01*
X116434486Y-118130743D01*
X116434488Y-118130751D01*
X116507042Y-118305912D01*
X116612377Y-118463558D01*
X116746441Y-118597622D01*
X116814594Y-118643160D01*
X116904085Y-118702956D01*
X117079249Y-118775512D01*
X117265197Y-118812499D01*
X117265201Y-118812500D01*
X117265202Y-118812500D01*
X117454799Y-118812500D01*
X117454800Y-118812499D01*
X117640751Y-118775512D01*
X117815915Y-118702956D01*
X117973558Y-118597622D01*
X118107622Y-118463558D01*
X118212956Y-118305915D01*
X118285512Y-118130751D01*
X118322500Y-117944798D01*
X118322500Y-117755202D01*
X118285512Y-117569249D01*
X118279394Y-117554480D01*
X118276857Y-117548354D01*
X118269387Y-117478885D01*
X118300661Y-117416405D01*
X118360749Y-117380752D01*
X118391417Y-117376900D01*
X118868583Y-117376900D01*
X118935622Y-117396585D01*
X118981377Y-117449389D01*
X118991321Y-117518547D01*
X118983143Y-117548354D01*
X118974489Y-117569243D01*
X118974486Y-117569256D01*
X118937500Y-117755197D01*
X118937500Y-117944802D01*
X118974486Y-118130743D01*
X118974488Y-118130751D01*
X119047042Y-118305912D01*
X119152377Y-118463558D01*
X119286441Y-118597622D01*
X119354594Y-118643160D01*
X119444085Y-118702956D01*
X119619249Y-118775512D01*
X119805197Y-118812499D01*
X119805201Y-118812500D01*
X119805202Y-118812500D01*
X119994799Y-118812500D01*
X119994800Y-118812499D01*
X120180751Y-118775512D01*
X120355915Y-118702956D01*
X120513558Y-118597622D01*
X120647622Y-118463558D01*
X120752956Y-118305915D01*
X120825512Y-118130751D01*
X120862500Y-117944798D01*
X120862500Y-117755202D01*
X120825512Y-117569249D01*
X120819394Y-117554480D01*
X120816857Y-117548354D01*
X120809387Y-117478885D01*
X120840661Y-117416405D01*
X120900749Y-117380752D01*
X120931417Y-117376900D01*
X121408583Y-117376900D01*
X121475622Y-117396585D01*
X121521377Y-117449389D01*
X121531321Y-117518547D01*
X121523143Y-117548354D01*
X121514489Y-117569243D01*
X121514486Y-117569256D01*
X121477500Y-117755197D01*
X121477500Y-117944802D01*
X121514486Y-118130743D01*
X121514488Y-118130751D01*
X121587042Y-118305912D01*
X121692377Y-118463558D01*
X121826441Y-118597622D01*
X121894594Y-118643160D01*
X121984085Y-118702956D01*
X122159249Y-118775512D01*
X122345197Y-118812499D01*
X122345201Y-118812500D01*
X122345202Y-118812500D01*
X122534799Y-118812500D01*
X122534800Y-118812499D01*
X122720751Y-118775512D01*
X122895915Y-118702956D01*
X123053558Y-118597622D01*
X123187622Y-118463558D01*
X123292956Y-118305915D01*
X123365512Y-118130751D01*
X123402500Y-117944798D01*
X123402500Y-117755202D01*
X123365512Y-117569249D01*
X123359394Y-117554480D01*
X123356857Y-117548354D01*
X123349387Y-117478885D01*
X123380661Y-117416405D01*
X123440749Y-117380752D01*
X123471417Y-117376900D01*
X123948583Y-117376900D01*
X124015622Y-117396585D01*
X124061377Y-117449389D01*
X124071321Y-117518547D01*
X124063143Y-117548354D01*
X124054489Y-117569243D01*
X124054486Y-117569256D01*
X124017500Y-117755197D01*
X124017500Y-117944802D01*
X124054486Y-118130743D01*
X124054488Y-118130751D01*
X124127042Y-118305912D01*
X124232377Y-118463558D01*
X124366441Y-118597622D01*
X124434594Y-118643160D01*
X124524085Y-118702956D01*
X124699249Y-118775512D01*
X124885197Y-118812499D01*
X124885201Y-118812500D01*
X124885202Y-118812500D01*
X125074799Y-118812500D01*
X125074800Y-118812499D01*
X125260751Y-118775512D01*
X125435915Y-118702956D01*
X125593558Y-118597622D01*
X125727622Y-118463558D01*
X125832956Y-118305915D01*
X125905512Y-118130751D01*
X125942500Y-117944798D01*
X125942500Y-117755202D01*
X125905512Y-117569249D01*
X125899394Y-117554480D01*
X125896857Y-117548354D01*
X125889387Y-117478885D01*
X125920661Y-117416405D01*
X125980749Y-117380752D01*
X126011417Y-117376900D01*
X126488583Y-117376900D01*
X126555622Y-117396585D01*
X126601377Y-117449389D01*
X126611321Y-117518547D01*
X126603143Y-117548354D01*
X126594489Y-117569243D01*
X126594486Y-117569256D01*
X126557500Y-117755197D01*
X126557500Y-117944802D01*
X126594486Y-118130743D01*
X126594488Y-118130751D01*
X126627156Y-118209617D01*
X126634625Y-118279086D01*
X126603350Y-118341565D01*
X126600276Y-118344751D01*
X121215181Y-123729847D01*
X121153858Y-123763332D01*
X121084166Y-123758348D01*
X121028233Y-123716476D01*
X121003816Y-123651012D01*
X121003500Y-123642166D01*
X121003500Y-123617710D01*
X121003500Y-123617708D01*
X120969392Y-123490414D01*
X120903500Y-123376286D01*
X120810314Y-123283100D01*
X120750867Y-123248778D01*
X120696187Y-123217208D01*
X120632539Y-123200154D01*
X120568892Y-123183100D01*
X120437108Y-123183100D01*
X120309814Y-123217208D01*
X120309813Y-123217208D01*
X120309811Y-123217209D01*
X120309810Y-123217209D01*
X120195661Y-123283114D01*
X120127761Y-123299587D01*
X120061734Y-123276735D01*
X120018543Y-123221813D01*
X120011902Y-123152260D01*
X120026273Y-123113728D01*
X120054992Y-123063986D01*
X120089100Y-122936692D01*
X120089100Y-122804908D01*
X120054992Y-122677614D01*
X119989100Y-122563486D01*
X119895914Y-122470300D01*
X119838850Y-122437354D01*
X119781787Y-122404408D01*
X119718139Y-122387354D01*
X119654492Y-122370300D01*
X119564433Y-122370300D01*
X119497394Y-122350615D01*
X119476752Y-122333981D01*
X117817312Y-120674541D01*
X117817304Y-120674535D01*
X117748795Y-120634982D01*
X117748790Y-120634979D01*
X117723313Y-120628152D01*
X117672362Y-120614500D01*
X117672360Y-120614500D01*
X115520833Y-120614500D01*
X115453794Y-120594815D01*
X115433152Y-120578181D01*
X113199723Y-118344752D01*
X113166238Y-118283429D01*
X113171222Y-118213737D01*
X113172825Y-118209661D01*
X113205512Y-118130751D01*
X113242500Y-117944798D01*
X113242500Y-117755202D01*
X113205512Y-117569249D01*
X113199394Y-117554480D01*
X113196857Y-117548354D01*
X113189387Y-117478885D01*
X113220661Y-117416405D01*
X113280749Y-117380752D01*
X113311417Y-117376900D01*
X113788583Y-117376900D01*
X113855622Y-117396585D01*
G37*
G04 #@! TD.AperFunction*
M02*
