G04 #@! TF.GenerationSoftware,KiCad,Pcbnew,9.0.2*
G04 #@! TF.CreationDate,2025-06-08T15:26:52+09:00*
G04 #@! TF.ProjectId,vdp_cartridge,7664705f-6361-4727-9472-696467652e6b,rev?*
G04 #@! TF.SameCoordinates,Original*
G04 #@! TF.FileFunction,Legend,Bot*
G04 #@! TF.FilePolarity,Positive*
%FSLAX46Y46*%
G04 Gerber Fmt 4.6, Leading zero omitted, Abs format (unit mm)*
G04 Created by KiCad (PCBNEW 9.0.2) date 2025-06-08 15:26:52*
%MOMM*%
%LPD*%
G01*
G04 APERTURE LIST*
%ADD10C,0.150000*%
%ADD11C,0.300000*%
%ADD12C,0.000000*%
G04 APERTURE END LIST*
D10*
G36*
X117372535Y-121201116D02*
G01*
X117449665Y-121255054D01*
X117501946Y-121333683D01*
X117519274Y-121425230D01*
X117515061Y-121925134D01*
X117522564Y-121950075D01*
X117543821Y-121957924D01*
X118416867Y-121957924D01*
X118511522Y-121975538D01*
X118589058Y-122027716D01*
X118641087Y-122105086D01*
X118658667Y-122199724D01*
X118658667Y-122265303D01*
X118641339Y-122356851D01*
X118589058Y-122435480D01*
X118511363Y-122489231D01*
X118416867Y-122507287D01*
X117531547Y-122507287D01*
X117509329Y-122515132D01*
X117498758Y-122540077D01*
X117448118Y-123439545D01*
X117373955Y-124080880D01*
X117285717Y-124519726D01*
X117195747Y-124785200D01*
X117094708Y-124965463D01*
X116985627Y-125081253D01*
X116867746Y-125147433D01*
X116736354Y-125171305D01*
X116732324Y-125171305D01*
X116647345Y-125157720D01*
X116560931Y-125114883D01*
X116470007Y-125036116D01*
X116396528Y-124934583D01*
X116323328Y-124774525D01*
X116252753Y-124536029D01*
X116240480Y-124458177D01*
X116247564Y-124393870D01*
X116269056Y-124331048D01*
X116321922Y-124236385D01*
X116400214Y-124154827D01*
X116457550Y-124105734D01*
X116510321Y-124077586D01*
X116570391Y-124083203D01*
X116619197Y-124116660D01*
X116637985Y-124171313D01*
X116663892Y-124338625D01*
X116687799Y-124400113D01*
X116707594Y-124413114D01*
X116743534Y-124383398D01*
X116791787Y-124248591D01*
X116851209Y-123884450D01*
X116900023Y-123324746D01*
X116933091Y-122535863D01*
X116925916Y-122514446D01*
X116904332Y-122507287D01*
X116576436Y-122507287D01*
X116481971Y-122489225D01*
X116404428Y-122435480D01*
X116352004Y-122356837D01*
X116334635Y-122265303D01*
X116334635Y-122199724D01*
X116352255Y-122105100D01*
X116404428Y-122027716D01*
X116481812Y-121975544D01*
X116576436Y-121957924D01*
X116621498Y-121957924D01*
X116629742Y-121951879D01*
X116625712Y-121941621D01*
X116601739Y-121929347D01*
X116699534Y-121929347D01*
X116701549Y-121947666D01*
X116715837Y-121957924D01*
X116916605Y-121957924D01*
X116937862Y-121950075D01*
X116945364Y-121925134D01*
X116945364Y-121531659D01*
X116939319Y-121521584D01*
X116929061Y-121523599D01*
X116790546Y-121749203D01*
X116699534Y-121929347D01*
X116601739Y-121929347D01*
X116457550Y-121855525D01*
X116382791Y-121793950D01*
X116338848Y-121707880D01*
X116326392Y-121638271D01*
X116334412Y-121582544D01*
X116359182Y-121527629D01*
X116424761Y-121429260D01*
X116493946Y-121358932D01*
X116588709Y-121318618D01*
X116654288Y-121310375D01*
X116721999Y-121318578D01*
X116785446Y-121343164D01*
X116924848Y-121412774D01*
X116937304Y-121410942D01*
X116945364Y-121392440D01*
X116960519Y-121316050D01*
X117006914Y-121248826D01*
X117074867Y-121199462D01*
X117154375Y-121183246D01*
X117281504Y-121183246D01*
X117372535Y-121201116D01*
G37*
G36*
X119942006Y-123672497D02*
G01*
X120019527Y-123724532D01*
X120071548Y-123801927D01*
X120089136Y-123896723D01*
X120089136Y-124868138D01*
X120071802Y-124959655D01*
X120019527Y-125038131D01*
X119941832Y-125091883D01*
X119847336Y-125109939D01*
X119728451Y-125109939D01*
X119678954Y-125100265D01*
X119636310Y-125070921D01*
X119607158Y-125027688D01*
X119597292Y-124974567D01*
X119592542Y-124962653D01*
X119576776Y-124958264D01*
X119060385Y-124958264D01*
X118969007Y-124940459D01*
X118890209Y-124886457D01*
X118836212Y-124807811D01*
X118818402Y-124716463D01*
X118818402Y-124159040D01*
X119322702Y-124159040D01*
X119322702Y-124454147D01*
X119329846Y-124475579D01*
X119351279Y-124482723D01*
X119564503Y-124482723D01*
X119589461Y-124475253D01*
X119597292Y-124454147D01*
X119597292Y-124159040D01*
X119589095Y-124134448D01*
X119564503Y-124126251D01*
X119351279Y-124126251D01*
X119330172Y-124134082D01*
X119322702Y-124159040D01*
X118818402Y-124159040D01*
X118818402Y-123896723D01*
X118836472Y-123802102D01*
X118890209Y-123724532D01*
X118968838Y-123672251D01*
X119060385Y-123654923D01*
X119847336Y-123654923D01*
X119942006Y-123672497D01*
G37*
G36*
X118535909Y-122914605D02*
G01*
X118613604Y-122968356D01*
X118665879Y-123046833D01*
X118683213Y-123138349D01*
X118683213Y-123171139D01*
X118665626Y-123265935D01*
X118613604Y-123343330D01*
X118536083Y-123395366D01*
X118441413Y-123412939D01*
X118412653Y-123412939D01*
X118391547Y-123420771D01*
X118384077Y-123445729D01*
X118384077Y-124314745D01*
X118391547Y-124339703D01*
X118412653Y-124347535D01*
X118523295Y-124363838D01*
X118611359Y-124393595D01*
X118679183Y-124458177D01*
X118709843Y-124518696D01*
X118720033Y-124585305D01*
X118716003Y-124634398D01*
X118695487Y-124712250D01*
X118659601Y-124800448D01*
X118593088Y-124868138D01*
X118528465Y-124898777D01*
X118457716Y-124908988D01*
X118408623Y-124904958D01*
X117650433Y-124753283D01*
X117557854Y-124714161D01*
X117486484Y-124646671D01*
X117443222Y-124568512D01*
X117428965Y-124482723D01*
X117433178Y-124462207D01*
X117433178Y-124445903D01*
X117457820Y-124356466D01*
X117515061Y-124285985D01*
X117580229Y-124248967D01*
X117650433Y-124236893D01*
X117691282Y-124240923D01*
X117789651Y-124257409D01*
X117811245Y-124253221D01*
X117818411Y-124232679D01*
X117818411Y-123445729D01*
X117810908Y-123420788D01*
X117789651Y-123412939D01*
X117695012Y-123395360D01*
X117617643Y-123343330D01*
X117565479Y-123265921D01*
X117547851Y-123171139D01*
X117547851Y-123138349D01*
X117565225Y-123046847D01*
X117617643Y-122968356D01*
X117695187Y-122914611D01*
X117789651Y-122896549D01*
X118441413Y-122896549D01*
X118535909Y-122914605D01*
G37*
G36*
X119938518Y-123077443D02*
G01*
X120011284Y-123128274D01*
X120060560Y-123202230D01*
X120076863Y-123288009D01*
X120060566Y-123373820D01*
X120011284Y-123447927D01*
X119938532Y-123498615D01*
X119851366Y-123515521D01*
X119035656Y-123515521D01*
X118948647Y-123498624D01*
X118875921Y-123447927D01*
X118826639Y-123373820D01*
X118810342Y-123288009D01*
X118826644Y-123202230D01*
X118875921Y-123128274D01*
X118948661Y-123077434D01*
X119035656Y-123060497D01*
X119851366Y-123060497D01*
X119938518Y-123077443D01*
G37*
G36*
X119938691Y-122499024D02*
G01*
X120011284Y-122548137D01*
X120060396Y-122620730D01*
X120076863Y-122708055D01*
X120060396Y-122795379D01*
X120011284Y-122867973D01*
X119938691Y-122917085D01*
X119851366Y-122933552D01*
X119035656Y-122933552D01*
X118948489Y-122917093D01*
X118875921Y-122867973D01*
X118826809Y-122795379D01*
X118810342Y-122708055D01*
X118826809Y-122620730D01*
X118875921Y-122548137D01*
X118948489Y-122499016D01*
X119035656Y-122482557D01*
X119851366Y-122482557D01*
X119938691Y-122499024D01*
G37*
G36*
X120126638Y-121897575D02*
G01*
X120201793Y-121949864D01*
X120252429Y-122026515D01*
X120269387Y-122117842D01*
X120252435Y-122209200D01*
X120201793Y-122286003D01*
X120126653Y-122338148D01*
X120035830Y-122355612D01*
X118953773Y-122355612D01*
X118862951Y-122338148D01*
X118787810Y-122286003D01*
X118737026Y-122209186D01*
X118720033Y-122117842D01*
X118737031Y-122026529D01*
X118787810Y-121949864D01*
X118862965Y-121897575D01*
X118953773Y-121880071D01*
X120035830Y-121880071D01*
X120126638Y-121897575D01*
G37*
G36*
X119926102Y-121323242D02*
G01*
X119998827Y-121373939D01*
X120048096Y-121447920D01*
X120064407Y-121533857D01*
X120048104Y-121619636D01*
X119998827Y-121693592D01*
X119926102Y-121744289D01*
X119839093Y-121761186D01*
X119060385Y-121761186D01*
X118976335Y-121744535D01*
X118902482Y-121693592D01*
X118851627Y-121619482D01*
X118834888Y-121533857D01*
X118851635Y-121448075D01*
X118902482Y-121373939D01*
X118976335Y-121322996D01*
X119060385Y-121306345D01*
X119839093Y-121306345D01*
X119926102Y-121323242D01*
G37*
G36*
X115286650Y-121429260D02*
G01*
X115236321Y-121347190D01*
X115159522Y-121289858D01*
X115104845Y-121268333D01*
X115048880Y-121261282D01*
X114971027Y-121277585D01*
X114839869Y-121318618D01*
X114758912Y-121362579D01*
X114704497Y-121437503D01*
X114686021Y-121483830D01*
X114679951Y-121531659D01*
X114700467Y-121613724D01*
X114834688Y-121917925D01*
X114983301Y-122216211D01*
X114995574Y-122273547D01*
X114995574Y-124925474D01*
X115013636Y-125019939D01*
X115067381Y-125097482D01*
X115145872Y-125149901D01*
X115237374Y-125167275D01*
X115372563Y-125167275D01*
X115464096Y-125149906D01*
X115542739Y-125097482D01*
X115596484Y-125019939D01*
X115614546Y-124925474D01*
X115614546Y-123216202D01*
X115620774Y-123206127D01*
X115630849Y-123212172D01*
X115680601Y-123249389D01*
X115737461Y-123261448D01*
X115766038Y-123257235D01*
X115835644Y-123228677D01*
X115880893Y-123167109D01*
X115995565Y-122933552D01*
X116026291Y-122856849D01*
X116036598Y-122773634D01*
X116032568Y-122732601D01*
X116009209Y-122635822D01*
X115954715Y-122548137D01*
X115706127Y-122218767D01*
X115483281Y-121847161D01*
X115286650Y-121429260D01*
G37*
G36*
X112073269Y-122199724D02*
G01*
X112090598Y-122291272D01*
X112142878Y-122369900D01*
X112220448Y-122423638D01*
X112315070Y-122441708D01*
X113179872Y-122441708D01*
X113201305Y-122448852D01*
X113208449Y-122470284D01*
X113208449Y-122757147D01*
X113200979Y-122782105D01*
X113179872Y-122789937D01*
X112425712Y-122789937D01*
X112334209Y-122807311D01*
X112255719Y-122859729D01*
X112201981Y-122937299D01*
X112183911Y-123031921D01*
X112183911Y-123101530D01*
X112201716Y-123192909D01*
X112255719Y-123271706D01*
X112334350Y-123325559D01*
X112425712Y-123343330D01*
X113179872Y-123343330D01*
X113201290Y-123350505D01*
X113208449Y-123372090D01*
X113208449Y-123687713D01*
X113200979Y-123712671D01*
X113179872Y-123720502D01*
X112372406Y-123720502D01*
X112277941Y-123738564D01*
X112200398Y-123792310D01*
X112147979Y-123870800D01*
X112130605Y-123962303D01*
X112130605Y-124044185D01*
X112148233Y-124138967D01*
X112200398Y-124216376D01*
X112277767Y-124268406D01*
X112372406Y-124285985D01*
X113179872Y-124285985D01*
X113200979Y-124293817D01*
X113208449Y-124318775D01*
X113208449Y-124929504D01*
X113226519Y-125024126D01*
X113280256Y-125101696D01*
X113358885Y-125153976D01*
X113450433Y-125171305D01*
X113597894Y-125171305D01*
X113689442Y-125153976D01*
X113768070Y-125101696D01*
X113821664Y-125024141D01*
X113839695Y-124929504D01*
X113839695Y-122470284D01*
X113846869Y-122448867D01*
X113868454Y-122441708D01*
X113888971Y-122441708D01*
X113914420Y-122447788D01*
X113934033Y-122466254D01*
X114120090Y-122776868D01*
X114298749Y-123031921D01*
X114366157Y-123091219D01*
X114454454Y-123113803D01*
X114462697Y-123113803D01*
X114546398Y-123097529D01*
X114618402Y-123048224D01*
X114729227Y-122945825D01*
X114787328Y-122866486D01*
X114807079Y-122765391D01*
X114793690Y-122684246D01*
X114753773Y-122613716D01*
X114572953Y-122368876D01*
X114405813Y-122094971D01*
X114252700Y-121789530D01*
X114114285Y-121449776D01*
X114063958Y-121363472D01*
X113987339Y-121302132D01*
X113928527Y-121280620D01*
X113868454Y-121273555D01*
X113802875Y-121281615D01*
X113679960Y-121310375D01*
X113597807Y-121353578D01*
X113540558Y-121425230D01*
X113521986Y-121475023D01*
X113516012Y-121523599D01*
X113528285Y-121601451D01*
X113622441Y-121835009D01*
X113624639Y-121851495D01*
X113606137Y-121859555D01*
X112315070Y-121859555D01*
X112220448Y-121877625D01*
X112142878Y-121931362D01*
X112090603Y-122009839D01*
X112073269Y-122101355D01*
X112073269Y-122199724D01*
G37*
G36*
X109586729Y-121652297D02*
G01*
X109664424Y-121706048D01*
X109716699Y-121784525D01*
X109734033Y-121876041D01*
X109734033Y-124531999D01*
X109716705Y-124623547D01*
X109664424Y-124702175D01*
X109586743Y-124755784D01*
X109492233Y-124773800D01*
X109221673Y-124773800D01*
X109127194Y-124755778D01*
X109049665Y-124702175D01*
X108997241Y-124623533D01*
X108979872Y-124531999D01*
X108979872Y-123765565D01*
X108971675Y-123740973D01*
X108947083Y-123732775D01*
X108860987Y-123732775D01*
X108627795Y-123714276D01*
X108426881Y-123661581D01*
X108252629Y-123576997D01*
X108100781Y-123460200D01*
X107979620Y-123315571D01*
X107889860Y-123137568D01*
X107832408Y-122919073D01*
X107811720Y-122650719D01*
X108549394Y-122650719D01*
X108567687Y-122847547D01*
X108614973Y-122980610D01*
X108684698Y-123067727D01*
X108777709Y-123119742D01*
X108902020Y-123138349D01*
X108947083Y-123138349D01*
X108971675Y-123130152D01*
X108979872Y-123105560D01*
X108979872Y-122261273D01*
X108971675Y-122236681D01*
X108947083Y-122228484D01*
X108902020Y-122228484D01*
X108780117Y-122240947D01*
X108692929Y-122274104D01*
X108631460Y-122324838D01*
X108589666Y-122394495D01*
X108560658Y-122498927D01*
X108549394Y-122650719D01*
X107811720Y-122650719D01*
X107830488Y-122397007D01*
X107882424Y-122191490D01*
X107963122Y-122025152D01*
X108071310Y-121891016D01*
X108208963Y-121784676D01*
X108381086Y-121704745D01*
X108595237Y-121653005D01*
X108860987Y-121634241D01*
X109492233Y-121634241D01*
X109586729Y-121652297D01*
G37*
G36*
X107504623Y-121652311D02*
G01*
X107582193Y-121706048D01*
X107634468Y-121784525D01*
X107651802Y-121876041D01*
X107651802Y-124531999D01*
X107634474Y-124623547D01*
X107582193Y-124702175D01*
X107504638Y-124755769D01*
X107410002Y-124773800D01*
X107139442Y-124773800D01*
X107048080Y-124756028D01*
X106969449Y-124702175D01*
X106915446Y-124623378D01*
X106897641Y-124531999D01*
X106897641Y-123704016D01*
X106889793Y-123682759D01*
X106864852Y-123675256D01*
X106840305Y-123675256D01*
X106813374Y-123682643D01*
X106799272Y-123704016D01*
X106541169Y-124544272D01*
X106495018Y-124637011D01*
X106422284Y-124710235D01*
X106331013Y-124757924D01*
X106229576Y-124773800D01*
X105922196Y-124773800D01*
X105844822Y-124755620D01*
X105782795Y-124699977D01*
X105761062Y-124653956D01*
X105754218Y-124609851D01*
X105762278Y-124548302D01*
X106139450Y-123531825D01*
X106142544Y-123505366D01*
X106127177Y-123482732D01*
X106003039Y-123365568D01*
X105905334Y-123225560D01*
X105832929Y-123059209D01*
X105786913Y-122861456D01*
X105770521Y-122625989D01*
X106504166Y-122625989D01*
X106514749Y-122769077D01*
X106543232Y-122877992D01*
X106586232Y-122960113D01*
X106648088Y-123025714D01*
X106720599Y-123063877D01*
X106807516Y-123076983D01*
X106864852Y-123076983D01*
X106889793Y-123069481D01*
X106897641Y-123048224D01*
X106897641Y-122261273D01*
X106889444Y-122236681D01*
X106864852Y-122228484D01*
X106807516Y-122228484D01*
X106699253Y-122244077D01*
X106618983Y-122287336D01*
X106559495Y-122358962D01*
X106519538Y-122467169D01*
X106504166Y-122625989D01*
X105770521Y-122625989D01*
X105790748Y-122362597D01*
X105846359Y-122152646D01*
X105906094Y-122026268D01*
X105977875Y-121924272D01*
X106061598Y-121843252D01*
X106208457Y-121747834D01*
X106368978Y-121683517D01*
X106543462Y-121647190D01*
X106750180Y-121634241D01*
X107410002Y-121634241D01*
X107504623Y-121652311D01*
G37*
G36*
X104805534Y-121601185D02*
G01*
X104959615Y-121648118D01*
X105097428Y-121725183D01*
X105221785Y-121834486D01*
X105333998Y-121980638D01*
X105434299Y-122178755D01*
X105513489Y-122436552D01*
X105566482Y-122767641D01*
X105586057Y-123187625D01*
X105566502Y-123608915D01*
X105513344Y-123944118D01*
X105433531Y-124207904D01*
X105331983Y-124413114D01*
X105218199Y-124565648D01*
X105093133Y-124678995D01*
X104955622Y-124758409D01*
X104802956Y-124806511D01*
X104631129Y-124823075D01*
X104459301Y-124806511D01*
X104306636Y-124758409D01*
X104169124Y-124678995D01*
X104044058Y-124565648D01*
X103930274Y-124413114D01*
X103828726Y-124207904D01*
X103748914Y-123944118D01*
X103695756Y-123608915D01*
X103676200Y-123187625D01*
X104438421Y-123187625D01*
X104448679Y-123622133D01*
X104475424Y-123908997D01*
X104516457Y-124077158D01*
X104543863Y-124131910D01*
X104567748Y-124159040D01*
X104631129Y-124179557D01*
X104694693Y-124159040D01*
X104718470Y-124131936D01*
X104745984Y-124077158D01*
X104787017Y-123908997D01*
X104813578Y-123622133D01*
X104823836Y-123187625D01*
X104813578Y-122755316D01*
X104787017Y-122476512D01*
X104743969Y-122318793D01*
X104715160Y-122267914D01*
X104692678Y-122244970D01*
X104631129Y-122228484D01*
X104569763Y-122244970D01*
X104547171Y-122267941D01*
X104518472Y-122318793D01*
X104495695Y-122381997D01*
X104475424Y-122476512D01*
X104448679Y-122755316D01*
X104438421Y-123187625D01*
X103676200Y-123187625D01*
X103695775Y-122767641D01*
X103748769Y-122436552D01*
X103827958Y-122178755D01*
X103928259Y-121980638D01*
X104040472Y-121834486D01*
X104164829Y-121725183D01*
X104302643Y-121648118D01*
X104456723Y-121601185D01*
X104631129Y-121584965D01*
X104805534Y-121601185D01*
G37*
G36*
X102667782Y-124773800D02*
G01*
X102762419Y-124755769D01*
X102839974Y-124702175D01*
X102892254Y-124623547D01*
X102909583Y-124531999D01*
X102909583Y-122294063D01*
X102917431Y-122272806D01*
X102942372Y-122265303D01*
X103274482Y-122265303D01*
X103365875Y-122247538D01*
X103444658Y-122193679D01*
X103498517Y-122114896D01*
X103516282Y-122023503D01*
X103516282Y-121876041D01*
X103498511Y-121784680D01*
X103444658Y-121706048D01*
X103365861Y-121652046D01*
X103274482Y-121634241D01*
X101790706Y-121634241D01*
X101699359Y-121652051D01*
X101620713Y-121706048D01*
X101566717Y-121784694D01*
X101548906Y-121876041D01*
X101548906Y-122023503D01*
X101566711Y-122114882D01*
X101620713Y-122193679D01*
X101699345Y-122247532D01*
X101790706Y-122265303D01*
X102122632Y-122265303D01*
X102147574Y-122272806D01*
X102155422Y-122294063D01*
X102155422Y-124531999D01*
X102172790Y-124623533D01*
X102225214Y-124702175D01*
X102302769Y-124755769D01*
X102397406Y-124773800D01*
X102667782Y-124773800D01*
G37*
G36*
X100608465Y-121601185D02*
G01*
X100762545Y-121648118D01*
X100900359Y-121725183D01*
X101024716Y-121834486D01*
X101136929Y-121980638D01*
X101237230Y-122178755D01*
X101316420Y-122436552D01*
X101369413Y-122767641D01*
X101388988Y-123187625D01*
X101369432Y-123608915D01*
X101316275Y-123944118D01*
X101236462Y-124207904D01*
X101134914Y-124413114D01*
X101021130Y-124565648D01*
X100896064Y-124678995D01*
X100758553Y-124758409D01*
X100605887Y-124806511D01*
X100434060Y-124823075D01*
X100262232Y-124806511D01*
X100109566Y-124758409D01*
X99972055Y-124678995D01*
X99846989Y-124565648D01*
X99733205Y-124413114D01*
X99631657Y-124207904D01*
X99551845Y-123944118D01*
X99498687Y-123608915D01*
X99479131Y-123187625D01*
X100241352Y-123187625D01*
X100251610Y-123622133D01*
X100278355Y-123908997D01*
X100319387Y-124077158D01*
X100346794Y-124131910D01*
X100370678Y-124159040D01*
X100434060Y-124179557D01*
X100497624Y-124159040D01*
X100521400Y-124131936D01*
X100548915Y-124077158D01*
X100589948Y-123908997D01*
X100616509Y-123622133D01*
X100626767Y-123187625D01*
X100616509Y-122755316D01*
X100589948Y-122476512D01*
X100546900Y-122318793D01*
X100518091Y-122267914D01*
X100495609Y-122244970D01*
X100434060Y-122228484D01*
X100372693Y-122244970D01*
X100350101Y-122267941D01*
X100321403Y-122318793D01*
X100298626Y-122381997D01*
X100278355Y-122476512D01*
X100251610Y-122755316D01*
X100241352Y-123187625D01*
X99479131Y-123187625D01*
X99498706Y-122767641D01*
X99551699Y-122436552D01*
X99630889Y-122178755D01*
X99731190Y-121980638D01*
X99843403Y-121834486D01*
X99967760Y-121725183D01*
X100105574Y-121648118D01*
X100259654Y-121601185D01*
X100434060Y-121584965D01*
X100608465Y-121601185D01*
G37*
G36*
X98470713Y-124773800D02*
G01*
X98565350Y-124755769D01*
X98642905Y-124702175D01*
X98695185Y-124623547D01*
X98712514Y-124531999D01*
X98712514Y-122294063D01*
X98720362Y-122272806D01*
X98745303Y-122265303D01*
X99077413Y-122265303D01*
X99168806Y-122247538D01*
X99247589Y-122193679D01*
X99301448Y-122114896D01*
X99319213Y-122023503D01*
X99319213Y-121876041D01*
X99301442Y-121784680D01*
X99247589Y-121706048D01*
X99168791Y-121652046D01*
X99077413Y-121634241D01*
X97593637Y-121634241D01*
X97502290Y-121652051D01*
X97423644Y-121706048D01*
X97369647Y-121784694D01*
X97351837Y-121876041D01*
X97351837Y-122023503D01*
X97369642Y-122114882D01*
X97423644Y-122193679D01*
X97502276Y-122247532D01*
X97593637Y-122265303D01*
X97925563Y-122265303D01*
X97950505Y-122272806D01*
X97958353Y-122294063D01*
X97958353Y-124531999D01*
X97975721Y-124623533D01*
X98028145Y-124702175D01*
X98105700Y-124755769D01*
X98200337Y-124773800D01*
X98470713Y-124773800D01*
G37*
G36*
X96380422Y-124773800D02*
G01*
X96474933Y-124755784D01*
X96552613Y-124702175D01*
X96604894Y-124623547D01*
X96622222Y-124531999D01*
X96622222Y-123745049D01*
X96630466Y-123687713D01*
X97212435Y-121863768D01*
X97220678Y-121806249D01*
X97212585Y-121755407D01*
X97187889Y-121707880D01*
X97125295Y-121652608D01*
X97044457Y-121634241D01*
X96757594Y-121634241D01*
X96657116Y-121651157D01*
X96569100Y-121701835D01*
X96502305Y-121778323D01*
X96466518Y-121871828D01*
X96364119Y-122363672D01*
X96245234Y-123035951D01*
X96236990Y-123044194D01*
X96228747Y-123035951D01*
X96101802Y-122363672D01*
X95999220Y-121871828D01*
X95963469Y-121778308D01*
X95896821Y-121701835D01*
X95808677Y-121651144D01*
X95708327Y-121634241D01*
X95429524Y-121634241D01*
X95348686Y-121652608D01*
X95286092Y-121707880D01*
X95261396Y-121755407D01*
X95253302Y-121806249D01*
X95261546Y-121863768D01*
X95859818Y-123687713D01*
X95868062Y-123745049D01*
X95868062Y-124531999D01*
X95885430Y-124623533D01*
X95937854Y-124702175D01*
X96015383Y-124755778D01*
X96109862Y-124773800D01*
X96380422Y-124773800D01*
G37*
G36*
X94896987Y-121652297D02*
G01*
X94974682Y-121706048D01*
X95026957Y-121784525D01*
X95044292Y-121876041D01*
X95044292Y-124531999D01*
X95026963Y-124623547D01*
X94974682Y-124702175D01*
X94897002Y-124755784D01*
X94802491Y-124773800D01*
X94531931Y-124773800D01*
X94437452Y-124755778D01*
X94359923Y-124702175D01*
X94307499Y-124623533D01*
X94290131Y-124531999D01*
X94290131Y-123765565D01*
X94281933Y-123740973D01*
X94257341Y-123732775D01*
X94171245Y-123732775D01*
X93938053Y-123714276D01*
X93737139Y-123661581D01*
X93562887Y-123576997D01*
X93411040Y-123460200D01*
X93289879Y-123315571D01*
X93200119Y-123137568D01*
X93142666Y-122919073D01*
X93121978Y-122650719D01*
X93859653Y-122650719D01*
X93877945Y-122847547D01*
X93925232Y-122980610D01*
X93994956Y-123067727D01*
X94087967Y-123119742D01*
X94212278Y-123138349D01*
X94257341Y-123138349D01*
X94281933Y-123130152D01*
X94290131Y-123105560D01*
X94290131Y-122261273D01*
X94281933Y-122236681D01*
X94257341Y-122228484D01*
X94212278Y-122228484D01*
X94090375Y-122240947D01*
X94003188Y-122274104D01*
X93941718Y-122324838D01*
X93899924Y-122394495D01*
X93870917Y-122498927D01*
X93859653Y-122650719D01*
X93121978Y-122650719D01*
X93140747Y-122397007D01*
X93192682Y-122191490D01*
X93273380Y-122025152D01*
X93381568Y-121891016D01*
X93519221Y-121784676D01*
X93691344Y-121704745D01*
X93905495Y-121653005D01*
X94171245Y-121634241D01*
X94802491Y-121634241D01*
X94896987Y-121652297D01*
G37*
G36*
X92605588Y-124773800D02*
G01*
X92696981Y-124756034D01*
X92775764Y-124702175D01*
X92829623Y-124623392D01*
X92847388Y-124531999D01*
X92847388Y-121876041D01*
X92829617Y-121784680D01*
X92775764Y-121706048D01*
X92696967Y-121652046D01*
X92605588Y-121634241D01*
X91466012Y-121634241D01*
X91374664Y-121652051D01*
X91296019Y-121706048D01*
X91242022Y-121784694D01*
X91224211Y-121876041D01*
X91224211Y-122023503D01*
X91242016Y-122114882D01*
X91296019Y-122193679D01*
X91374650Y-122247532D01*
X91466012Y-122265303D01*
X92060438Y-122265303D01*
X92081855Y-122272478D01*
X92089014Y-122294063D01*
X92089014Y-122822727D01*
X92081855Y-122844311D01*
X92060438Y-122851486D01*
X91609627Y-122851486D01*
X91518248Y-122869291D01*
X91439450Y-122923294D01*
X91385453Y-123001939D01*
X91367643Y-123093287D01*
X91367643Y-123240931D01*
X91385448Y-123332310D01*
X91439450Y-123411108D01*
X91518234Y-123464967D01*
X91609627Y-123482732D01*
X92060438Y-123482732D01*
X92081870Y-123489876D01*
X92089014Y-123511308D01*
X92089014Y-124113977D01*
X92081870Y-124135410D01*
X92060438Y-124142554D01*
X91437435Y-124142554D01*
X91346088Y-124160364D01*
X91267442Y-124214361D01*
X91213445Y-124293007D01*
X91195635Y-124384354D01*
X91195635Y-124531999D01*
X91213440Y-124623378D01*
X91267442Y-124702175D01*
X91346074Y-124756028D01*
X91437435Y-124773800D01*
X92605588Y-124773800D01*
G37*
D11*
X72952032Y-151675228D02*
X72952032Y-152675228D01*
X73309174Y-151103800D02*
X73666317Y-152175228D01*
X73666317Y-152175228D02*
X72737746Y-152175228D01*
X72094889Y-152675228D02*
X71809175Y-152675228D01*
X71809175Y-152675228D02*
X71666318Y-152603800D01*
X71666318Y-152603800D02*
X71594889Y-152532371D01*
X71594889Y-152532371D02*
X71452032Y-152318085D01*
X71452032Y-152318085D02*
X71380603Y-152032371D01*
X71380603Y-152032371D02*
X71380603Y-151460942D01*
X71380603Y-151460942D02*
X71452032Y-151318085D01*
X71452032Y-151318085D02*
X71523461Y-151246657D01*
X71523461Y-151246657D02*
X71666318Y-151175228D01*
X71666318Y-151175228D02*
X71952032Y-151175228D01*
X71952032Y-151175228D02*
X72094889Y-151246657D01*
X72094889Y-151246657D02*
X72166318Y-151318085D01*
X72166318Y-151318085D02*
X72237746Y-151460942D01*
X72237746Y-151460942D02*
X72237746Y-151818085D01*
X72237746Y-151818085D02*
X72166318Y-151960942D01*
X72166318Y-151960942D02*
X72094889Y-152032371D01*
X72094889Y-152032371D02*
X71952032Y-152103800D01*
X71952032Y-152103800D02*
X71666318Y-152103800D01*
X71666318Y-152103800D02*
X71523461Y-152032371D01*
X71523461Y-152032371D02*
X71452032Y-151960942D01*
X71452032Y-151960942D02*
X71380603Y-151818085D01*
X140034174Y-152534228D02*
X140891317Y-152534228D01*
X140462746Y-152534228D02*
X140462746Y-151034228D01*
X140462746Y-151034228D02*
X140605603Y-151248514D01*
X140605603Y-151248514D02*
X140748460Y-151391371D01*
X140748460Y-151391371D02*
X140891317Y-151462800D01*
D12*
G36*
X134629670Y-91125867D02*
G01*
X134716354Y-91173529D01*
X134777081Y-91246394D01*
X134777979Y-91248195D01*
X134784234Y-91265563D01*
X134789621Y-91291740D01*
X134794189Y-91329688D01*
X134797985Y-91382365D01*
X134801055Y-91452731D01*
X134803446Y-91543746D01*
X134805207Y-91658369D01*
X134806384Y-91799562D01*
X134807024Y-91970282D01*
X134807174Y-92173490D01*
X134806883Y-92412147D01*
X134806196Y-92689210D01*
X134805162Y-93007641D01*
X134799215Y-94703088D01*
X134729123Y-94773173D01*
X134663101Y-94823769D01*
X134573975Y-94857715D01*
X134496315Y-94863607D01*
X134396015Y-94854189D01*
X134307044Y-94829136D01*
X134245421Y-94791666D01*
X134244787Y-94791030D01*
X134236688Y-94781892D01*
X134229635Y-94769931D01*
X134223543Y-94752181D01*
X134218329Y-94725678D01*
X134213909Y-94687456D01*
X134210198Y-94634553D01*
X134207112Y-94564002D01*
X134204568Y-94472840D01*
X134202480Y-94358101D01*
X134200766Y-94216823D01*
X134199341Y-94046039D01*
X134198121Y-93842785D01*
X134197022Y-93604097D01*
X134195959Y-93327010D01*
X134194850Y-93008560D01*
X134188914Y-91270083D01*
X134250260Y-91201622D01*
X134325327Y-91143568D01*
X134423010Y-91109939D01*
X134528173Y-91104354D01*
X134629670Y-91125867D01*
G37*
G36*
X140097135Y-91778273D02*
G01*
X139996685Y-91778273D01*
X139996685Y-93005299D01*
X139996685Y-94232325D01*
X140126075Y-94244058D01*
X140216596Y-94257021D01*
X140326461Y-94294904D01*
X140403494Y-94358278D01*
X140452279Y-94451513D01*
X140477399Y-94578978D01*
X140477570Y-94580679D01*
X140480997Y-94655955D01*
X140469828Y-94707589D01*
X140439999Y-94754669D01*
X140385606Y-94806893D01*
X140321309Y-94847408D01*
X140305556Y-94852627D01*
X140274209Y-94858398D01*
X140227338Y-94863204D01*
X140161742Y-94867107D01*
X140074221Y-94870167D01*
X139961575Y-94872446D01*
X139820604Y-94874003D01*
X139648108Y-94874901D01*
X139440886Y-94875199D01*
X139195739Y-94874958D01*
X138909465Y-94874240D01*
X137567359Y-94870157D01*
X137402310Y-94788352D01*
X137320372Y-94743980D01*
X137140695Y-94615980D01*
X136990001Y-94462563D01*
X136873087Y-94289155D01*
X136794751Y-94101182D01*
X136793509Y-94096651D01*
X136783946Y-94035664D01*
X136775822Y-93937421D01*
X136769129Y-93807746D01*
X136763859Y-93652467D01*
X136760004Y-93477410D01*
X136757557Y-93288400D01*
X136756510Y-93091263D01*
X136756855Y-92891826D01*
X136757680Y-92798495D01*
X137383674Y-92798495D01*
X137385190Y-93050222D01*
X137392409Y-93850611D01*
X137457770Y-93968603D01*
X137487873Y-94016673D01*
X137549871Y-94095985D01*
X137611988Y-94156997D01*
X137700846Y-94227400D01*
X138527386Y-94233950D01*
X139353927Y-94240499D01*
X139353927Y-93008122D01*
X139353927Y-91775744D01*
X138550480Y-91782549D01*
X138479004Y-91783145D01*
X138272208Y-91784955D01*
X138103532Y-91787212D01*
X137968225Y-91790772D01*
X137861536Y-91796491D01*
X137778712Y-91805229D01*
X137715003Y-91817840D01*
X137665657Y-91835184D01*
X137625922Y-91858117D01*
X137591046Y-91887496D01*
X137556279Y-91924178D01*
X137516869Y-91969021D01*
X137478081Y-92018336D01*
X137430212Y-92095057D01*
X137401833Y-92161217D01*
X137395932Y-92199316D01*
X137390153Y-92286099D01*
X137386172Y-92415507D01*
X137384007Y-92586614D01*
X137383674Y-92798495D01*
X136757680Y-92798495D01*
X136758586Y-92695915D01*
X136761693Y-92509356D01*
X136766169Y-92337974D01*
X136772008Y-92187596D01*
X136779201Y-92064048D01*
X136787740Y-91973156D01*
X136797617Y-91920746D01*
X136867214Y-91762056D01*
X136983678Y-91586372D01*
X137130402Y-91430098D01*
X137299940Y-91300972D01*
X137484844Y-91206733D01*
X137636213Y-91147638D01*
X138957486Y-91140458D01*
X140278758Y-91133279D01*
X140345632Y-91189550D01*
X140404341Y-91251682D01*
X140463238Y-91361932D01*
X140484294Y-91483009D01*
X140465625Y-91570772D01*
X140410109Y-91652970D01*
X140325185Y-91718767D01*
X140218360Y-91762443D01*
X140116502Y-91775744D01*
X140097135Y-91778273D01*
G37*
G36*
X132009686Y-91145405D02*
G01*
X132033582Y-91154960D01*
X132090514Y-91190017D01*
X132151170Y-91238395D01*
X132239267Y-91317986D01*
X132239267Y-91900188D01*
X132239267Y-92482389D01*
X132147101Y-92667809D01*
X132084971Y-92780648D01*
X132003441Y-92894413D01*
X131897756Y-93008778D01*
X131847772Y-93056238D01*
X131703207Y-93169979D01*
X131549950Y-93253508D01*
X131380129Y-93309702D01*
X131185868Y-93341438D01*
X130959294Y-93351593D01*
X130709948Y-93351920D01*
X130709865Y-93989137D01*
X130709788Y-94113141D01*
X130709281Y-94273413D01*
X130708010Y-94398123D01*
X130705643Y-94492610D01*
X130701847Y-94562214D01*
X130696291Y-94612273D01*
X130688643Y-94648130D01*
X130678570Y-94675121D01*
X130665740Y-94698589D01*
X130664223Y-94701035D01*
X130612123Y-94763830D01*
X130549461Y-94814867D01*
X130522220Y-94829544D01*
X130414529Y-94858391D01*
X130302308Y-94850677D01*
X130197857Y-94808668D01*
X130113476Y-94734627D01*
X130112073Y-94732834D01*
X130099149Y-94714326D01*
X130088977Y-94692408D01*
X130081226Y-94661964D01*
X130075569Y-94617881D01*
X130071677Y-94555043D01*
X130069222Y-94468336D01*
X130067874Y-94352645D01*
X130067307Y-94202855D01*
X130067191Y-94013853D01*
X130067191Y-93351920D01*
X129833302Y-93351920D01*
X129739868Y-93350009D01*
X129482541Y-93321853D01*
X129253475Y-93259786D01*
X129052045Y-93163460D01*
X128877625Y-93032523D01*
X128729591Y-92866627D01*
X128607317Y-92665420D01*
X128515707Y-92482389D01*
X128515790Y-91914231D01*
X128516025Y-91745216D01*
X128516954Y-91607278D01*
X128518956Y-91502491D01*
X128522413Y-91425156D01*
X128527706Y-91369572D01*
X128535214Y-91330039D01*
X128545320Y-91300857D01*
X128558403Y-91276326D01*
X128569796Y-91259627D01*
X128642735Y-91198621D01*
X128744692Y-91165537D01*
X128869545Y-91162612D01*
X128890943Y-91164938D01*
X128968180Y-91180275D01*
X129029343Y-91208254D01*
X129076213Y-91253381D01*
X129110570Y-91320161D01*
X129134194Y-91413100D01*
X129148864Y-91536703D01*
X129156361Y-91695476D01*
X129158465Y-91893924D01*
X129158687Y-92015741D01*
X129159938Y-92139886D01*
X129162809Y-92232019D01*
X129167878Y-92299095D01*
X129175719Y-92348069D01*
X129186911Y-92385896D01*
X129202028Y-92419532D01*
X129234991Y-92472591D01*
X129315703Y-92562361D01*
X129412543Y-92637090D01*
X129509952Y-92683440D01*
X129532807Y-92687792D01*
X129602659Y-92694205D01*
X129706450Y-92699524D01*
X129837686Y-92703743D01*
X129989874Y-92706861D01*
X130156519Y-92708871D01*
X130331126Y-92709769D01*
X130507201Y-92709552D01*
X130678250Y-92708215D01*
X130837779Y-92705753D01*
X130979293Y-92702163D01*
X131096298Y-92697440D01*
X131182300Y-92691580D01*
X131230803Y-92684578D01*
X131310178Y-92651227D01*
X131404591Y-92588986D01*
X131488165Y-92512989D01*
X131544921Y-92435887D01*
X131546286Y-92433175D01*
X131558856Y-92398471D01*
X131569178Y-92347339D01*
X131577776Y-92274198D01*
X131585175Y-92173469D01*
X131591900Y-92039572D01*
X131598477Y-91866929D01*
X131600941Y-91798723D01*
X131606804Y-91657187D01*
X131612992Y-91531873D01*
X131619103Y-91429803D01*
X131624737Y-91357999D01*
X131629494Y-91323483D01*
X131637492Y-91305365D01*
X131685697Y-91251721D01*
X131760298Y-91202684D01*
X131848015Y-91164473D01*
X131935570Y-91143306D01*
X132009686Y-91145405D01*
G37*
G36*
X144495986Y-91024695D02*
G01*
X144495986Y-95127059D01*
X144441584Y-95181462D01*
X144387181Y-95235864D01*
X134492381Y-95235864D01*
X133778340Y-95235862D01*
X133027931Y-95235852D01*
X132319535Y-95235828D01*
X131651935Y-95235785D01*
X131023913Y-95235718D01*
X130434252Y-95235622D01*
X129881736Y-95235492D01*
X129365146Y-95235322D01*
X128883266Y-95235108D01*
X128434879Y-95234844D01*
X128018768Y-95234525D01*
X127633714Y-95234146D01*
X127278502Y-95233701D01*
X126951914Y-95233185D01*
X126652732Y-95232594D01*
X126379740Y-95231922D01*
X126131720Y-95231164D01*
X125907456Y-95230314D01*
X125705729Y-95229368D01*
X125525324Y-95228320D01*
X125365022Y-95227166D01*
X125223607Y-95225899D01*
X125099860Y-95224515D01*
X124992567Y-95223009D01*
X124900508Y-95221375D01*
X124822467Y-95219608D01*
X124757226Y-95217703D01*
X124703569Y-95215655D01*
X124660279Y-95213458D01*
X124626137Y-95211109D01*
X124599927Y-95208600D01*
X124580432Y-95205927D01*
X124566435Y-95203086D01*
X124556718Y-95200070D01*
X124550065Y-95196874D01*
X124545257Y-95193494D01*
X124492932Y-95151125D01*
X124492932Y-91024695D01*
X124792147Y-91024695D01*
X124792147Y-92975131D01*
X124792147Y-94925568D01*
X134488918Y-94925568D01*
X144185690Y-94925568D01*
X144185690Y-92975131D01*
X144185690Y-91024695D01*
X134488918Y-91024695D01*
X124792147Y-91024695D01*
X124492932Y-91024695D01*
X124492932Y-90271117D01*
X125675492Y-90271117D01*
X126605282Y-90271117D01*
X127535073Y-90271117D01*
X128199289Y-89511999D01*
X128310104Y-89385491D01*
X128441156Y-89236256D01*
X128561539Y-89099581D01*
X128668174Y-88978941D01*
X128757983Y-88877808D01*
X128827887Y-88799657D01*
X128874807Y-88747961D01*
X128895665Y-88726195D01*
X128903238Y-88723874D01*
X128920703Y-88730473D01*
X128948290Y-88750817D01*
X128988366Y-88787372D01*
X129043296Y-88842606D01*
X129115446Y-88918986D01*
X129207182Y-89018980D01*
X129320870Y-89145054D01*
X129458876Y-89299676D01*
X129623566Y-89485314D01*
X130319306Y-90271117D01*
X131236060Y-90271117D01*
X131288233Y-90271109D01*
X131508639Y-90270829D01*
X131689076Y-90270059D01*
X131833141Y-90268677D01*
X131944429Y-90266562D01*
X132026537Y-90263591D01*
X132083061Y-90259644D01*
X132117597Y-90254599D01*
X132133741Y-90248334D01*
X132135090Y-90240729D01*
X132134963Y-90240515D01*
X132113206Y-90212593D01*
X132067876Y-90159863D01*
X132005532Y-90089805D01*
X131932731Y-90009899D01*
X131860708Y-89930783D01*
X131790195Y-89851485D01*
X131733962Y-89786304D01*
X131700009Y-89744370D01*
X131677206Y-89716503D01*
X131627814Y-89658347D01*
X131554575Y-89573070D01*
X131460185Y-89463784D01*
X131347340Y-89333601D01*
X131218738Y-89185632D01*
X131077076Y-89022988D01*
X130925051Y-88848780D01*
X130765358Y-88666119D01*
X130759262Y-88659151D01*
X130601270Y-88478264D01*
X130452226Y-88307019D01*
X130314668Y-88148372D01*
X130191136Y-88005281D01*
X130084169Y-87880702D01*
X129996306Y-87777592D01*
X129930087Y-87698910D01*
X129888052Y-87647611D01*
X129872738Y-87626653D01*
X129877676Y-87615809D01*
X129907386Y-87574251D01*
X129960931Y-87506272D01*
X130034919Y-87415989D01*
X130125963Y-87307518D01*
X130230672Y-87184973D01*
X130345656Y-87052471D01*
X130824632Y-86504592D01*
X132678939Y-86517801D01*
X132949448Y-86519755D01*
X133246409Y-86522012D01*
X133504265Y-86524167D01*
X133725904Y-86526299D01*
X133914216Y-86528489D01*
X134072087Y-86530817D01*
X134202408Y-86533365D01*
X134308066Y-86536211D01*
X134391949Y-86539438D01*
X134456947Y-86543124D01*
X134505946Y-86547351D01*
X134541837Y-86552198D01*
X134567507Y-86557747D01*
X134585845Y-86564078D01*
X134599739Y-86571270D01*
X134665981Y-86623334D01*
X134711416Y-86700337D01*
X134725335Y-86803061D01*
X134718269Y-86872838D01*
X134675320Y-86971273D01*
X134592658Y-87050249D01*
X134576638Y-87059505D01*
X134553296Y-87068144D01*
X134519975Y-87075281D01*
X134472382Y-87081159D01*
X134406225Y-87086018D01*
X134317208Y-87090101D01*
X134201039Y-87093649D01*
X134053424Y-87096904D01*
X133870071Y-87100108D01*
X133646685Y-87103501D01*
X133613399Y-87103988D01*
X133384250Y-87107549D01*
X133193715Y-87111262D01*
X133036748Y-87115692D01*
X132908301Y-87121402D01*
X132803327Y-87128956D01*
X132716780Y-87138919D01*
X132643611Y-87151853D01*
X132578775Y-87168322D01*
X132517224Y-87188891D01*
X132453911Y-87214124D01*
X132383790Y-87244583D01*
X132227500Y-87325795D01*
X132023447Y-87470545D01*
X131839597Y-87646610D01*
X131683119Y-87846848D01*
X131561181Y-88064116D01*
X131502199Y-88225126D01*
X131457375Y-88443760D01*
X131441979Y-88679093D01*
X131455940Y-88922159D01*
X131499188Y-89163996D01*
X131571652Y-89395637D01*
X131599460Y-89461627D01*
X131703682Y-89651344D01*
X131834660Y-89825193D01*
X131986223Y-89977522D01*
X132152201Y-90102675D01*
X132326424Y-90194998D01*
X132502720Y-90248836D01*
X132516689Y-90250596D01*
X132579442Y-90254313D01*
X132684454Y-90257696D01*
X132830296Y-90260731D01*
X133015537Y-90263404D01*
X133238748Y-90265703D01*
X133498497Y-90267613D01*
X133793354Y-90269121D01*
X134121889Y-90270215D01*
X134482673Y-90270880D01*
X134874273Y-90271102D01*
X137126440Y-90271087D01*
X137490213Y-89079785D01*
X137536300Y-88929074D01*
X137602082Y-88714729D01*
X137663651Y-88515010D01*
X137719769Y-88333887D01*
X137769196Y-88175330D01*
X137810693Y-88043308D01*
X137843022Y-87941791D01*
X137864944Y-87874749D01*
X137875219Y-87846151D01*
X137877965Y-87840797D01*
X137896341Y-87818297D01*
X137912487Y-87835069D01*
X137917914Y-87850096D01*
X137935603Y-87904733D01*
X137964008Y-87995094D01*
X138001927Y-88117272D01*
X138048156Y-88267361D01*
X138101495Y-88441455D01*
X138160740Y-88635645D01*
X138224689Y-88846026D01*
X138292140Y-89068691D01*
X138655760Y-90271064D01*
X139245283Y-90271091D01*
X139834806Y-90271117D01*
X140209419Y-89052163D01*
X140265638Y-88870027D01*
X140331776Y-88657854D01*
X140393514Y-88462067D01*
X140449641Y-88286386D01*
X140498947Y-88134528D01*
X140540224Y-88010215D01*
X140572261Y-87917163D01*
X140593850Y-87859093D01*
X140603779Y-87839722D01*
X140610390Y-87853117D01*
X140629332Y-87905223D01*
X140658891Y-87993059D01*
X140697858Y-88112839D01*
X140745031Y-88260775D01*
X140799202Y-88433079D01*
X140859165Y-88625963D01*
X140923717Y-88835639D01*
X140991650Y-89058320D01*
X141359774Y-90270403D01*
X142095575Y-90270760D01*
X142831377Y-90271117D01*
X142811183Y-90210166D01*
X142806680Y-90195792D01*
X142789919Y-90141566D01*
X142761865Y-90050513D01*
X142723515Y-89925880D01*
X142675866Y-89770910D01*
X142619913Y-89588850D01*
X142556651Y-89382945D01*
X142487077Y-89156439D01*
X142412188Y-88912578D01*
X142332978Y-88654608D01*
X142250444Y-88385772D01*
X142165582Y-88109317D01*
X142079387Y-87828487D01*
X141992856Y-87546529D01*
X141906985Y-87266686D01*
X141822769Y-86992204D01*
X141741205Y-86726328D01*
X141663289Y-86472304D01*
X141590016Y-86233377D01*
X141522382Y-86012791D01*
X141461384Y-85813792D01*
X141408017Y-85639625D01*
X141363277Y-85493536D01*
X141328161Y-85378769D01*
X141303664Y-85298570D01*
X141290782Y-85256183D01*
X141285747Y-85246124D01*
X141273396Y-85237247D01*
X141249403Y-85230527D01*
X141209100Y-85225739D01*
X141147818Y-85222661D01*
X141060888Y-85221066D01*
X140943641Y-85220730D01*
X140791408Y-85221428D01*
X140599519Y-85222937D01*
X139920028Y-85228796D01*
X139595428Y-86292671D01*
X139580576Y-86341278D01*
X139517423Y-86546392D01*
X139457965Y-86737031D01*
X139403499Y-86909197D01*
X139355322Y-87058895D01*
X139314730Y-87182129D01*
X139283019Y-87274903D01*
X139261486Y-87333220D01*
X139251427Y-87353085D01*
X139246394Y-87344430D01*
X139228636Y-87298288D01*
X139199908Y-87215522D01*
X139161342Y-87099701D01*
X139114073Y-86954397D01*
X139059236Y-86783179D01*
X138997963Y-86589619D01*
X138931391Y-86377287D01*
X138860652Y-86149753D01*
X138786881Y-85910589D01*
X138711211Y-85663364D01*
X138634778Y-85411650D01*
X138576132Y-85217714D01*
X137895002Y-85217714D01*
X137213871Y-85217714D01*
X136638184Y-87096117D01*
X136062496Y-88974520D01*
X134655114Y-88980333D01*
X134517574Y-88980848D01*
X134209755Y-88981535D01*
X133944685Y-88981384D01*
X133721246Y-88980381D01*
X133538320Y-88978512D01*
X133394788Y-88975764D01*
X133289534Y-88972121D01*
X133221438Y-88967571D01*
X133189384Y-88962100D01*
X133142860Y-88938888D01*
X133061549Y-88869135D01*
X133014193Y-88782570D01*
X133001098Y-88687664D01*
X133022570Y-88592886D01*
X133078914Y-88506706D01*
X133170437Y-88437595D01*
X133182049Y-88431513D01*
X133207062Y-88419626D01*
X133234232Y-88410079D01*
X133268243Y-88402615D01*
X133313782Y-88396979D01*
X133375535Y-88392914D01*
X133458186Y-88390163D01*
X133566423Y-88388470D01*
X133704931Y-88387579D01*
X133878395Y-88387232D01*
X134091502Y-88387173D01*
X134161042Y-88387146D01*
X134394172Y-88386419D01*
X134589491Y-88384327D01*
X134752134Y-88380365D01*
X134887236Y-88374029D01*
X134999932Y-88364814D01*
X135095357Y-88352215D01*
X135178647Y-88335728D01*
X135254936Y-88314848D01*
X135329360Y-88289070D01*
X135407054Y-88257889D01*
X135555673Y-88185101D01*
X135761525Y-88045456D01*
X135941775Y-87874319D01*
X136092096Y-87676789D01*
X136208157Y-87457965D01*
X136285631Y-87222948D01*
X136301071Y-87143952D01*
X136311510Y-87046245D01*
X136314900Y-86929112D01*
X136311971Y-86780280D01*
X136306612Y-86658395D01*
X136298108Y-86555197D01*
X136284589Y-86468845D01*
X136263761Y-86385018D01*
X136233329Y-86289392D01*
X136223353Y-86260603D01*
X136117338Y-86016392D01*
X135982876Y-85803735D01*
X135817358Y-85618423D01*
X135790708Y-85593471D01*
X135630280Y-85462045D01*
X135464051Y-85361156D01*
X135275742Y-85280654D01*
X135131676Y-85228809D01*
X132604974Y-85224259D01*
X130078273Y-85219710D01*
X129513089Y-85871259D01*
X129487045Y-85901241D01*
X129361352Y-86044695D01*
X129244915Y-86175597D01*
X129140989Y-86290421D01*
X129052829Y-86385641D01*
X128983692Y-86457731D01*
X128936833Y-86503166D01*
X128915507Y-86518419D01*
X128913334Y-86517482D01*
X128886422Y-86493714D01*
X128834660Y-86440744D01*
X128761387Y-86362228D01*
X128669942Y-86261825D01*
X128563662Y-86143193D01*
X128445887Y-86009989D01*
X128319955Y-85865872D01*
X127756802Y-85217714D01*
X126825859Y-85217714D01*
X125894916Y-85217714D01*
X126037710Y-85378404D01*
X126066479Y-85410816D01*
X126192859Y-85553955D01*
X126330705Y-85711136D01*
X126477312Y-85879197D01*
X126629974Y-86054971D01*
X126785986Y-86235295D01*
X126942642Y-86417005D01*
X127097236Y-86596936D01*
X127247062Y-86771924D01*
X127389415Y-86938804D01*
X127521589Y-87094412D01*
X127640879Y-87235583D01*
X127744578Y-87359154D01*
X127829982Y-87461960D01*
X127894383Y-87540836D01*
X127935078Y-87592617D01*
X127949359Y-87614141D01*
X127949302Y-87614632D01*
X127933307Y-87638969D01*
X127890503Y-87693789D01*
X127823143Y-87776427D01*
X127733481Y-87884217D01*
X127623771Y-88014495D01*
X127496268Y-88164595D01*
X127353226Y-88331853D01*
X127196898Y-88513603D01*
X127029540Y-88707180D01*
X126853404Y-88909920D01*
X126845522Y-88918970D01*
X126668693Y-89122082D01*
X126499769Y-89316223D01*
X126341108Y-89498677D01*
X126195068Y-89666726D01*
X126064006Y-89817655D01*
X125950279Y-89948747D01*
X125856247Y-90057286D01*
X125784265Y-90140557D01*
X125736693Y-90195842D01*
X125715887Y-90220426D01*
X125675492Y-90271117D01*
X124492932Y-90271117D01*
X124492932Y-89841831D01*
X124492934Y-89450397D01*
X124492946Y-88907117D01*
X124492983Y-88405376D01*
X124493059Y-87943510D01*
X124493188Y-87519856D01*
X124493383Y-87132750D01*
X124493658Y-86780528D01*
X124494027Y-86461525D01*
X124494504Y-86174078D01*
X124495102Y-85916522D01*
X124495836Y-85687194D01*
X124496719Y-85484430D01*
X124497765Y-85306565D01*
X124498988Y-85151935D01*
X124500402Y-85018877D01*
X124502020Y-84905726D01*
X124503856Y-84810818D01*
X124505925Y-84732490D01*
X124508239Y-84669077D01*
X124510813Y-84618915D01*
X124513660Y-84580341D01*
X124516795Y-84551690D01*
X124520231Y-84531298D01*
X124523981Y-84517501D01*
X124528061Y-84508636D01*
X124532482Y-84503037D01*
X124537260Y-84499042D01*
X124538449Y-84498314D01*
X124547214Y-84495660D01*
X124563631Y-84493149D01*
X124588882Y-84490780D01*
X124624151Y-84488546D01*
X124670620Y-84486445D01*
X124729474Y-84484472D01*
X124801895Y-84482623D01*
X124889066Y-84480895D01*
X124992170Y-84479282D01*
X125112391Y-84477781D01*
X125250911Y-84476388D01*
X125408914Y-84475099D01*
X125587583Y-84473909D01*
X125788101Y-84472815D01*
X126011651Y-84471813D01*
X126259416Y-84470898D01*
X126532579Y-84470067D01*
X126832323Y-84469315D01*
X127159832Y-84468638D01*
X127516289Y-84468032D01*
X127902876Y-84467494D01*
X128320777Y-84467019D01*
X128771175Y-84466603D01*
X129255254Y-84466241D01*
X129774195Y-84465931D01*
X130329182Y-84465667D01*
X130921399Y-84465447D01*
X131552029Y-84465265D01*
X132222254Y-84465117D01*
X132933258Y-84465000D01*
X133686224Y-84464910D01*
X134482335Y-84464841D01*
X134540646Y-84464837D01*
X135375041Y-84464810D01*
X136166053Y-84464844D01*
X136914570Y-84464942D01*
X137621477Y-84465106D01*
X138287660Y-84465337D01*
X138914006Y-84465639D01*
X139501400Y-84466013D01*
X140050729Y-84466462D01*
X140562878Y-84466988D01*
X141038734Y-84467593D01*
X141479182Y-84468280D01*
X141885109Y-84469050D01*
X142257401Y-84469906D01*
X142596943Y-84470850D01*
X142904623Y-84471884D01*
X143181325Y-84473011D01*
X143427936Y-84474233D01*
X143645342Y-84475551D01*
X143834429Y-84476969D01*
X143996083Y-84478488D01*
X144131190Y-84480111D01*
X144240636Y-84481840D01*
X144325308Y-84483677D01*
X144386090Y-84485624D01*
X144423870Y-84487684D01*
X144439533Y-84489858D01*
X144495986Y-84515580D01*
X144495986Y-89821319D01*
X144495986Y-90271117D01*
X144495986Y-91024695D01*
G37*
M02*
